solid OpenSCAD_Model
  facet normal 0 0 -1
    outer loop
      vertex 12 0 0
      vertex 15 3 0
      vertex 13.7634 0.572952 0
    endloop
  endfacet
  facet normal 0 0 -1
    outer loop
      vertex 22.862 6.35861 0
      vertex 25 9.23209 0
      vertex 24.3864 7.41409 0
    endloop
  endfacet
  facet normal 0 0 -1
    outer loop
      vertex 137 0 0
      vertex 140 3 0
      vertex 138.763 0.572952 0
    endloop
  endfacet
  facet normal 0 0 -1
    outer loop
      vertex 157.578 21.5781 0
      vertex 162 129 0
      vertex 162 25 0
    endloop
  endfacet
  facet normal 0 0 -1
    outer loop
      vertex 159 22 0
      vertex 162 25 0
      vertex 160.763 22.573 0
    endloop
  endfacet
  facet normal 0 0 -1
    outer loop
      vertex 162 25 0
      vertex 159 22 0
      vertex 158.597 22 0
    endloop
  endfacet
  facet normal 0 0 -1
    outer loop
      vertex 157.578 21.5781 0
      vertex 162 25 0
      vertex 158.597 22 0
    endloop
  endfacet
  facet normal -0 0 -1
    outer loop
      vertex 162 129 0
      vertex 157.578 21.5781 0
      vertex 159 132 0
    endloop
  endfacet
  facet normal 0 0 -1
    outer loop
      vertex 162 129 0
      vertex 159 132 0
      vertex 161.427 130.763 0
    endloop
  endfacet
  facet normal 0 0 -1
    outer loop
      vertex 54.6545 20.9579 0
      vertex 157.578 21.5781 0
      vertex 140.422 4.42194 0
    endloop
  endfacet
  facet normal 0 0 -1
    outer loop
      vertex 137 0 0
      vertex 140.422 4.42194 0
      vertex 140 3.40327 0
    endloop
  endfacet
  facet normal -0 0 -1
    outer loop
      vertex 140 3 0
      vertex 137 0 0
      vertex 140 3.40327 0
    endloop
  endfacet
  facet normal 0 0 -1
    outer loop
      vertex 68 0 0
      vertex 140.422 4.42194 0
      vertex 137 0 0
    endloop
  endfacet
  facet normal 0 0 -1
    outer loop
      vertex 140.422 4.42194 0
      vertex 68 0 0
      vertex 64.8617 3.91718 0
    endloop
  endfacet
  facet normal 0 0 -1
    outer loop
      vertex 65 3 0
      vertex 68 0 0
      vertex 65.573 1.23665 0
    endloop
  endfacet
  facet normal 0 0 -1
    outer loop
      vertex 68 0 0
      vertex 65 3 0
      vertex 65 3.50735 0
    endloop
  endfacet
  facet normal 0 0 -1
    outer loop
      vertex 64.8617 3.91718 0
      vertex 68 0 0
      vertex 65 3.50735 0
    endloop
  endfacet
  facet normal -0 0 -1
    outer loop
      vertex 140.422 4.42194 0
      vertex 64.8617 3.91718 0
      vertex 55 20.2798 0
    endloop
  endfacet
  facet normal 0 0 -1
    outer loop
      vertex 55 20.2798 0
      vertex 64.8617 3.91718 0
      vertex 64.5449 4.13655 0
    endloop
  endfacet
  facet normal 0 0 -1
    outer loop
      vertex 55 9.23209 0
      vertex 64.5449 4.13655 0
      vertex 57.138 6.35861 0
    endloop
  endfacet
  facet normal 0 0 -1
    outer loop
      vertex 55 9.23209 0
      vertex 57.138 6.35861 0
      vertex 55.573 7.46873 0
    endloop
  endfacet
  facet normal 0 0 -1
    outer loop
      vertex 64.5449 4.13655 0
      vertex 55 9.23209 0
      vertex 55 20.2798 0
    endloop
  endfacet
  facet normal 0 0 -1
    outer loop
      vertex 140.422 4.42194 0
      vertex 55 20.2798 0
      vertex 54.6545 20.9579 0
    endloop
  endfacet
  facet normal -0 0 -1
    outer loop
      vertex 157.578 21.5781 0
      vertex 54.6545 20.9579 0
      vertex 159 132 0
    endloop
  endfacet
  facet normal 0 0 -1
    outer loop
      vertex 54.5248 21 0
      vertex 159 132 0
      vertex 54.6545 20.9579 0
    endloop
  endfacet
  facet normal 0 0 -1
    outer loop
      vertex 0 129 0
      vertex 54.5248 21 0
      vertex 25.7202 21 0
    endloop
  endfacet
  facet normal 0 0 -1
    outer loop
      vertex 0 129 0
      vertex 25.7202 21 0
      vertex 25.0421 20.6545 0
    endloop
  endfacet
  facet normal 0 0 -1
    outer loop
      vertex 15.4719 4.14157 0
      vertex 25 9.23209 0
      vertex 22.862 6.35861 0
    endloop
  endfacet
  facet normal -0 0 -1
    outer loop
      vertex 25 9.23209 0
      vertex 15.4719 4.14157 0
      vertex 25 20.5248 0
    endloop
  endfacet
  facet normal 0 0 -1
    outer loop
      vertex 0 3 0
      vertex 25 20.5248 0
      vertex 15.4719 4.14157 0
    endloop
  endfacet
  facet normal 0 0 -1
    outer loop
      vertex 0 3 0
      vertex 15.4719 4.14157 0
      vertex 15.1191 3.8913 0
    endloop
  endfacet
  facet normal -0 0 -1
    outer loop
      vertex 15 3 0
      vertex 12 0 0
      vertex 15 3.52484 0
    endloop
  endfacet
  facet normal -0 0 -1
    outer loop
      vertex 15 3.52484 0
      vertex 12 0 0
      vertex 15.1191 3.8913 0
    endloop
  endfacet
  facet normal 0 0 -1
    outer loop
      vertex 3 0 0
      vertex 15.1191 3.8913 0
      vertex 12 0 0
    endloop
  endfacet
  facet normal 0 0 -1
    outer loop
      vertex 15.1191 3.8913 0
      vertex 3 0 0
      vertex 0 3 0
    endloop
  endfacet
  facet normal 0 0 -1
    outer loop
      vertex 54.5248 21 0
      vertex 3 132 0
      vertex 159 132 0
    endloop
  endfacet
  facet normal -0 0 -1
    outer loop
      vertex 25 20.5248 0
      vertex 0 3 0
      vertex 25.0421 20.6545 0
    endloop
  endfacet
  facet normal 0 0 -1
    outer loop
      vertex 54.5248 21 0
      vertex 0 129 0
      vertex 3 132 0
    endloop
  endfacet
  facet normal 0 0 -1
    outer loop
      vertex 0 3 0
      vertex 3 0 0
      vertex 0.572952 1.23665 0
    endloop
  endfacet
  facet normal -0 0 -1
    outer loop
      vertex 25.0421 20.6545 0
      vertex 0 3 0
      vertex 0 129 0
    endloop
  endfacet
  facet normal 0 0 -1
    outer loop
      vertex 3 132 0
      vertex 0 129 0
      vertex 1.23665 131.427 0
    endloop
  endfacet
  facet normal 0 0 1
    outer loop
      vertex 157 130 0.799999
      vertex 160 127 0.799999
      vertex 159.427 128.763 0.799999
    endloop
  endfacet
  facet normal 0 0 1
    outer loop
      vertex 160 127 0.799999
      vertex 157 130 0.799999
      vertex 160 27 0.799999
    endloop
  endfacet
  facet normal 0 0 1
    outer loop
      vertex 160 27 0.799999
      vertex 157.254 24.0826 0.799999
      vertex 158.763 24.573 0.799999
    endloop
  endfacet
  facet normal 0 0 1
    outer loop
      vertex 57 23 0.799999
      vertex 160 27 0.799999
      vertex 157 130 0.799999
    endloop
  endfacet
  facet normal 0 0 1
    outer loop
      vertex 160 27 0.799999
      vertex 57 23 0.799999
      vertex 157.254 24.0826 0.799999
    endloop
  endfacet
  facet normal 0 0 1
    outer loop
      vertex 157.254 24.0826 0.799999
      vertex 57 23 0.799999
      vertex 137.822 4.65019 0.799999
    endloop
  endfacet
  facet normal 0 0 1
    outer loop
      vertex 137.822 4.65019 0.799999
      vertex 135 2 0.799999
      vertex 136.763 2.57295 0.799999
    endloop
  endfacet
  facet normal 0 0 1
    outer loop
      vertex 137.822 4.65019 0.799999
      vertex 57 23 0.799999
      vertex 135 2 0.799999
    endloop
  endfacet
  facet normal -0 -0 1
    outer loop
      vertex 67 5.48807 0.799999
      vertex 135 2 0.799999
      vertex 57 23 0.799999
    endloop
  endfacet
  facet normal -0 0 1
    outer loop
      vertex 67 5 0.799999
      vertex 70 2 0.799999
      vertex 67 5.48807 0.799999
    endloop
  endfacet
  facet normal 0 0 1
    outer loop
      vertex 135 2 0.799999
      vertex 67 5.48807 0.799999
      vertex 70 2 0.799999
    endloop
  endfacet
  facet normal -0 0 1
    outer loop
      vertex 57 10.7202 0.799999
      vertex 67 5.48807 0.799999
      vertex 57 23 0.799999
    endloop
  endfacet
  facet normal 0 0 1
    outer loop
      vertex 67 5.48807 0.799999
      vertex 57 10.7202 0.799999
      vertex 59.138 7.84668 0.799999
    endloop
  endfacet
  facet normal -0 0 1
    outer loop
      vertex 5 130 0.799999
      vertex 57 23 0.799999
      vertex 157 130 0.799999
    endloop
  endfacet
  facet normal 0 0 1
    outer loop
      vertex 13 5.48807 0.799999
      vertex 23 10.7202 0.799999
      vertex 23 23 0.799999
    endloop
  endfacet
  facet normal 0 0 1
    outer loop
      vertex 23 10.7202 0.799999
      vertex 20.862 7.84668 0.799999
      vertex 22.3864 8.90216 0.799999
    endloop
  endfacet
  facet normal 0 0 1
    outer loop
      vertex 23 10.7202 0.799999
      vertex 13 5.48807 0.799999
      vertex 20.862 7.84668 0.799999
    endloop
  endfacet
  facet normal 0 0 1
    outer loop
      vertex 10 2 0.799999
      vertex 13 5 0.799999
      vertex 13 5.48807 0.799999
    endloop
  endfacet
  facet normal 0 0 1
    outer loop
      vertex 13 5 0.799999
      vertex 10 2 0.799999
      vertex 11.7634 2.57295 0.799999
    endloop
  endfacet
  facet normal 0 0 1
    outer loop
      vertex 2 5 0.799999
      vertex 13 5.48807 0.799999
      vertex 23 23 0.799999
    endloop
  endfacet
  facet normal -0 0 1
    outer loop
      vertex 2 127 0.799999
      vertex 57 23 0.799999
      vertex 5 130 0.799999
    endloop
  endfacet
  facet normal 0 0 1
    outer loop
      vertex 57 23 0.799999
      vertex 2 127 0.799999
      vertex 23 23 0.799999
    endloop
  endfacet
  facet normal 0 0 1
    outer loop
      vertex 2 5 0.799999
      vertex 23 23 0.799999
      vertex 2 127 0.799999
    endloop
  endfacet
  facet normal 0 0 1
    outer loop
      vertex 2 127 0.799999
      vertex 5 130 0.799999
      vertex 3.23665 129.427 0.799999
    endloop
  endfacet
  facet normal 0 -0 1
    outer loop
      vertex 5 2 0.799999
      vertex 13 5.48807 0.799999
      vertex 2 5 0.799999
    endloop
  endfacet
  facet normal 0 0 1
    outer loop
      vertex 13 5.48807 0.799999
      vertex 5 2 0.799999
      vertex 10 2 0.799999
    endloop
  endfacet
  facet normal 0 0 1
    outer loop
      vertex 5 2 0.799999
      vertex 2 5 0.799999
      vertex 2.57295 3.23665 0.799999
    endloop
  endfacet
  facet normal 0 0 1
    outer loop
      vertex 70 2 0.799999
      vertex 67 5 0.799999
      vertex 67.573 3.23665 0.799999
    endloop
  endfacet
  facet normal 0 0 1
    outer loop
      vertex 59.138 7.84668 0.799999
      vertex 57 10.7202 0.799999
      vertex 57.573 8.9568 0.799999
    endloop
  endfacet
  facet normal 0.891013 -0.453978 0
    outer loop
      vertex 13.7634 0.572952 35
      vertex 15 3 0
      vertex 15 3 35
    endloop
  endfacet
  facet normal 0.891013 -0.453978 0
    outer loop
      vertex 15 3 0
      vertex 13.7634 0.572952 35
      vertex 13.7634 0.572952 0
    endloop
  endfacet
  facet normal 1 -0 0
    outer loop
      vertex 15 3 35
      vertex 15 3.52484 0
      vertex 15 3.52484 35
    endloop
  endfacet
  facet normal 1 0 0
    outer loop
      vertex 15 3.52484 0
      vertex 15 3 35
      vertex 15 3 0
    endloop
  endfacet
  facet normal 0.951034 -0.309087 0
    outer loop
      vertex 15 3.52484 35
      vertex 15.1191 3.8913 0
      vertex 15.1191 3.8913 35
    endloop
  endfacet
  facet normal 0.951034 -0.309087 0
    outer loop
      vertex 15.1191 3.8913 0
      vertex 15 3.52484 35
      vertex 15 3.52484 0
    endloop
  endfacet
  facet normal 0.578587 -0.815621 0
    outer loop
      vertex 15.1191 3.8913 0
      vertex 15.4719 4.14157 35
      vertex 15.1191 3.8913 35
    endloop
  endfacet
  facet normal 0.578587 -0.815621 0
    outer loop
      vertex 15.4719 4.14157 35
      vertex 15.1191 3.8913 0
      vertex 15.4719 4.14157 0
    endloop
  endfacet
  facet normal 0.287349 -0.957826 0
    outer loop
      vertex 15.4719 4.14157 0
      vertex 22.862 6.35861 35
      vertex 15.4719 4.14157 35
    endloop
  endfacet
  facet normal 0.287349 -0.957826 0
    outer loop
      vertex 22.862 6.35861 35
      vertex 15.4719 4.14157 0
      vertex 22.862 6.35861 0
    endloop
  endfacet
  facet normal 0.569256 -0.82216 0
    outer loop
      vertex 22.862 6.35861 0
      vertex 24.3864 7.41409 35
      vertex 22.862 6.35861 35
    endloop
  endfacet
  facet normal 0.569256 -0.82216 0
    outer loop
      vertex 24.3864 7.41409 35
      vertex 22.862 6.35861 0
      vertex 24.3864 7.41409 0
    endloop
  endfacet
  facet normal 0.947488 -0.31979 0
    outer loop
      vertex 24.3864 7.41409 35
      vertex 25 9.23209 0
      vertex 25 9.23209 35
    endloop
  endfacet
  facet normal 0.947488 -0.31979 0
    outer loop
      vertex 25 9.23209 0
      vertex 24.3864 7.41409 35
      vertex 24.3864 7.41409 0
    endloop
  endfacet
  facet normal 1 -0 0
    outer loop
      vertex 25 9.23209 35
      vertex 25 20.5248 0
      vertex 25 20.5248 35
    endloop
  endfacet
  facet normal 1 0 0
    outer loop
      vertex 25 20.5248 0
      vertex 25 9.23209 35
      vertex 25 9.23209 0
    endloop
  endfacet
  facet normal 0.951147 -0.308738 0
    outer loop
      vertex 25 20.5248 35
      vertex 25.0421 20.6545 0
      vertex 25.0421 20.6545 35
    endloop
  endfacet
  facet normal 0.951147 -0.308738 0
    outer loop
      vertex 25.0421 20.6545 0
      vertex 25 20.5248 35
      vertex 25 20.5248 0
    endloop
  endfacet
  facet normal 0.453981 -0.891011 0
    outer loop
      vertex 25.0421 20.6545 0
      vertex 25.7202 21 35
      vertex 25.0421 20.6545 35
    endloop
  endfacet
  facet normal 0.453981 -0.891011 0
    outer loop
      vertex 25.7202 21 35
      vertex 25.0421 20.6545 0
      vertex 25.7202 21 0
    endloop
  endfacet
  facet normal 0 -1 0
    outer loop
      vertex 25.7202 21 0
      vertex 54.5248 21 35
      vertex 25.7202 21 35
    endloop
  endfacet
  facet normal 0 -1 -0
    outer loop
      vertex 54.5248 21 35
      vertex 25.7202 21 0
      vertex 54.5248 21 0
    endloop
  endfacet
  facet normal -0.308738 -0.951147 0
    outer loop
      vertex 54.5248 21 0
      vertex 54.6545 20.9579 35
      vertex 54.5248 21 35
    endloop
  endfacet
  facet normal -0.308738 -0.951147 -0
    outer loop
      vertex 54.6545 20.9579 35
      vertex 54.5248 21 0
      vertex 54.6545 20.9579 0
    endloop
  endfacet
  facet normal -0.891011 -0.453981 0
    outer loop
      vertex 55 20.2798 0
      vertex 54.6545 20.9579 35
      vertex 54.6545 20.9579 0
    endloop
  endfacet
  facet normal -0.891011 -0.453981 0
    outer loop
      vertex 54.6545 20.9579 35
      vertex 55 20.2798 0
      vertex 55 20.2798 35
    endloop
  endfacet
  facet normal -1 0 0
    outer loop
      vertex 55 9.23209 0
      vertex 55 20.2798 35
      vertex 55 20.2798 0
    endloop
  endfacet
  facet normal -1 -0 0
    outer loop
      vertex 55 20.2798 35
      vertex 55 9.23209 0
      vertex 55 9.23209 35
    endloop
  endfacet
  facet normal -0.951049 -0.309041 0
    outer loop
      vertex 55.573 7.46873 0
      vertex 55 9.23209 35
      vertex 55 9.23209 0
    endloop
  endfacet
  facet normal -0.951049 -0.309041 0
    outer loop
      vertex 55 9.23209 35
      vertex 55.573 7.46873 0
      vertex 55.573 7.46873 35
    endloop
  endfacet
  facet normal -0.578565 -0.815636 0
    outer loop
      vertex 55.573 7.46873 0
      vertex 57.138 6.35861 35
      vertex 55.573 7.46873 35
    endloop
  endfacet
  facet normal -0.578565 -0.815636 -0
    outer loop
      vertex 57.138 6.35861 35
      vertex 55.573 7.46873 0
      vertex 57.138 6.35861 0
    endloop
  endfacet
  facet normal -0.287347 -0.957827 0
    outer loop
      vertex 57.138 6.35861 0
      vertex 64.5449 4.13655 35
      vertex 57.138 6.35861 35
    endloop
  endfacet
  facet normal -0.287347 -0.957827 -0
    outer loop
      vertex 64.5449 4.13655 35
      vertex 57.138 6.35861 0
      vertex 64.5449 4.13655 0
    endloop
  endfacet
  facet normal -0.569292 -0.822135 0
    outer loop
      vertex 64.5449 4.13655 0
      vertex 64.8617 3.91718 35
      vertex 64.5449 4.13655 35
    endloop
  endfacet
  facet normal -0.569292 -0.822135 -0
    outer loop
      vertex 64.8617 3.91718 35
      vertex 64.5449 4.13655 0
      vertex 64.8617 3.91718 0
    endloop
  endfacet
  facet normal -0.947505 -0.319742 0
    outer loop
      vertex 65 3.50735 0
      vertex 64.8617 3.91718 35
      vertex 64.8617 3.91718 0
    endloop
  endfacet
  facet normal -0.947505 -0.319742 0
    outer loop
      vertex 64.8617 3.91718 35
      vertex 65 3.50735 0
      vertex 65 3.50735 35
    endloop
  endfacet
  facet normal -1 0 0
    outer loop
      vertex 65 3 0
      vertex 65 3.50735 35
      vertex 65 3.50735 0
    endloop
  endfacet
  facet normal -1 -0 0
    outer loop
      vertex 65 3.50735 35
      vertex 65 3 0
      vertex 65 3 35
    endloop
  endfacet
  facet normal -0.951048 -0.309043 0
    outer loop
      vertex 65.573 1.23665 0
      vertex 65 3 35
      vertex 65 3 0
    endloop
  endfacet
  facet normal -0.951048 -0.309043 0
    outer loop
      vertex 65 3 35
      vertex 65.573 1.23665 0
      vertex 65.573 1.23665 35
    endloop
  endfacet
  facet normal -0.454 -0.891002 0
    outer loop
      vertex 65.573 1.23665 0
      vertex 68 0 35
      vertex 65.573 1.23665 35
    endloop
  endfacet
  facet normal -0.454 -0.891002 -0
    outer loop
      vertex 68 0 35
      vertex 65.573 1.23665 0
      vertex 68 0 0
    endloop
  endfacet
  facet normal 0 -1 0
    outer loop
      vertex 68 0 0
      vertex 137 0 35
      vertex 68 0 35
    endloop
  endfacet
  facet normal 0 -1 -0
    outer loop
      vertex 137 0 35
      vertex 68 0 0
      vertex 137 0 0
    endloop
  endfacet
  facet normal 0.309075 -0.951038 0
    outer loop
      vertex 137 0 0
      vertex 138.763 0.572952 35
      vertex 137 0 35
    endloop
  endfacet
  facet normal 0.309075 -0.951038 0
    outer loop
      vertex 138.763 0.572952 35
      vertex 137 0 0
      vertex 138.763 0.572952 0
    endloop
  endfacet
  facet normal 0.890953 -0.454095 0
    outer loop
      vertex 138.763 0.572952 35
      vertex 140 3 0
      vertex 140 3 35
    endloop
  endfacet
  facet normal 0.890953 -0.454095 0
    outer loop
      vertex 140 3 0
      vertex 138.763 0.572952 35
      vertex 138.763 0.572952 0
    endloop
  endfacet
  facet normal 1 -0 0
    outer loop
      vertex 140 3 35
      vertex 140 3.40327 0
      vertex 140 3.40327 35
    endloop
  endfacet
  facet normal 1 0 0
    outer loop
      vertex 140 3.40327 0
      vertex 140 3 35
      vertex 140 3 0
    endloop
  endfacet
  facet normal 0.923863 -0.382725 0
    outer loop
      vertex 140 3.40327 35
      vertex 140.422 4.42194 0
      vertex 140.422 4.42194 35
    endloop
  endfacet
  facet normal 0.923863 -0.382725 0
    outer loop
      vertex 140.422 4.42194 0
      vertex 140 3.40327 35
      vertex 140 3.40327 0
    endloop
  endfacet
  facet normal 0.70711 -0.707103 0
    outer loop
      vertex 140.422 4.42194 35
      vertex 157.578 21.5781 0
      vertex 157.578 21.5781 35
    endloop
  endfacet
  facet normal 0.70711 -0.707103 0
    outer loop
      vertex 157.578 21.5781 0
      vertex 140.422 4.42194 35
      vertex 140.422 4.42194 0
    endloop
  endfacet
  facet normal 0.382541 -0.923938 0
    outer loop
      vertex 157.578 21.5781 0
      vertex 158.597 22 35
      vertex 157.578 21.5781 35
    endloop
  endfacet
  facet normal 0.382541 -0.923938 0
    outer loop
      vertex 158.597 22 35
      vertex 157.578 21.5781 0
      vertex 158.597 22 0
    endloop
  endfacet
  facet normal 0 -1 0
    outer loop
      vertex 158.597 22 0
      vertex 159 22 35
      vertex 158.597 22 35
    endloop
  endfacet
  facet normal 0 -1 -0
    outer loop
      vertex 159 22 35
      vertex 158.597 22 0
      vertex 159 22 0
    endloop
  endfacet
  facet normal 0.309098 -0.95103 0
    outer loop
      vertex 159 22 0
      vertex 160.763 22.573 35
      vertex 159 22 35
    endloop
  endfacet
  facet normal 0.309098 -0.95103 0
    outer loop
      vertex 160.763 22.573 35
      vertex 159 22 0
      vertex 160.763 22.573 0
    endloop
  endfacet
  facet normal 0.89095 -0.454102 0
    outer loop
      vertex 160.763 22.573 35
      vertex 162 25 0
      vertex 162 25 35
    endloop
  endfacet
  facet normal 0.89095 -0.454102 0
    outer loop
      vertex 162 25 0
      vertex 160.763 22.573 35
      vertex 160.763 22.573 0
    endloop
  endfacet
  facet normal 1 -0 0
    outer loop
      vertex 162 25 35
      vertex 162 129 0
      vertex 162 129 35
    endloop
  endfacet
  facet normal 1 0 0
    outer loop
      vertex 162 129 0
      vertex 162 25 35
      vertex 162 25 0
    endloop
  endfacet
  facet normal 0.95103 0.309098 0
    outer loop
      vertex 162 129 35
      vertex 161.427 130.763 0
      vertex 161.427 130.763 35
    endloop
  endfacet
  facet normal 0.95103 0.309098 0
    outer loop
      vertex 161.427 130.763 0
      vertex 162 129 35
      vertex 162 129 0
    endloop
  endfacet
  facet normal 0.454102 0.89095 -0
    outer loop
      vertex 161.427 130.763 0
      vertex 159 132 35
      vertex 161.427 130.763 35
    endloop
  endfacet
  facet normal 0.454102 0.89095 0
    outer loop
      vertex 159 132 35
      vertex 161.427 130.763 0
      vertex 159 132 0
    endloop
  endfacet
  facet normal 0 1 -0
    outer loop
      vertex 159 132 0
      vertex 3 132 35
      vertex 159 132 35
    endloop
  endfacet
  facet normal 0 1 0
    outer loop
      vertex 3 132 35
      vertex 159 132 0
      vertex 3 132 0
    endloop
  endfacet
  facet normal -0.309043 0.951048 0
    outer loop
      vertex 3 132 0
      vertex 1.23665 131.427 35
      vertex 3 132 35
    endloop
  endfacet
  facet normal -0.309043 0.951048 0
    outer loop
      vertex 1.23665 131.427 35
      vertex 3 132 0
      vertex 1.23665 131.427 0
    endloop
  endfacet
  facet normal -0.891002 0.454 0
    outer loop
      vertex 0 129 0
      vertex 1.23665 131.427 35
      vertex 1.23665 131.427 0
    endloop
  endfacet
  facet normal -0.891002 0.454 0
    outer loop
      vertex 1.23665 131.427 35
      vertex 0 129 0
      vertex 0 129 35
    endloop
  endfacet
  facet normal -1 0 0
    outer loop
      vertex 0 3 0
      vertex 0 129 35
      vertex 0 129 0
    endloop
  endfacet
  facet normal -1 -0 0
    outer loop
      vertex 0 129 35
      vertex 0 3 0
      vertex 0 3 35
    endloop
  endfacet
  facet normal -0.951056 -0.309019 0
    outer loop
      vertex 0.572952 1.23665 0
      vertex 0 3 35
      vertex 0 3 0
    endloop
  endfacet
  facet normal -0.951056 -0.309019 0
    outer loop
      vertex 0 3 35
      vertex 0.572952 1.23665 0
      vertex 0.572952 1.23665 35
    endloop
  endfacet
  facet normal -0.453993 -0.891005 0
    outer loop
      vertex 0.572952 1.23665 0
      vertex 3 0 35
      vertex 0.572952 1.23665 35
    endloop
  endfacet
  facet normal -0.453993 -0.891005 -0
    outer loop
      vertex 3 0 35
      vertex 0.572952 1.23665 0
      vertex 3 0 0
    endloop
  endfacet
  facet normal 0 -1 0
    outer loop
      vertex 3 0 0
      vertex 12 0 35
      vertex 3 0 35
    endloop
  endfacet
  facet normal 0 -1 -0
    outer loop
      vertex 12 0 35
      vertex 3 0 0
      vertex 12 0 0
    endloop
  endfacet
  facet normal 0.309011 -0.951058 0
    outer loop
      vertex 12 0 0
      vertex 13.7634 0.572952 35
      vertex 12 0 35
    endloop
  endfacet
  facet normal 0.309011 -0.951058 0
    outer loop
      vertex 13.7634 0.572952 35
      vertex 12 0 0
      vertex 13.7634 0.572952 0
    endloop
  endfacet
  facet normal -0 0 1
    outer loop
      vertex 55 20.2798 35
      vertex 57 10.7202 35
      vertex 57 23 35
    endloop
  endfacet
  facet normal 0 0 1
    outer loop
      vertex 57 10.7202 35
      vertex 55 20.2798 35
      vertex 55 9.23209 35
    endloop
  endfacet
  facet normal 0 0 1
    outer loop
      vertex 57 23 35
      vertex 54.6545 20.9579 35
      vertex 55 20.2798 35
    endloop
  endfacet
  facet normal 0 0 1
    outer loop
      vertex 57 23 35
      vertex 54.5248 21 35
      vertex 54.6545 20.9579 35
    endloop
  endfacet
  facet normal 0 0 1
    outer loop
      vertex 57 23 35
      vertex 25.7202 21 35
      vertex 54.5248 21 35
    endloop
  endfacet
  facet normal -0 0 1
    outer loop
      vertex 23 10.7202 35
      vertex 25 9.23209 35
      vertex 25 20.5248 35
    endloop
  endfacet
  facet normal -0 0 1
    outer loop
      vertex 23 23 35
      vertex 25.7202 21 35
      vertex 57 23 35
    endloop
  endfacet
  facet normal 0 0 1
    outer loop
      vertex 23 23 35
      vertex 25.0421 20.6545 35
      vertex 25.7202 21 35
    endloop
  endfacet
  facet normal 0 0 1
    outer loop
      vertex 23 23 35
      vertex 25 20.5248 35
      vertex 25.0421 20.6545 35
    endloop
  endfacet
  facet normal 0 0 1
    outer loop
      vertex 23 10.7202 35
      vertex 25 20.5248 35
      vertex 23 23 35
    endloop
  endfacet
  facet normal 0 0 1
    outer loop
      vertex 22.3864 8.90216 35
      vertex 25 9.23209 35
      vertex 23 10.7202 35
    endloop
  endfacet
  facet normal 0 0 1
    outer loop
      vertex 25 9.23209 35
      vertex 22.3864 8.90216 35
      vertex 24.3864 7.41409 35
    endloop
  endfacet
  facet normal 0 0 1
    outer loop
      vertex 24.3864 7.41409 35
      vertex 22.3864 8.90216 35
      vertex 22.862 6.35861 35
    endloop
  endfacet
  facet normal -0 0 1
    outer loop
      vertex 20.862 7.84668 35
      vertex 22.862 6.35861 35
      vertex 22.3864 8.90216 35
    endloop
  endfacet
  facet normal 0 0 1
    outer loop
      vertex 20.862 7.84668 35
      vertex 15.4719 4.14157 35
      vertex 22.862 6.35861 35
    endloop
  endfacet
  facet normal 0 0 1
    outer loop
      vertex 11.7634 2.57295 35
      vertex 15 3 35
      vertex 15 3.52484 35
    endloop
  endfacet
  facet normal 0 0 1
    outer loop
      vertex 13 5 35
      vertex 15 3.52484 35
      vertex 15.1191 3.8913 35
    endloop
  endfacet
  facet normal -0 0 1
    outer loop
      vertex 13 5.48807 35
      vertex 15.4719 4.14157 35
      vertex 20.862 7.84668 35
    endloop
  endfacet
  facet normal -0 0 1
    outer loop
      vertex 13 5 35
      vertex 15.4719 4.14157 35
      vertex 13 5.48807 35
    endloop
  endfacet
  facet normal 0 0 1
    outer loop
      vertex 15.4719 4.14157 35
      vertex 13 5 35
      vertex 15.1191 3.8913 35
    endloop
  endfacet
  facet normal 0 0 1
    outer loop
      vertex 15 3.52484 35
      vertex 13 5 35
      vertex 11.7634 2.57295 35
    endloop
  endfacet
  facet normal 0 0 1
    outer loop
      vertex 15 3 35
      vertex 11.7634 2.57295 35
      vertex 13.7634 0.572952 35
    endloop
  endfacet
  facet normal 0 0 1
    outer loop
      vertex 13.7634 0.572952 35
      vertex 11.7634 2.57295 35
      vertex 12 0 35
    endloop
  endfacet
  facet normal -0 0 1
    outer loop
      vertex 10 2 35
      vertex 12 0 35
      vertex 11.7634 2.57295 35
    endloop
  endfacet
  facet normal -0 0 1
    outer loop
      vertex 5 2 35
      vertex 12 0 35
      vertex 10 2 35
    endloop
  endfacet
  facet normal 0 0 1
    outer loop
      vertex 5 2 35
      vertex 3 0 35
      vertex 12 0 35
    endloop
  endfacet
  facet normal 0 0 1
    outer loop
      vertex 2.57295 3.23665 35
      vertex 3 0 35
      vertex 5 2 35
    endloop
  endfacet
  facet normal 0 0 1
    outer loop
      vertex 0.572952 1.23665 35
      vertex 2.57295 3.23665 35
      vertex 2 5 35
    endloop
  endfacet
  facet normal 0 0 1
    outer loop
      vertex 2.57295 3.23665 35
      vertex 0.572952 1.23665 35
      vertex 3 0 35
    endloop
  endfacet
  facet normal 0 0 1
    outer loop
      vertex 2 127 35
      vertex 0.572952 1.23665 35
      vertex 2 5 35
    endloop
  endfacet
  facet normal 0 0 1
    outer loop
      vertex 2 127 35
      vertex 0 129 35
      vertex 0 3 35
    endloop
  endfacet
  facet normal 0 0 1
    outer loop
      vertex 2 127 35
      vertex 0 3 35
      vertex 0.572952 1.23665 35
    endloop
  endfacet
  facet normal 0 0 1
    outer loop
      vertex 64.8617 3.91718 35
      vertex 67 5 35
      vertex 67 5.48807 35
    endloop
  endfacet
  facet normal 0 0 1
    outer loop
      vertex 67 5 35
      vertex 65 3.50735 35
      vertex 65 3 35
    endloop
  endfacet
  facet normal 0 0 1
    outer loop
      vertex 67 5 35
      vertex 64.8617 3.91718 35
      vertex 65 3.50735 35
    endloop
  endfacet
  facet normal 0 0 1
    outer loop
      vertex 67 5.48807 35
      vertex 64.5449 4.13655 35
      vertex 64.8617 3.91718 35
    endloop
  endfacet
  facet normal 0 0 1
    outer loop
      vertex 59.138 7.84668 35
      vertex 64.5449 4.13655 35
      vertex 67 5.48807 35
    endloop
  endfacet
  facet normal 0 0 1
    outer loop
      vertex 59.138 7.84668 35
      vertex 57.138 6.35861 35
      vertex 64.5449 4.13655 35
    endloop
  endfacet
  facet normal 0 0 1
    outer loop
      vertex 57.573 8.9568 35
      vertex 57.138 6.35861 35
      vertex 59.138 7.84668 35
    endloop
  endfacet
  facet normal 0 0 1
    outer loop
      vertex 55.573 7.46873 35
      vertex 57.573 8.9568 35
      vertex 57 10.7202 35
    endloop
  endfacet
  facet normal 0 0 1
    outer loop
      vertex 57.573 8.9568 35
      vertex 55.573 7.46873 35
      vertex 57.138 6.35861 35
    endloop
  endfacet
  facet normal 0 0 1
    outer loop
      vertex 159.427 128.763 35
      vertex 162 129 35
      vertex 161.427 130.763 35
    endloop
  endfacet
  facet normal 0 0 1
    outer loop
      vertex 162 129 35
      vertex 160 127 35
      vertex 162 25 35
    endloop
  endfacet
  facet normal 0 0 1
    outer loop
      vertex 162 25 35
      vertex 160 127 35
      vertex 160 27 35
    endloop
  endfacet
  facet normal 0 0 1
    outer loop
      vertex 162 129 35
      vertex 159.427 128.763 35
      vertex 160 127 35
    endloop
  endfacet
  facet normal 0 0 1
    outer loop
      vertex 159 132 35
      vertex 159.427 128.763 35
      vertex 161.427 130.763 35
    endloop
  endfacet
  facet normal 0 0 1
    outer loop
      vertex 159 132 35
      vertex 157 130 35
      vertex 159.427 128.763 35
    endloop
  endfacet
  facet normal 0 0 1
    outer loop
      vertex 159 132 35
      vertex 5 130 35
      vertex 157 130 35
    endloop
  endfacet
  facet normal -0 0 1
    outer loop
      vertex 3 132 35
      vertex 5 130 35
      vertex 159 132 35
    endloop
  endfacet
  facet normal 0 0 1
    outer loop
      vertex 3 132 35
      vertex 3.23665 129.427 35
      vertex 5 130 35
    endloop
  endfacet
  facet normal -0 0 1
    outer loop
      vertex 1.23665 131.427 35
      vertex 3.23665 129.427 35
      vertex 3 132 35
    endloop
  endfacet
  facet normal 0 0 1
    outer loop
      vertex 3.23665 129.427 35
      vertex 0 129 35
      vertex 2 127 35
    endloop
  endfacet
  facet normal 0 0 1
    outer loop
      vertex 0 129 35
      vertex 3.23665 129.427 35
      vertex 1.23665 131.427 35
    endloop
  endfacet
  facet normal 0 0 1
    outer loop
      vertex 158.763 24.573 35
      vertex 162 25 35
      vertex 160 27 35
    endloop
  endfacet
  facet normal 0 0 1
    outer loop
      vertex 162 25 35
      vertex 158.763 24.573 35
      vertex 160.763 22.573 35
    endloop
  endfacet
  facet normal 0 0 1
    outer loop
      vertex 160.763 22.573 35
      vertex 158.763 24.573 35
      vertex 159 22 35
    endloop
  endfacet
  facet normal 0 0 1
    outer loop
      vertex 158.763 24.573 35
      vertex 158.597 22 35
      vertex 159 22 35
    endloop
  endfacet
  facet normal -0 0 1
    outer loop
      vertex 157.254 24.0826 35
      vertex 158.597 22 35
      vertex 158.763 24.573 35
    endloop
  endfacet
  facet normal 0 0 1
    outer loop
      vertex 158.597 22 35
      vertex 157.254 24.0826 35
      vertex 157.578 21.5781 35
    endloop
  endfacet
  facet normal 0 0 1
    outer loop
      vertex 157.254 24.0826 35
      vertex 140.422 4.42194 35
      vertex 157.578 21.5781 35
    endloop
  endfacet
  facet normal 0 0 1
    outer loop
      vertex 137.822 4.65019 35
      vertex 140 3 35
      vertex 140 3.40327 35
    endloop
  endfacet
  facet normal 0 0 1
    outer loop
      vertex 137.822 4.65019 35
      vertex 140 3.40327 35
      vertex 140.422 4.42194 35
    endloop
  endfacet
  facet normal -0 0 1
    outer loop
      vertex 137.822 4.65019 35
      vertex 140.422 4.42194 35
      vertex 157.254 24.0826 35
    endloop
  endfacet
  facet normal 0 0 1
    outer loop
      vertex 140 3 35
      vertex 137.822 4.65019 35
      vertex 136.763 2.57295 35
    endloop
  endfacet
  facet normal 0 0 1
    outer loop
      vertex 140 3 35
      vertex 136.763 2.57295 35
      vertex 138.763 0.572952 35
    endloop
  endfacet
  facet normal 0 0 1
    outer loop
      vertex 138.763 0.572952 35
      vertex 136.763 2.57295 35
      vertex 137 0 35
    endloop
  endfacet
  facet normal -0 0 1
    outer loop
      vertex 135 2 35
      vertex 137 0 35
      vertex 136.763 2.57295 35
    endloop
  endfacet
  facet normal -0 0 1
    outer loop
      vertex 70 2 35
      vertex 137 0 35
      vertex 135 2 35
    endloop
  endfacet
  facet normal 0 0 1
    outer loop
      vertex 70 2 35
      vertex 68 0 35
      vertex 137 0 35
    endloop
  endfacet
  facet normal 0 0 1
    outer loop
      vertex 67.573 3.23665 35
      vertex 68 0 35
      vertex 70 2 35
    endloop
  endfacet
  facet normal 0 0 1
    outer loop
      vertex 65.573 1.23665 35
      vertex 67.573 3.23665 35
      vertex 67 5 35
    endloop
  endfacet
  facet normal 0 0 1
    outer loop
      vertex 67.573 3.23665 35
      vertex 65.573 1.23665 35
      vertex 68 0 35
    endloop
  endfacet
  facet normal 0 0 1
    outer loop
      vertex 67 5 35
      vertex 65 3 35
      vertex 65.573 1.23665 35
    endloop
  endfacet
  facet normal 0 0 1
    outer loop
      vertex 57 10.7202 35
      vertex 55 9.23209 35
      vertex 55.573 7.46873 35
    endloop
  endfacet
  facet normal 0.453992 0.891006 -0
    outer loop
      vertex 5 2 0.799999
      vertex 2.57295 3.23665 35
      vertex 5 2 35
    endloop
  endfacet
  facet normal 0.453992 0.891006 0
    outer loop
      vertex 2.57295 3.23665 35
      vertex 5 2 0.799999
      vertex 2.57295 3.23665 0.799999
    endloop
  endfacet
  facet normal 0.951056 0.309018 0
    outer loop
      vertex 2.57295 3.23665 35
      vertex 2 5 0.799999
      vertex 2 5 35
    endloop
  endfacet
  facet normal 0.951056 0.309018 0
    outer loop
      vertex 2 5 0.799999
      vertex 2.57295 3.23665 35
      vertex 2.57295 3.23665 0.799999
    endloop
  endfacet
  facet normal 1 -0 0
    outer loop
      vertex 2 5 35
      vertex 2 127 0.799999
      vertex 2 127 35
    endloop
  endfacet
  facet normal 1 0 0
    outer loop
      vertex 2 127 0.799999
      vertex 2 5 35
      vertex 2 5 0.799999
    endloop
  endfacet
  facet normal 0.891002 -0.454 0
    outer loop
      vertex 2 127 35
      vertex 3.23665 129.427 0.799999
      vertex 3.23665 129.427 35
    endloop
  endfacet
  facet normal 0.891002 -0.454 0
    outer loop
      vertex 3.23665 129.427 0.799999
      vertex 2 127 35
      vertex 2 127 0.799999
    endloop
  endfacet
  facet normal 0.309043 -0.951048 0
    outer loop
      vertex 3.23665 129.427 0.799999
      vertex 5 130 35
      vertex 3.23665 129.427 35
    endloop
  endfacet
  facet normal 0.309043 -0.951048 0
    outer loop
      vertex 5 130 35
      vertex 3.23665 129.427 0.799999
      vertex 5 130 0.799999
    endloop
  endfacet
  facet normal 0 -1 0
    outer loop
      vertex 5 130 0.799999
      vertex 157 130 35
      vertex 5 130 35
    endloop
  endfacet
  facet normal 0 -1 -0
    outer loop
      vertex 157 130 35
      vertex 5 130 0.799999
      vertex 157 130 0.799999
    endloop
  endfacet
  facet normal -0.454102 -0.89095 0
    outer loop
      vertex 157 130 0.799999
      vertex 159.427 128.763 35
      vertex 157 130 35
    endloop
  endfacet
  facet normal -0.454102 -0.89095 -0
    outer loop
      vertex 159.427 128.763 35
      vertex 157 130 0.799999
      vertex 159.427 128.763 0.799999
    endloop
  endfacet
  facet normal -0.95103 -0.309098 0
    outer loop
      vertex 160 127 0.799999
      vertex 159.427 128.763 35
      vertex 159.427 128.763 0.799999
    endloop
  endfacet
  facet normal -0.95103 -0.309098 0
    outer loop
      vertex 159.427 128.763 35
      vertex 160 127 0.799999
      vertex 160 127 35
    endloop
  endfacet
  facet normal -1 0 0
    outer loop
      vertex 160 27 0.799999
      vertex 160 127 35
      vertex 160 127 0.799999
    endloop
  endfacet
  facet normal -1 -0 0
    outer loop
      vertex 160 127 35
      vertex 160 27 0.799999
      vertex 160 27 35
    endloop
  endfacet
  facet normal -0.89095 0.454102 0
    outer loop
      vertex 158.763 24.573 0.799999
      vertex 160 27 35
      vertex 160 27 0.799999
    endloop
  endfacet
  facet normal -0.89095 0.454102 0
    outer loop
      vertex 160 27 35
      vertex 158.763 24.573 0.799999
      vertex 158.763 24.573 35
    endloop
  endfacet
  facet normal -0.309072 0.951039 0
    outer loop
      vertex 158.763 24.573 0.799999
      vertex 157.254 24.0826 35
      vertex 158.763 24.573 35
    endloop
  endfacet
  facet normal -0.309072 0.951039 0
    outer loop
      vertex 157.254 24.0826 35
      vertex 158.763 24.573 0.799999
      vertex 157.254 24.0826 0.799999
    endloop
  endfacet
  facet normal -0.707114 0.707099 0
    outer loop
      vertex 137.822 4.65019 0.799999
      vertex 157.254 24.0826 35
      vertex 157.254 24.0826 0.799999
    endloop
  endfacet
  facet normal -0.707114 0.707099 0
    outer loop
      vertex 157.254 24.0826 35
      vertex 137.822 4.65019 0.799999
      vertex 137.822 4.65019 35
    endloop
  endfacet
  facet normal -0.890904 0.454193 0
    outer loop
      vertex 136.763 2.57295 0.799999
      vertex 137.822 4.65019 35
      vertex 137.822 4.65019 0.799999
    endloop
  endfacet
  facet normal -0.890904 0.454193 0
    outer loop
      vertex 137.822 4.65019 35
      vertex 136.763 2.57295 0.799999
      vertex 136.763 2.57295 35
    endloop
  endfacet
  facet normal -0.309074 0.951038 0
    outer loop
      vertex 136.763 2.57295 0.799999
      vertex 135 2 35
      vertex 136.763 2.57295 35
    endloop
  endfacet
  facet normal -0.309074 0.951038 0
    outer loop
      vertex 135 2 35
      vertex 136.763 2.57295 0.799999
      vertex 135 2 0.799999
    endloop
  endfacet
  facet normal 0 1 -0
    outer loop
      vertex 135 2 0.799999
      vertex 70 2 35
      vertex 135 2 35
    endloop
  endfacet
  facet normal 0 1 0
    outer loop
      vertex 70 2 35
      vertex 135 2 0.799999
      vertex 70 2 0.799999
    endloop
  endfacet
  facet normal 0.454 0.891002 -0
    outer loop
      vertex 70 2 0.799999
      vertex 67.573 3.23665 35
      vertex 70 2 35
    endloop
  endfacet
  facet normal 0.454 0.891002 0
    outer loop
      vertex 67.573 3.23665 35
      vertex 70 2 0.799999
      vertex 67.573 3.23665 0.799999
    endloop
  endfacet
  facet normal 0.951048 0.309043 0
    outer loop
      vertex 67.573 3.23665 35
      vertex 67 5 0.799999
      vertex 67 5 35
    endloop
  endfacet
  facet normal 0.951048 0.309043 0
    outer loop
      vertex 67 5 0.799999
      vertex 67.573 3.23665 35
      vertex 67.573 3.23665 0.799999
    endloop
  endfacet
  facet normal 1 -0 0
    outer loop
      vertex 67 5 35
      vertex 67 5.48807 0.799999
      vertex 67 5.48807 35
    endloop
  endfacet
  facet normal 1 0 0
    outer loop
      vertex 67 5.48807 0.799999
      vertex 67 5 35
      vertex 67 5 0.799999
    endloop
  endfacet
  facet normal 0.287349 0.957826 -0
    outer loop
      vertex 67 5.48807 0.799999
      vertex 59.138 7.84668 35
      vertex 67 5.48807 35
    endloop
  endfacet
  facet normal 0.287349 0.957826 0
    outer loop
      vertex 59.138 7.84668 35
      vertex 67 5.48807 0.799999
      vertex 59.138 7.84668 0.799999
    endloop
  endfacet
  facet normal 0.578565 0.815636 -0
    outer loop
      vertex 59.138 7.84668 0.799999
      vertex 57.573 8.9568 35
      vertex 59.138 7.84668 35
    endloop
  endfacet
  facet normal 0.578565 0.815636 0
    outer loop
      vertex 57.573 8.9568 35
      vertex 59.138 7.84668 0.799999
      vertex 57.573 8.9568 0.799999
    endloop
  endfacet
  facet normal 0.951051 0.309035 0
    outer loop
      vertex 57.573 8.9568 35
      vertex 57 10.7202 0.799999
      vertex 57 10.7202 35
    endloop
  endfacet
  facet normal 0.951051 0.309035 0
    outer loop
      vertex 57 10.7202 0.799999
      vertex 57.573 8.9568 35
      vertex 57.573 8.9568 0.799999
    endloop
  endfacet
  facet normal 1 -0 0
    outer loop
      vertex 57 10.7202 35
      vertex 57 23 0.799999
      vertex 57 23 35
    endloop
  endfacet
  facet normal 1 0 0
    outer loop
      vertex 57 23 0.799999
      vertex 57 10.7202 35
      vertex 57 10.7202 0.799999
    endloop
  endfacet
  facet normal 0 1 -0
    outer loop
      vertex 57 23 0.799999
      vertex 23 23 35
      vertex 57 23 35
    endloop
  endfacet
  facet normal 0 1 0
    outer loop
      vertex 23 23 35
      vertex 57 23 0.799999
      vertex 23 23 0.799999
    endloop
  endfacet
  facet normal -1 0 0
    outer loop
      vertex 23 10.7202 0.799999
      vertex 23 23 35
      vertex 23 23 0.799999
    endloop
  endfacet
  facet normal -1 -0 0
    outer loop
      vertex 23 23 35
      vertex 23 10.7202 0.799999
      vertex 23 10.7202 35
    endloop
  endfacet
  facet normal -0.94749 0.319784 0
    outer loop
      vertex 22.3864 8.90216 0.799999
      vertex 23 10.7202 35
      vertex 23 10.7202 0.799999
    endloop
  endfacet
  facet normal -0.94749 0.319784 0
    outer loop
      vertex 23 10.7202 35
      vertex 22.3864 8.90216 0.799999
      vertex 22.3864 8.90216 35
    endloop
  endfacet
  facet normal -0.569256 0.82216 0
    outer loop
      vertex 22.3864 8.90216 0.799999
      vertex 20.862 7.84668 35
      vertex 22.3864 8.90216 35
    endloop
  endfacet
  facet normal -0.569256 0.82216 0
    outer loop
      vertex 20.862 7.84668 35
      vertex 22.3864 8.90216 0.799999
      vertex 20.862 7.84668 0.799999
    endloop
  endfacet
  facet normal -0.287349 0.957826 0
    outer loop
      vertex 20.862 7.84668 0.799999
      vertex 13 5.48807 35
      vertex 20.862 7.84668 35
    endloop
  endfacet
  facet normal -0.287349 0.957826 0
    outer loop
      vertex 13 5.48807 35
      vertex 20.862 7.84668 0.799999
      vertex 13 5.48807 0.799999
    endloop
  endfacet
  facet normal -1 0 0
    outer loop
      vertex 13 5 0.799999
      vertex 13 5.48807 35
      vertex 13 5.48807 0.799999
    endloop
  endfacet
  facet normal -1 -0 0
    outer loop
      vertex 13 5.48807 35
      vertex 13 5 0.799999
      vertex 13 5 35
    endloop
  endfacet
  facet normal -0.891013 0.453978 0
    outer loop
      vertex 11.7634 2.57295 0.799999
      vertex 13 5 35
      vertex 13 5 0.799999
    endloop
  endfacet
  facet normal -0.891013 0.453978 0
    outer loop
      vertex 13 5 35
      vertex 11.7634 2.57295 0.799999
      vertex 11.7634 2.57295 35
    endloop
  endfacet
  facet normal -0.30901 0.951059 0
    outer loop
      vertex 11.7634 2.57295 0.799999
      vertex 10 2 35
      vertex 11.7634 2.57295 35
    endloop
  endfacet
  facet normal -0.30901 0.951059 0
    outer loop
      vertex 10 2 35
      vertex 11.7634 2.57295 0.799999
      vertex 10 2 0.799999
    endloop
  endfacet
  facet normal 0 1 -0
    outer loop
      vertex 10 2 0.799999
      vertex 5 2 35
      vertex 10 2 35
    endloop
  endfacet
  facet normal 0 1 0
    outer loop
      vertex 5 2 35
      vertex 10 2 0.799999
      vertex 5 2 0.799999
    endloop
  endfacet
endsolid OpenSCAD_Model
