solid OpenSCAD_Model
  facet normal -1.000000 0.000000 0.000000
    outer loop
      vertex 0.000000 100.000000 2.000000
      vertex 0.000000 100.000000 0.000000
      vertex 0.000000 5.000000 2.000000
    endloop
  endfacet
  facet normal -1.000000 0.000000 -0.000000
    outer loop
      vertex 0.000000 0.000000 0.000000
      vertex 0.000000 0.000000 10.000000
      vertex 0.000000 5.000000 2.000000
    endloop
  endfacet
  facet normal -1.000000 -0.000000 0.000000
    outer loop
      vertex 0.000000 0.000000 0.000000
      vertex 0.000000 5.000000 2.000000
      vertex 0.000000 100.000000 0.000000
    endloop
  endfacet
  facet normal -1.000000 0.000000 0.000000
    outer loop
      vertex 0.000000 5.000000 2.000000
      vertex 0.000000 0.000000 10.000000
      vertex 0.000000 5.000000 10.000000
    endloop
  endfacet
  facet normal 0.000000 -1.000000 0.000000
    outer loop
      vertex 0.000000 0.000000 10.000000
      vertex 0.000000 0.000000 0.000000
      vertex 100.000000 0.000000 0.000000
    endloop
  endfacet
  facet normal 0.000000 -1.000000 0.000000
    outer loop
      vertex 10.000000 0.000000 10.000000
      vertex 0.000000 0.000000 10.000000
      vertex 100.000000 0.000000 0.000000
    endloop
  endfacet
  facet normal 0.000000 -1.000000 0.000000
    outer loop
      vertex 100.000000 0.000000 20.000000
      vertex 91.000000 0.000000 19.000000
      vertex 100.000000 0.000000 0.000000
    endloop
  endfacet
  facet normal 0.000000 -1.000000 0.000000
    outer loop
      vertex 28.000000 0.000000 13.000000
      vertex 28.000000 0.000000 12.000000
      vertex 37.000000 0.000000 13.000000
    endloop
  endfacet
  facet normal 0.000000 -1.000000 0.000000
    outer loop
      vertex 82.000000 0.000000 19.000000
      vertex 82.000000 0.000000 18.000000
      vertex 91.000000 0.000000 19.000000
    endloop
  endfacet
  facet normal 0.000000 -1.000000 0.000000
    outer loop
      vertex 91.000000 0.000000 19.000000
      vertex 82.000000 0.000000 18.000000
      vertex 100.000000 0.000000 0.000000
    endloop
  endfacet
  facet normal 0.000000 -1.000000 0.000000
    outer loop
      vertex 82.000000 0.000000 18.000000
      vertex 73.000000 0.000000 17.000000
      vertex 100.000000 0.000000 0.000000
    endloop
  endfacet
  facet normal 0.000000 -1.000000 0.000000
    outer loop
      vertex 73.000000 0.000000 17.000000
      vertex 64.000000 0.000000 16.000000
      vertex 100.000000 0.000000 0.000000
    endloop
  endfacet
  facet normal 0.000000 -1.000000 0.000000
    outer loop
      vertex 19.000000 0.000000 12.000000
      vertex 19.000000 0.000000 11.000000
      vertex 28.000000 0.000000 12.000000
    endloop
  endfacet
  facet normal 0.000000 -1.000000 0.000000
    outer loop
      vertex 64.000000 0.000000 17.000000
      vertex 64.000000 0.000000 16.000000
      vertex 73.000000 0.000000 17.000000
    endloop
  endfacet
  facet normal 0.000000 -1.000000 0.000000
    outer loop
      vertex 64.000000 0.000000 16.000000
      vertex 55.000000 0.000000 15.000000
      vertex 100.000000 0.000000 0.000000
    endloop
  endfacet
  facet normal 0.000000 -1.000000 0.000000
    outer loop
      vertex 55.000000 0.000000 15.000000
      vertex 46.000000 0.000000 14.000000
      vertex 100.000000 0.000000 0.000000
    endloop
  endfacet
  facet normal 0.000000 -1.000000 0.000000
    outer loop
      vertex 46.000000 0.000000 14.000000
      vertex 37.000000 0.000000 13.000000
      vertex 100.000000 0.000000 0.000000
    endloop
  endfacet
  facet normal 0.000000 -1.000000 0.000000
    outer loop
      vertex 10.000000 0.000000 11.000000
      vertex 10.000000 0.000000 10.000000
      vertex 19.000000 0.000000 11.000000
    endloop
  endfacet
  facet normal 0.000000 -1.000000 0.000000
    outer loop
      vertex 46.000000 0.000000 15.000000
      vertex 46.000000 0.000000 14.000000
      vertex 55.000000 0.000000 15.000000
    endloop
  endfacet
  facet normal 0.000000 -1.000000 0.000000
    outer loop
      vertex 37.000000 0.000000 13.000000
      vertex 28.000000 0.000000 12.000000
      vertex 100.000000 0.000000 0.000000
    endloop
  endfacet
  facet normal 0.000000 -1.000000 0.000000
    outer loop
      vertex 28.000000 0.000000 12.000000
      vertex 19.000000 0.000000 11.000000
      vertex 100.000000 0.000000 0.000000
    endloop
  endfacet
  facet normal 0.000000 -1.000000 0.000000
    outer loop
      vertex 19.000000 0.000000 11.000000
      vertex 10.000000 0.000000 10.000000
      vertex 100.000000 0.000000 0.000000
    endloop
  endfacet
  facet normal 0.000000 -1.000000 0.000000
    outer loop
      vertex 37.000000 0.000000 14.000000
      vertex 37.000000 0.000000 13.000000
      vertex 46.000000 0.000000 14.000000
    endloop
  endfacet
  facet normal 0.000000 -1.000000 0.000000
    outer loop
      vertex 55.000000 0.000000 16.000000
      vertex 55.000000 0.000000 15.000000
      vertex 64.000000 0.000000 16.000000
    endloop
  endfacet
  facet normal 0.000000 -1.000000 0.000000
    outer loop
      vertex 73.000000 0.000000 18.000000
      vertex 73.000000 0.000000 17.000000
      vertex 82.000000 0.000000 18.000000
    endloop
  endfacet
  facet normal 0.000000 -1.000000 0.000000
    outer loop
      vertex 91.000000 0.000000 20.000000
      vertex 91.000000 0.000000 19.000000
      vertex 100.000000 0.000000 20.000000
    endloop
  endfacet
  facet normal 0.000000 0.000000 -1.000000
    outer loop
      vertex 5.000000 5.000000 0.000000
      vertex 95.000000 5.000000 0.000000
      vertex 100.000000 0.000000 0.000000
    endloop
  endfacet
  facet normal 0.000000 -0.000000 -1.000000
    outer loop
      vertex 5.000000 95.000000 0.000000
      vertex 0.000000 100.000000 0.000000
      vertex 100.000000 100.000000 0.000000
    endloop
  endfacet
  facet normal 0.000000 -0.000000 -1.000000
    outer loop
      vertex 0.000000 0.000000 0.000000
      vertex 0.000000 100.000000 0.000000
      vertex 5.000000 95.000000 0.000000
    endloop
  endfacet
  facet normal 0.000000 -0.000000 -1.000000
    outer loop
      vertex 95.000000 95.000000 0.000000
      vertex 5.000000 95.000000 0.000000
      vertex 100.000000 100.000000 0.000000
    endloop
  endfacet
  facet normal 0.000000 0.000000 -1.000000
    outer loop
      vertex 0.000000 0.000000 0.000000
      vertex 5.000000 95.000000 0.000000
      vertex 5.000000 5.000000 0.000000
    endloop
  endfacet
  facet normal -0.000000 0.000000 -1.000000
    outer loop
      vertex 0.000000 0.000000 0.000000
      vertex 5.000000 5.000000 0.000000
      vertex 100.000000 0.000000 0.000000
    endloop
  endfacet
  facet normal 0.000000 0.000000 -1.000000
    outer loop
      vertex 100.000000 0.000000 0.000000
      vertex 95.000000 5.000000 0.000000
      vertex 100.000000 100.000000 0.000000
    endloop
  endfacet
  facet normal 0.000000 -0.000000 -1.000000
    outer loop
      vertex 95.000000 5.000000 0.000000
      vertex 95.000000 95.000000 0.000000
      vertex 100.000000 100.000000 0.000000
    endloop
  endfacet
  facet normal 0.000000 1.000000 0.000000
    outer loop
      vertex 0.000000 100.000000 0.000000
      vertex 0.000000 100.000000 2.000000
      vertex 100.000000 100.000000 0.000000
    endloop
  endfacet
  facet normal 0.000000 1.000000 0.000000
    outer loop
      vertex 100.000000 100.000000 0.000000
      vertex 0.000000 100.000000 2.000000
      vertex 100.000000 100.000000 2.000000
    endloop
  endfacet
  facet normal 0.000000 -0.000000 1.000000
    outer loop
      vertex 0.000000 100.000000 2.000000
      vertex 0.000000 5.000000 2.000000
      vertex 5.000000 5.000000 2.000000
    endloop
  endfacet
  facet normal -0.000000 0.000000 1.000000
    outer loop
      vertex 95.000000 95.000000 2.000000
      vertex 0.000000 100.000000 2.000000
      vertex 5.000000 95.000000 2.000000
    endloop
  endfacet
  facet normal -0.000000 0.000000 1.000000
    outer loop
      vertex 5.000000 95.000000 2.000000
      vertex 0.000000 100.000000 2.000000
      vertex 5.000000 5.000000 2.000000
    endloop
  endfacet
  facet normal 0.000000 0.000000 1.000000
    outer loop
      vertex 100.000000 100.000000 2.000000
      vertex 0.000000 100.000000 2.000000
      vertex 95.000000 95.000000 2.000000
    endloop
  endfacet
  facet normal -0.000000 0.000000 1.000000
    outer loop
      vertex 100.000000 5.000000 2.000000
      vertex 95.000000 95.000000 2.000000
      vertex 95.000000 5.000000 2.000000
    endloop
  endfacet
  facet normal 0.000000 0.000000 1.000000
    outer loop
      vertex 100.000000 100.000000 2.000000
      vertex 95.000000 95.000000 2.000000
      vertex 100.000000 5.000000 2.000000
    endloop
  endfacet
  facet normal 0.000000 1.000000 0.000000
    outer loop
      vertex 0.000000 5.000000 2.000000
      vertex 0.000000 5.000000 10.000000
      vertex 5.000000 5.000000 2.000000
    endloop
  endfacet
  facet normal 0.000000 1.000000 0.000000
    outer loop
      vertex 5.000000 5.000000 2.000000
      vertex 0.000000 5.000000 10.000000
      vertex 10.000000 5.000000 10.000000
    endloop
  endfacet
  facet normal 0.000000 1.000000 0.000000
    outer loop
      vertex 10.000000 5.000000 10.000000
      vertex 10.000000 5.000000 11.000000
      vertex 19.000000 5.000000 11.000000
    endloop
  endfacet
  facet normal 0.000000 1.000000 -0.000000
    outer loop
      vertex 10.000000 5.000000 10.000000
      vertex 19.000000 5.000000 11.000000
      vertex 5.000000 5.000000 2.000000
    endloop
  endfacet
  facet normal 0.000000 1.000000 0.000000
    outer loop
      vertex 19.000000 5.000000 11.000000
      vertex 19.000000 5.000000 12.000000
      vertex 28.000000 5.000000 12.000000
    endloop
  endfacet
  facet normal 0.000000 1.000000 -0.000000
    outer loop
      vertex 19.000000 5.000000 11.000000
      vertex 28.000000 5.000000 12.000000
      vertex 5.000000 5.000000 2.000000
    endloop
  endfacet
  facet normal 0.000000 1.000000 0.000000
    outer loop
      vertex 28.000000 5.000000 12.000000
      vertex 28.000000 5.000000 13.000000
      vertex 37.000000 5.000000 13.000000
    endloop
  endfacet
  facet normal 0.000000 1.000000 -0.000000
    outer loop
      vertex 28.000000 5.000000 12.000000
      vertex 37.000000 5.000000 13.000000
      vertex 5.000000 5.000000 2.000000
    endloop
  endfacet
  facet normal 0.000000 1.000000 0.000000
    outer loop
      vertex 37.000000 5.000000 13.000000
      vertex 37.000000 5.000000 14.000000
      vertex 46.000000 5.000000 14.000000
    endloop
  endfacet
  facet normal 0.000000 1.000000 -0.000000
    outer loop
      vertex 37.000000 5.000000 13.000000
      vertex 46.000000 5.000000 14.000000
      vertex 5.000000 5.000000 2.000000
    endloop
  endfacet
  facet normal 0.000000 1.000000 0.000000
    outer loop
      vertex 46.000000 5.000000 14.000000
      vertex 46.000000 5.000000 15.000000
      vertex 55.000000 5.000000 15.000000
    endloop
  endfacet
  facet normal 0.000000 1.000000 -0.000000
    outer loop
      vertex 46.000000 5.000000 14.000000
      vertex 55.000000 5.000000 15.000000
      vertex 5.000000 5.000000 2.000000
    endloop
  endfacet
  facet normal 0.000000 1.000000 0.000000
    outer loop
      vertex 55.000000 5.000000 15.000000
      vertex 55.000000 5.000000 16.000000
      vertex 64.000000 5.000000 16.000000
    endloop
  endfacet
  facet normal 0.000000 1.000000 -0.000000
    outer loop
      vertex 55.000000 5.000000 15.000000
      vertex 64.000000 5.000000 16.000000
      vertex 5.000000 5.000000 2.000000
    endloop
  endfacet
  facet normal 0.000000 1.000000 0.000000
    outer loop
      vertex 64.000000 5.000000 16.000000
      vertex 64.000000 5.000000 17.000000
      vertex 73.000000 5.000000 17.000000
    endloop
  endfacet
  facet normal 0.000000 1.000000 -0.000000
    outer loop
      vertex 64.000000 5.000000 16.000000
      vertex 73.000000 5.000000 17.000000
      vertex 5.000000 5.000000 2.000000
    endloop
  endfacet
  facet normal 0.000000 1.000000 0.000000
    outer loop
      vertex 73.000000 5.000000 17.000000
      vertex 73.000000 5.000000 18.000000
      vertex 82.000000 5.000000 18.000000
    endloop
  endfacet
  facet normal 0.000000 1.000000 -0.000000
    outer loop
      vertex 73.000000 5.000000 17.000000
      vertex 82.000000 5.000000 18.000000
      vertex 5.000000 5.000000 2.000000
    endloop
  endfacet
  facet normal 0.000000 1.000000 0.000000
    outer loop
      vertex 82.000000 5.000000 18.000000
      vertex 82.000000 5.000000 19.000000
      vertex 91.000000 5.000000 19.000000
    endloop
  endfacet
  facet normal 0.000000 1.000000 -0.000000
    outer loop
      vertex 82.000000 5.000000 18.000000
      vertex 91.000000 5.000000 19.000000
      vertex 5.000000 5.000000 2.000000
    endloop
  endfacet
  facet normal 0.000000 1.000000 0.000000
    outer loop
      vertex 91.000000 5.000000 19.000000
      vertex 91.000000 5.000000 20.000000
      vertex 100.000000 5.000000 20.000000
    endloop
  endfacet
  facet normal 0.000000 1.000000 -0.000000
    outer loop
      vertex 91.000000 5.000000 19.000000
      vertex 100.000000 5.000000 20.000000
      vertex 5.000000 5.000000 2.000000
    endloop
  endfacet
  facet normal 0.000000 1.000000 0.000000
    outer loop
      vertex 95.000000 5.000000 2.000000
      vertex 100.000000 5.000000 20.000000
      vertex 100.000000 5.000000 2.000000
    endloop
  endfacet
  facet normal 0.000000 1.000000 0.000000
    outer loop
      vertex 5.000000 5.000000 2.000000
      vertex 100.000000 5.000000 20.000000
      vertex 95.000000 5.000000 2.000000
    endloop
  endfacet
  facet normal 0.000000 1.000000 0.000000
    outer loop
      vertex 95.000000 5.000000 2.000000
      vertex 95.000000 5.000000 0.000000
      vertex 5.000000 5.000000 2.000000
    endloop
  endfacet
  facet normal 0.000000 1.000000 -0.000000
    outer loop
      vertex 5.000000 5.000000 2.000000
      vertex 95.000000 5.000000 0.000000
      vertex 5.000000 5.000000 0.000000
    endloop
  endfacet
  facet normal 0.000000 0.000000 1.000000
    outer loop
      vertex 10.000000 0.000000 10.000000
      vertex 10.000000 5.000000 10.000000
      vertex 0.000000 5.000000 10.000000
    endloop
  endfacet
  facet normal 0.000000 0.000000 1.000000
    outer loop
      vertex 0.000000 0.000000 10.000000
      vertex 10.000000 0.000000 10.000000
      vertex 0.000000 5.000000 10.000000
    endloop
  endfacet
  facet normal -1.000000 0.000000 0.000000
    outer loop
      vertex 10.000000 5.000000 11.000000
      vertex 10.000000 5.000000 10.000000
      vertex 10.000000 0.000000 11.000000
    endloop
  endfacet
  facet normal -1.000000 0.000000 0.000000
    outer loop
      vertex 10.000000 0.000000 11.000000
      vertex 10.000000 5.000000 10.000000
      vertex 10.000000 0.000000 10.000000
    endloop
  endfacet
  facet normal 0.000000 0.000000 1.000000
    outer loop
      vertex 19.000000 0.000000 11.000000
      vertex 19.000000 5.000000 11.000000
      vertex 10.000000 5.000000 11.000000
    endloop
  endfacet
  facet normal 0.000000 0.000000 1.000000
    outer loop
      vertex 10.000000 0.000000 11.000000
      vertex 19.000000 0.000000 11.000000
      vertex 10.000000 5.000000 11.000000
    endloop
  endfacet
  facet normal -1.000000 0.000000 0.000000
    outer loop
      vertex 19.000000 5.000000 12.000000
      vertex 19.000000 5.000000 11.000000
      vertex 19.000000 0.000000 12.000000
    endloop
  endfacet
  facet normal -1.000000 0.000000 0.000000
    outer loop
      vertex 19.000000 0.000000 12.000000
      vertex 19.000000 5.000000 11.000000
      vertex 19.000000 0.000000 11.000000
    endloop
  endfacet
  facet normal 0.000000 0.000000 1.000000
    outer loop
      vertex 28.000000 0.000000 12.000000
      vertex 28.000000 5.000000 12.000000
      vertex 19.000000 5.000000 12.000000
    endloop
  endfacet
  facet normal 0.000000 0.000000 1.000000
    outer loop
      vertex 19.000000 0.000000 12.000000
      vertex 28.000000 0.000000 12.000000
      vertex 19.000000 5.000000 12.000000
    endloop
  endfacet
  facet normal -1.000000 0.000000 0.000000
    outer loop
      vertex 28.000000 5.000000 13.000000
      vertex 28.000000 5.000000 12.000000
      vertex 28.000000 0.000000 13.000000
    endloop
  endfacet
  facet normal -1.000000 0.000000 0.000000
    outer loop
      vertex 28.000000 0.000000 13.000000
      vertex 28.000000 5.000000 12.000000
      vertex 28.000000 0.000000 12.000000
    endloop
  endfacet
  facet normal 0.000000 0.000000 1.000000
    outer loop
      vertex 37.000000 0.000000 13.000000
      vertex 37.000000 5.000000 13.000000
      vertex 28.000000 5.000000 13.000000
    endloop
  endfacet
  facet normal 0.000000 0.000000 1.000000
    outer loop
      vertex 28.000000 0.000000 13.000000
      vertex 37.000000 0.000000 13.000000
      vertex 28.000000 5.000000 13.000000
    endloop
  endfacet
  facet normal -1.000000 0.000000 0.000000
    outer loop
      vertex 37.000000 5.000000 14.000000
      vertex 37.000000 5.000000 13.000000
      vertex 37.000000 0.000000 14.000000
    endloop
  endfacet
  facet normal -1.000000 0.000000 0.000000
    outer loop
      vertex 37.000000 0.000000 14.000000
      vertex 37.000000 5.000000 13.000000
      vertex 37.000000 0.000000 13.000000
    endloop
  endfacet
  facet normal 0.000000 0.000000 1.000000
    outer loop
      vertex 46.000000 0.000000 14.000000
      vertex 46.000000 5.000000 14.000000
      vertex 37.000000 5.000000 14.000000
    endloop
  endfacet
  facet normal 0.000000 0.000000 1.000000
    outer loop
      vertex 37.000000 0.000000 14.000000
      vertex 46.000000 0.000000 14.000000
      vertex 37.000000 5.000000 14.000000
    endloop
  endfacet
  facet normal -1.000000 0.000000 0.000000
    outer loop
      vertex 46.000000 5.000000 15.000000
      vertex 46.000000 5.000000 14.000000
      vertex 46.000000 0.000000 15.000000
    endloop
  endfacet
  facet normal -1.000000 0.000000 0.000000
    outer loop
      vertex 46.000000 0.000000 15.000000
      vertex 46.000000 5.000000 14.000000
      vertex 46.000000 0.000000 14.000000
    endloop
  endfacet
  facet normal 0.000000 0.000000 1.000000
    outer loop
      vertex 55.000000 0.000000 15.000000
      vertex 55.000000 5.000000 15.000000
      vertex 46.000000 5.000000 15.000000
    endloop
  endfacet
  facet normal 0.000000 0.000000 1.000000
    outer loop
      vertex 46.000000 0.000000 15.000000
      vertex 55.000000 0.000000 15.000000
      vertex 46.000000 5.000000 15.000000
    endloop
  endfacet
  facet normal -1.000000 0.000000 0.000000
    outer loop
      vertex 55.000000 5.000000 16.000000
      vertex 55.000000 5.000000 15.000000
      vertex 55.000000 0.000000 16.000000
    endloop
  endfacet
  facet normal -1.000000 0.000000 0.000000
    outer loop
      vertex 55.000000 0.000000 16.000000
      vertex 55.000000 5.000000 15.000000
      vertex 55.000000 0.000000 15.000000
    endloop
  endfacet
  facet normal 0.000000 0.000000 1.000000
    outer loop
      vertex 64.000000 0.000000 16.000000
      vertex 64.000000 5.000000 16.000000
      vertex 55.000000 5.000000 16.000000
    endloop
  endfacet
  facet normal 0.000000 0.000000 1.000000
    outer loop
      vertex 55.000000 0.000000 16.000000
      vertex 64.000000 0.000000 16.000000
      vertex 55.000000 5.000000 16.000000
    endloop
  endfacet
  facet normal -1.000000 0.000000 0.000000
    outer loop
      vertex 64.000000 5.000000 17.000000
      vertex 64.000000 5.000000 16.000000
      vertex 64.000000 0.000000 17.000000
    endloop
  endfacet
  facet normal -1.000000 0.000000 0.000000
    outer loop
      vertex 64.000000 0.000000 17.000000
      vertex 64.000000 5.000000 16.000000
      vertex 64.000000 0.000000 16.000000
    endloop
  endfacet
  facet normal 0.000000 0.000000 1.000000
    outer loop
      vertex 73.000000 0.000000 17.000000
      vertex 73.000000 5.000000 17.000000
      vertex 64.000000 5.000000 17.000000
    endloop
  endfacet
  facet normal 0.000000 0.000000 1.000000
    outer loop
      vertex 64.000000 0.000000 17.000000
      vertex 73.000000 0.000000 17.000000
      vertex 64.000000 5.000000 17.000000
    endloop
  endfacet
  facet normal -1.000000 0.000000 0.000000
    outer loop
      vertex 73.000000 5.000000 18.000000
      vertex 73.000000 5.000000 17.000000
      vertex 73.000000 0.000000 18.000000
    endloop
  endfacet
  facet normal -1.000000 0.000000 0.000000
    outer loop
      vertex 73.000000 0.000000 18.000000
      vertex 73.000000 5.000000 17.000000
      vertex 73.000000 0.000000 17.000000
    endloop
  endfacet
  facet normal 0.000000 0.000000 1.000000
    outer loop
      vertex 82.000000 0.000000 18.000000
      vertex 82.000000 5.000000 18.000000
      vertex 73.000000 5.000000 18.000000
    endloop
  endfacet
  facet normal 0.000000 0.000000 1.000000
    outer loop
      vertex 73.000000 0.000000 18.000000
      vertex 82.000000 0.000000 18.000000
      vertex 73.000000 5.000000 18.000000
    endloop
  endfacet
  facet normal -1.000000 0.000000 0.000000
    outer loop
      vertex 82.000000 5.000000 19.000000
      vertex 82.000000 5.000000 18.000000
      vertex 82.000000 0.000000 19.000000
    endloop
  endfacet
  facet normal -1.000000 0.000000 0.000000
    outer loop
      vertex 82.000000 0.000000 19.000000
      vertex 82.000000 5.000000 18.000000
      vertex 82.000000 0.000000 18.000000
    endloop
  endfacet
  facet normal 0.000000 0.000000 1.000000
    outer loop
      vertex 91.000000 0.000000 19.000000
      vertex 91.000000 5.000000 19.000000
      vertex 82.000000 5.000000 19.000000
    endloop
  endfacet
  facet normal 0.000000 0.000000 1.000000
    outer loop
      vertex 82.000000 0.000000 19.000000
      vertex 91.000000 0.000000 19.000000
      vertex 82.000000 5.000000 19.000000
    endloop
  endfacet
  facet normal -1.000000 0.000000 0.000000
    outer loop
      vertex 91.000000 5.000000 20.000000
      vertex 91.000000 5.000000 19.000000
      vertex 91.000000 0.000000 20.000000
    endloop
  endfacet
  facet normal -1.000000 0.000000 0.000000
    outer loop
      vertex 91.000000 0.000000 20.000000
      vertex 91.000000 5.000000 19.000000
      vertex 91.000000 0.000000 19.000000
    endloop
  endfacet
  facet normal 0.000000 -0.000000 1.000000
    outer loop
      vertex 91.000000 5.000000 20.000000
      vertex 91.000000 0.000000 20.000000
      vertex 100.000000 0.000000 20.000000
    endloop
  endfacet
  facet normal 0.000000 0.000000 1.000000
    outer loop
      vertex 100.000000 5.000000 20.000000
      vertex 91.000000 5.000000 20.000000
      vertex 100.000000 0.000000 20.000000
    endloop
  endfacet
  facet normal 1.000000 0.000000 -0.000000
    outer loop
      vertex 100.000000 5.000000 2.000000
      vertex 100.000000 0.000000 0.000000
      vertex 100.000000 100.000000 0.000000
    endloop
  endfacet
  facet normal 1.000000 0.000000 0.000000
    outer loop
      vertex 100.000000 5.000000 2.000000
      vertex 100.000000 5.000000 20.000000
      vertex 100.000000 0.000000 20.000000
    endloop
  endfacet
  facet normal 1.000000 0.000000 -0.000000
    outer loop
      vertex 100.000000 0.000000 20.000000
      vertex 100.000000 0.000000 0.000000
      vertex 100.000000 5.000000 2.000000
    endloop
  endfacet
  facet normal 1.000000 0.000000 0.000000
    outer loop
      vertex 100.000000 100.000000 2.000000
      vertex 100.000000 5.000000 2.000000
      vertex 100.000000 100.000000 0.000000
    endloop
  endfacet
  facet normal 1.000000 0.000000 0.000000
    outer loop
      vertex 5.000000 95.000000 0.000000
      vertex 5.000000 95.000000 2.000000
      vertex 5.000000 5.000000 2.000000
    endloop
  endfacet
  facet normal 1.000000 0.000000 0.000000
    outer loop
      vertex 5.000000 5.000000 0.000000
      vertex 5.000000 95.000000 0.000000
      vertex 5.000000 5.000000 2.000000
    endloop
  endfacet
  facet normal 0.000000 -1.000000 0.000000
    outer loop
      vertex 95.000000 95.000000 0.000000
      vertex 95.000000 95.000000 2.000000
      vertex 5.000000 95.000000 2.000000
    endloop
  endfacet
  facet normal -0.000000 -1.000000 -0.000000
    outer loop
      vertex 5.000000 95.000000 0.000000
      vertex 95.000000 95.000000 0.000000
      vertex 5.000000 95.000000 2.000000
    endloop
  endfacet
  facet normal -1.000000 0.000000 0.000000
    outer loop
      vertex 95.000000 95.000000 2.000000
      vertex 95.000000 95.000000 0.000000
      vertex 95.000000 5.000000 2.000000
    endloop
  endfacet
  facet normal -1.000000 0.000000 0.000000
    outer loop
      vertex 95.000000 5.000000 2.000000
      vertex 95.000000 95.000000 0.000000
      vertex 95.000000 5.000000 0.000000
    endloop
  endfacet
endsolid OpenSCAD_Model
