999
dxflib 2.0.4.8
  0
SECTION
  2
HEADER
  9
$ACADVER
  1
AC1015
  9
$HANDSEED
  5
FFFF
  9
$DIMTAD
 70
1
  9
$DIMTDEC
 70
2
  9
$USERR4
 40
0.0
  9
$CLAYER
  8
0
  9
$DIMALTZ
 70
0
  9
$MENU
  1
.
  9
$CHAMFERA
 40
10.0
  9
$UCSYDIR
 10
0.0
 20
1.0
 30
0.0
  9
$USERR5
 40
0.0
  9
$SHADEDIF
 70
70
  9
$TILEMODE
 70
1
  9
$VISRETAIN
 70
1
  9
$CMLSTYLE
  2
Standard
  9
$DIMASZ
 40
8.0
  9
$GRIDUNIT
 10
0.1
 20
0.1
  9
$DIMADEC
 70
0
  9
$EXTMIN
 10
0.0
 20
0.0
 30
0.0
  9
$ORTHOMODE
 70
0
  9
$REGENMODE
 70
1
  9
$TRACEWID
 40
1.0
  9
$DIMUPT
 70
0
  9
$CHAMFERB
 40
10.0
  9
$UCSXDIR
 10
1.0
 20
0.0
 30
0.0
  9
$OLESTARTUP
290
0
  9
$DIMGAP
 40
0.625
  9
$DIMSHO
 70
1
  9
$DIMALT
 70
0
  9
$DIMSAH
 70
0
  9
$DIMTFAC
 40
1.0
  9
$SKETCHINC
 40
1.0
  9
$CHAMFERC
 40
20.0
  9
$USRTIMER
 70
1
  9
$ANGBASE
 50
0.0
  9
$PUCSYDIR
 10
0.0
 20
1.0
 30
0.0
  9
$CMLJUST
 70
0
  9
$MEASUREMENT
 70
1
  9
$ENDCAPS
280
0
  9
$LIMMIN
 10
0.0
 20
0.0
  9
$DIMTSZ
 40
0.0
  9
$DIMALTTD
 70
3
  9
$DIMALTRND
 40
0.0
  9
$CHAMFERD
 40
0.0
  9
$SPLFRAME
 70
0
  9
$SURFTYPE
 70
6
  9
$PUCSXDIR
 10
1.0
 20
0.0
 30
0.0
  9
$LWDISPLAY
290
0
  9
$VERSIONGUID
  2
{FAEB1C32-E019-11D5-929B-00C0DF256EC4}
  9
$SPLINESEGS
 70
8
  9
$AUPREC
 70
0
  9
$LUNITS
 70
2
  9
$DWGCODEPAGE
  3
ANSI_1252
  9
$SURFTAB1
 70
6
  9
$CELWEIGHT
370
-1
  9
$INSBASE
 10
0.0
 20
0.0
 30
0.0
  9
$DIMRND
 40
0.0
  9
$DIMCEN
 40
2.5
  9
$DIMDSEP
 70
44
  9
$ELEVATION
 40
0.0
  9
$SKPOLY
 70
0
  9
$TDUCREATE
 40
2455116.7713577197864652
  9
$TDUUPDATE
 40
2455116.7713577309623361
  9
$SURFTAB2
 70
6
  9
$UCSORTHOVIEW
 70
0
  9
$USERI1
 70
0
  9
$UNITMODE
 70
0
  9
$PSTYLEMODE
290
1
  9
$DIMEXO
 40
0.625
  9
$INSUNITS
 70
4
  9
$EXTMAX
 10
420.0
 20
297.0
 30
0.0
  9
$FILLMODE
 70
1
  9
$TEXTSIZE
 40
2.5
  9
$PELEVATION
 40
0.0
  9
$UCSORG
 10
0.0
 20
0.0
 30
0.0
  9
$UCSORGRIGHT
 10
0.0
 20
0.0
 30
0.0
  9
$USERI2
 70
0
  9
$DIMSCALE
 40
1.0
  9
$DIMDLE
 40
0.0
  9
$DIMZIN
 70
8
  9
$DIMTOLJ
 70
0
  9
$DIMTZIN
 70
8
  9
$DIMLWD
 70
-2
  9
$TDUSRTIMER
 40
0.0000000116
  9
$ANGDIR
 70
0
  9
$SURFU
 70
6
  9
$PUCSORGBOTTOM
 10
0.0
 20
0.0
 30
0.0
  9
$USERI3
 70
0
  9
$JOINSTYLE
280
0
  9
$DIMLUNIT
 70
2
  9
$ACADMAINTVER
 70
6
  9
$LIMMAX
 10
420.0
 20
297.0
  9
$QTEXTMODE
 70
0
  9
$DIMJUST
 70
0
  9
$DIMALTTZ
 70
0
  9
$DIMATFIT
 70
3
  9
$DIMLWE
 70
-2
  9
$SURFV
 70
6
  9
$USERI4
 70
0
  9
$WORLDVIEW
 70
1
  9
$DIMTXT
 40
8.0
  9
$GRIDMODE
 70
1
  9
$ATTMODE
 70
1
  9
$DIMLIM
 70
0
  9
$DIMSE1
 70
0
  9
$DIMAZIN
 70
0
  9
$THICKNESS
 40
0.0
  9
$LIMCHECK
 70
0
  9
$PDMODE
 70
0
  9
$UCSORGTOP
 10
0.0
 20
0.0
 30
0.0
  9
$USERI5
 70
0
  9
$PROXYGRAPHICS
 70
1
  9
$EXTNAMES
290
1
  9
$LUPREC
 70
4
  9
$CELTYPE
  6
ByLayer
  9
$DIMTOH
 70
0
  9
$DIMSE2
 70
0
  9
$DIMLFAC
 40
1.0
  9
$DIMSOXD
 70
0
  9
$TDINDWG
 40
0.0000000116
  9
$SPLINETYPE
 70
6
  9
$PUCSORG
 10
0.0
 20
0.0
 30
0.0
  9
$PEXTMIN
 10
0.0
 20
0.0
 30
0.0
  9
$PEXTMAX
 10
420.0
 20
297.0
 30
0.0
  9
$XEDIT
290
1
  9
$CECOLOR
 62
256
  9
$DISPSILH
 70
0
  9
$DIMDLI
 40
3.75
  9
$DIMTM
 40
0.0
  9
$DIMASO
 70
1
  9
$DIMTVP
 40
0.0
  9
$DIMSTYLE
  2
ISO-25
  9
$DIMFRAC
 70
0
  9
$PLINEWID
 40
0.0
  9
$PUCSORGRIGHT
 10
0.0
 20
0.0
 30
0.0
  9
$PLIMCHECK
 70
0
  9
$FINGERPRINTGUID
  2
{765076F1-1CBD-4468-AE86-6398EE5392BB}
  9
$PSVPSCALE
 40
0.0
  9
$PLIMMAX
 10
420.0
 20
297.0
  9
$PLIMMIN
 10
0.0
 20
0.0
  9
$LTSCALE
 40
1.0
  9
$DIMTIH
 70
0
  9
$DIMALTD
 70
3
  9
$DIMCLRT
 70
0
  9
$DIMDEC
 70
2
  9
$DIMALTU
 70
2
  9
$FILLETRAD
 40
10.0
  9
$TDUPDATE
 40
2455116.8130243979394436
  9
$UCSORGLEFT
 10
0.0
 20
0.0
 30
0.0
  9
$UCSORGBACK
 10
0.0
 20
0.0
 30
0.0
  9
$MAXACTVP
 70
64
  9
$TREEDEPTH
 70
3020
  9
$DIMEXE
 40
1.25
  9
$CELTSCALE
 40
1.0
  9
$DIMCLRD
 70
0
  9
$DIMTXSTY
  7
Standard
  9
$PDSIZE
 40
0.0
  9
$PUCSORTHOVIEW
 70
0
  9
$USERR1
 40
0.0
  9
$PINSBASE
 10
0.0
 20
0.0
 30
0.0
  9
$CMLSCALE
 40
20.0
  9
$CEPSNTYPE
380
0
  9
$DIMAUNIT
 70
0
  9
$TEXTSTYLE
  7
Standard
  9
$DIMTP
 40
0.0
  9
$DIMTOL
 70
0
  9
$DIMALTF
 40
0.0393700787
  9
$DIMTOFL
 70
1
  9
$DIMCLRE
 70
0
  9
$DIMSD1
 70
0
  9
$DIMTMOVE
 70
0
  9
$TDCREATE
 40
2455116.813024387229234
  9
$UCSORGFRONT
 10
0.0
 20
0.0
 30
0.0
  9
$PUCSORGTOP
 10
0.0
 20
0.0
 30
0.0
  9
$USERR2
 40
0.0
  9
$SHADEDGE
 70
3
  9
$PLINEGEN
 70
0
  9
$PSLTSCALE
 70
1
  9
$AUNITS
 70
0
  9
$MIRRTEXT
 70
1
  9
$DIMTIX
 70
0
  9
$DIMSD2
 70
0
  9
$UCSORGBOTTOM
 10
0.0
 20
0.0
 30
0.0
  9
$PUCSORGLEFT
 10
0.0
 20
0.0
 30
0.0
  9
$PUCSORGFRONT
 10
0.0
 20
0.0
 30
0.0
  9
$PUCSORGBACK
 10
0.0
 20
0.0
 30
0.0
  9
$USERR3
 40
0.0
  0
ENDSEC
  0
SECTION
  2
TABLES
  0
TABLE
  2
VPORT
  5
8
100
AcDbSymbolTable
 70
1
  0
VPORT
  5
30
100
AcDbSymbolTableRecord
100
AcDbViewportTableRecord
  2
*Active
 70
0
 10
0.0
 20
0.0
 11
1.0
 21
1.0
 12
286.3055555555554861
 22
148.5
 13
0.0
 23
0.0
 14
10.0
 24
10.0
 15
10.0
 25
10.0
 16
0.0
 26
0.0
 36
1.0
 17
0.0
 27
0.0
 37
0.0
 40
297.0
 41
1.92798353909465
 42
50.0
 43
0.0
 44
0.0
 50
0.0
 51
0.0
 71
0
 72
100
 73
1
 74
3
 75
1
 76
1
 77
0
 78
0
281
0
 65
1
110
0.0
120
0.0
130
0.0
111
1.0
121
0.0
131
0.0
112
0.0
122
1.0
132
0.0
 79
0
146
0.0
  0
ENDTAB
  0
TABLE
  2
LTYPE
  5
5
100
AcDbSymbolTable
 70
21
  0
LTYPE
  5
14
100
AcDbSymbolTableRecord
100
AcDbLinetypeTableRecord
  2
ByBlock
 70
0
  3

 72
65
 73
0
 40
0.0
  0
LTYPE
  5
15
100
AcDbSymbolTableRecord
100
AcDbLinetypeTableRecord
  2
ByLayer
 70
0
  3

 72
65
 73
0
 40
0.0
  0
LTYPE
  5
16
100
AcDbSymbolTableRecord
100
AcDbLinetypeTableRecord
  2
CONTINUOUS
 70
0
  3
Solid line
 72
65
 73
0
 40
0.0
  0
LTYPE
  5
31
100
AcDbSymbolTableRecord
100
AcDbLinetypeTableRecord
  2
DOT
 70
0
  3
Dot . . . . . . . . . . . . . . . . . . . . . .
 72
65
 73
2
 40
6.3499999999999996
 49
0.0
 74
0
 49
-6.3499999999999996
 74
0
  0
LTYPE
  5
32
100
AcDbSymbolTableRecord
100
AcDbLinetypeTableRecord
  2
DOT2
 70
0
  3
Dot (.5x) .....................................
 72
65
 73
2
 40
3.1749999999999998
 49
0.0
 74
0
 49
-3.1749999999999998
 74
0
  0
LTYPE
  5
33
100
AcDbSymbolTableRecord
100
AcDbLinetypeTableRecord
  2
DOTX2
 70
0
  3
Dot (2x) .  .  .  .  .  .  .  .  .  .  .  .  .
 72
65
 73
2
 40
12.6999999999999993
 49
0.0
 74
0
 49
-12.6999999999999993
 74
0
  0
LTYPE
  5
34
100
AcDbSymbolTableRecord
100
AcDbLinetypeTableRecord
  2
DASHED
 70
0
  3
Dashed __ __ __ __ __ __ __ __ __ __ __ __ __ _
 72
65
 73
2
 40
19.0500000000000007
 49
12.6999999999999993
 74
0
 49
-6.3499999999999996
 74
0
  0
LTYPE
  5
35
100
AcDbSymbolTableRecord
100
AcDbLinetypeTableRecord
  2
DASHED2
 70
0
  3
Dashed (.5x) _ _ _ _ _ _ _ _ _ _ _ _ _ _ _ _ _
 72
65
 73
2
 40
9.5250000000000004
 49
6.3499999999999996
 74
0
 49
-3.1749999999999998
 74
0
  0
LTYPE
  5
36
100
AcDbSymbolTableRecord
100
AcDbLinetypeTableRecord
  2
DASHEDX2
 70
0
  3
Dashed (2x) ____  ____  ____  ____  ____  ___
 72
65
 73
2
 40
38.1000000000000014
 49
25.3999999999999986
 74
0
 49
-12.6999999999999993
 74
0
  0
LTYPE
  5
37
100
AcDbSymbolTableRecord
100
AcDbLinetypeTableRecord
  2
DASHDOT
 70
0
  3
Dash dot __ . __ . __ . __ . __ . __ . __ . __
 72
65
 73
4
 40
25.3999999999999986
 49
12.6999999999999993
 74
0
 49
-6.3499999999999996
 74
0
 49
0.0
 74
0
 49
-6.3499999999999996
 74
0
  0
LTYPE
  5
38
100
AcDbSymbolTableRecord
100
AcDbLinetypeTableRecord
  2
DASHDOT2
 70
0
  3
Dash dot (.5x) _._._._._._._._._._._._._._._.
 72
65
 73
4
 40
12.6999999999999993
 49
6.3499999999999996
 74
0
 49
-3.1749999999999998
 74
0
 49
0.0
 74
0
 49
-3.1749999999999998
 74
0
  0
LTYPE
  5
39
100
AcDbSymbolTableRecord
100
AcDbLinetypeTableRecord
  2
DASHDOTX2
 70
0
  3
Dash dot (2x) ____  .  ____  .  ____  .  ___
 72
65
 73
4
 40
50.7999999999999972
 49
25.3999999999999986
 74
0
 49
-12.6999999999999993
 74
0
 49
0.0
 74
0
 49
-12.6999999999999993
 74
0
  0
LTYPE
  5
3A
100
AcDbSymbolTableRecord
100
AcDbLinetypeTableRecord
  2
DIVIDE
 70
0
  3
Divide ____ . . ____ . . ____ . . ____ . . ____
 72
65
 73
6
 40
31.75
 49
12.6999999999999993
 74
0
 49
-6.3499999999999996
 74
0
 49
0.0
 74
0
 49
-6.3499999999999996
 74
0
 49
0.0
 74
0
 49
-6.3499999999999996
 74
0
  0
LTYPE
  5
3B
100
AcDbSymbolTableRecord
100
AcDbLinetypeTableRecord
  2
DIVIDE2
 70
0
  3
Divide (.5x) __..__..__..__..__..__..__..__.._
 72
65
 73
6
 40
15.875
 49
6.3499999999999996
 74
0
 49
-3.1749999999999998
 74
0
 49
0.0
 74
0
 49
-3.1749999999999998
 74
0
 49
0.0
 74
0
 49
-3.1749999999999998
 74
0
  0
LTYPE
  5
3C
100
AcDbSymbolTableRecord
100
AcDbLinetypeTableRecord
  2
DIVIDEX2
 70
0
  3
Divide (2x) ________  .  .  ________  .  .  _
 72
65
 73
6
 40
63.5
 49
25.3999999999999986
 74
0
 49
-12.6999999999999993
 74
0
 49
0.0
 74
0
 49
-12.6999999999999993
 74
0
 49
0.0
 74
0
 49
-12.6999999999999993
 74
0
  0
LTYPE
  5
3D
100
AcDbSymbolTableRecord
100
AcDbLinetypeTableRecord
  2
CENTER
 70
0
  3
Center ____ _ ____ _ ____ _ ____ _ ____ _ ____
 72
65
 73
4
 40
50.7999999999999972
 49
31.75
 74
0
 49
-6.3499999999999996
 74
0
 49
6.3499999999999996
 74
0
 49
-6.3499999999999996
 74
0
  0
LTYPE
  5
3E
100
AcDbSymbolTableRecord
100
AcDbLinetypeTableRecord
  2
CENTER2
 70
0
  3
Center (.5x) ___ _ ___ _ ___ _ ___ _ ___ _ ___
 72
65
 73
4
 40
28.5749999999999993
 49
19.0500000000000007
 74
0
 49
-3.1749999999999998
 74
0
 49
3.1749999999999998
 74
0
 49
-3.1749999999999998
 74
0
  0
LTYPE
  5
3F
100
AcDbSymbolTableRecord
100
AcDbLinetypeTableRecord
  2
CENTERX2
 70
0
  3
Center (2x) ________  __  ________  __  _____
 72
65
 73
4
 40
101.5999999999999943
 49
63.5
 74
0
 49
-12.6999999999999993
 74
0
 49
12.6999999999999993
 74
0
 49
-12.6999999999999993
 74
0
  0
LTYPE
  5
40
100
AcDbSymbolTableRecord
100
AcDbLinetypeTableRecord
  2
BORDER
 70
0
  3
Border __ __ . __ __ . __ __ . __ __ . __ __ .
 72
65
 73
6
 40
44.4500000000000028
 49
12.6999999999999993
 74
0
 49
-6.3499999999999996
 74
0
 49
12.6999999999999993
 74
0
 49
-6.3499999999999996
 74
0
 49
0.0
 74
0
 49
-6.3499999999999996
 74
0
  0
LTYPE
  5
41
100
AcDbSymbolTableRecord
100
AcDbLinetypeTableRecord
  2
BORDER2
 70
0
  3
Border (.5x) __.__.__.__.__.__.__.__.__.__.__.
 72
65
 73
6
 40
22.2250000000000014
 49
6.3499999999999996
 74
0
 49
-3.1749999999999998
 74
0
 49
6.3499999999999996
 74
0
 49
-3.1749999999999998
 74
0
 49
0.0
 74
0
 49
-3.1749999999999998
 74
0
  0
LTYPE
  5
42
100
AcDbSymbolTableRecord
100
AcDbLinetypeTableRecord
  2
BORDERX2
 70
0
  3
Border (2x) ____  ____  .  ____  ____  .  ___
 72
65
 73
6
 40
88.9000000000000057
 49
25.3999999999999986
 74
0
 49
-12.6999999999999993
 74
0
 49
25.3999999999999986
 74
0
 49
-12.6999999999999993
 74
0
 49
0.0
 74
0
 49
-12.6999999999999993
 74
0
  0
ENDTAB
  0
TABLE
  2
LAYER
  5
2
100
AcDbSymbolTable
 70
3
  0
LAYER
  5
10
100
AcDbSymbolTableRecord
100
AcDbLayerTableRecord
  2
0
 70
0
 62
7
  6
CONTINUOUS
370
-3
390
F
  0
LAYER
  5
43
100
AcDbSymbolTableRecord
100
AcDbLayerTableRecord
  2
centres & dims
 70
0
 62
7
  6
CONTINUOUS
370
0
390
F
  0
LAYER
  5
44
100
AcDbSymbolTableRecord
100
AcDbLayerTableRecord
  2
Bed
 70
0
 62
7
  6
CONTINUOUS
370
0
390
F
  0
ENDTAB
  0
TABLE
  2
STYLE
  5
3
100
AcDbSymbolTable
 70
1
  0
STYLE
  5
11
100
AcDbSymbolTableRecord
100
AcDbTextStyleTableRecord
  2
Standard
 70
0
 40
0.0
 41
0.75
 50
0.0
 71
0
 42
2.5
  3
txt
  4

  0
ENDTAB
  0
TABLE
  2
VIEW
  5
6
100
AcDbSymbolTable
 70
0
  0
ENDTAB
  0
TABLE
  2
UCS
  5
7
100
AcDbSymbolTable
 70
0
  0
ENDTAB
  0
TABLE
  2
APPID
  5
9
100
AcDbSymbolTable
 70
1
  0
APPID
  5
12
100
AcDbSymbolTableRecord
100
AcDbRegAppTableRecord
  2
ACAD
 70
0
  0
ENDTAB
  0
TABLE
  2
DIMSTYLE
  5
A
100
AcDbSymbolTable
 70
1
100
AcDbDimStyleTable
 71
0
  0
DIMSTYLE
105
27
100
AcDbSymbolTableRecord
100
AcDbDimStyleTableRecord
  2
Standard
 41
8.0
 42
0.625
 43
3.75
 44
1.25
 70
0
 73
0
 74
0
 77
1
 78
8
140
8.0
141
2.5
143
0.03937007874016
147
0.625
171
3
172
1
271
2
272
2
274
3
278
44
283
0
284
8
340
11
  0
ENDTAB
  0
TABLE
  2
BLOCK_RECORD
  5
1
100
AcDbSymbolTable
 70
1
  0
BLOCK_RECORD
  5
1F
100
AcDbSymbolTableRecord
100
AcDbBlockTableRecord
  2
*Model_Space
340
22
  0
BLOCK_RECORD
  5
1B
100
AcDbSymbolTableRecord
100
AcDbBlockTableRecord
  2
*Paper_Space
340
1E
  0
BLOCK_RECORD
  5
23
100
AcDbSymbolTableRecord
100
AcDbBlockTableRecord
  2
*Paper_Space0
340
26
  0
BLOCK_RECORD
  5
45
100
AcDbSymbolTableRecord
100
AcDbBlockTableRecord
  2
SE
340
0
  0
ENDTAB
  0
ENDSEC
  0
SECTION
  2
BLOCKS
  0
BLOCK
  5
20
100
AcDbEntity
  8
0
100
AcDbBlockBegin
  2
*Model_Space
 70
0
 10
0.0
 20
0.0
 30
0.0
  3
*Model_Space
  1

  0
ENDBLK
  5
21
100
AcDbEntity
  8
0
100
AcDbBlockEnd
  0
BLOCK
  5
1C
100
AcDbEntity
 67
1
  8
0
100
AcDbBlockBegin
  2
*Paper_Space
 70
0
 10
0.0
 20
0.0
 30
0.0
  3
*Paper_Space
  1

  0
ENDBLK
  5
1D
100
AcDbEntity
 67
1
  8
0
100
AcDbBlockEnd
  0
BLOCK
  5
24
100
AcDbEntity
  8
0
100
AcDbBlockBegin
  2
*Paper_Space0
 70
0
 10
0.0
 20
0.0
 30
0.0
  3
*Paper_Space0
  1

  0
ENDBLK
  5
25
100
AcDbEntity
  8
0
100
AcDbBlockEnd
  0
BLOCK
  5
46
100
AcDbEntity
  8
0
100
AcDbBlockBegin
  2
SE
 70
0
 10
0.0
 20
0.0
 30
0.0
  3
SE
  1

  0
ENDBLK
  5
47
100
AcDbEntity
  8
0
100
AcDbBlockEnd
  0
ENDSEC
  0
SECTION
  2
ENTITIES
  0
LINE
  5
48
100
AcDbEntity
100
AcDbLine
  8
Bed
 62
256
370
-1
  6
ByLayer
 10
220.4504742873999987
 20
67.6557234213000243
 30
0.0
 11
220.4504742873999987
 21
37.655723421300145
 31
0.0
  0
LINE
  5
49
100
AcDbEntity
100
AcDbLine
  8
Bed
 62
256
370
-1
  6
ByLayer
 10
220.4504742873999987
 20
37.655723421300145
 30
0.0
 11
90.4504742873999987
 21
37.6557234212999958
 31
0.0
  0
LINE
  5
4A
100
AcDbEntity
100
AcDbLine
  8
Bed
 62
256
370
-1
  6
ByLayer
 10
90.4504742873999987
 20
37.6557234212999958
 30
0.0
 11
90.4504742874000129
 21
267.6557234213000811
 31
0.0
  0
LINE
  5
4B
100
AcDbEntity
100
AcDbLine
  8
Bed
 62
256
370
-1
  6
ByLayer
 10
90.4504742874000129
 20
267.6557234213000811
 30
0.0
 11
222.4504742874000272
 21
267.6557234213000243
 31
0.0
  0
LINE
  5
4C
100
AcDbEntity
100
AcDbLine
  8
Bed
 62
256
370
-1
  6
ByLayer
 10
222.4504742874000272
 20
267.6557234213000243
 30
0.0
 11
222.4504742874000272
 21
297.6557234213000243
 31
0.0
  0
LINE
  5
4D
100
AcDbEntity
100
AcDbLine
  8
Bed
 62
256
370
-1
  6
ByLayer
 10
222.4504742874000272
 20
297.6557234213000243
 30
0.0
 11
272.4504742874000272
 21
297.6557234213000243
 31
0.0
  0
LINE
  5
4E
100
AcDbEntity
100
AcDbLine
  8
Bed
 62
256
370
-1
  6
ByLayer
 10
272.4504742874000272
 20
297.6557234213000243
 30
0.0
 11
272.4504742874000272
 21
267.6557234213000243
 31
0.0
  0
LINE
  5
4F
100
AcDbEntity
100
AcDbLine
  8
Bed
 62
256
370
-1
  6
ByLayer
 10
272.4504742874000272
 20
267.6557234213000243
 30
0.0
 11
322.4504742874000272
 21
267.6557234213000243
 31
0.0
  0
LINE
  5
50
100
AcDbEntity
100
AcDbLine
  8
Bed
 62
256
370
-1
  6
ByLayer
 10
322.4504742874000272
 20
267.6557234213000243
 30
0.0
 11
322.4504742874000272
 21
37.6557234212999319
 31
0.0
  0
LINE
  5
51
100
AcDbEntity
100
AcDbLine
  8
Bed
 62
256
370
-1
  6
ByLayer
 10
322.4504742874000272
 20
37.6557234212999319
 30
0.0
 11
260.4504742874000272
 21
37.655723421300074
 31
0.0
  0
LINE
  5
52
100
AcDbEntity
100
AcDbLine
  8
Bed
 62
256
370
-1
  6
ByLayer
 10
260.4504742874000272
 20
37.655723421300074
 30
0.0
 11
260.4504742874000272
 21
67.6557234213000243
 31
0.0
  0
LINE
  5
53
100
AcDbEntity
100
AcDbLine
  8
Bed
 62
256
370
-1
  6
ByLayer
 10
260.4504742874000272
 20
67.6557234213000243
 30
0.0
 11
220.4504742873999987
 21
67.6557234213000243
 31
0.0
  0
CIRCLE
  5
54
100
AcDbEntity
100
AcDbCircle
  8
Bed
 62
256
370
-1
  6
ByLayer
 10
97.8504999999999967
 20
214.6560000000000059
 30
0.0
 40
2.2999999999999998
  0
CIRCLE
  5
55
100
AcDbEntity
100
AcDbCircle
  8
Bed
 62
256
370
-1
  6
ByLayer
 10
316.0500000000000114
 20
214.6560000000000059
 30
0.0
 40
2.2999999999999998
  0
CIRCLE
  5
56
100
AcDbEntity
100
AcDbCircle
  8
Bed
 62
256
370
-1
  6
ByLayer
 10
316.0500000000000114
 20
90.655699999999996
 30
0.0
 40
2.2999999999999998
  0
CIRCLE
  5
57
100
AcDbEntity
100
AcDbCircle
  8
Bed
 62
256
370
-1
  6
ByLayer
 10
97.8504999999999967
 20
90.655699999999996
 30
0.0
 40
2.2999999999999998
  0
LINE
  5
58
100
AcDbEntity
100
AcDbLine
  8
centres & dims
 62
8
370
-1
  6
ByLayer
 10
82.8504742874000186
 20
214.6557234212999958
 30
0.0
 11
107.8504742874000186
 21
214.6557234212999958
 31
0.0
  0
LINE
  5
59
100
AcDbEntity
100
AcDbLine
  8
centres & dims
 62
8
370
-1
  6
ByLayer
 10
97.8504742874000186
 20
199.6557234212999958
 30
0.0
 11
97.8504742874000186
 21
224.6557234212999958
 31
0.0
  0
LINE
  5
5A
100
AcDbEntity
100
AcDbLine
  8
centres & dims
 62
8
370
-1
  6
ByLayer
 10
82.8504742874000044
 20
90.6557234212999958
 30
0.0
 11
107.8504742874000044
 21
90.6557234212999958
 31
0.0
  0
LINE
  5
5B
100
AcDbEntity
100
AcDbLine
  8
centres & dims
 62
8
370
-1
  6
ByLayer
 10
97.8504742874000044
 20
75.6557234212999958
 30
0.0
 11
97.8504742874000044
 21
100.6557234212999958
 31
0.0
  0
LINE
  5
5C
100
AcDbEntity
100
AcDbLine
  8
centres & dims
 62
8
370
-1
  6
ByLayer
 10
301.050474287399993
 20
214.6557234212999958
 30
0.0
 11
326.050474287399993
 21
214.6557234212999958
 31
0.0
  0
LINE
  5
5D
100
AcDbEntity
100
AcDbLine
  8
centres & dims
 62
8
370
-1
  6
ByLayer
 10
316.050474287399993
 20
199.6557234212999958
 30
0.0
 11
316.050474287399993
 21
224.6557234212999958
 31
0.0
  0
LINE
  5
5E
100
AcDbEntity
100
AcDbLine
  8
centres & dims
 62
8
370
-1
  6
ByLayer
 10
301.050474287399993
 20
90.6557234212998253
 30
0.0
 11
326.050474287399993
 21
90.6557234212998253
 31
0.0
  0
LINE
  5
5F
100
AcDbEntity
100
AcDbLine
  8
centres & dims
 62
8
370
-1
  6
ByLayer
 10
316.050474287399993
 20
75.6557234212998253
 30
0.0
 11
316.050474287399993
 21
100.6557234212998253
 31
0.0
  0
DIMENSION
  5
60
100
AcDbEntity
  8
centres & dims
 62
8
370
-1
  6
ByLayer
100
AcDbDimension
 10
78.003875968992304
 20
67.6557234213000385
 30
0.0
 11
73.378875968992304
 21
52.65572342130001
 31
0.0
 70
0
 71
5
 72
1
 41
1.0
 42
0.0
  1

  3
Standard
100
AcDbAlignedDimension
 13
90.4504742873999987
 23
37.6557234212999958
 33
0.0
 14
220.4504742873999987
 24
67.6557234213000243
 34
0.0
 50
90.0
100
AcDbRotatedDimension
  0
DIMENSION
  5
61
100
AcDbEntity
  8
centres & dims
 62
8
370
-1
  6
ByLayer
100
AcDbDimension
 10
63.2945736434108781
 20
90.6557234212999958
 30
0.0
 11
58.669573643410871
 21
64.1557234212999958
 31
0.0
 70
0
 71
5
 72
1
 41
1.0
 42
0.0
  1

  3
Standard
100
AcDbAlignedDimension
 13
90.4504742873999987
 23
37.6557234212999958
 33
0.0
 14
97.8504742874000044
 24
90.6557234212999958
 34
0.0
 50
90.0
100
AcDbRotatedDimension
  0
DIMENSION
  5
62
100
AcDbEntity
  8
centres & dims
 62
8
370
-1
  6
ByLayer
100
AcDbDimension
 10
51.7054263565891716
 20
214.6557234212999958
 30
0.0
 11
47.0804263565891645
 21
126.1557234212999958
 31
0.0
 70
0
 71
5
 72
1
 41
1.0
 42
0.0
  1

  3
Standard
100
AcDbAlignedDimension
 13
90.4504742873999987
 23
37.6557234212999958
 33
0.0
 14
97.8504742874000186
 24
214.6557234212999958
 34
0.0
 50
90.0
100
AcDbRotatedDimension
  0
DIMENSION
  5
63
100
AcDbEntity
  8
centres & dims
 62
8
370
-1
  6
ByLayer
100
AcDbDimension
 10
33.8759689922480902
 20
267.6557234213000811
 30
0.0
 11
29.2509689922480831
 21
152.6557234213000243
 31
0.0
 70
0
 71
5
 72
1
 41
1.0
 42
0.0
  1

  3
Standard
100
AcDbAlignedDimension
 13
78.003875968992304
 23
37.6557234212999958
 33
0.0
 14
90.4504742874000129
 24
267.6557234213000811
 34
0.0
 50
90.0
100
AcDbRotatedDimension
  0
DIMENSION
  5
64
100
AcDbEntity
  8
centres & dims
 62
8
370
-1
  6
ByLayer
100
AcDbDimension
 10
97.8504742874000044
 20
23.1782945736434272
 30
0.0
 11
94.1504742874000016
 21
27.8032945736434272
 31
0.0
 70
0
 71
5
 72
1
 41
1.0
 42
0.0
  1

  3
Standard
100
AcDbAlignedDimension
 13
90.4504742873999987
 23
37.6557234212999958
 33
0.0
 14
97.8504742874000044
 24
90.6557234212999958
 34
0.0
 50
0.0
100
AcDbRotatedDimension
  0
DIMENSION
  5
65
100
AcDbEntity
  8
centres & dims
 62
8
370
-1
  6
ByLayer
100
AcDbDimension
 10
220.4504742873999987
 20
14.2635658914728829
 30
0.0
 11
155.4504742873999987
 21
18.8885658914728829
 31
0.0
 70
0
 71
5
 72
1
 41
1.0
 42
0.0
  1

  3
Standard
100
AcDbAlignedDimension
 13
90.4504742873999987
 23
37.6557234212999958
 33
0.0
 14
220.4504742873999987
 24
37.655723421300145
 34
0.0
 50
0.0
100
AcDbRotatedDimension
  0
DIMENSION
  5
66
100
AcDbEntity
  8
centres & dims
 62
8
370
-1
  6
ByLayer
100
AcDbDimension
 10
260.4504742874000272
 20
0.8914728682170576
 30
0.0
 11
175.4504742873999987
 21
5.5164728682170576
 31
0.0
 70
0
 71
5
 72
1
 41
1.0
 42
0.0
  1

  3
Standard
100
AcDbAlignedDimension
 13
90.4504742873999987
 23
37.6557234212999958
 33
0.0
 14
260.4504742874000272
 24
37.655723421300074
 34
0.0
 50
0.0
100
AcDbRotatedDimension
  0
DIMENSION
  5
67
100
AcDbEntity
  8
centres & dims
 62
8
370
-1
  6
ByLayer
100
AcDbDimension
 10
316.050474287399993
 20
-12.0348837209302246
 30
0.0
 11
203.2504742873999817
 21
-7.4098837209302246
 31
0.0
 70
0
 71
5
 72
1
 41
1.0
 42
0.0
  1

  3
Standard
100
AcDbAlignedDimension
 13
90.4504742873999987
 23
37.6557234212999958
 33
0.0
 14
316.050474287399993
 24
90.6557234212998253
 34
0.0
 50
0.0
100
AcDbRotatedDimension
  0
DIMENSION
  5
68
100
AcDbEntity
  8
centres & dims
 62
8
370
-1
  6
ByLayer
100
AcDbDimension
 10
322.4504742874000272
 20
-26.2984496124031182
 30
0.0
 11
206.4504742873999987
 21
-21.6734496124031182
 31
0.0
 70
0
 71
5
 72
1
 41
1.0
 42
0.0
  1

  3
Standard
100
AcDbAlignedDimension
 13
90.4504742873999987
 23
37.6557234212999958
 33
0.0
 14
322.4504742874000272
 24
37.6557234212999319
 34
0.0
 50
0.0
100
AcDbRotatedDimension
  0
DIMENSION
  5
69
100
AcDbEntity
  8
centres & dims
 62
8
370
-1
  6
ByLayer
100
AcDbDimension
 10
272.4504742874000272
 20
325.719613801727121
 30
0.0
 11
181.4504742874000272
 21
330.344613801727121
 31
0.0
 70
0
 71
5
 72
1
 41
1.0
 42
0.0
  1

  3
Standard
100
AcDbAlignedDimension
 13
90.4504742874000129
 23
267.6557234213000811
 33
0.0
 14
272.4504742874000272
 24
297.6557234213000243
 34
0.0
 50
0.0
100
AcDbRotatedDimension
  0
DIMENSION
  5
6A
100
AcDbEntity
  8
centres & dims
 62
8
370
-1
  6
ByLayer
100
AcDbDimension
 10
222.4504742874000272
 20
305.3964614591946543
 30
0.0
 11
156.4504742874000272
 21
310.0214614591946543
 31
0.0
 70
0
 71
5
 72
1
 41
1.0
 42
0.0
  1

  3
Standard
100
AcDbAlignedDimension
 13
90.4504742874000129
 23
267.6557234213000811
 33
0.0
 14
222.4504742874000272
 24
297.6557234213000243
 34
0.0
 50
0.0
100
AcDbRotatedDimension
  0
CIRCLE
  5
6B
100
AcDbEntity
100
AcDbCircle
  8
centres & dims
 62
256
370
-1
  6
ByLayer
 10
230.0
 20
290.0
 30
0.0
 40
1.5
  0
CIRCLE
  5
6C
100
AcDbEntity
100
AcDbCircle
  8
centres & dims
 62
256
370
-1
  6
ByLayer
 10
250.0
 20
290.0
 30
0.0
 40
1.5
  0
CIRCLE
  5
6D
100
AcDbEntity
100
AcDbCircle
  8
centres & dims
 62
256
370
-1
  6
ByLayer
 10
266.0
 20
290.0
 30
0.0
 40
1.5
  0
ENDSEC
  0
SECTION
  2
OBJECTS
  0
DICTIONARY
  5
C
100
AcDbDictionary
280
0
281
1
  3
ACAD_GROUP
350
D
  3
ACAD_LAYOUT
350
1A
  3
ACAD_MLINESTYLE
350
17
  3
ACAD_PLOTSETTINGS
350
19
  3
ACAD_PLOTSTYLENAME
350
E
  3
AcDbVariableDictionary
350
6E
  0
DICTIONARY
  5
D
100
AcDbDictionary
280
0
281
1
  0
ACDBDICTIONARYWDFLT
  5
E
100
AcDbDictionary
281
1
  3
Normal
350
F
100
AcDbDictionaryWithDefault
340
F
  0
ACDBPLACEHOLDER
  5
F
  0
DICTIONARY
  5
17
100
AcDbDictionary
280
0
281
1
  3
Standard
350
18
  0
MLINESTYLE
  5
18
100
AcDbMlineStyle
  2
STANDARD
 70
0
  3

 62
256
 51
90.0
 52
90.0
 71
2
 49
0.5
 62
256
  6
BYLAYER
 49
-0.5
 62
256
  6
BYLAYER
  0
DICTIONARY
  5
19
100
AcDbDictionary
280
0
281
1
  0
DICTIONARY
  5
1A
100
AcDbDictionary
281
1
  3
Layout1
350
1E
  3
Layout2
350
26
  3
Model
350
22
  0
LAYOUT
  5
1E
100
AcDbPlotSettings
  1

  2
C:\Program Files\AutoCAD 2002\plotters\DWF ePlot (optimized for plotting).pc3
  4

  6

 40
0.0
 41
0.0
 42
0.0
 43
0.0
 44
0.0
 45
0.0
 46
0.0
 47
0.0
 48
0.0
 49
0.0
140
0.0
141
0.0
142
1.0
143
1.0
 70
688
 72
0
 73
0
 74
5
  7

 75
16
147
1.0
148
0.0
149
0.0
100
AcDbLayout
  1
Layout1
 70
1
 71
1
 10
0.0
 20
0.0
 11
420.0
 21
297.0
 12
0.0
 22
0.0
 32
0.0
 14
100000000000000000000.0
 24
100000000000000000000.0
 34
100000000000000000000.0
 15
-100000000000000000000.0
 25
-100000000000000000000.0
 35
-100000000000000000000.0
146
0.0
 13
0.0
 23
0.0
 33
0.0
 16
1.0
 26
0.0
 36
0.0
 17
0.0
 27
1.0
 37
0.0
 76
0
330
1B
  0
LAYOUT
  5
22
100
AcDbPlotSettings
  1

  2
C:\Program Files\AutoCAD 2002\plotters\DWF ePlot (optimized for plotting).pc3
  4

  6

 40
0.0
 41
0.0
 42
0.0
 43
0.0
 44
0.0
 45
0.0
 46
0.0
 47
0.0
 48
0.0
 49
0.0
140
0.0
141
0.0
142
1.0
143
1.0
 70
1712
 72
0
 73
0
 74
0
  7

 75
0
147
1.0
148
0.0
149
0.0
100
AcDbLayout
  1
Model
 70
1
 71
0
 10
0.0
 20
0.0
 11
12.0
 21
9.0
 12
0.0
 22
0.0
 32
0.0
 14
0.0
 24
0.0
 34
0.0
 15
0.0
 25
0.0
 35
0.0
146
0.0
 13
0.0
 23
0.0
 33
0.0
 16
1.0
 26
0.0
 36
0.0
 17
0.0
 27
1.0
 37
0.0
 76
0
330
1F
  0
LAYOUT
  5
26
100
AcDbPlotSettings
  1

  2
C:\Program Files\AutoCAD 2002\plotters\DWF ePlot (optimized for plotting).pc3
  4

  6

 40
0.0
 41
0.0
 42
0.0
 43
0.0
 44
0.0
 45
0.0
 46
0.0
 47
0.0
 48
0.0
 49
0.0
140
0.0
141
0.0
142
1.0
143
1.0
 70
688
 72
0
 73
0
 74
5
  7

 75
16
147
1.0
148
0.0
149
0.0
100
AcDbLayout
  1
Layout2
 70
1
 71
2
 10
0.0
 20
0.0
 11
12.0
 21
9.0
 12
0.0
 22
0.0
 32
0.0
 14
0.0
 24
0.0
 34
0.0
 15
0.0
 25
0.0
 35
0.0
146
0.0
 13
0.0
 23
0.0
 33
0.0
 16
1.0
 26
0.0
 36
0.0
 17
0.0
 27
1.0
 37
0.0
 76
0
330
23
  0
DICTIONARY
  5
6E
100
AcDbDictionary
281
1
  3
DIMASSOC
350
70
  3
HIDETEXT
350
6F
  0
DICTIONARYVAR
  5
6F
100
DictionaryVariables
280
0
  1
2
  0
DICTIONARYVAR
  5
70
100
DictionaryVariables
280
0
  1
1
  0
ENDSEC
  0
EOF
