solid OpenSCAD_Model
  facet normal 1 -0 0
    outer loop
      vertex 129 0 10
      vertex 129 105 0
      vertex 129 105 10
    endloop
  endfacet
  facet normal 1 0 0
    outer loop
      vertex 129 105 0
      vertex 129 0 10
      vertex 129 0 0
    endloop
  endfacet
  facet normal -0 0 1
    outer loop
      vertex 4 99 10
      vertex 99 95 10
      vertex 99 99 10
    endloop
  endfacet
  facet normal 0 0 1
    outer loop
      vertex 99 95 10
      vertex 4 99 10
      vertex 4 95 10
    endloop
  endfacet
  facet normal -0 0 1
    outer loop
      vertex 103 29 10
      vertex 125 26 10
      vertex 125 29 10
    endloop
  endfacet
  facet normal 0 0 1
    outer loop
      vertex 125 26 10
      vertex 103 29 10
      vertex 103 26 10
    endloop
  endfacet
  facet normal -0 0 1
    outer loop
      vertex 103 54 10
      vertex 125 51 10
      vertex 125 54 10
    endloop
  endfacet
  facet normal 0 0 1
    outer loop
      vertex 125 51 10
      vertex 103 54 10
      vertex 103 51 10
    endloop
  endfacet
  facet normal -0 0 1
    outer loop
      vertex 103 79 10
      vertex 125 76 10
      vertex 125 79 10
    endloop
  endfacet
  facet normal 0 0 1
    outer loop
      vertex 125 76 10
      vertex 103 79 10
      vertex 103 76 10
    endloop
  endfacet
  facet normal 0 0 1
    outer loop
      vertex 125 79 10
      vertex 129 105 10
      vertex 125 101 10
    endloop
  endfacet
  facet normal 0 0 1
    outer loop
      vertex 129 105 10
      vertex 103 101 10
      vertex 125 101 10
    endloop
  endfacet
  facet normal -0 0 1
    outer loop
      vertex 99 95 10
      vertex 103 79 10
      vertex 103 101 10
    endloop
  endfacet
  facet normal 0 0 1
    outer loop
      vertex 103 79 10
      vertex 99 95 10
      vertex 103 76 10
    endloop
  endfacet
  facet normal 0 0 1
    outer loop
      vertex 103 76 10
      vertex 99 95 10
      vertex 103 54 10
    endloop
  endfacet
  facet normal 0 0 1
    outer loop
      vertex 103 54 10
      vertex 99 95 10
      vertex 103 51 10
    endloop
  endfacet
  facet normal 0 0 1
    outer loop
      vertex 99 0 10
      vertex 103 51 10
      vertex 99 95 10
    endloop
  endfacet
  facet normal 0 0 1
    outer loop
      vertex 103 51 10
      vertex 99 0 10
      vertex 103 29 10
    endloop
  endfacet
  facet normal 0 0 1
    outer loop
      vertex 99 99 10
      vertex 103 101 10
      vertex 99 101 10
    endloop
  endfacet
  facet normal 0 0 1
    outer loop
      vertex 129 105 10
      vertex 99 101 10
      vertex 103 101 10
    endloop
  endfacet
  facet normal -0 0 1
    outer loop
      vertex 0 105 10
      vertex 99 101 10
      vertex 129 105 10
    endloop
  endfacet
  facet normal 0 0 1
    outer loop
      vertex 0 105 10
      vertex 4 99 10
      vertex 4 101 10
    endloop
  endfacet
  facet normal 0 0 1
    outer loop
      vertex 4 99 10
      vertex 0 105 10
      vertex 4 95 10
    endloop
  endfacet
  facet normal 0 0 1
    outer loop
      vertex 99 101 10
      vertex 0 105 10
      vertex 4 101 10
    endloop
  endfacet
  facet normal 0 0 1
    outer loop
      vertex 4 95 10
      vertex 0 105 10
      vertex 0 0 10
    endloop
  endfacet
  facet normal 0 0 1
    outer loop
      vertex 4 95 10
      vertex 0 0 10
      vertex 4 0 10
    endloop
  endfacet
  facet normal 0 0 1
    outer loop
      vertex 125 76 10
      vertex 129 105 10
      vertex 125 79 10
    endloop
  endfacet
  facet normal 0 0 1
    outer loop
      vertex 125 54 10
      vertex 129 105 10
      vertex 125 76 10
    endloop
  endfacet
  facet normal 0 0 1
    outer loop
      vertex 129 105 10
      vertex 125 54 10
      vertex 129 0 10
    endloop
  endfacet
  facet normal -0 0 1
    outer loop
      vertex 125 51 10
      vertex 129 0 10
      vertex 125 54 10
    endloop
  endfacet
  facet normal -0 0 1
    outer loop
      vertex 125 29 10
      vertex 129 0 10
      vertex 125 51 10
    endloop
  endfacet
  facet normal -0 0 1
    outer loop
      vertex 125 26 10
      vertex 129 0 10
      vertex 125 29 10
    endloop
  endfacet
  facet normal -0 0 1
    outer loop
      vertex 125 4 10
      vertex 129 0 10
      vertex 125 26 10
    endloop
  endfacet
  facet normal -0 0 1
    outer loop
      vertex 103 4 10
      vertex 129 0 10
      vertex 125 4 10
    endloop
  endfacet
  facet normal 0 0 1
    outer loop
      vertex 99 95 10
      vertex 103 101 10
      vertex 99 99 10
    endloop
  endfacet
  facet normal 0 0 1
    outer loop
      vertex 103 29 10
      vertex 99 0 10
      vertex 103 26 10
    endloop
  endfacet
  facet normal 0 0 1
    outer loop
      vertex 103 4 10
      vertex 99 0 10
      vertex 129 0 10
    endloop
  endfacet
  facet normal 0 0 1
    outer loop
      vertex 103 26 10
      vertex 99 0 10
      vertex 103 4 10
    endloop
  endfacet
  facet normal 0 0 -1
    outer loop
      vertex 0 0 0
      vertex 129 105 0
      vertex 129 0 0
    endloop
  endfacet
  facet normal -0 0 -1
    outer loop
      vertex 129 105 0
      vertex 0 0 0
      vertex 0 105 0
    endloop
  endfacet
  facet normal -1 0 0
    outer loop
      vertex 0 0 0
      vertex 0 105 10
      vertex 0 105 0
    endloop
  endfacet
  facet normal -1 -0 0
    outer loop
      vertex 0 105 10
      vertex 0 0 0
      vertex 0 0 10
    endloop
  endfacet
  facet normal 0 1 -0
    outer loop
      vertex 129 105 0
      vertex 0 105 10
      vertex 129 105 10
    endloop
  endfacet
  facet normal 0 1 0
    outer loop
      vertex 0 105 10
      vertex 129 105 0
      vertex 0 105 0
    endloop
  endfacet
  facet normal 0 -1 0
    outer loop
      vertex 0 0 10
      vertex 4 0 5
      vertex 4 0 10
    endloop
  endfacet
  facet normal 0 -1 -0
    outer loop
      vertex 4 0 5
      vertex 0 0 0
      vertex 99 0 5
    endloop
  endfacet
  facet normal 0 -1 0
    outer loop
      vertex 0 0 0
      vertex 4 0 5
      vertex 0 0 10
    endloop
  endfacet
  facet normal 0 -1 0
    outer loop
      vertex 99 0 5
      vertex 129 0 10
      vertex 99 0 10
    endloop
  endfacet
  facet normal 0 -1 0
    outer loop
      vertex 99 0 5
      vertex 129 0 0
      vertex 129 0 10
    endloop
  endfacet
  facet normal 0 -1 0
    outer loop
      vertex 129 0 0
      vertex 99 0 5
      vertex 0 0 0
    endloop
  endfacet
  facet normal -1 0 0
    outer loop
      vertex 99 0 5
      vertex 99 95 10
      vertex 99 95 5
    endloop
  endfacet
  facet normal -1 -0 0
    outer loop
      vertex 99 95 10
      vertex 99 0 5
      vertex 99 0 10
    endloop
  endfacet
  facet normal -0 0 1
    outer loop
      vertex 4 95 5
      vertex 99 0 5
      vertex 99 95 5
    endloop
  endfacet
  facet normal 0 0 1
    outer loop
      vertex 99 0 5
      vertex 4 95 5
      vertex 4 0 5
    endloop
  endfacet
  facet normal 1 -0 0
    outer loop
      vertex 4 0 10
      vertex 4 95 5
      vertex 4 95 10
    endloop
  endfacet
  facet normal 1 0 0
    outer loop
      vertex 4 95 5
      vertex 4 0 10
      vertex 4 0 5
    endloop
  endfacet
  facet normal 0 -1 0
    outer loop
      vertex 4 95 5
      vertex 99 95 10
      vertex 4 95 10
    endloop
  endfacet
  facet normal 0 -1 -0
    outer loop
      vertex 99 95 10
      vertex 4 95 5
      vertex 99 95 5
    endloop
  endfacet
  facet normal -1 0 0
    outer loop
      vertex 99 99 5
      vertex 99 101 10
      vertex 99 101 5
    endloop
  endfacet
  facet normal -1 -0 0
    outer loop
      vertex 99 101 10
      vertex 99 99 5
      vertex 99 99 10
    endloop
  endfacet
  facet normal -0 0 1
    outer loop
      vertex 4 101 5
      vertex 99 99 5
      vertex 99 101 5
    endloop
  endfacet
  facet normal 0 0 1
    outer loop
      vertex 99 99 5
      vertex 4 101 5
      vertex 4 99 5
    endloop
  endfacet
  facet normal 1 -0 0
    outer loop
      vertex 4 99 10
      vertex 4 101 5
      vertex 4 101 10
    endloop
  endfacet
  facet normal 1 0 0
    outer loop
      vertex 4 101 5
      vertex 4 99 10
      vertex 4 99 5
    endloop
  endfacet
  facet normal 0 -1 0
    outer loop
      vertex 4 101 5
      vertex 99 101 10
      vertex 4 101 10
    endloop
  endfacet
  facet normal 0 -1 -0
    outer loop
      vertex 99 101 10
      vertex 4 101 5
      vertex 99 101 5
    endloop
  endfacet
  facet normal 0 1 -0
    outer loop
      vertex 99 99 5
      vertex 4 99 10
      vertex 99 99 10
    endloop
  endfacet
  facet normal 0 1 0
    outer loop
      vertex 4 99 10
      vertex 99 99 5
      vertex 4 99 5
    endloop
  endfacet
  facet normal -1 0 0
    outer loop
      vertex 125 4 4
      vertex 125 26 10
      vertex 125 26 4
    endloop
  endfacet
  facet normal -1 -0 0
    outer loop
      vertex 125 26 10
      vertex 125 4 4
      vertex 125 4 10
    endloop
  endfacet
  facet normal -0 0 1
    outer loop
      vertex 103 26 4
      vertex 125 4 4
      vertex 125 26 4
    endloop
  endfacet
  facet normal 0 0 1
    outer loop
      vertex 125 4 4
      vertex 103 26 4
      vertex 103 4 4
    endloop
  endfacet
  facet normal 1 -0 0
    outer loop
      vertex 103 4 10
      vertex 103 26 4
      vertex 103 26 10
    endloop
  endfacet
  facet normal 1 0 0
    outer loop
      vertex 103 26 4
      vertex 103 4 10
      vertex 103 4 4
    endloop
  endfacet
  facet normal 0 -1 0
    outer loop
      vertex 103 26 4
      vertex 125 26 10
      vertex 103 26 10
    endloop
  endfacet
  facet normal 0 -1 -0
    outer loop
      vertex 125 26 10
      vertex 103 26 4
      vertex 125 26 4
    endloop
  endfacet
  facet normal 0 1 -0
    outer loop
      vertex 125 4 4
      vertex 103 4 10
      vertex 125 4 10
    endloop
  endfacet
  facet normal 0 1 0
    outer loop
      vertex 103 4 10
      vertex 125 4 4
      vertex 103 4 4
    endloop
  endfacet
  facet normal -1 0 0
    outer loop
      vertex 125 29 4
      vertex 125 51 10
      vertex 125 51 4
    endloop
  endfacet
  facet normal -1 -0 0
    outer loop
      vertex 125 51 10
      vertex 125 29 4
      vertex 125 29 10
    endloop
  endfacet
  facet normal -0 0 1
    outer loop
      vertex 103 51 4
      vertex 125 29 4
      vertex 125 51 4
    endloop
  endfacet
  facet normal 0 0 1
    outer loop
      vertex 125 29 4
      vertex 103 51 4
      vertex 103 29 4
    endloop
  endfacet
  facet normal 1 -0 0
    outer loop
      vertex 103 29 10
      vertex 103 51 4
      vertex 103 51 10
    endloop
  endfacet
  facet normal 1 0 0
    outer loop
      vertex 103 51 4
      vertex 103 29 10
      vertex 103 29 4
    endloop
  endfacet
  facet normal 0 -1 0
    outer loop
      vertex 103 51 4
      vertex 125 51 10
      vertex 103 51 10
    endloop
  endfacet
  facet normal 0 -1 -0
    outer loop
      vertex 125 51 10
      vertex 103 51 4
      vertex 125 51 4
    endloop
  endfacet
  facet normal 0 1 -0
    outer loop
      vertex 125 29 4
      vertex 103 29 10
      vertex 125 29 10
    endloop
  endfacet
  facet normal 0 1 0
    outer loop
      vertex 103 29 10
      vertex 125 29 4
      vertex 103 29 4
    endloop
  endfacet
  facet normal -1 0 0
    outer loop
      vertex 125 54 4
      vertex 125 76 10
      vertex 125 76 4
    endloop
  endfacet
  facet normal -1 -0 0
    outer loop
      vertex 125 76 10
      vertex 125 54 4
      vertex 125 54 10
    endloop
  endfacet
  facet normal -0 0 1
    outer loop
      vertex 103 76 4
      vertex 125 54 4
      vertex 125 76 4
    endloop
  endfacet
  facet normal 0 0 1
    outer loop
      vertex 125 54 4
      vertex 103 76 4
      vertex 103 54 4
    endloop
  endfacet
  facet normal 1 -0 0
    outer loop
      vertex 103 54 10
      vertex 103 76 4
      vertex 103 76 10
    endloop
  endfacet
  facet normal 1 0 0
    outer loop
      vertex 103 76 4
      vertex 103 54 10
      vertex 103 54 4
    endloop
  endfacet
  facet normal 0 -1 0
    outer loop
      vertex 103 76 4
      vertex 125 76 10
      vertex 103 76 10
    endloop
  endfacet
  facet normal 0 -1 -0
    outer loop
      vertex 125 76 10
      vertex 103 76 4
      vertex 125 76 4
    endloop
  endfacet
  facet normal 0 1 -0
    outer loop
      vertex 125 54 4
      vertex 103 54 10
      vertex 125 54 10
    endloop
  endfacet
  facet normal 0 1 0
    outer loop
      vertex 103 54 10
      vertex 125 54 4
      vertex 103 54 4
    endloop
  endfacet
  facet normal -1 0 0
    outer loop
      vertex 125 79 4
      vertex 125 101 10
      vertex 125 101 4
    endloop
  endfacet
  facet normal -1 -0 0
    outer loop
      vertex 125 101 10
      vertex 125 79 4
      vertex 125 79 10
    endloop
  endfacet
  facet normal -0 0 1
    outer loop
      vertex 103 101 4
      vertex 125 79 4
      vertex 125 101 4
    endloop
  endfacet
  facet normal 0 0 1
    outer loop
      vertex 125 79 4
      vertex 103 101 4
      vertex 103 79 4
    endloop
  endfacet
  facet normal 1 -0 0
    outer loop
      vertex 103 79 10
      vertex 103 101 4
      vertex 103 101 10
    endloop
  endfacet
  facet normal 1 0 0
    outer loop
      vertex 103 101 4
      vertex 103 79 10
      vertex 103 79 4
    endloop
  endfacet
  facet normal 0 -1 0
    outer loop
      vertex 103 101 4
      vertex 125 101 10
      vertex 103 101 10
    endloop
  endfacet
  facet normal 0 -1 -0
    outer loop
      vertex 125 101 10
      vertex 103 101 4
      vertex 125 101 4
    endloop
  endfacet
  facet normal 0 1 -0
    outer loop
      vertex 125 79 4
      vertex 103 79 10
      vertex 125 79 10
    endloop
  endfacet
  facet normal 0 1 0
    outer loop
      vertex 103 79 10
      vertex 125 79 4
      vertex 103 79 4
    endloop
  endfacet
endsolid OpenSCAD_Model
