solid Arm 90 - 270
facet normal 0.382683429708119 -0.923879533611816 -2.11179997903107e-007
outer loop
vertex 6.42541730324738 7.40007120210436 12.0007159382422
vertex 4.86976808483667 6.75570294576197 0.000619713522462473
vertex 6.42540300041417 7.40006802065431 0.000617688538799588
endloop
endfacet
facet normal 0.382683429708119 -0.923879533611816 -2.11179997903107e-007
outer loop
vertex 4.86976808483667 6.75570294576197 0.000619713522462473
vertex 6.42541730324738 7.40007120210436 12.0007159382422
vertex 4.86978238766988 6.75570612721192 12.0007179632258
endloop
endfacet
facet normal 0.382683435021512 0.923879531410695 -7.01055415108192e-007
outer loop
vertex 4.86976807588988 3.64443311831069 0.000620538378123314
vertex 6.42541729059473 3.00007121592057 12.0007171047643
vertex 6.4254029877615 3.00006803447057 0.000618855060956502
endloop
endfacet
facet normal 0.382683435021512 0.923879531410695 -7.01055415108192e-007
outer loop
vertex 6.42541729059473 3.00007121592057 12.0007171047643
vertex 4.86976807588988 3.64443311831069 0.000620538378123314
vertex 4.86978237872308 3.64443629976065 12.0007187880815
endloop
endfacet
facet normal 0.923879531410187 -0.382683435022074 -9.99709034192554e-007
outer loop
vertex 4.86976808483667 6.75570294576197 0.000619713522462473
vertex 4.22541730383066 5.20007121533941 12.0007191436679
vertex 4.22540300099748 5.20006803388946 0.000620893964504099
endloop
endfacet
facet normal 0.923879531410187 -0.382683435022074 -9.99709034192554e-007
outer loop
vertex 4.22541730383066 5.20007121533941 12.0007191436679
vertex 4.86976808483667 6.75570294576197 0.000619713522462473
vertex 4.86978238766988 6.75570612721192 12.0007179632258
endloop
endfacet
facet normal -0.923879531410183 0.382683435022083 9.99709035061365e-007
outer loop
vertex 7.98105220617223 3.64443629081292 12.0007150797807
vertex 8.62540298717824 5.20006802123543 0.00061564963534223
vertex 7.98103790333903 3.64443310936296 0.000616830077383856
endloop
endfacet
facet normal -0.923879531410183 0.382683435022083 9.99709035061365e-007
outer loop
vertex 8.62540298717824 5.20006802123543 0.00061564963534223
vertex 7.98105220617223 3.64443629081292 12.0007150797807
vertex 8.62541729001144 5.20007120268539 12.0007138993386
endloop
endfacet
facet normal 0.92387953361108 0.382683429708065 -1.20262207356462e-006
outer loop
vertex 4.22540300099748 5.20006803388946 0.000620893964504099
vertex 4.86978237872308 3.64443629976065 12.0007187880815
vertex 4.86976807588988 3.64443311831069 0.000620538378123314
endloop
endfacet
facet normal 0.92387953361108 0.382683429708065 -1.20262207356462e-006
outer loop
vertex 4.86978237872308 3.64443629976065 12.0007187880815
vertex 4.22540300099748 5.20006803388946 0.000620893964504099
vertex 4.22541730383066 5.20007121533941 12.0007191436679
endloop
endfacet
facet normal -0.382683435021525 -0.923879531410689 7.0105541648368e-007
outer loop
vertex 7.98105221511901 6.75570611826419 12.000714254925
vertex 6.42540300041417 7.40006802065431 0.000617688538799588
vertex 7.9810379122858 6.75570293681424 0.000616005221723015
endloop
endfacet
facet normal -0.382683435021525 -0.923879531410689 7.0105541648368e-007
outer loop
vertex 6.42540300041417 7.40006802065431 0.000617688538799588
vertex 7.98105221511901 6.75570611826419 12.000714254925
vertex 6.42541730324738 7.40007120210436 12.0007159382422
endloop
endfacet
facet normal -0.999999999999862 4.53440554383458e-007 2.64510331585137e-007
outer loop
vertex 6.34817077358185e-006 2.92892799070508 12.0005332251617
vertex 6.34816926771975e-006 9.92892799070516 0.000719819986019854
vertex 3.52495810318487e-016 2.92888051435411 0.000719819986019854
endloop
endfacet
facet normal -0.999999999999862 4.53440554383458e-007 2.64510331585137e-007
outer loop
vertex 6.34816926771975e-006 9.92892799070516 0.000719819986019854
vertex 6.34817077358185e-006 2.92892799070508 12.0005332251617
vertex 6.34816926771975e-006 9.92892799070516 12.0005332251617
endloop
endfacet
facet normal -0.923879533611078 -0.38268342970807 1.20262207443196e-006
outer loop
vertex 8.62541729001144 5.20007120268539 12.0007138993386
vertex 7.9810379122858 6.75570293681424 0.000616005221723015
vertex 8.62540298717824 5.20006802123543 0.00061564963534223
endloop
endfacet
facet normal -0.923879533611078 -0.38268342970807 1.20262207443196e-006
outer loop
vertex 7.9810379122858 6.75570293681424 0.000616005221723015
vertex 8.62541729001144 5.20007120268539 12.0007138993386
vertex 7.98105221511901 6.75570611826419 12.000714254925
endloop
endfacet
facet normal -0.382683429708106 0.923879533611821 2.11180000001595e-007
outer loop
vertex 6.4254029877615 3.00006803447057 0.000618855060956502
vertex 7.98105220617223 3.64443629081292 12.0007150797807
vertex 7.98103790333903 3.64443310936296 0.000616830077383856
endloop
endfacet
facet normal -0.382683429708106 0.923879533611821 2.11180000001595e-007
outer loop
vertex 7.98105220617223 3.64443629081292 12.0007150797807
vertex 6.4254029877615 3.00006803447057 0.000618855060956502
vertex 6.42541729059473 3.00007121592057 12.0007171047643
endloop
endfacet
facet normal -0.843839070643324 0.536596331343305 6.68713066470715e-006
outer loop
vertex 2.9289165830201 14.5347154353114 12.0005332251617
vertex 6.34816926771975e-006 9.92892799070516 0.000719819986019854
vertex 6.34816926771975e-006 9.92892799070516 12.0005332251617
endloop
endfacet
facet normal -0.843839070643324 0.536596331343305 6.68713066470715e-006
outer loop
vertex 6.34816926771975e-006 9.92892799070516 0.000719819986019854
vertex 2.9289165830201 14.5347154353114 12.0005332251617
vertex 2.92872639323841 14.5347154335815 0.000878724525348906
endloop
endfacet
facet normal 0.654439675598693 -0.756114218222021 -2.18606304656732e-006
outer loop
vertex 29.025536347981 16.5347154349951 11.999725075057
vertex 9.921867662648 -5.16737167776335e-005 0.000707960977989608
vertex 29.0252416155648 16.5346573538367 2.93064613288485e-005
endloop
endfacet
facet normal 0.654439675598693 -0.756114218222021 -2.18606304656732e-006
outer loop
vertex 9.921867662648 -5.16737167776335e-005 0.000707960977989608
vertex 29.025536347981 16.5347154349951 11.999725075057
vertex 9.92188961593109 9.49545761324891e-005 12.0007079600621
endloop
endfacet
facet normal -0.149301819279478 0.988791670048924 1.30320433664151e-006
outer loop
vertex 2.92872639323841 14.5347154335815 0.000878724525348906
vertex 16.1743719445681 16.5347154353114 11.9995961638105
vertex 16.174352646018 16.5347154353154 0.000246352798342497
endloop
endfacet
facet normal -0.149301819279478 0.988791670048924 1.30320433664151e-006
outer loop
vertex 16.1743719445681 16.5347154353114 11.9995961638105
vertex 2.92872639323841 14.5347154335815 0.000878724525348906
vertex 2.9289165830201 14.5347154353114 12.0005332251617
endloop
endfacet
facet normal -0.571167929263144 0.820833232811648 -2.22087940852651e-005
outer loop
vertex 16.1744823484203 41.5234348465907 0.00033238125295959
vertex 25.4884319560441 48.0047705773521 11.9979416445483
vertex 25.4895877013466 48.0059116785054 -0.0019396742390451
endloop
endfacet
facet normal -0.571167929263144 0.820833232811648 -2.22087940852651e-005
outer loop
vertex 25.4884319560441 48.0047705773521 11.9979416445483
vertex 16.1744823484203 41.5234348465907 0.00033238125295959
vertex 16.1745902652525 41.5244962177608 11.9986856996161
endloop
endfacet
facet normal 0.56508742886492 -0.825031028234449 -1.37565392736976e-005
outer loop
vertex 38.4895876546836 47.1090527125933 11.9993921204728
vertex 29.0254943521593 40.627023683302 -6.90926380076284e-005
vertex 38.4895876546836 47.1090527125934 -0.0019096914611518
endloop
endfacet
facet normal 0.56508742886492 -0.825031028234449 -1.37565392736976e-005
outer loop
vertex 29.0254943521593 40.627023683302 -6.90926380076284e-005
vertex 38.4895876546836 47.1090527125933 11.9993921204728
vertex 29.0260786737065 40.627023683302 11.9998055291796
endloop
endfacet
facet normal -0.999999999961706 6.9635810893697e-006 5.30068694349358e-006
outer loop
vertex 16.1743719445681 16.5347154353114 11.9995961638105
vertex 16.1745167496383 31.571640368956 7.55524632476222
vertex 16.174352646018 16.5347154353154 0.000246352798342497
endloop
endfacet
facet normal -0.999999999961706 6.9635810893697e-006 5.30068694349358e-006
outer loop
vertex 16.1745167496383 31.571640368956 7.55524632476222
vertex 16.1743719445681 16.5347154353114 11.9995961638105
vertex 16.1745902652525 41.5244962177608 11.9986856996161
endloop
endfacet
facet normal -0.999999999961706 6.9635810893697e-006 5.30068694349358e-006
outer loop
vertex 16.174352646018 16.5347154353154 0.000246352798342497
vertex 16.1745167496383 31.571640368956 7.55524632476222
vertex 16.1745040166161 30.9272752876485 5.99961140619552
endloop
endfacet
facet normal -0.999999999961706 6.9635810893697e-006 5.30068694349358e-006
outer loop
vertex 16.1745167496383 31.571640368956 7.55524632476222
vertex 16.1745902652525 41.5244962177608 11.9986856996161
vertex 16.1745309980058 33.127275287483 8.19961140613371
endloop
endfacet
facet normal -0.999999999961706 6.9635810893697e-006 5.30068694349358e-006
outer loop
vertex 16.1745309980058 33.127275287483 8.19961140613371
vertex 16.1745902652525 41.5244962177608 11.9986856996161
vertex 16.1745384152181 34.6829102060576 7.55524632476221
endloop
endfacet
facet normal -0.999999999961706 6.9635810893697e-006 5.30068694349358e-006
outer loop
vertex 16.1745384152181 34.6829102060576 7.55524632476221
vertex 16.1745902652525 41.5244962177608 11.9986856996161
vertex 16.1745346563729 35.32727528748 5.99961140619552
endloop
endfacet
facet normal -0.999999999961706 6.9635810893697e-006 5.30068694349358e-006
outer loop
vertex 16.1745346563729 35.32727528748 5.99961140619552
vertex 16.1745902652525 41.5244962177608 11.9986856996161
vertex 16.1744823484203 41.5234348465907 0.00033238125295959
endloop
endfacet
facet normal -0.999999999961706 6.9635810893697e-006 5.30068694349358e-006
outer loop
vertex 16.174352646018 16.5347154353154 0.000246352798342497
vertex 16.1745002577709 31.5716403690708 4.44397648762883
vertex 16.1744823484203 41.5234348465907 0.00033238125295959
endloop
endfacet
facet normal -0.999999999961706 6.9635810893697e-006 5.30068694349358e-006
outer loop
vertex 16.1745002577709 31.5716403690708 4.44397648762883
vertex 16.174352646018 16.5347154353154 0.000246352798342497
vertex 16.1745040166161 30.9272752876485 5.99961140619552
endloop
endfacet
facet normal -0.999999999961706 6.9635810893697e-006 5.30068694349358e-006
outer loop
vertex 16.1744823484203 41.5234348465907 0.00033238125295959
vertex 16.1745002577709 31.5716403690708 4.44397648762883
vertex 16.1745076749832 33.1272752876454 3.79961140625733
endloop
endfacet
facet normal -0.999999999961706 6.9635810893697e-006 5.30068694349358e-006
outer loop
vertex 16.1744823484203 41.5234348465907 0.00033238125295959
vertex 16.1745076749832 33.1272752876454 3.79961140625733
vertex 16.1745219233507 34.6829102061725 4.44397648762882
endloop
endfacet
facet normal -0.999999999961706 6.9635810893697e-006 5.30068694349358e-006
outer loop
vertex 16.1744823484203 41.5234348465907 0.00033238125295959
vertex 16.1745219233507 34.6829102061725 4.44397648762882
vertex 16.1745346563729 35.32727528748 5.99961140619552
endloop
endfacet
facet normal 0.999999999193066 -1.65003216173599e-005 -3.6627954086212e-005
outer loop
vertex 29.0252416155648 16.5346573538367 2.93064613288485e-005
vertex 29.0256295243519 31.5715508791901 4.44390836781572
vertex 29.025536347981 16.5347154349951 11.999725075057
endloop
endfacet
facet normal 0.999999999193066 -1.65003216173599e-005 -3.6627954086212e-005
outer loop
vertex 29.0256295243519 31.5715508791901 4.44390836781572
vertex 29.0252416155648 16.5346573538367 2.93064613288485e-005
vertex 29.0254943521593 40.627023683302 -6.90926380076284e-005
endloop
endfacet
facet normal 0.999999999193066 -1.65003216173599e-005 -3.6627954086212e-005
outer loop
vertex 29.025536347981 16.5347154349951 11.999725075057
vertex 29.0256295243519 31.5715508791901 4.44390836781572
vertex 29.0256332831971 30.9271857977677 5.99954328638241
endloop
endfacet
facet normal 0.999999999193066 -1.65003216173599e-005 -3.6627954086212e-005
outer loop
vertex 29.0256295243519 31.5715508791901 4.44390836781572
vertex 29.0254943521593 40.627023683302 -6.90926380076284e-005
vertex 29.0256369415642 33.1271857977647 3.79954328644422
endloop
endfacet
facet normal 0.999999999193066 -1.65003216173599e-005 -3.6627954086212e-005
outer loop
vertex 29.0256369415642 33.1271857977647 3.79954328644422
vertex 29.0254943521593 40.627023683302 -6.90926380076284e-005
vertex 29.0256511899317 34.6828207162917 4.44390836781571
endloop
endfacet
facet normal 0.999999999193066 -1.65003216173599e-005 -3.6627954086212e-005
outer loop
vertex 29.0256511899317 34.6828207162917 4.44390836781571
vertex 29.0254943521593 40.627023683302 -6.90926380076284e-005
vertex 29.0256639229539 35.3271857975992 5.99954328638241
endloop
endfacet
facet normal 0.999999999193066 -1.65003216173599e-005 -3.6627954086212e-005
outer loop
vertex 29.0256639229539 35.3271857975992 5.99954328638241
vertex 29.0254943521593 40.627023683302 -6.90926380076284e-005
vertex 29.0260786737065 40.627023683302 11.9998055291796
endloop
endfacet
facet normal 0.999999999193066 -1.65003216173599e-005 -3.6627954086212e-005
outer loop
vertex 29.025536347981 16.5347154349951 11.999725075057
vertex 29.0256460162193 31.5715508790752 7.55517820494911
vertex 29.0260786737065 40.627023683302 11.9998055291796
endloop
endfacet
facet normal 0.999999999193066 -1.65003216173599e-005 -3.6627954086212e-005
outer loop
vertex 29.0256460162193 31.5715508790752 7.55517820494911
vertex 29.025536347981 16.5347154349951 11.999725075057
vertex 29.0256332831971 30.9271857977677 5.99954328638241
endloop
endfacet
facet normal 0.999999999193066 -1.65003216173599e-005 -3.6627954086212e-005
outer loop
vertex 29.0260786737065 40.627023683302 11.9998055291796
vertex 29.0256460162193 31.5715508790752 7.55517820494911
vertex 29.0256602645868 33.1271857976023 8.1995432863206
endloop
endfacet
facet normal 0.999999999193066 -1.65003216173599e-005 -3.6627954086212e-005
outer loop
vertex 29.0260786737065 40.627023683302 11.9998055291796
vertex 29.0256602645868 33.1271857976023 8.1995432863206
vertex 29.0256676817991 34.6828207161769 7.55517820494911
endloop
endfacet
facet normal 0.999999999193066 -1.65003216173599e-005 -3.6627954086212e-005
outer loop
vertex 29.0260786737065 40.627023683302 11.9998055291796
vertex 29.0256676817991 34.6828207161769 7.55517820494911
vertex 29.0256639229539 35.3271857975992 5.99954328638241
endloop
endfacet
facet normal -0.707099384306259 -0.707114177983161 2.9846742865786e-006
outer loop
vertex 2.92894496525966 4.74772649586178e-005 12.0007262494665
vertex 3.52495810318487e-016 2.92888051435411 0.000719819986019854
vertex 2.92894496525962 9.63705666747513e-015 0.000671109913007417
endloop
endfacet
facet normal -0.707099384306259 -0.707114177983161 2.9846742865786e-006
outer loop
vertex 3.52495810318487e-016 2.92888051435411 0.000719819986019854
vertex 2.92894496525966 4.74772649586178e-005 12.0007262494665
vertex 6.34817077358185e-006 2.92892799070508 12.0005332251617
endloop
endfacet
facet normal -3.00045752899292e-007 -0.99999999996725 8.08770377886271e-006
outer loop
vertex 9.921867662648 -5.16737167776335e-005 0.000707960977989608
vertex 2.92894496525966 4.74772649586178e-005 12.0007262494665
vertex 2.92894496525962 9.63705666747513e-015 0.000671109913007417
endloop
endfacet
facet normal -3.00045752899292e-007 -0.99999999996725 8.08770377886271e-006
outer loop
vertex 2.92894496525966 4.74772649586178e-005 12.0007262494665
vertex 9.921867662648 -5.16737167776335e-005 0.000707960977989608
vertex 9.92188961593109 9.49545761324891e-005 12.0007079600621
endloop
endfacet
facet normal -8.46199511644086e-006 -0.923879532474762 -0.382683432359713
outer loop
vertex 29.0256676817991 34.6828207161769 7.55517820494911
vertex 16.1745346563729 35.32727528748 5.99961140619552
vertex 29.0256639229539 35.3271857975992 5.99954328638241
endloop
endfacet
facet normal -8.46199511644086e-006 -0.923879532474762 -0.382683432359713
outer loop
vertex 16.1745346563729 35.32727528748 5.99961140619552
vertex 29.0256676817991 34.6828207161769 7.55517820494911
vertex 16.1745384152181 34.6829102060576 7.55524632476221
endloop
endfacet
facet normal -4.40502497003103e-006 -0.923879532503012 0.382683432359714
outer loop
vertex 29.0256639229539 35.3271857975992 5.99954328638241
vertex 16.1745219233507 34.6829102061725 4.44397648762882
vertex 29.0256511899317 34.6828207162917 4.44390836781571
endloop
endfacet
facet normal -4.40502497003103e-006 -0.923879532503012 0.382683432359714
outer loop
vertex 16.1745219233507 34.6829102061725 4.44397648762882
vertex 29.0256639229539 35.3271857975992 5.99954328638241
vertex 16.1745346563729 35.32727528748 5.99961140619552
endloop
endfacet
facet normal 2.23234906122914e-006 -0.382683432389912 0.923879532498308
outer loop
vertex 29.0256369415642 33.1271857977647 3.79954328644422
vertex 16.1745219233507 34.6829102061725 4.44397648762882
vertex 16.1745076749832 33.1272752876454 3.79961140625733
endloop
endfacet
facet normal 2.23234906122914e-006 -0.382683432389912 0.923879532498308
outer loop
vertex 16.1745219233507 34.6829102061725 4.44397648762882
vertex 29.0256369415642 33.1271857977647 3.79954328644422
vertex 29.0256511899317 34.6828207162917 4.44390836781571
endloop
endfacet
facet normal 7.56204328837146e-006 0.382683432321711 0.923879532498307
outer loop
vertex 29.0256295243519 31.5715508791901 4.44390836781572
vertex 16.1745076749832 33.1272752876454 3.79961140625733
vertex 16.1745002577709 31.5716403690708 4.44397648762883
endloop
endfacet
facet normal 7.56204328837146e-006 0.382683432321711 0.923879532498307
outer loop
vertex 16.1745076749832 33.1272752876454 3.79961140625733
vertex 29.0256295243519 31.5715508791901 4.44390836781572
vertex 29.0256369415642 33.1271857977647 3.79954328644422
endloop
endfacet
facet normal 8.46199511643988e-006 0.923879532474762 0.382683432359713
outer loop
vertex 16.1745002577709 31.5716403690708 4.44397648762883
vertex 29.0256332831971 30.9271857977677 5.99954328638241
vertex 29.0256295243519 31.5715508791901 4.44390836781572
endloop
endfacet
facet normal 8.46199511643988e-006 0.923879532474762 0.382683432359713
outer loop
vertex 29.0256332831971 30.9271857977677 5.99954328638241
vertex 16.1745002577709 31.5716403690708 4.44397648762883
vertex 16.1745040166161 30.9272752876485 5.99961140619552
endloop
endfacet
facet normal 4.40502497003161e-006 0.923879532503012 -0.382683432359714
outer loop
vertex 16.1745040166161 30.9272752876485 5.99961140619552
vertex 29.0256460162193 31.5715508790752 7.55517820494911
vertex 29.0256332831971 30.9271857977677 5.99954328638241
endloop
endfacet
facet normal 4.40502497003161e-006 0.923879532503012 -0.382683432359714
outer loop
vertex 29.0256460162193 31.5715508790752 7.55517820494911
vertex 16.1745040166161 30.9272752876485 5.99961140619552
vertex 16.1745167496383 31.571640368956 7.55524632476222
endloop
endfacet
facet normal -2.23234906123227e-006 0.382683432389912 -0.923879532498308
outer loop
vertex 16.1745309980058 33.127275287483 8.19961140613371
vertex 29.0256460162193 31.5715508790752 7.55517820494911
vertex 16.1745167496383 31.571640368956 7.55524632476222
endloop
endfacet
facet normal -2.23234906123227e-006 0.382683432389912 -0.923879532498308
outer loop
vertex 29.0256460162193 31.5715508790752 7.55517820494911
vertex 16.1745309980058 33.127275287483 8.19961140613371
vertex 29.0256602645868 33.1271857976023 8.1995432863206
endloop
endfacet
facet normal -7.56204328837146e-006 -0.382683432321711 -0.923879532498307
outer loop
vertex 16.1745384152181 34.6829102060576 7.55524632476221
vertex 29.0256602645868 33.1271857976023 8.1995432863206
vertex 16.1745309980058 33.127275287483 8.19961140613371
endloop
endfacet
facet normal -7.56204328837146e-006 -0.382683432321711 -0.923879532498307
outer loop
vertex 29.0256602645868 33.1271857976023 8.1995432863206
vertex 16.1745384152181 34.6829102060576 7.55524632476221
vertex 29.0256676817991 34.6828207161769 7.55517820494911
endloop
endfacet
facet normal 3.68574126275066e-005 0.923879532511288 -0.382683430590162
outer loop
vertex 25.490247564722 53.5178814534665 8.55341339781003
vertex 38.4895669064693 52.8735163750655 6.99903048343748
vertex 25.4903973926815 52.8735163750655 6.99777849363002
endloop
endfacet
facet normal 3.68574126275066e-005 0.923879532511288 -0.382683430590162
outer loop
vertex 38.4895669064693 52.8735163750655 6.99903048343748
vertex 25.490247564722 53.5178814534665 8.55341339781003
vertex 38.4894170785097 53.5178814534665 8.5546653876175
endloop
endfacet
facet normal 8.8981665439315e-005 0.382683432365089 -0.923879528226239
outer loop
vertex 38.4893550177368 55.0735163648617 9.19903046302983
vertex 25.490247564722 53.5178814534665 8.55341339781003
vertex 25.4901855039491 55.0735163648617 9.19777847322237
endloop
endfacet
facet normal 8.8981665439315e-005 0.382683432365089 -0.923879528226239
outer loop
vertex 25.490247564722 53.5178814534665 8.55341339781003
vertex 38.4893550177368 55.0735163648617 9.19903046302983
vertex 38.4894170785097 53.5178814534665 8.5546653876175
endloop
endfacet
facet normal 8.8981665439315e-005 -0.382683432365089 -0.923879528226239
outer loop
vertex 25.490247564722 56.6291512762569 8.55341339781003
vertex 38.4893550177368 55.0735163648617 9.19903046302983
vertex 25.4901855039491 55.0735163648617 9.19777847322237
endloop
endfacet
facet normal 8.8981665439315e-005 -0.382683432365089 -0.923879528226239
outer loop
vertex 38.4893550177368 55.0735163648617 9.19903046302983
vertex 25.490247564722 56.6291512762569 8.55341339781003
vertex 38.4894170785097 56.6291512762569 8.5546653876175
endloop
endfacet
facet normal 3.68574126275066e-005 -0.923879532511288 -0.382683430590162
outer loop
vertex 38.4895669064693 57.2735163546579 6.99903048343748
vertex 25.490247564722 56.6291512762569 8.55341339781003
vertex 25.4903973926815 57.2735163546579 6.99777849363002
endloop
endfacet
facet normal 3.68574126275066e-005 -0.923879532511288 -0.382683430590162
outer loop
vertex 25.490247564722 56.6291512762569 8.55341339781003
vertex 38.4895669064693 57.2735163546579 6.99903048343748
vertex 38.4894170785097 56.6291512762569 8.5546653876175
endloop
endfacet
facet normal -3.6857412627466e-005 -0.923879532511288 0.382683430590162
outer loop
vertex 38.4897167344288 56.6291512762569 5.44339557925746
vertex 25.4903973926815 57.2735163546579 6.99777849363002
vertex 25.4905472206411 56.6291512762569 5.44214358945
endloop
endfacet
facet normal -3.6857412627466e-005 -0.923879532511288 0.382683430590162
outer loop
vertex 25.4903973926815 57.2735163546579 6.99777849363002
vertex 38.4897167344288 56.6291512762569 5.44339557925746
vertex 38.4895669064693 57.2735163546579 6.99903048343748
endloop
endfacet
facet normal -8.89816654391146e-005 -0.382683432365089 0.923879528226239
outer loop
vertex 25.4906092814139 55.0735163648617 4.79777851403767
vertex 38.4897167344288 56.6291512762569 5.44339557925746
vertex 25.4905472206411 56.6291512762569 5.44214358945
endloop
endfacet
facet normal -8.89816654391146e-005 -0.382683432365089 0.923879528226239
outer loop
vertex 38.4897167344288 56.6291512762569 5.44339557925746
vertex 25.4906092814139 55.0735163648617 4.79777851403767
vertex 38.4897787952017 55.0735163648617 4.79903050384513
endloop
endfacet
facet normal -8.89816654391146e-005 0.382683432365089 0.923879528226239
outer loop
vertex 38.4897167344288 53.5178814534665 5.44339557925746
vertex 25.4906092814139 55.0735163648617 4.79777851403767
vertex 25.4905472206411 53.5178814534665 5.44214358945
endloop
endfacet
facet normal -8.89816654391146e-005 0.382683432365089 0.923879528226239
outer loop
vertex 25.4906092814139 55.0735163648617 4.79777851403767
vertex 38.4897167344288 53.5178814534665 5.44339557925746
vertex 38.4897787952017 55.0735163648617 4.79903050384513
endloop
endfacet
facet normal -3.6857412627466e-005 0.923879532511288 0.382683430590162
outer loop
vertex 25.4903973926815 52.8735163750655 6.99777849363002
vertex 38.4897167344288 53.5178814534665 5.44339557925746
vertex 25.4905472206411 53.5178814534665 5.44214358945
endloop
endfacet
facet normal -3.6857412627466e-005 0.923879532511288 0.382683430590162
outer loop
vertex 38.4897167344288 53.5178814534665 5.44339557925746
vertex 25.4903973926815 52.8735163750655 6.99777849363002
vertex 38.4895669064693 52.8735163750655 6.99903048343748
endloop
endfacet
facet normal 0.382683429708101 0.923879533611823 -2.1117999790488e-007
outer loop
vertex 4.86976808483667 127.604439341671 0.000619713522462473
vertex 6.42541730324738 126.960071085329 12.0007159382422
vertex 6.42540300041417 126.960074266779 0.000617688538799588
endloop
endfacet
facet normal 0.382683429708101 0.923879533611823 -2.1117999790488e-007
outer loop
vertex 6.42541730324738 126.960071085329 12.0007159382422
vertex 4.86976808483667 127.604439341671 0.000619713522462473
vertex 4.86978238766988 127.604436160221 12.0007179632258
endloop
endfacet
facet normal 0.382683435021517 -0.923879531410692 -7.01055415108197e-007
outer loop
vertex 6.42541729059473 131.360071071513 12.0007171047643
vertex 4.86976807588988 130.715709169123 0.000620538378123314
vertex 6.4254029877615 131.360074252963 0.000618855060956502
endloop
endfacet
facet normal 0.382683435021517 -0.923879531410692 -7.01055415108197e-007
outer loop
vertex 4.86976807588988 130.715709169123 0.000620538378123314
vertex 6.42541729059473 131.360071071513 12.0007171047643
vertex 4.86978237872308 130.715705987673 12.0007187880815
endloop
endfacet
facet normal 0.923879531410188 0.382683435022071 -9.99709034192555e-007
outer loop
vertex 4.86976808483667 127.604439341671 0.000619713522462473
vertex 4.22541730383066 129.160071072094 12.0007191436679
vertex 4.86978238766988 127.604436160221 12.0007179632258
endloop
endfacet
facet normal 0.923879531410188 0.382683435022071 -9.99709034192555e-007
outer loop
vertex 4.22541730383066 129.160071072094 12.0007191436679
vertex 4.86976808483667 127.604439341671 0.000619713522462473
vertex 4.22540300099748 129.160074253544 0.000620893964504099
endloop
endfacet
facet normal -0.923879531410184 -0.382683435022082 9.99709035061365e-007
outer loop
vertex 7.98105220617223 130.71570599662 12.0007150797807
vertex 8.62540298717824 129.160074266198 0.00061564963534223
vertex 8.62541729001144 129.160071084748 12.0007138993386
endloop
endfacet
facet normal -0.923879531410184 -0.382683435022082 9.99709035061365e-007
outer loop
vertex 8.62540298717824 129.160074266198 0.00061564963534223
vertex 7.98105220617223 130.71570599662 12.0007150797807
vertex 7.98103790333903 130.71570917807 0.000616830077383856
endloop
endfacet
facet normal 0.92387953361108 -0.382683429708064 -1.20262207356313e-006
outer loop
vertex 4.22540300099748 129.160074253544 0.000620893964504099
vertex 4.86978237872308 130.715705987673 12.0007187880815
vertex 4.22541730383066 129.160071072094 12.0007191436679
endloop
endfacet
facet normal 0.92387953361108 -0.382683429708064 -1.20262207356313e-006
outer loop
vertex 4.86978237872308 130.715705987673 12.0007187880815
vertex 4.22540300099748 129.160074253544 0.000620893964504099
vertex 4.86976807588988 130.715709169123 0.000620538378123314
endloop
endfacet
facet normal -0.382683435021509 0.923879531410696 7.01055416483663e-007
outer loop
vertex 6.42540300041417 126.960074266779 0.000617688538799588
vertex 7.981052215119 127.604436169169 12.000714254925
vertex 7.9810379122858 127.604439350619 0.000616005221723015
endloop
endfacet
facet normal -0.382683435021509 0.923879531410696 7.01055416483663e-007
outer loop
vertex 7.981052215119 127.604436169169 12.000714254925
vertex 6.42540300041417 126.960074266779 0.000617688538799588
vertex 6.42541730324738 126.960071085329 12.0007159382422
endloop
endfacet
facet normal -0.999999999999862 -4.53440554383458e-007 2.64510331585137e-007
outer loop
vertex 6.34817077146688e-006 131.431214296728 12.0005332251617
vertex 6.34816926560478e-006 124.431214296728 0.000719819986019854
vertex 6.34816926560478e-006 124.431214296728 12.0005332251617
endloop
endfacet
facet normal -0.999999999999862 -4.53440554383458e-007 2.64510331585137e-007
outer loop
vertex 6.34816926560478e-006 124.431214296728 0.000719819986019854
vertex 6.34817077146688e-006 131.431214296728 12.0005332251617
vertex -1.76247905159244e-015 131.431261773079 0.000719819986019854
endloop
endfacet
facet normal -0.923879533611079 0.382683429708067 1.20262207443048e-006
outer loop
vertex 8.62541729001144 129.160071084748 12.0007138993386
vertex 7.9810379122858 127.604439350619 0.000616005221723015
vertex 7.981052215119 127.604436169169 12.000714254925
endloop
endfacet
facet normal -0.923879533611079 0.382683429708067 1.20262207443048e-006
outer loop
vertex 7.9810379122858 127.604439350619 0.000616005221723015
vertex 8.62541729001144 129.160071084748 12.0007138993386
vertex 8.62540298717824 129.160074266198 0.00061564963534223
endloop
endfacet
facet normal -0.382683429708111 -0.923879533611819 2.11180000004884e-007
outer loop
vertex 7.98105220617223 130.71570599662 12.0007150797807
vertex 6.4254029877615 131.360074252963 0.000618855060956502
vertex 7.98103790333903 130.71570917807 0.000616830077383856
endloop
endfacet
facet normal -0.382683429708111 -0.923879533611819 2.11180000004884e-007
outer loop
vertex 6.4254029877615 131.360074252963 0.000618855060956502
vertex 7.98105220617223 130.71570599662 12.0007150797807
vertex 6.42541729059473 131.360071071513 12.0007171047643
endloop
endfacet
facet normal -0.843839070643324 -0.536596331343304 6.68713066470061e-006
outer loop
vertex 6.34816926560478e-006 124.431214296728 12.0005332251617
vertex 2.92872639323841 119.825426853852 0.000878724525348906
vertex 2.92891658302009 119.825426852122 12.0005332251617
endloop
endfacet
facet normal -0.843839070643324 -0.536596331343304 6.68713066470061e-006
outer loop
vertex 2.92872639323841 119.825426853852 0.000878724525348906
vertex 6.34816926560478e-006 124.431214296728 12.0005332251617
vertex 6.34816926560478e-006 124.431214296728 0.000719819986019854
endloop
endfacet
facet normal 0.654439675598693 0.756114218222022 -2.18606304718486e-006
outer loop
vertex 9.921867662648 134.36019396115 0.000707960977989608
vertex 29.025536347981 117.825426852438 11.999725075057
vertex 29.0252416155648 117.825484933597 2.93064613288485e-005
endloop
endfacet
facet normal 0.654439675598693 0.756114218222022 -2.18606304718486e-006
outer loop
vertex 29.025536347981 117.825426852438 11.999725075057
vertex 9.921867662648 134.36019396115 0.000707960977989608
vertex 9.92188961593108 134.360047332857 12.0007079600621
endloop
endfacet
facet normal -0.149301819279478 -0.988791670048924 1.30320433664147e-006
outer loop
vertex 16.1743719445681 117.825426852122 11.9995961638105
vertex 2.92872639323841 119.825426853852 0.000878724525348906
vertex 16.174352646018 117.825426852118 0.000246352798342497
endloop
endfacet
facet normal -0.149301819279478 -0.988791670048924 1.30320433664147e-006
outer loop
vertex 2.92872639323841 119.825426853852 0.000878724525348906
vertex 16.1743719445681 117.825426852122 11.9995961638105
vertex 2.92891658302009 119.825426852122 12.0005332251617
endloop
endfacet
facet normal -0.571167929263144 -0.820833232811648 -2.22087940852651e-005
outer loop
vertex 25.4884319560441 86.3553717100813 11.9979416445483
vertex 16.1744823484203 92.8367074408426 0.00033238125295959
vertex 25.4895877013466 86.3542306089279 -0.0019396742390451
endloop
endfacet
facet normal -0.571167929263144 -0.820833232811648 -2.22087940852651e-005
outer loop
vertex 16.1744823484203 92.8367074408426 0.00033238125295959
vertex 25.4884319560441 86.3553717100813 11.9979416445483
vertex 16.1745902652525 92.8356460696725 11.9986856996161
endloop
endfacet
facet normal 0.56508742886492 0.825031028234449 -1.3756539274467e-005
outer loop
vertex 29.0254943521593 93.7331186041314 -6.90926380076284e-005
vertex 38.4895876546836 87.25108957484 11.9993921204728
vertex 38.4895876546836 87.25108957484 -0.0019096914611518
endloop
endfacet
facet normal 0.56508742886492 0.825031028234449 -1.3756539274467e-005
outer loop
vertex 38.4895876546836 87.25108957484 11.9993921204728
vertex 29.0254943521593 93.7331186041314 -6.90926380076284e-005
vertex 29.0260786737065 93.7331186041314 11.9998055291796
endloop
endfacet
facet normal -0.999999999961706 -6.96358108936969e-006 5.30068694349358e-006
outer loop
vertex 16.1745902652525 92.8356460696725 11.9986856996161
vertex 16.1745384152181 99.6772320813757 7.55524632476221
vertex 16.1744823484203 92.8367074408426 0.00033238125295959
endloop
endfacet
facet normal -0.999999999961706 -6.96358108936969e-006 5.30068694349358e-006
outer loop
vertex 16.1745384152181 99.6772320813757 7.55524632476221
vertex 16.1745902652525 92.8356460696725 11.9986856996161
vertex 16.1745309980058 101.23286699995 8.19961140613371
endloop
endfacet
facet normal -0.999999999961706 -6.96358108936969e-006 5.30068694349358e-006
outer loop
vertex 16.1745309980058 101.23286699995 8.19961140613371
vertex 16.1745902652525 92.8356460696725 11.9986856996161
vertex 16.1743719445681 117.825426852122 11.9995961638105
endloop
endfacet
facet normal -0.999999999961706 -6.96358108936969e-006 5.30068694349358e-006
outer loop
vertex 16.1744823484203 92.8367074408426 0.00033238125295959
vertex 16.1745384152181 99.6772320813757 7.55524632476221
vertex 16.1745346563729 99.0328669999533 5.99961140619552
endloop
endfacet
facet normal -0.999999999961706 -6.96358108936969e-006 5.30068694349358e-006
outer loop
vertex 16.1745309980058 101.23286699995 8.19961140613371
vertex 16.1743719445681 117.825426852122 11.9995961638105
vertex 16.1745167496383 102.788501918477 7.55524632476222
endloop
endfacet
facet normal -0.999999999961706 -6.96358108936969e-006 5.30068694349358e-006
outer loop
vertex 16.1745167496383 102.788501918477 7.55524632476222
vertex 16.1743719445681 117.825426852122 11.9995961638105
vertex 16.1745040166161 103.432866999785 5.99961140619552
endloop
endfacet
facet normal -0.999999999961706 -6.96358108936969e-006 5.30068694349358e-006
outer loop
vertex 16.1745040166161 103.432866999785 5.99961140619552
vertex 16.1743719445681 117.825426852122 11.9995961638105
vertex 16.174352646018 117.825426852118 0.000246352798342497
endloop
endfacet
facet normal -0.999999999961706 -6.96358108936969e-006 5.30068694349358e-006
outer loop
vertex 16.1744823484203 92.8367074408426 0.00033238125295959
vertex 16.1745076749832 101.232866999788 3.79961140625733
vertex 16.174352646018 117.825426852118 0.000246352798342497
endloop
endfacet
facet normal -0.999999999961706 -6.96358108936969e-006 5.30068694349358e-006
outer loop
vertex 16.1745076749832 101.232866999788 3.79961140625733
vertex 16.1744823484203 92.8367074408426 0.00033238125295959
vertex 16.1745219233507 99.6772320812609 4.44397648762882
endloop
endfacet
facet normal -0.999999999961706 -6.96358108936969e-006 5.30068694349358e-006
outer loop
vertex 16.1745219233507 99.6772320812609 4.44397648762882
vertex 16.1744823484203 92.8367074408426 0.00033238125295959
vertex 16.1745346563729 99.0328669999533 5.99961140619552
endloop
endfacet
facet normal -0.999999999961706 -6.96358108936969e-006 5.30068694349358e-006
outer loop
vertex 16.174352646018 117.825426852118 0.000246352798342497
vertex 16.1745076749832 101.232866999788 3.79961140625733
vertex 16.1745002577709 102.788501918363 4.44397648762883
endloop
endfacet
facet normal -0.999999999961706 -6.96358108936969e-006 5.30068694349358e-006
outer loop
vertex 16.174352646018 117.825426852118 0.000246352798342497
vertex 16.1745002577709 102.788501918363 4.44397648762883
vertex 16.1745040166161 103.432866999785 5.99961140619552
endloop
endfacet
facet normal 0.999999999193066 1.65003216173599e-005 -3.6627954086212e-005
outer loop
vertex 29.0254943521593 93.7331186041314 -6.90926380076284e-005
vertex 29.0256511899317 99.6773215711417 4.44390836781571
vertex 29.0260786737065 93.7331186041314 11.9998055291796
endloop
endfacet
facet normal 0.999999999193066 1.65003216173599e-005 -3.6627954086212e-005
outer loop
vertex 29.0256511899317 99.6773215711417 4.44390836781571
vertex 29.0254943521593 93.7331186041314 -6.90926380076284e-005
vertex 29.0256369415642 101.232956489669 3.79954328644422
endloop
endfacet
facet normal 0.999999999193066 1.65003216173599e-005 -3.6627954086212e-005
outer loop
vertex 29.0256369415642 101.232956489669 3.79954328644422
vertex 29.0254943521593 93.7331186041314 -6.90926380076284e-005
vertex 29.0252416155648 117.825484933597 2.93064613288485e-005
endloop
endfacet
facet normal 0.999999999193066 1.65003216173599e-005 -3.6627954086212e-005
outer loop
vertex 29.0260786737065 93.7331186041314 11.9998055291796
vertex 29.0256511899317 99.6773215711417 4.44390836781571
vertex 29.0256639229539 99.0329564898341 5.99954328638241
endloop
endfacet
facet normal 0.999999999193066 1.65003216173599e-005 -3.6627954086212e-005
outer loop
vertex 29.0256369415642 101.232956489669 3.79954328644422
vertex 29.0252416155648 117.825484933597 2.93064613288485e-005
vertex 29.0256295243519 102.788591408243 4.44390836781572
endloop
endfacet
facet normal 0.999999999193066 1.65003216173599e-005 -3.6627954086212e-005
outer loop
vertex 29.0256295243519 102.788591408243 4.44390836781572
vertex 29.0252416155648 117.825484933597 2.93064613288485e-005
vertex 29.0256332831971 103.432956489666 5.99954328638241
endloop
endfacet
facet normal 0.999999999193066 1.65003216173599e-005 -3.6627954086212e-005
outer loop
vertex 29.0256332831971 103.432956489666 5.99954328638241
vertex 29.0252416155648 117.825484933597 2.93064613288485e-005
vertex 29.025536347981 117.825426852438 11.999725075057
endloop
endfacet
facet normal 0.999999999193066 1.65003216173599e-005 -3.6627954086212e-005
outer loop
vertex 29.0260786737065 93.7331186041314 11.9998055291796
vertex 29.0256602645868 101.232956489831 8.1995432863206
vertex 29.025536347981 117.825426852438 11.999725075057
endloop
endfacet
facet normal 0.999999999193066 1.65003216173599e-005 -3.6627954086212e-005
outer loop
vertex 29.0256602645868 101.232956489831 8.1995432863206
vertex 29.0260786737065 93.7331186041314 11.9998055291796
vertex 29.0256676817991 99.6773215712565 7.55517820494911
endloop
endfacet
facet normal 0.999999999193066 1.65003216173599e-005 -3.6627954086212e-005
outer loop
vertex 29.0256676817991 99.6773215712565 7.55517820494911
vertex 29.0260786737065 93.7331186041314 11.9998055291796
vertex 29.0256639229539 99.0329564898341 5.99954328638241
endloop
endfacet
facet normal 0.999999999193066 1.65003216173599e-005 -3.6627954086212e-005
outer loop
vertex 29.025536347981 117.825426852438 11.999725075057
vertex 29.0256602645868 101.232956489831 8.1995432863206
vertex 29.0256460162193 102.788591408358 7.55517820494911
endloop
endfacet
facet normal 0.999999999193066 1.65003216173599e-005 -3.6627954086212e-005
outer loop
vertex 29.025536347981 117.825426852438 11.999725075057
vertex 29.0256460162193 102.788591408358 7.55517820494911
vertex 29.0256332831971 103.432956489666 5.99954328638241
endloop
endfacet
facet normal 1.0 -0.0 -0.0
outer loop
vertex 38.4895876546836 47.1090527125934 -0.0019096914611518
vertex 38.4897167344288 53.5178814534665 5.44339557925746
vertex 38.4895669064693 52.8735163750655 6.99903048343748
endloop
endfacet
facet normal 1.0 -0.0 -0.0
outer loop
vertex 38.4897167344288 53.5178814534665 5.44339557925746
vertex 38.4895876546836 47.1090527125934 -0.0019096914611518
vertex 38.4897787952017 55.0735163648617 4.79903050384513
endloop
endfacet
facet normal 1.0 -0.0 -0.0
outer loop
vertex 38.4897787952017 55.0735163648617 4.79903050384513
vertex 38.4895876546836 47.1090527125934 -0.0019096914611518
vertex 38.4895876546836 87.25108957484 -0.0019096914611518
endloop
endfacet
facet normal 1.0 -0.0 -0.0
outer loop
vertex 38.4897787952017 55.0735163648617 4.79903050384513
vertex 38.4895876546836 87.25108957484 -0.0019096914611518
vertex 38.4897167344288 56.6291512762569 5.44339557925746
endloop
endfacet
facet normal 1.0 -0.0 -0.0
outer loop
vertex 38.4897167344288 56.6291512762569 5.44339557925746
vertex 38.4895876546836 87.25108957484 -0.0019096914611518
vertex 38.4895669064693 57.2735163546579 6.99903048343748
endloop
endfacet
facet normal 1.0 -0.0 -0.0
outer loop
vertex 38.4895669064693 57.2735163546579 6.99903048343748
vertex 38.4895876546836 87.25108957484 -0.0019096914611518
vertex 38.4897167344288 77.7309910111764 5.44339557925746
endloop
endfacet
facet normal 1.0 -0.0 -0.0
outer loop
vertex 38.4895669064693 57.2735163546579 6.99903048343748
vertex 38.4897167344288 77.7309910111764 5.44339557925746
vertex 38.4895669064693 77.0866259327755 6.99903048343748
endloop
endfacet
facet normal 1.0 -0.0 -0.0
outer loop
vertex 38.4897167344288 77.7309910111764 5.44339557925746
vertex 38.4895876546836 87.25108957484 -0.0019096914611518
vertex 38.4897787952017 79.2866259225717 4.79903050384513
endloop
endfacet
facet normal 1.0 -0.0 -0.0
outer loop
vertex 38.4897787952017 79.2866259225717 4.79903050384513
vertex 38.4895876546836 87.25108957484 -0.0019096914611518
vertex 38.4897167344288 80.8422608339669 5.44339557925746
endloop
endfacet
facet normal 1.0 -0.0 -0.0
outer loop
vertex 38.4897167344288 80.8422608339669 5.44339557925746
vertex 38.4895876546836 87.25108957484 -0.0019096914611518
vertex 38.4895669064693 81.4866259123678 6.99903048343748
endloop
endfacet
facet normal 1.0 -0.0 -0.0
outer loop
vertex 38.4895876546836 47.1090527125933 11.9993921204728
vertex 38.4893550177368 55.0735163648617 9.19903046302983
vertex 38.4895876546836 87.25108957484 11.9993921204728
endloop
endfacet
facet normal 1.0 -0.0 -0.0
outer loop
vertex 38.4893550177368 55.0735163648617 9.19903046302983
vertex 38.4895876546836 47.1090527125933 11.9993921204728
vertex 38.4894170785097 53.5178814534665 8.5546653876175
endloop
endfacet
facet normal 1.0 -0.0 -0.0
outer loop
vertex 38.4894170785097 53.5178814534665 8.5546653876175
vertex 38.4895876546836 47.1090527125933 11.9993921204728
vertex 38.4895876546836 47.1090527125934 -0.0019096914611518
endloop
endfacet
facet normal 1.0 -0.0 -0.0
outer loop
vertex 38.4894170785097 53.5178814534665 8.5546653876175
vertex 38.4895876546836 47.1090527125934 -0.0019096914611518
vertex 38.4895669064693 52.8735163750655 6.99903048343748
endloop
endfacet
facet normal 1.0 -0.0 -0.0
outer loop
vertex 38.4895876546836 87.25108957484 11.9993921204728
vertex 38.4893550177368 55.0735163648617 9.19903046302983
vertex 38.4894170785097 56.6291512762569 8.5546653876175
endloop
endfacet
facet normal 1.0 -0.0 -0.0
outer loop
vertex 38.4895876546836 87.25108957484 11.9993921204728
vertex 38.4894170785097 56.6291512762569 8.5546653876175
vertex 38.4895669064693 57.2735163546579 6.99903048343748
endloop
endfacet
facet normal 1.0 -0.0 -0.0
outer loop
vertex 38.4895876546836 87.25108957484 11.9993921204728
vertex 38.4895669064693 57.2735163546579 6.99903048343748
vertex 38.4893550177368 79.2866259225717 9.19903046302983
endloop
endfacet
facet normal 1.0 -0.0 -0.0
outer loop
vertex 38.4893550177368 79.2866259225717 9.19903046302983
vertex 38.4895669064693 57.2735163546579 6.99903048343748
vertex 38.4894170785097 77.7309910111764 8.5546653876175
endloop
endfacet
facet normal 1.0 -0.0 -0.0
outer loop
vertex 38.4894170785097 77.7309910111764 8.5546653876175
vertex 38.4895669064693 57.2735163546579 6.99903048343748
vertex 38.4895669064693 77.0866259327755 6.99903048343748
endloop
endfacet
facet normal 1.0 -0.0 -0.0
outer loop
vertex 38.4895876546836 87.25108957484 11.9993921204728
vertex 38.4893550177368 79.2866259225717 9.19903046302983
vertex 38.4894170785097 80.8422608339669 8.5546653876175
endloop
endfacet
facet normal 1.0 -0.0 -0.0
outer loop
vertex 38.4895876546836 87.25108957484 11.9993921204728
vertex 38.4894170785097 80.8422608339669 8.5546653876175
vertex 38.4895669064693 81.4866259123678 6.99903048343748
endloop
endfacet
facet normal 1.0 -0.0 -0.0
outer loop
vertex 38.4895876546836 87.25108957484 11.9993921204728
vertex 38.4895669064693 81.4866259123678 6.99903048343748
vertex 38.4895876546836 87.25108957484 -0.0019096914611518
endloop
endfacet
facet normal -5.98881419363881e-005 -5.14374953718185e-022 -0.999999998206705
outer loop
vertex 2.92894496525961 134.360142287433 0.000671109913007417
vertex 4.86976807588988 130.715709169123 0.000620538378123314
vertex 4.22540300099748 129.160074253544 0.000620893964504099
endloop
endfacet
facet normal -5.98881419363881e-005 -5.14374953718185e-022 -0.999999998206705
outer loop
vertex 4.86976807588988 130.715709169123 0.000620538378123314
vertex 2.92894496525961 134.360142287433 0.000671109913007417
vertex 9.921867662648 134.36019396115 0.000707960977989608
endloop
endfacet
facet normal -5.98881419363881e-005 -5.14374953718185e-022 -0.999999998206705
outer loop
vertex 4.86976807588988 130.715709169123 0.000620538378123314
vertex 9.921867662648 134.36019396115 0.000707960977989608
vertex 6.4254029877615 131.360074252963 0.000618855060956502
endloop
endfacet
facet normal -5.98881419363881e-005 -5.14374953718185e-022 -0.999999998206705
outer loop
vertex 6.4254029877615 131.360074252963 0.000618855060956502
vertex 9.921867662648 134.36019396115 0.000707960977989608
vertex 7.98103790333903 130.71570917807 0.000616830077383856
endloop
endfacet
facet normal -5.98881419363881e-005 -5.14374953718185e-022 -0.999999998206705
outer loop
vertex 7.98103790333903 130.71570917807 0.000616830077383856
vertex 9.921867662648 134.36019396115 0.000707960977989608
vertex 8.62540298717824 129.160074266198 0.00061564963534223
endloop
endfacet
facet normal -5.98881419363881e-005 -5.14374953718185e-022 -0.999999998206705
outer loop
vertex 2.92894496525961 134.360142287433 0.000671109913007417
vertex 6.34816926560478e-006 124.431214296728 0.000719819986019854
vertex -1.76247905159244e-015 131.431261773079 0.000719819986019854
endloop
endfacet
facet normal -5.98881419363881e-005 -5.14374953718185e-022 -0.999999998206705
outer loop
vertex 6.34816926560478e-006 124.431214296728 0.000719819986019854
vertex 2.92894496525961 134.360142287433 0.000671109913007417
vertex 2.92872639323841 119.825426853852 0.000878724525348906
endloop
endfacet
facet normal -5.98881419363881e-005 -5.14374953718185e-022 -0.999999998206705
outer loop
vertex 2.92872639323841 119.825426853852 0.000878724525348906
vertex 2.92894496525961 134.360142287433 0.000671109913007417
vertex 4.22540300099748 129.160074253544 0.000620893964504099
endloop
endfacet
facet normal -5.98881419363881e-005 -5.14374953718185e-022 -0.999999998206705
outer loop
vertex 2.92872639323841 119.825426853852 0.000878724525348906
vertex 4.22540300099748 129.160074253544 0.000620893964504099
vertex 4.86976808483667 127.604439341671 0.000619713522462473
endloop
endfacet
facet normal -5.98881419363881e-005 -5.14374953718185e-022 -0.999999998206705
outer loop
vertex 2.92872639323841 119.825426853852 0.000878724525348906
vertex 4.86976808483667 127.604439341671 0.000619713522462473
vertex 16.174352646018 117.825426852118 0.000246352798342497
endloop
endfacet
facet normal -5.98881419363881e-005 -5.14374953718185e-022 -0.999999998206705
outer loop
vertex 16.174352646018 117.825426852118 0.000246352798342497
vertex 4.86976808483667 127.604439341671 0.000619713522462473
vertex 6.42540300041417 126.960074266779 0.000617688538799588
endloop
endfacet
facet normal -5.98881419363881e-005 -5.14374953718185e-022 -0.999999998206705
outer loop
vertex 16.174352646018 117.825426852118 0.000246352798342497
vertex 6.42540300041417 126.960074266779 0.000617688538799588
vertex 7.9810379122858 127.604439350619 0.000616005221723015
endloop
endfacet
facet normal -5.98881419363881e-005 -5.14374953718185e-022 -0.999999998206705
outer loop
vertex 16.174352646018 117.825426852118 0.000246352798342497
vertex 7.9810379122858 127.604439350619 0.000616005221723015
vertex 8.62540298717824 129.160074266198 0.00061564963534223
endloop
endfacet
facet normal -5.98881419363881e-005 -5.14374953718185e-022 -0.999999998206705
outer loop
vertex 16.174352646018 117.825426852118 0.000246352798342497
vertex 8.62540298717824 129.160074266198 0.00061564963534223
vertex 9.921867662648 134.36019396115 0.000707960977989608
endloop
endfacet
facet normal -5.98881419363881e-005 -5.14374953718185e-022 -0.999999998206705
outer loop
vertex 16.174352646018 117.825426852118 0.000246352798342497
vertex 9.921867662648 134.36019396115 0.000707960977989608
vertex 29.0252416155648 117.825484933597 2.93064613288485e-005
endloop
endfacet
facet normal -5.98881419363881e-005 -5.14374953718185e-022 -0.999999998206705
outer loop
vertex 16.174352646018 117.825426852118 0.000246352798342497
vertex 29.0252416155648 117.825484933597 2.93064613288485e-005
vertex 16.1744823484203 92.8367074408426 0.00033238125295959
endloop
endfacet
facet normal -5.98881419363881e-005 -5.14374953718185e-022 -0.999999998206705
outer loop
vertex 16.1744823484203 92.8367074408426 0.00033238125295959
vertex 29.0252416155648 117.825484933597 2.93064613288485e-005
vertex 25.4895877013466 86.3542306089279 -0.0019396742390451
endloop
endfacet
facet normal -5.98881419363881e-005 -5.14374953718185e-022 -0.999999998206705
outer loop
vertex 25.4895877013466 86.3542306089279 -0.0019396742390451
vertex 29.0252416155648 117.825484933597 2.93064613288485e-005
vertex 25.4895877013466 48.0059116785054 -0.0019396742390451
endloop
endfacet
facet normal -5.98881419363881e-005 -5.14374953718185e-022 -0.999999998206705
outer loop
vertex 6.34816926771975e-006 9.92892799070516 0.000719819986019854
vertex 2.92894496525962 9.63705666747513e-015 0.000671109913007417
vertex 3.52495810318487e-016 2.92888051435411 0.000719819986019854
endloop
endfacet
facet normal -5.98881419363881e-005 -5.14374953718185e-022 -0.999999998206705
outer loop
vertex 2.92894496525962 9.63705666747513e-015 0.000671109913007417
vertex 6.34816926771975e-006 9.92892799070516 0.000719819986019854
vertex 2.92872639323841 14.5347154335815 0.000878724525348906
endloop
endfacet
facet normal -5.98881419363881e-005 -5.14374953718185e-022 -0.999999998206705
outer loop
vertex 2.92894496525962 9.63705666747513e-015 0.000671109913007417
vertex 2.92872639323841 14.5347154335815 0.000878724525348906
vertex 4.22540300099748 5.20006803388946 0.000620893964504099
endloop
endfacet
facet normal -5.98881419363881e-005 -5.14374953718185e-022 -0.999999998206705
outer loop
vertex 4.22540300099748 5.20006803388946 0.000620893964504099
vertex 2.92872639323841 14.5347154335815 0.000878724525348906
vertex 4.86976808483667 6.75570294576197 0.000619713522462473
endloop
endfacet
facet normal -5.98881419363881e-005 -5.14374953718185e-022 -0.999999998206705
outer loop
vertex 4.86976808483667 6.75570294576197 0.000619713522462473
vertex 2.92872639323841 14.5347154335815 0.000878724525348906
vertex 16.174352646018 16.5347154353154 0.000246352798342497
endloop
endfacet
facet normal -5.98881419363881e-005 -5.14374953718185e-022 -0.999999998206705
outer loop
vertex 4.86976808483667 6.75570294576197 0.000619713522462473
vertex 16.174352646018 16.5347154353154 0.000246352798342497
vertex 6.42540300041417 7.40006802065431 0.000617688538799588
endloop
endfacet
facet normal -5.98881419363881e-005 -5.14374953718185e-022 -0.999999998206705
outer loop
vertex 6.42540300041417 7.40006802065431 0.000617688538799588
vertex 16.174352646018 16.5347154353154 0.000246352798342497
vertex 7.9810379122858 6.75570293681424 0.000616005221723015
endloop
endfacet
facet normal -5.98881419363881e-005 -5.14374953718185e-022 -0.999999998206705
outer loop
vertex 7.9810379122858 6.75570293681424 0.000616005221723015
vertex 16.174352646018 16.5347154353154 0.000246352798342497
vertex 8.62540298717824 5.20006802123543 0.00061564963534223
endloop
endfacet
facet normal -5.98881419363881e-005 -5.14374953718185e-022 -0.999999998206705
outer loop
vertex 8.62540298717824 5.20006802123543 0.00061564963534223
vertex 16.174352646018 16.5347154353154 0.000246352798342497
vertex 9.921867662648 -5.16737167776335e-005 0.000707960977989608
endloop
endfacet
facet normal -5.98881419363881e-005 -5.14374953718185e-022 -0.999999998206705
outer loop
vertex 9.921867662648 -5.16737167776335e-005 0.000707960977989608
vertex 16.174352646018 16.5347154353154 0.000246352798342497
vertex 29.0252416155648 16.5346573538367 2.93064613288485e-005
endloop
endfacet
facet normal -5.98881419363881e-005 -5.14374953718185e-022 -0.999999998206705
outer loop
vertex 29.0252416155648 16.5346573538367 2.93064613288485e-005
vertex 16.174352646018 16.5347154353154 0.000246352798342497
vertex 16.1744823484203 41.5234348465907 0.00033238125295959
endloop
endfacet
facet normal -5.98881419363881e-005 -5.14374953718185e-022 -0.999999998206705
outer loop
vertex 29.0252416155648 16.5346573538367 2.93064613288485e-005
vertex 16.1744823484203 41.5234348465907 0.00033238125295959
vertex 25.4895877013466 48.0059116785054 -0.0019396742390451
endloop
endfacet
facet normal -5.98881419363881e-005 -5.14374953718185e-022 -0.999999998206705
outer loop
vertex 29.0252416155648 16.5346573538367 2.93064613288485e-005
vertex 25.4895877013466 48.0059116785054 -0.0019396742390451
vertex 29.0252416155648 117.825484933597 2.93064613288485e-005
endloop
endfacet
facet normal -5.98881419363881e-005 -5.14374953718185e-022 -0.999999998206705
outer loop
vertex 29.0252416155648 16.5346573538367 2.93064613288485e-005
vertex 29.0252416155648 117.825484933597 2.93064613288485e-005
vertex 29.0254943521593 93.7331186041314 -6.90926380076284e-005
endloop
endfacet
facet normal -5.98881419363881e-005 -5.14374953718185e-022 -0.999999998206705
outer loop
vertex 29.0252416155648 16.5346573538367 2.93064613288485e-005
vertex 29.0254943521593 93.7331186041314 -6.90926380076284e-005
vertex 29.0254943521593 40.627023683302 -6.90926380076284e-005
endloop
endfacet
facet normal -5.98881419363881e-005 -5.14374953718185e-022 -0.999999998206705
outer loop
vertex 29.0254943521593 40.627023683302 -6.90926380076284e-005
vertex 29.0254943521593 93.7331186041314 -6.90926380076284e-005
vertex 38.4895876546836 87.25108957484 -0.0019096914611518
endloop
endfacet
facet normal -5.98881419363881e-005 -5.14374953718185e-022 -0.999999998206705
outer loop
vertex 29.0254943521593 40.627023683302 -6.90926380076284e-005
vertex 38.4895876546836 87.25108957484 -0.0019096914611518
vertex 38.4895876546836 47.1090527125934 -0.0019096914611518
endloop
endfacet
facet normal -5.98881419363881e-005 -5.14374953718185e-022 -0.999999998206705
outer loop
vertex 2.92894496525962 9.63705666747513e-015 0.000671109913007417
vertex 4.86976807588988 3.64443311831069 0.000620538378123314
vertex 9.921867662648 -5.16737167776335e-005 0.000707960977989608
endloop
endfacet
facet normal -5.98881419363881e-005 -5.14374953718185e-022 -0.999999998206705
outer loop
vertex 4.86976807588988 3.64443311831069 0.000620538378123314
vertex 2.92894496525962 9.63705666747513e-015 0.000671109913007417
vertex 4.22540300099748 5.20006803388946 0.000620893964504099
endloop
endfacet
facet normal -5.98881419363881e-005 -5.14374953718185e-022 -0.999999998206705
outer loop
vertex 9.921867662648 -5.16737167776335e-005 0.000707960977989608
vertex 4.86976807588988 3.64443311831069 0.000620538378123314
vertex 6.4254029877615 3.00006803447057 0.000618855060956502
endloop
endfacet
facet normal -5.98881419363881e-005 -5.14374953718185e-022 -0.999999998206705
outer loop
vertex 9.921867662648 -5.16737167776335e-005 0.000707960977989608
vertex 6.4254029877615 3.00006803447057 0.000618855060956502
vertex 7.98103790333903 3.64443310936296 0.000616830077383856
endloop
endfacet
facet normal -5.98881419363881e-005 -5.14374953718185e-022 -0.999999998206705
outer loop
vertex 9.921867662648 -5.16737167776335e-005 0.000707960977989608
vertex 7.98103790333903 3.64443310936296 0.000616830077383856
vertex 8.62540298717824 5.20006802123543 0.00061564963534223
endloop
endfacet
facet normal -0.999999995361897 1.48630938117665e-021 -9.63130606413411e-005
outer loop
vertex 25.4884319560441 48.0047705773521 11.9979416445483
vertex 25.490247564722 53.5178814534665 8.55341339781003
vertex 25.4895877013466 48.0059116785054 -0.0019396742390451
endloop
endfacet
facet normal -0.999999995361897 1.48630938117665e-021 -9.63130606413411e-005
outer loop
vertex 25.490247564722 53.5178814534665 8.55341339781003
vertex 25.4884319560441 48.0047705773521 11.9979416445483
vertex 25.4901855039491 55.0735163648617 9.19777847322237
endloop
endfacet
facet normal -0.999999995361897 1.48630938117665e-021 -9.63130606413411e-005
outer loop
vertex 25.4901855039491 55.0735163648617 9.19777847322237
vertex 25.4884319560441 48.0047705773521 11.9979416445483
vertex 25.4884319560441 86.3553717100813 11.9979416445483
endloop
endfacet
facet normal -0.999999995361897 1.48630938117665e-021 -9.63130606413411e-005
outer loop
vertex 25.4895877013466 48.0059116785054 -0.0019396742390451
vertex 25.490247564722 53.5178814534665 8.55341339781003
vertex 25.4903973926815 52.8735163750655 6.99777849363002
endloop
endfacet
facet normal -0.999999995361897 1.48630938117665e-021 -9.63130606413411e-005
outer loop
vertex 25.4901855039491 55.0735163648617 9.19777847322237
vertex 25.4884319560441 86.3553717100813 11.9979416445483
vertex 25.490247564722 56.6291512762569 8.55341339781003
endloop
endfacet
facet normal -0.999999995361897 1.48630938117665e-021 -9.63130606413411e-005
outer loop
vertex 25.490247564722 56.6291512762569 8.55341339781003
vertex 25.4884319560441 86.3553717100813 11.9979416445483
vertex 25.4903973926815 57.2735163546579 6.99777849363002
endloop
endfacet
facet normal -0.999999995361897 1.48630938117665e-021 -9.63130606413411e-005
outer loop
vertex 25.4903973926815 57.2735163546579 6.99777849363002
vertex 25.4884319560441 86.3553717100813 11.9979416445483
vertex 25.4901855039491 79.2866259225717 9.19777847322237
endloop
endfacet
facet normal -0.999999995361897 1.48630938117665e-021 -9.63130606413411e-005
outer loop
vertex 25.4903973926815 57.2735163546579 6.99777849363002
vertex 25.4901855039491 79.2866259225717 9.19777847322237
vertex 25.490247564722 77.7309910111764 8.55341339781003
endloop
endfacet
facet normal -0.999999995361897 1.48630938117665e-021 -9.63130606413411e-005
outer loop
vertex 25.4903973926815 57.2735163546579 6.99777849363002
vertex 25.490247564722 77.7309910111764 8.55341339781003
vertex 25.4903973926815 77.0866259327755 6.99777849363002
endloop
endfacet
facet normal -0.999999995361897 1.48630938117665e-021 -9.63130606413411e-005
outer loop
vertex 25.4901855039491 79.2866259225717 9.19777847322237
vertex 25.4884319560441 86.3553717100813 11.9979416445483
vertex 25.490247564722 80.8422608339669 8.55341339781003
endloop
endfacet
facet normal -0.999999995361897 1.48630938117665e-021 -9.63130606413411e-005
outer loop
vertex 25.490247564722 80.8422608339669 8.55341339781003
vertex 25.4884319560441 86.3553717100813 11.9979416445483
vertex 25.4903973926815 81.4866259123678 6.99777849363002
endloop
endfacet
facet normal -0.999999995361897 1.48630938117665e-021 -9.63130606413411e-005
outer loop
vertex 25.4903973926815 81.4866259123678 6.99777849363002
vertex 25.4884319560441 86.3553717100813 11.9979416445483
vertex 25.4895877013466 86.3542306089279 -0.0019396742390451
endloop
endfacet
facet normal -0.999999995361897 1.48630938117665e-021 -9.63130606413411e-005
outer loop
vertex 25.4895877013466 48.0059116785054 -0.0019396742390451
vertex 25.4906092814139 55.0735163648617 4.79777851403767
vertex 25.4895877013466 86.3542306089279 -0.0019396742390451
endloop
endfacet
facet normal -0.999999995361897 1.48630938117665e-021 -9.63130606413411e-005
outer loop
vertex 25.4906092814139 55.0735163648617 4.79777851403767
vertex 25.4895877013466 48.0059116785054 -0.0019396742390451
vertex 25.4905472206411 53.5178814534665 5.44214358945
endloop
endfacet
facet normal -0.999999995361897 1.48630938117665e-021 -9.63130606413411e-005
outer loop
vertex 25.4905472206411 53.5178814534665 5.44214358945
vertex 25.4895877013466 48.0059116785054 -0.0019396742390451
vertex 25.4903973926815 52.8735163750655 6.99777849363002
endloop
endfacet
facet normal -0.999999995361897 1.48630938117665e-021 -9.63130606413411e-005
outer loop
vertex 25.4895877013466 86.3542306089279 -0.0019396742390451
vertex 25.4906092814139 55.0735163648617 4.79777851403767
vertex 25.4905472206411 56.6291512762569 5.44214358945
endloop
endfacet
facet normal -0.999999995361897 1.48630938117665e-021 -9.63130606413411e-005
outer loop
vertex 25.4895877013466 86.3542306089279 -0.0019396742390451
vertex 25.4905472206411 56.6291512762569 5.44214358945
vertex 25.4903973926815 57.2735163546579 6.99777849363002
endloop
endfacet
facet normal -0.999999995361897 1.48630938117665e-021 -9.63130606413411e-005
outer loop
vertex 25.4895877013466 86.3542306089279 -0.0019396742390451
vertex 25.4903973926815 57.2735163546579 6.99777849363002
vertex 25.4905472206411 77.7309910111764 5.44214358945
endloop
endfacet
facet normal -0.999999995361897 1.48630938117665e-021 -9.63130606413411e-005
outer loop
vertex 25.4905472206411 77.7309910111764 5.44214358945
vertex 25.4903973926815 57.2735163546579 6.99777849363002
vertex 25.4903973926815 77.0866259327755 6.99777849363002
endloop
endfacet
facet normal -0.999999995361897 1.48630938117665e-021 -9.63130606413411e-005
outer loop
vertex 25.4895877013466 86.3542306089279 -0.0019396742390451
vertex 25.4905472206411 77.7309910111764 5.44214358945
vertex 25.4906092814139 79.2866259225717 4.79777851403767
endloop
endfacet
facet normal -0.999999995361897 1.48630938117665e-021 -9.63130606413411e-005
outer loop
vertex 25.4895877013466 86.3542306089279 -0.0019396742390451
vertex 25.4906092814139 79.2866259225717 4.79777851403767
vertex 25.4905472206411 80.8422608339669 5.44214358945
endloop
endfacet
facet normal -0.999999995361897 1.48630938117665e-021 -9.63130606413411e-005
outer loop
vertex 25.4895877013466 86.3542306089279 -0.0019396742390451
vertex 25.4905472206411 80.8422608339669 5.44214358945
vertex 25.4903973926815 81.4866259123678 6.99777849363002
endloop
endfacet
facet normal -0.70709938430626 0.70711417798316 2.98467428657311e-006
outer loop
vertex -1.76247905159244e-015 131.431261773079 0.000719819986019854
vertex 2.92894496525966 134.360094810168 12.0007262494665
vertex 2.92894496525961 134.360142287433 0.000671109913007417
endloop
endfacet
facet normal -0.70709938430626 0.70711417798316 2.98467428657311e-006
outer loop
vertex 2.92894496525966 134.360094810168 12.0007262494665
vertex -1.76247905159244e-015 131.431261773079 0.000719819986019854
vertex 6.34817077146688e-006 131.431214296728 12.0005332251617
endloop
endfacet
facet normal -3.00045749673215e-007 0.99999999996725 8.08770377886271e-006
outer loop
vertex 2.92894496525966 134.360094810168 12.0007262494665
vertex 9.921867662648 134.36019396115 0.000707960977989608
vertex 2.92894496525961 134.360142287433 0.000671109913007417
endloop
endfacet
facet normal -3.00045749673215e-007 0.99999999996725 8.08770377886271e-006
outer loop
vertex 9.921867662648 134.36019396115 0.000707960977989608
vertex 2.92894496525966 134.360094810168 12.0007262494665
vertex 9.92188961593108 134.360047332857 12.0007079600621
endloop
endfacet
facet normal 4.30176939961241e-005 -8.45825318908992e-022 0.999999999074739
outer loop
vertex 2.92894496525966 4.74772649586178e-005 12.0007262494665
vertex 4.86978237872308 3.64443629976065 12.0007187880815
vertex 4.22541730383066 5.20007121533941 12.0007191436679
endloop
endfacet
facet normal 4.30176939961241e-005 -8.45825318908992e-022 0.999999999074739
outer loop
vertex 4.86978237872308 3.64443629976065 12.0007187880815
vertex 2.92894496525966 4.74772649586178e-005 12.0007262494665
vertex 9.92188961593109 9.49545761324891e-005 12.0007079600621
endloop
endfacet
facet normal 4.30176939961241e-005 -8.45825318908992e-022 0.999999999074739
outer loop
vertex 4.86978237872308 3.64443629976065 12.0007187880815
vertex 9.92188961593109 9.49545761324891e-005 12.0007079600621
vertex 6.42541729059473 3.00007121592057 12.0007171047643
endloop
endfacet
facet normal 4.30176939961241e-005 -8.45825318908992e-022 0.999999999074739
outer loop
vertex 6.42541729059473 3.00007121592057 12.0007171047643
vertex 9.92188961593109 9.49545761324891e-005 12.0007079600621
vertex 7.98105220617223 3.64443629081292 12.0007150797807
endloop
endfacet
facet normal 4.30176939961241e-005 -8.45825318908992e-022 0.999999999074739
outer loop
vertex 7.98105220617223 3.64443629081292 12.0007150797807
vertex 9.92188961593109 9.49545761324891e-005 12.0007079600621
vertex 8.62541729001144 5.20007120268539 12.0007138993386
endloop
endfacet
facet normal 4.30176939961241e-005 -8.45825318908992e-022 0.999999999074739
outer loop
vertex 6.34817077358185e-006 2.92892799070508 12.0005332251617
vertex 2.9289165830201 14.5347154353114 12.0005332251617
vertex 6.34816926771975e-006 9.92892799070516 12.0005332251617
endloop
endfacet
facet normal 4.30176939961241e-005 -8.45825318908992e-022 0.999999999074739
outer loop
vertex 2.9289165830201 14.5347154353114 12.0005332251617
vertex 6.34817077358185e-006 2.92892799070508 12.0005332251617
vertex 2.92894496525966 4.74772649586178e-005 12.0007262494665
endloop
endfacet
facet normal 4.30176939961241e-005 -8.45825318908992e-022 0.999999999074739
outer loop
vertex 2.9289165830201 14.5347154353114 12.0005332251617
vertex 2.92894496525966 4.74772649586178e-005 12.0007262494665
vertex 4.22541730383066 5.20007121533941 12.0007191436679
endloop
endfacet
facet normal 4.30176939961241e-005 -8.45825318908992e-022 0.999999999074739
outer loop
vertex 2.9289165830201 14.5347154353114 12.0005332251617
vertex 4.22541730383066 5.20007121533941 12.0007191436679
vertex 4.86978238766988 6.75570612721192 12.0007179632258
endloop
endfacet
facet normal 4.30176939961241e-005 -8.45825318908992e-022 0.999999999074739
outer loop
vertex 2.9289165830201 14.5347154353114 12.0005332251617
vertex 4.86978238766988 6.75570612721192 12.0007179632258
vertex 16.1743719445681 16.5347154353114 11.9995961638105
endloop
endfacet
facet normal 4.30176939961241e-005 -8.45825318908992e-022 0.999999999074739
outer loop
vertex 16.1743719445681 16.5347154353114 11.9995961638105
vertex 4.86978238766988 6.75570612721192 12.0007179632258
vertex 6.42541730324738 7.40007120210436 12.0007159382422
endloop
endfacet
facet normal 4.30176939961241e-005 -8.45825318908992e-022 0.999999999074739
outer loop
vertex 16.1743719445681 16.5347154353114 11.9995961638105
vertex 6.42541730324738 7.40007120210436 12.0007159382422
vertex 7.98105221511901 6.75570611826419 12.000714254925
endloop
endfacet
facet normal 4.30176939961241e-005 -8.45825318908992e-022 0.999999999074739
outer loop
vertex 16.1743719445681 16.5347154353114 11.9995961638105
vertex 7.98105221511901 6.75570611826419 12.000714254925
vertex 8.62541729001144 5.20007120268539 12.0007138993386
endloop
endfacet
facet normal 4.30176939961241e-005 -8.45825318908992e-022 0.999999999074739
outer loop
vertex 16.1743719445681 16.5347154353114 11.9995961638105
vertex 8.62541729001144 5.20007120268539 12.0007138993386
vertex 9.92188961593109 9.49545761324891e-005 12.0007079600621
endloop
endfacet
facet normal 4.30176939961241e-005 -8.45825318908992e-022 0.999999999074739
outer loop
vertex 16.1743719445681 16.5347154353114 11.9995961638105
vertex 9.92188961593109 9.49545761324891e-005 12.0007079600621
vertex 29.025536347981 16.5347154349951 11.999725075057
endloop
endfacet
facet normal 4.30176939961241e-005 -8.45825318908992e-022 0.999999999074739
outer loop
vertex 16.1743719445681 16.5347154353114 11.9995961638105
vertex 29.025536347981 16.5347154349951 11.999725075057
vertex 16.1745902652525 41.5244962177608 11.9986856996161
endloop
endfacet
facet normal 4.30176939961241e-005 -8.45825318908992e-022 0.999999999074739
outer loop
vertex 16.1745902652525 41.5244962177608 11.9986856996161
vertex 29.025536347981 16.5347154349951 11.999725075057
vertex 25.4884319560441 48.0047705773521 11.9979416445483
endloop
endfacet
facet normal 4.30176939961241e-005 -8.45825318908992e-022 0.999999999074739
outer loop
vertex 25.4884319560441 48.0047705773521 11.9979416445483
vertex 29.025536347981 16.5347154349951 11.999725075057
vertex 25.4884319560441 86.3553717100813 11.9979416445483
endloop
endfacet
facet normal 4.30176939961241e-005 -8.45825318908992e-022 0.999999999074739
outer loop
vertex 2.92891658302009 119.825426852122 12.0005332251617
vertex 6.34817077146688e-006 131.431214296728 12.0005332251617
vertex 6.34816926560478e-006 124.431214296728 12.0005332251617
endloop
endfacet
facet normal 4.30176939961241e-005 -8.45825318908992e-022 0.999999999074739
outer loop
vertex 6.34817077146688e-006 131.431214296728 12.0005332251617
vertex 2.92891658302009 119.825426852122 12.0005332251617
vertex 2.92894496525966 134.360094810168 12.0007262494665
endloop
endfacet
facet normal 4.30176939961241e-005 -8.45825318908992e-022 0.999999999074739
outer loop
vertex 2.92894496525966 134.360094810168 12.0007262494665
vertex 2.92891658302009 119.825426852122 12.0005332251617
vertex 4.22541730383066 129.160071072094 12.0007191436679
endloop
endfacet
facet normal 4.30176939961241e-005 -8.45825318908992e-022 0.999999999074739
outer loop
vertex 4.22541730383066 129.160071072094 12.0007191436679
vertex 2.92891658302009 119.825426852122 12.0005332251617
vertex 4.86978238766988 127.604436160221 12.0007179632258
endloop
endfacet
facet normal 4.30176939961241e-005 -8.45825318908992e-022 0.999999999074739
outer loop
vertex 4.86978238766988 127.604436160221 12.0007179632258
vertex 2.92891658302009 119.825426852122 12.0005332251617
vertex 16.1743719445681 117.825426852122 11.9995961638105
endloop
endfacet
facet normal 4.30176939961241e-005 -8.45825318908992e-022 0.999999999074739
outer loop
vertex 4.86978238766988 127.604436160221 12.0007179632258
vertex 16.1743719445681 117.825426852122 11.9995961638105
vertex 6.42541730324738 126.960071085329 12.0007159382422
endloop
endfacet
facet normal 4.30176939961241e-005 -8.45825318908992e-022 0.999999999074739
outer loop
vertex 6.42541730324738 126.960071085329 12.0007159382422
vertex 16.1743719445681 117.825426852122 11.9995961638105
vertex 7.981052215119 127.604436169169 12.000714254925
endloop
endfacet
facet normal 4.30176939961241e-005 -8.45825318908992e-022 0.999999999074739
outer loop
vertex 7.981052215119 127.604436169169 12.000714254925
vertex 16.1743719445681 117.825426852122 11.9995961638105
vertex 8.62541729001144 129.160071084748 12.0007138993386
endloop
endfacet
facet normal 4.30176939961241e-005 -8.45825318908992e-022 0.999999999074739
outer loop
vertex 8.62541729001144 129.160071084748 12.0007138993386
vertex 16.1743719445681 117.825426852122 11.9995961638105
vertex 9.92188961593108 134.360047332857 12.0007079600621
endloop
endfacet
facet normal 4.30176939961241e-005 -8.45825318908992e-022 0.999999999074739
outer loop
vertex 9.92188961593108 134.360047332857 12.0007079600621
vertex 16.1743719445681 117.825426852122 11.9995961638105
vertex 29.025536347981 117.825426852438 11.999725075057
endloop
endfacet
facet normal 4.30176939961241e-005 -8.45825318908992e-022 0.999999999074739
outer loop
vertex 29.025536347981 117.825426852438 11.999725075057
vertex 16.1743719445681 117.825426852122 11.9995961638105
vertex 16.1745902652525 92.8356460696725 11.9986856996161
endloop
endfacet
facet normal 4.30176939961241e-005 -8.45825318908992e-022 0.999999999074739
outer loop
vertex 29.025536347981 117.825426852438 11.999725075057
vertex 16.1745902652525 92.8356460696725 11.9986856996161
vertex 25.4884319560441 86.3553717100813 11.9979416445483
endloop
endfacet
facet normal 4.30176939961241e-005 -8.45825318908992e-022 0.999999999074739
outer loop
vertex 29.025536347981 117.825426852438 11.999725075057
vertex 25.4884319560441 86.3553717100813 11.9979416445483
vertex 29.025536347981 16.5347154349951 11.999725075057
endloop
endfacet
facet normal 4.30176939961241e-005 -8.45825318908992e-022 0.999999999074739
outer loop
vertex 29.025536347981 117.825426852438 11.999725075057
vertex 29.025536347981 16.5347154349951 11.999725075057
vertex 29.0260786737065 40.627023683302 11.9998055291796
endloop
endfacet
facet normal 4.30176939961241e-005 -8.45825318908992e-022 0.999999999074739
outer loop
vertex 29.025536347981 117.825426852438 11.999725075057
vertex 29.0260786737065 40.627023683302 11.9998055291796
vertex 29.0260786737065 93.7331186041314 11.9998055291796
endloop
endfacet
facet normal 4.30176939961241e-005 -8.45825318908992e-022 0.999999999074739
outer loop
vertex 29.0260786737065 93.7331186041314 11.9998055291796
vertex 29.0260786737065 40.627023683302 11.9998055291796
vertex 38.4895876546836 47.1090527125933 11.9993921204728
endloop
endfacet
facet normal 4.30176939961241e-005 -8.45825318908992e-022 0.999999999074739
outer loop
vertex 29.0260786737065 93.7331186041314 11.9998055291796
vertex 38.4895876546836 47.1090527125933 11.9993921204728
vertex 38.4895876546836 87.25108957484 11.9993921204728
endloop
endfacet
facet normal 4.30176939961241e-005 -8.45825318908992e-022 0.999999999074739
outer loop
vertex 2.92894496525966 134.360094810168 12.0007262494665
vertex 4.86978237872308 130.715705987673 12.0007187880815
vertex 9.92188961593108 134.360047332857 12.0007079600621
endloop
endfacet
facet normal 4.30176939961241e-005 -8.45825318908992e-022 0.999999999074739
outer loop
vertex 4.86978237872308 130.715705987673 12.0007187880815
vertex 2.92894496525966 134.360094810168 12.0007262494665
vertex 4.22541730383066 129.160071072094 12.0007191436679
endloop
endfacet
facet normal 4.30176939961241e-005 -8.45825318908992e-022 0.999999999074739
outer loop
vertex 9.92188961593108 134.360047332857 12.0007079600621
vertex 4.86978237872308 130.715705987673 12.0007187880815
vertex 6.42541729059473 131.360071071513 12.0007171047643
endloop
endfacet
facet normal 4.30176939961241e-005 -8.45825318908992e-022 0.999999999074739
outer loop
vertex 9.92188961593108 134.360047332857 12.0007079600621
vertex 6.42541729059473 131.360071071513 12.0007171047643
vertex 7.98105220617223 130.71570599662 12.0007150797807
endloop
endfacet
facet normal 4.30176939961241e-005 -8.45825318908992e-022 0.999999999074739
outer loop
vertex 9.92188961593108 134.360047332857 12.0007079600621
vertex 7.98105220617223 130.71570599662 12.0007150797807
vertex 8.62541729001144 129.160071084748 12.0007138993386
endloop
endfacet
facet normal 7.56204328854005e-006 -0.382683432321714 0.923879532498305
outer loop
vertex 16.1745076749832 101.232866999788 3.79961140625733
vertex 29.0256295243519 102.788591408243 4.44390836781572
vertex 16.1745002577709 102.788501918363 4.44397648762883
endloop
endfacet
facet normal 7.56204328854005e-006 -0.382683432321714 0.923879532498305
outer loop
vertex 29.0256295243519 102.788591408243 4.44390836781572
vertex 16.1745076749832 101.232866999788 3.79961140625733
vertex 29.0256369415642 101.232956489669 3.79954328644422
endloop
endfacet
facet normal -3.6857412627466e-005 0.923879532511288 0.382683430590162
outer loop
vertex 25.4903973926815 77.0866259327755 6.99777849363002
vertex 38.4897167344288 77.7309910111764 5.44339557925746
vertex 25.4905472206411 77.7309910111764 5.44214358945
endloop
endfacet
facet normal -3.6857412627466e-005 0.923879532511288 0.382683430590162
outer loop
vertex 38.4897167344288 77.7309910111764 5.44339557925746
vertex 25.4903973926815 77.0866259327755 6.99777849363002
vertex 38.4895669064693 77.0866259327755 6.99903048343748
endloop
endfacet
facet normal 2.23234906106018e-006 0.382683432389911 0.923879532498309
outer loop
vertex 16.1745219233507 99.6772320812609 4.44397648762882
vertex 29.0256369415642 101.232956489669 3.79954328644422
vertex 16.1745076749832 101.232866999788 3.79961140625733
endloop
endfacet
facet normal 2.23234906106018e-006 0.382683432389911 0.923879532498309
outer loop
vertex 29.0256369415642 101.232956489669 3.79954328644422
vertex 16.1745219233507 99.6772320812609 4.44397648762882
vertex 29.0256511899317 99.6773215711417 4.44390836781571
endloop
endfacet
facet normal 8.89816654393126e-005 -0.382683432365092 -0.923879528226238
outer loop
vertex 25.490247564722 80.8422608339669 8.55341339781003
vertex 38.4893550177368 79.2866259225717 9.19903046302983
vertex 25.4901855039491 79.2866259225717 9.19777847322237
endloop
endfacet
facet normal 8.89816654393126e-005 -0.382683432365092 -0.923879528226238
outer loop
vertex 38.4893550177368 79.2866259225717 9.19903046302983
vertex 25.490247564722 80.8422608339669 8.55341339781003
vertex 38.4894170785097 80.8422608339669 8.5546653876175
endloop
endfacet
facet normal -8.89816654391147e-005 0.382683432365087 0.92387952822624
outer loop
vertex 38.4897167344288 77.7309910111764 5.44339557925746
vertex 25.4906092814139 79.2866259225717 4.79777851403767
vertex 25.4905472206411 77.7309910111764 5.44214358945
endloop
endfacet
facet normal -8.89816654391147e-005 0.382683432365087 0.92387952822624
outer loop
vertex 25.4906092814139 79.2866259225717 4.79777851403767
vertex 38.4897167344288 77.7309910111764 5.44339557925746
vertex 38.4897787952017 79.2866259225717 4.79903050384513
endloop
endfacet
facet normal 3.68574126275066e-005 -0.923879532511288 -0.382683430590162
outer loop
vertex 38.4895669064693 81.4866259123678 6.99903048343748
vertex 25.490247564722 80.8422608339669 8.55341339781003
vertex 25.4903973926815 81.4866259123678 6.99777849363002
endloop
endfacet
facet normal 3.68574126275066e-005 -0.923879532511288 -0.382683430590162
outer loop
vertex 25.490247564722 80.8422608339669 8.55341339781003
vertex 38.4895669064693 81.4866259123678 6.99903048343748
vertex 38.4894170785097 80.8422608339669 8.5546653876175
endloop
endfacet
facet normal 8.89816654393154e-005 0.382683432365087 -0.92387952822624
outer loop
vertex 38.4893550177368 79.2866259225717 9.19903046302983
vertex 25.490247564722 77.7309910111764 8.55341339781003
vertex 25.4901855039491 79.2866259225717 9.19777847322237
endloop
endfacet
facet normal 8.89816654393154e-005 0.382683432365087 -0.92387952822624
outer loop
vertex 25.490247564722 77.7309910111764 8.55341339781003
vertex 38.4893550177368 79.2866259225717 9.19903046302983
vertex 38.4894170785097 77.7309910111764 8.5546653876175
endloop
endfacet
facet normal 3.68574126275066e-005 0.923879532511288 -0.382683430590162
outer loop
vertex 25.490247564722 77.7309910111764 8.55341339781003
vertex 38.4895669064693 77.0866259327755 6.99903048343748
vertex 25.4903973926815 77.0866259327755 6.99777849363002
endloop
endfacet
facet normal 3.68574126275066e-005 0.923879532511288 -0.382683430590162
outer loop
vertex 38.4895669064693 77.0866259327755 6.99903048343748
vertex 25.490247564722 77.7309910111764 8.55341339781003
vertex 38.4894170785097 77.7309910111764 8.5546653876175
endloop
endfacet
facet normal -8.8981665439116e-005 -0.382683432365092 0.923879528226238
outer loop
vertex 25.4906092814139 79.2866259225717 4.79777851403767
vertex 38.4897167344288 80.8422608339669 5.44339557925746
vertex 25.4905472206411 80.8422608339669 5.44214358945
endloop
endfacet
facet normal -8.8981665439116e-005 -0.382683432365092 0.923879528226238
outer loop
vertex 38.4897167344288 80.8422608339669 5.44339557925746
vertex 25.4906092814139 79.2866259225717 4.79777851403767
vertex 38.4897787952017 79.2866259225717 4.79903050384513
endloop
endfacet
facet normal -2.23234906106016e-006 -0.382683432389913 -0.923879532498308
outer loop
vertex 29.0256460162193 102.788591408358 7.55517820494911
vertex 16.1745309980058 101.23286699995 8.19961140613371
vertex 16.1745167496383 102.788501918477 7.55524632476222
endloop
endfacet
facet normal -2.23234906106016e-006 -0.382683432389913 -0.923879532498308
outer loop
vertex 16.1745309980058 101.23286699995 8.19961140613371
vertex 29.0256460162193 102.788591408358 7.55517820494911
vertex 29.0256602645868 101.232956489831 8.1995432863206
endloop
endfacet
facet normal -8.46199511684572e-006 0.923879532474752 -0.382683432359736
outer loop
vertex 16.1745346563729 99.0328669999533 5.99961140619552
vertex 29.0256676817991 99.6773215712565 7.55517820494911
vertex 29.0256639229539 99.0329564898341 5.99954328638241
endloop
endfacet
facet normal -8.46199511684572e-006 0.923879532474752 -0.382683432359736
outer loop
vertex 29.0256676817991 99.6773215712565 7.55517820494911
vertex 16.1745346563729 99.0328669999533 5.99961140619552
vertex 16.1745384152181 99.6772320813757 7.55524632476221
endloop
endfacet
facet normal -3.68574126274661e-005 -0.923879532511288 0.382683430590162
outer loop
vertex 38.4897167344288 80.8422608339669 5.44339557925746
vertex 25.4903973926815 81.4866259123678 6.99777849363002
vertex 25.4905472206411 80.8422608339669 5.44214358945
endloop
endfacet
facet normal -3.68574126274661e-005 -0.923879532511288 0.382683430590162
outer loop
vertex 25.4903973926815 81.4866259123678 6.99777849363002
vertex 38.4897167344288 80.8422608339669 5.44339557925746
vertex 38.4895669064693 81.4866259123678 6.99903048343748
endloop
endfacet
facet normal -7.56204328854161e-006 0.382683432321712 -0.923879532498306
outer loop
vertex 29.0256602645868 101.232956489831 8.1995432863206
vertex 16.1745384152181 99.6772320813757 7.55524632476221
vertex 16.1745309980058 101.23286699995 8.19961140613371
endloop
endfacet
facet normal -7.56204328854161e-006 0.382683432321712 -0.923879532498306
outer loop
vertex 16.1745384152181 99.6772320813757 7.55524632476221
vertex 29.0256602645868 101.232956489831 8.1995432863206
vertex 29.0256676817991 99.6773215712565 7.55517820494911
endloop
endfacet
facet normal 4.40502497043646e-006 -0.923879532503014 -0.382683432359708
outer loop
vertex 29.0256460162193 102.788591408358 7.55517820494911
vertex 16.1745040166161 103.432866999785 5.99961140619552
vertex 29.0256332831971 103.432956489666 5.99954328638241
endloop
endfacet
facet normal 4.40502497043646e-006 -0.923879532503014 -0.382683432359708
outer loop
vertex 16.1745040166161 103.432866999785 5.99961140619552
vertex 29.0256460162193 102.788591408358 7.55517820494911
vertex 16.1745167496383 102.788501918477 7.55524632476222
endloop
endfacet
facet normal 8.46199511684466e-006 -0.923879532474766 0.382683432359701
outer loop
vertex 29.0256332831971 103.432956489666 5.99954328638241
vertex 16.1745002577709 102.788501918363 4.44397648762883
vertex 29.0256295243519 102.788591408243 4.44390836781572
endloop
endfacet
facet normal 8.46199511684466e-006 -0.923879532474766 0.382683432359701
outer loop
vertex 16.1745002577709 102.788501918363 4.44397648762883
vertex 29.0256332831971 103.432956489666 5.99954328638241
vertex 16.1745040166161 103.432866999785 5.99961140619552
endloop
endfacet
facet normal -4.4050249704356e-006 0.923879532503 0.382683432359743
outer loop
vertex 16.1745219233507 99.6772320812609 4.44397648762882
vertex 29.0256639229539 99.0329564898341 5.99954328638241
vertex 29.0256511899317 99.6773215711417 4.44390836781571
endloop
endfacet
facet normal -4.4050249704356e-006 0.923879532503 0.382683432359743
outer loop
vertex 29.0256639229539 99.0329564898341 5.99954328638241
vertex 16.1745219233507 99.6772320812609 4.44397648762882
vertex 16.1745346563729 99.0328669999533 5.99961140619552
endloop
endfacet
endsolid Arm 90 - 270
