solid Arm 210
facet normal -0.865458940323232 -1.19771907648918e-016 0.500979862484101
outer loop
vertex 5.06618022405558 0.0 11.0
vertex 2.76437825254166 4.90756491816094 7.02356253358667
vertex 0.0 0.0 2.24800955779573
endloop
endfacet
facet normal -0.865458940323232 -1.19771907648918e-016 0.500979862484101
outer loop
vertex 2.76437825254166 4.90756491816094 7.02356253358667
vertex 5.06618022405558 0.0 11.0
vertex 3.10575919492165 6.44732604104275 7.61330916965653
endloop
endfacet
facet normal -0.865458940323232 -1.19771907648918e-016 0.500979862484101
outer loop
vertex 3.10575919492165 6.44732604104275 7.61330916965653
vertex 5.06618022405558 0.0 11.0
vertex 5.06618022405558 16.3791704342349 11.0
endloop
endfacet
facet normal -0.865458940323232 -1.19771907648918e-016 0.500979862484101
outer loop
vertex 0.0 0.0 2.24800955779573
vertex 2.76437825254166 4.90756491816094 7.02356253358667
vertex 1.97753085722151 4.30063066902175 5.66425817038688
endloop
endfacet
facet normal -0.865458940323232 -1.19771907648918e-016 0.500979862484101
outer loop
vertex 3.10575919492165 6.44732604104275 7.61330916965653
vertex 5.06618022405558 16.3791704342349 11.0
vertex 2.80169735825101 8.01794285469784 7.08803249755065
endloop
endfacet
facet normal -0.865458940323232 -1.19771907648918e-016 0.500979862484101
outer loop
vertex 2.80169735825101 8.01794285469784 7.08803249755065
vertex 5.06618022405558 16.3791704342349 11.0
vertex 2.03030804265132 8.69936933097827 5.75543246779045
endloop
endfacet
facet normal -0.865458940323232 -1.19771907648918e-016 0.500979862484101
outer loop
vertex 2.03030804265132 8.69936933097827 5.75543246779045
vertex 5.06618022405558 16.3791704342349 11.0
vertex 0.0 11.8495973870605 2.24800955779574
endloop
endfacet
facet normal -0.865458940323232 -1.19771907648918e-016 0.500979862484101
outer loop
vertex 0.0 0.0 2.24800955779573
vertex 0.902079704951176 6.55267395895727 3.80638146852081
vertex 0.0 11.8495973870605 2.24800955779574
endloop
endfacet
facet normal -0.865458940323232 -1.19771907648918e-016 0.500979862484101
outer loop
vertex 0.902079704951176 6.55267395895727 3.80638146852081
vertex 0.0 0.0 2.24800955779573
vertex 1.20614154162182 4.98205714530218 4.33165814062668
endloop
endfacet
facet normal -0.865458940323232 -1.19771907648918e-016 0.500979862484101
outer loop
vertex 1.20614154162182 4.98205714530218 4.33165814062668
vertex 0.0 0.0 2.24800955779573
vertex 1.97753085722151 4.30063066902175 5.66425817038688
endloop
endfacet
facet normal -0.865458940323232 -1.19771907648918e-016 0.500979862484101
outer loop
vertex 0.0 11.8495973870605 2.24800955779574
vertex 0.902079704951176 6.55267395895727 3.80638146852081
vertex 1.24346064733117 8.09243508183908 4.39612810459067
endloop
endfacet
facet normal -0.865458940323232 -1.19771907648918e-016 0.500979862484101
outer loop
vertex 0.0 11.8495973870605 2.24800955779574
vertex 1.24346064733117 8.09243508183908 4.39612810459067
vertex 2.03030804265132 8.69936933097827 5.75543246779045
endloop
endfacet
facet normal 0.711299704498422 -0.702888846390706 -1.37497419937453e-015
outer loop
vertex 9.98884487534252 2.12025446069372 3.62896380446143
vertex 7.89366164595731 0.0 11.0
vertex 7.89366164595728 0.0 -1.55098156540134e-014
endloop
endfacet
facet normal 0.0 -1.0 0.0
outer loop
vertex 7.89366164595731 0.0 11.0
vertex 0.0 0.0 0.0
vertex 7.89366164595728 0.0 -1.55098156540134e-014
endloop
endfacet
facet normal 0.0 -1.0 0.0
outer loop
vertex 0.0 0.0 0.0
vertex 7.89366164595731 0.0 11.0
vertex 0.0 0.0 2.24800955779573
endloop
endfacet
facet normal 0.0 -1.0 0.0
outer loop
vertex 0.0 0.0 2.24800955779573
vertex 7.89366164595731 0.0 11.0
vertex 5.06618022405558 0.0 11.0
endloop
endfacet
facet normal 0.666523077570112 -0.74548439760096 -1.72919007989143e-015
outer loop
vertex 20.7961890266695 21.5 10.9999999999999
vertex 7.89366164595727 9.96410161513776 -1.83297821365613e-014
vertex 20.7961890266695 21.5 -3.399243777083e-014
endloop
endfacet
facet normal 0.666523077570112 -0.74548439760096 -1.72919007989143e-015
outer loop
vertex 7.89366164595727 9.96410161513776 -1.83297821365613e-014
vertex 20.7961890266695 21.5 10.9999999999999
vertex 9.98884487534252 11.83736412555 3.62896380446143
endloop
endfacet
facet normal 0.666523077570112 -0.74548439760096 -1.72919007989143e-015
outer loop
vertex 9.98884487534252 11.83736412555 3.62896380446143
vertex 20.7961890266695 21.5 10.9999999999999
vertex 7.89366164595731 9.96410161513776 11.0
endloop
endfacet
facet normal 0.961873294015836 6.92002751406493e-006 0.273495459215027
outer loop
vertex 9.98884487534252 2.12025446069372 3.62896380446143
vertex 7.89366164595731 9.96410161513776 11.0
vertex 7.89366164595731 0.0 11.0
endloop
endfacet
facet normal 0.961873294015836 6.92002751406493e-006 0.273495459215027
outer loop
vertex 7.89366164595731 9.96410161513776 11.0
vertex 9.98884487534252 2.12025446069372 3.62896380446143
vertex 9.99120195108762 6.44732604104275 3.62759938677778
endloop
endfacet
facet normal 0.961873294015836 6.92002751406493e-006 0.273495459215027
outer loop
vertex 7.89366164595731 9.96410161513776 11.0
vertex 9.99120195108762 6.44732604104275 3.62759938677778
vertex 9.98884487534252 11.83736412555 3.62896380446143
endloop
endfacet
facet normal -1.0 -3.90011308885029e-016 1.91204060868859e-015
outer loop
vertex 0.0 11.8495973870605 2.24800955779574
vertex 0.0 0.0 0.0
vertex 0.0 0.0 2.24800955779573
endloop
endfacet
facet normal -1.0 -3.90011308885029e-016 1.91204060868859e-015
outer loop
vertex 0.0 0.0 0.0
vertex 0.0 11.8495973870605 2.24800955779574
vertex 0.0 11.8495973870605 -1.40998324127395e-015
endloop
endfacet
facet normal -0.666523077570114 0.745484397600959 2.60155404405573e-015
outer loop
vertex 0.0 11.8495973870605 -1.40998324127395e-015
vertex 10.7936616459573 21.5 11.0
vertex 10.7936616459573 21.5 -1.48358051104552e-014
endloop
endfacet
facet normal -0.666523077570114 0.745484397600959 2.60155404405573e-015
outer loop
vertex 10.7936616459573 21.5 11.0
vertex 0.0 11.8495973870605 -1.40998324127395e-015
vertex 0.0 11.8495973870605 2.24800955779574
endloop
endfacet
facet normal -0.666523077570114 0.745484397600959 2.60155404405573e-015
outer loop
vertex 10.7936616459573 21.5 11.0
vertex 0.0 11.8495973870605 2.24800955779574
vertex 5.06618022405558 16.3791704342349 11.0
endloop
endfacet
facet normal 0.86570940694234 0.000314734252145612 -0.500546824656688
outer loop
vertex 7.89366164595727 9.96410161513776 -1.83297821365613e-014
vertex 8.12890340349714 8.09243508183908 0.410418321711917
vertex 7.89278786468937 7.02352086815532 0.00050579732790168
endloop
endfacet
facet normal 0.86570940694234 0.000314734252145612 -0.500546824656688
outer loop
vertex 8.12890340349714 8.09243508183908 0.410418321711917
vertex 7.89366164595727 9.96410161513776 -1.83297821365613e-014
vertex 8.91575079881729 8.69936933097827 1.7697226849117
endloop
endfacet
facet normal 0.86570940694234 0.000314734252145612 -0.500546824656688
outer loop
vertex 9.68714011441698 8.01794285469784 3.1023227146719
vertex 9.98884487534252 11.83736412555 3.62896380446143
vertex 9.99120195108762 6.44732604104275 3.62759938677778
endloop
endfacet
facet normal 0.86570940694234 0.000314734252145612 -0.500546824656688
outer loop
vertex 9.98884487534252 11.83736412555 3.62896380446143
vertex 9.68714011441698 8.01794285469784 3.1023227146719
vertex 8.91575079881729 8.69936933097827 1.7697226849117
endloop
endfacet
facet normal 0.86570940694234 0.000314734252145612 -0.500546824656688
outer loop
vertex 9.98884487534252 11.83736412555 3.62896380446143
vertex 8.91575079881729 8.69936933097827 1.7697226849117
vertex 7.89366164595727 9.96410161513776 -1.83297821365613e-014
endloop
endfacet
facet normal -0.458122141483588 0.404693907815559 -0.791420839035379
outer loop
vertex 3.10575919492165 6.44732604104275 7.61330916965653
vertex 9.64982100870762 4.90756491816094 3.03785275070792
vertex 2.76437825254166 4.90756491816094 7.02356253358667
endloop
endfacet
facet normal -0.458122141483588 0.404693907815559 -0.791420839035379
outer loop
vertex 9.64982100870762 4.90756491816094 3.03785275070792
vertex 3.10575919492165 6.44732604104275 7.61330916965653
vertex 9.99120195108762 6.44732604104275 3.62759938677778
endloop
endfacet
facet normal -0.467302575333974 -0.360453550927417 -0.807280335887139
outer loop
vertex 9.68714011441698 8.01794285469784 3.1023227146719
vertex 3.10575919492165 6.44732604104275 7.61330916965653
vertex 2.80169735825101 8.01794285469784 7.08803249755065
endloop
endfacet
facet normal -0.467302575333974 -0.360453550927417 -0.807280335887139
outer loop
vertex 3.10575919492165 6.44732604104275 7.61330916965653
vertex 9.68714011441698 8.01794285469784 3.1023227146719
vertex 9.99120195108762 6.44732604104275 3.62759938677778
endloop
endfacet
facet normal -0.202743498285592 -0.914452208142652 -0.350245960613321
outer loop
vertex 9.68714011441698 8.01794285469784 3.1023227146719
vertex 2.03030804265132 8.69936933097827 5.75543246779045
vertex 8.91575079881729 8.69936933097827 1.7697226849117
endloop
endfacet
facet normal -0.202743498285592 -0.914452208142652 -0.350245960613321
outer loop
vertex 2.03030804265132 8.69936933097827 5.75543246779045
vertex 9.68714011441698 8.01794285469784 3.1023227146719
vertex 2.80169735825101 8.01794285469784 7.08803249755065
endloop
endfacet
facet normal 0.180579970375523 -0.932777163969946 0.311957748221388
outer loop
vertex 8.91575079881729 8.69936933097827 1.7697226849117
vertex 1.24346064733117 8.09243508183908 4.39612810459067
vertex 8.12890340349714 8.09243508183908 0.410418321711917
endloop
endfacet
facet normal 0.180579970375523 -0.932777163969946 0.311957748221388
outer loop
vertex 1.24346064733117 8.09243508183908 4.39612810459067
vertex 8.91575079881729 8.69936933097827 1.7697226849117
vertex 2.03030804265132 8.69936933097827 5.75543246779045
endloop
endfacet
facet normal 0.458122141483589 -0.404693907815559 0.791420839035379
outer loop
vertex 7.4774677089727 6.55267395895727 0.000150087048197783
vertex 1.24346064733117 8.09243508183908 4.39612810459067
vertex 0.902079704951176 6.55267395895727 3.80638146852081
endloop
endfacet
facet normal 0.458122141483589 -0.404693907815559 0.791420839035379
outer loop
vertex 1.24346064733117 8.09243508183908 4.39612810459067
vertex 7.4774677089727 6.55267395895727 0.000150087048197783
vertex 8.12890340349714 8.09243508183908 0.410418321711917
endloop
endfacet
facet normal 0.458122141483589 -0.404693907815559 0.791420839035379
outer loop
vertex 8.12890340349714 8.09243508183908 0.410418321711917
vertex 7.4774677089727 6.55267395895727 0.000150087048197783
vertex 7.89278786468937 7.02352086815532 0.00050579732790168
endloop
endfacet
facet normal 0.467302575333974 0.360453550927417 0.807280335887139
outer loop
vertex 1.20614154162182 4.98205714530218 4.33165814062668
vertex 7.4774677089727 6.55267395895727 0.000150087048197783
vertex 0.902079704951176 6.55267395895727 3.80638146852081
endloop
endfacet
facet normal 0.467302575333974 0.360453550927417 0.807280335887139
outer loop
vertex 7.4774677089727 6.55267395895727 0.000150087048197783
vertex 1.20614154162182 4.98205714530218 4.33165814062668
vertex 8.09158429778779 4.98205714530218 0.345948357747935
endloop
endfacet
facet normal 0.467302575333974 0.360453550927417 0.807280335887139
outer loop
vertex 7.4774677089727 6.55267395895727 0.000150087048197783
vertex 8.09158429778779 4.98205714530218 0.345948357747935
vertex 7.89278786468937 6.01344404772879 0.000505797327902076
endloop
endfacet
facet normal 0.202743498285592 0.914452208142652 0.350245960613321
outer loop
vertex 1.20614154162182 4.98205714530218 4.33165814062668
vertex 8.86297361338748 4.30063066902175 1.67854838750814
vertex 8.09158429778779 4.98205714530218 0.345948357747935
endloop
endfacet
facet normal 0.202743498285592 0.914452208142652 0.350245960613321
outer loop
vertex 8.86297361338748 4.30063066902175 1.67854838750814
vertex 1.20614154162182 4.98205714530218 4.33165814062668
vertex 1.97753085722151 4.30063066902175 5.66425817038688
endloop
endfacet
facet normal -0.180579970375523 0.932777163969946 -0.311957748221388
outer loop
vertex 1.97753085722151 4.30063066902175 5.66425817038688
vertex 9.64982100870762 4.90756491816094 3.03785275070792
vertex 8.86297361338748 4.30063066902175 1.67854838750814
endloop
endfacet
facet normal -0.180579970375523 0.932777163969946 -0.311957748221388
outer loop
vertex 9.64982100870762 4.90756491816094 3.03785275070792
vertex 1.97753085722151 4.30063066902175 5.66425817038688
vertex 2.76437825254166 4.90756491816094 7.02356253358667
endloop
endfacet
facet normal 0.865733868505606 -5.64300310276433e-005 -0.500504611105603
outer loop
vertex 7.89366164595728 0.0 -1.55098156540134e-014
vertex 8.09158429778779 4.98205714530218 0.345948357747935
vertex 9.98884487534252 2.12025446069372 3.62896380446143
endloop
endfacet
facet normal 0.865733868505606 -5.64300310276433e-005 -0.500504611105603
outer loop
vertex 8.09158429778779 4.98205714530218 0.345948357747935
vertex 7.89366164595728 0.0 -1.55098156540134e-014
vertex 7.89278786468937 6.01344404772879 0.000505797327902076
endloop
endfacet
facet normal 0.865733868505606 -5.64300310276433e-005 -0.500504611105603
outer loop
vertex 9.98884487534252 2.12025446069372 3.62896380446143
vertex 8.09158429778779 4.98205714530218 0.345948357747935
vertex 8.86297361338748 4.30063066902175 1.67854838750814
endloop
endfacet
facet normal 0.865733868505606 -5.64300310276433e-005 -0.500504611105603
outer loop
vertex 9.98884487534252 2.12025446069372 3.62896380446143
vertex 9.64982100870762 4.90756491816094 3.03785275070792
vertex 9.99120195108762 6.44732604104275 3.62759938677778
endloop
endfacet
facet normal 0.865733868505606 -5.64300310276433e-005 -0.500504611105603
outer loop
vertex 9.64982100870762 4.90756491816094 3.03785275070792
vertex 9.98884487534252 2.12025446069372 3.62896380446143
vertex 8.86297361338748 4.30063066902175 1.67854838750814
endloop
endfacet
facet normal 0.923879532511287 0.38268343236509 -2.44029870082327e-015
outer loop
vertex 13.5937714801275 29.4640108377278 -0.000563971797957896
vertex 14.2381365615171 27.9083759191174 10.999436028202
vertex 14.2381365615171 27.9083759191174 -0.000563971797957896
endloop
endfacet
facet normal 0.923879532511287 0.38268343236509 -2.44029870082327e-015
outer loop
vertex 14.2381365615171 27.9083759191174 10.999436028202
vertex 13.5937714801275 29.4640108377278 -0.000563971797957896
vertex 13.5937714801275 29.4640108377278 10.999436028202
endloop
endfacet
facet normal 0.382683432365089 0.923879532511287 -1.01080481812244e-015
outer loop
vertex 14.2381365615171 27.9083759191174 10.999436028202
vertex 15.7937714801275 27.2640108377278 -0.000563971797957896
vertex 14.2381365615171 27.9083759191174 -0.000563971797957896
endloop
endfacet
facet normal 0.382683432365089 0.923879532511287 -1.01080481812244e-015
outer loop
vertex 15.7937714801275 27.2640108377278 -0.000563971797957896
vertex 14.2381365615171 27.9083759191174 10.999436028202
vertex 15.7937714801275 27.2640108377278 10.999436028202
endloop
endfacet
facet normal -0.382683432365089 0.923879532511287 1.01080481812244e-015
outer loop
vertex 15.7937714801275 27.2640108377278 10.999436028202
vertex 17.3494063987379 27.9083759191174 -0.000563971797957896
vertex 15.7937714801275 27.2640108377278 -0.000563971797957896
endloop
endfacet
facet normal -0.382683432365089 0.923879532511287 1.01080481812244e-015
outer loop
vertex 17.3494063987379 27.9083759191174 -0.000563971797957896
vertex 15.7937714801275 27.2640108377278 10.999436028202
vertex 17.3494063987379 27.9083759191174 10.999436028202
endloop
endfacet
facet normal -0.923879532511287 0.38268343236509 2.44029870082327e-015
outer loop
vertex 17.9937714801275 29.4640108377278 10.999436028202
vertex 17.3494063987379 27.9083759191174 -0.000563971797957896
vertex 17.3494063987379 27.9083759191174 10.999436028202
endloop
endfacet
facet normal -0.923879532511287 0.38268343236509 2.44029870082327e-015
outer loop
vertex 17.3494063987379 27.9083759191174 -0.000563971797957896
vertex 17.9937714801275 29.4640108377278 10.999436028202
vertex 17.9937714801275 29.4640108377278 -0.000563971797957896
endloop
endfacet
facet normal -0.923879532511287 -0.38268343236509 2.44029870082327e-015
outer loop
vertex 17.3494063987379 31.0196457563382 10.999436028202
vertex 17.9937714801275 29.4640108377278 -0.000563971797957896
vertex 17.9937714801275 29.4640108377278 10.999436028202
endloop
endfacet
facet normal -0.923879532511287 -0.38268343236509 2.44029870082327e-015
outer loop
vertex 17.9937714801275 29.4640108377278 -0.000563971797957896
vertex 17.3494063987379 31.0196457563382 10.999436028202
vertex 17.3494063987379 31.0196457563382 -0.000563971797957896
endloop
endfacet
facet normal -0.382683432365089 -0.923879532511287 1.01080481812244e-015
outer loop
vertex 17.3494063987379 31.0196457563382 10.999436028202
vertex 15.7937714801275 31.6640108377278 -0.000563971797957896
vertex 17.3494063987379 31.0196457563382 -0.000563971797957896
endloop
endfacet
facet normal -0.382683432365089 -0.923879532511287 1.01080481812244e-015
outer loop
vertex 15.7937714801275 31.6640108377278 -0.000563971797957896
vertex 17.3494063987379 31.0196457563382 10.999436028202
vertex 15.7937714801275 31.6640108377278 10.999436028202
endloop
endfacet
facet normal 0.382683432365089 -0.923879532511287 -1.01080481812244e-015
outer loop
vertex 15.7937714801275 31.6640108377278 10.999436028202
vertex 14.2381365615171 31.0196457563382 -0.000563971797957896
vertex 15.7937714801275 31.6640108377278 -0.000563971797957896
endloop
endfacet
facet normal 0.382683432365089 -0.923879532511287 -1.01080481812244e-015
outer loop
vertex 14.2381365615171 31.0196457563382 -0.000563971797957896
vertex 15.7937714801275 31.6640108377278 10.999436028202
vertex 14.2381365615171 31.0196457563382 10.999436028202
endloop
endfacet
facet normal 0.923879532511287 -0.382683432365089 -2.44029870082327e-015
outer loop
vertex 14.2381365615171 31.0196457563382 -0.000563971797957896
vertex 13.5937714801275 29.4640108377278 10.999436028202
vertex 13.5937714801275 29.4640108377278 -0.000563971797957896
endloop
endfacet
facet normal 0.923879532511287 -0.382683432365089 -2.44029870082327e-015
outer loop
vertex 13.5937714801275 29.4640108377278 10.999436028202
vertex 14.2381365615171 31.0196457563382 -0.000563971797957896
vertex 14.2381365615171 31.0196457563382 10.999436028202
endloop
endfacet
facet normal -0.666523077570113 -0.745484397600959 1.81474955545349e-015
outer loop
vertex 10.7936616459573 61.4 11.0
vertex 0.0 71.0504026129395 -1.40998324127395e-015
vertex 10.7936616459573 61.4 -1.48358051104552e-014
endloop
endfacet
facet normal -0.666523077570113 -0.745484397600959 1.81474955545349e-015
outer loop
vertex 0.0 71.0504026129395 -1.40998324127395e-015
vertex 10.7936616459573 61.4 11.0
vertex 0.0 71.0504026129395 2.24800955779574
endloop
endfacet
facet normal -0.666523077570113 -0.745484397600959 1.81474955545349e-015
outer loop
vertex 0.0 71.0504026129395 2.24800955779574
vertex 10.7936616459573 61.4 11.0
vertex 5.06618022405558 66.5208295657651 11.0
endloop
endfacet
facet normal 0.666523077570112 0.74548439760096 -1.67861841913006e-015
outer loop
vertex 7.89366164595727 72.9358983848623 -1.83297821365613e-014
vertex 20.7961890266695 61.4 10.9999999999999
vertex 20.7961890266695 61.4 -3.399243777083e-014
endloop
endfacet
facet normal 0.666523077570112 0.74548439760096 -1.67861841913006e-015
outer loop
vertex 20.7961890266695 61.4 10.9999999999999
vertex 7.89366164595727 72.9358983848623 -1.83297821365613e-014
vertex 9.98884487534252 71.06263587445 3.62896380446143
endloop
endfacet
facet normal 0.666523077570112 0.74548439760096 -1.67861841913006e-015
outer loop
vertex 20.7961890266695 61.4 10.9999999999999
vertex 9.98884487534252 71.06263587445 3.62896380446143
vertex 7.89366164595731 72.9358983848623 11.0
endloop
endfacet
facet normal -1.0 0.0 0.0
outer loop
vertex 0.0 82.9 2.24800955779573
vertex 0.0 71.0504026129395 -1.40998324127395e-015
vertex 0.0 71.0504026129395 2.24800955779574
endloop
endfacet
facet normal -1.0 0.0 0.0
outer loop
vertex 0.0 71.0504026129395 -1.40998324127395e-015
vertex 0.0 82.9 2.24800955779573
vertex 0.0 82.9 0.0
endloop
endfacet
facet normal -0.0 1.0 -0.0
outer loop
vertex 0.0 82.9 0.0
vertex 7.89366164595731 82.9 11.0
vertex 7.89366164595728 82.9 -1.55098156540134e-014
endloop
endfacet
facet normal -0.0 1.0 -0.0
outer loop
vertex 7.89366164595731 82.9 11.0
vertex 0.0 82.9 0.0
vertex 0.0 82.9 2.24800955779573
endloop
endfacet
facet normal -0.0 1.0 -0.0
outer loop
vertex 7.89366164595731 82.9 11.0
vertex 0.0 82.9 2.24800955779573
vertex 5.06618022405558 82.9 11.0
endloop
endfacet
facet normal 0.711299704498422 0.702888846390706 -1.46053385975191e-015
outer loop
vertex 7.89366164595731 82.9 11.0
vertex 9.98884487534252 80.7797455393063 3.62896380446143
vertex 7.89366164595728 82.9 -1.55098156540134e-014
endloop
endfacet
facet normal -0.865458940323232 1.09790915344842e-016 0.500979862484101
outer loop
vertex 5.06618022405558 66.5208295657651 11.0
vertex 2.80169735825101 74.8820571453022 7.08803249755065
vertex 0.0 71.0504026129395 2.24800955779574
endloop
endfacet
facet normal -0.865458940323232 1.09790915344842e-016 0.500979862484101
outer loop
vertex 2.80169735825101 74.8820571453022 7.08803249755065
vertex 5.06618022405558 66.5208295657651 11.0
vertex 5.06618022405558 82.9 11.0
endloop
endfacet
facet normal -0.865458940323232 1.09790915344842e-016 0.500979862484101
outer loop
vertex 0.0 71.0504026129395 2.24800955779574
vertex 2.80169735825101 74.8820571453022 7.08803249755065
vertex 2.03030804265132 74.2006306690217 5.75543246779045
endloop
endfacet
facet normal -0.865458940323232 1.09790915344842e-016 0.500979862484101
outer loop
vertex 2.80169735825101 74.8820571453022 7.08803249755065
vertex 5.06618022405558 82.9 11.0
vertex 3.10575919492165 76.4526739589573 7.61330916965653
endloop
endfacet
facet normal -0.865458940323232 1.09790915344842e-016 0.500979862484101
outer loop
vertex 3.10575919492165 76.4526739589573 7.61330916965653
vertex 5.06618022405558 82.9 11.0
vertex 2.76437825254166 77.9924350818391 7.02356253358667
endloop
endfacet
facet normal -0.865458940323232 1.09790915344842e-016 0.500979862484101
outer loop
vertex 2.76437825254166 77.9924350818391 7.02356253358667
vertex 5.06618022405558 82.9 11.0
vertex 1.97753085722151 78.5993693309783 5.66425817038688
endloop
endfacet
facet normal -0.865458940323232 1.09790915344842e-016 0.500979862484101
outer loop
vertex 0.0 71.0504026129395 2.24800955779574
vertex 0.902079704951176 76.3473260410427 3.80638146852081
vertex 0.0 82.9 2.24800955779573
endloop
endfacet
facet normal -0.865458940323232 1.09790915344842e-016 0.500979862484101
outer loop
vertex 0.902079704951176 76.3473260410427 3.80638146852081
vertex 0.0 71.0504026129395 2.24800955779574
vertex 1.24346064733117 74.8075649181609 4.39612810459067
endloop
endfacet
facet normal -0.865458940323232 1.09790915344842e-016 0.500979862484101
outer loop
vertex 1.24346064733117 74.8075649181609 4.39612810459067
vertex 0.0 71.0504026129395 2.24800955779574
vertex 2.03030804265132 74.2006306690217 5.75543246779045
endloop
endfacet
facet normal -0.865458940323232 1.09790915344842e-016 0.500979862484101
outer loop
vertex 0.0 82.9 2.24800955779573
vertex 0.902079704951176 76.3473260410427 3.80638146852081
vertex 1.20614154162182 77.9179428546978 4.33165814062668
endloop
endfacet
facet normal -0.865458940323232 1.09790915344842e-016 0.500979862484101
outer loop
vertex 0.0 82.9 2.24800955779573
vertex 1.20614154162182 77.9179428546978 4.33165814062668
vertex 1.97753085722151 78.5993693309783 5.66425817038688
endloop
endfacet
facet normal -0.865458940323232 1.09790915344842e-016 0.500979862484101
outer loop
vertex 0.0 82.9 2.24800955779573
vertex 1.97753085722151 78.5993693309783 5.66425817038688
vertex 5.06618022405558 82.9 11.0
endloop
endfacet
facet normal 0.86570940694234 -0.000314734252145598 -0.500546824656688
outer loop
vertex 7.89366164595727 72.9358983848623 -1.83297821365613e-014
vertex 8.12890340349714 74.8075649181609 0.410418321711917
vertex 8.91575079881729 74.2006306690217 1.7697226849117
endloop
endfacet
facet normal 0.86570940694234 -0.000314734252145598 -0.500546824656688
outer loop
vertex 8.12890340349714 74.8075649181609 0.410418321711917
vertex 7.89366164595727 72.9358983848623 -1.83297821365613e-014
vertex 7.89278786468937 75.8764791318447 0.00050579732790168
endloop
endfacet
facet normal 0.86570940694234 -0.000314734252145598 -0.500546824656688
outer loop
vertex 9.98884487534252 71.06263587445 3.62896380446143
vertex 9.68714011441698 74.8820571453022 3.1023227146719
vertex 9.99120195108762 76.4526739589573 3.62759938677778
endloop
endfacet
facet normal 0.86570940694234 -0.000314734252145598 -0.500546824656688
outer loop
vertex 9.68714011441698 74.8820571453022 3.1023227146719
vertex 9.98884487534252 71.06263587445 3.62896380446143
vertex 7.89366164595727 72.9358983848623 -1.83297821365613e-014
endloop
endfacet
facet normal 0.86570940694234 -0.000314734252145598 -0.500546824656688
outer loop
vertex 9.68714011441698 74.8820571453022 3.1023227146719
vertex 7.89366164595727 72.9358983848623 -1.83297821365613e-014
vertex 8.91575079881729 74.2006306690217 1.7697226849117
endloop
endfacet
facet normal 2.9718150431894e-015 1.40257239547648e-032 1.0
outer loop
vertex 5.06618022405558 0.0 11.0
vertex 10.7936616459573 21.5 11.0
vertex 5.06618022405558 16.3791704342349 11.0
endloop
endfacet
facet normal 2.9718150431894e-015 1.40257239547648e-032 1.0
outer loop
vertex 10.7936616459573 21.5 11.0
vertex 5.06618022405558 0.0 11.0
vertex 7.89366164595731 9.96410161513776 11.0
endloop
endfacet
facet normal 2.9718150431894e-015 1.40257239547648e-032 1.0
outer loop
vertex 7.89366164595731 9.96410161513776 11.0
vertex 5.06618022405558 0.0 11.0
vertex 7.89366164595731 0.0 11.0
endloop
endfacet
facet normal 2.9718150431894e-015 1.40257239547648e-032 1.0
outer loop
vertex 10.7936616459573 21.5 11.0
vertex 7.89366164595731 9.96410161513776 11.0
vertex 20.7961890266695 21.5 10.9999999999999
endloop
endfacet
facet normal 2.9718150431894e-015 1.40257239547648e-032 1.0
outer loop
vertex 10.7936616459573 21.5 11.0
vertex 20.7961890266695 21.5 10.9999999999999
vertex 14.2381365615171 27.9083759191174 10.999436028202
endloop
endfacet
facet normal 2.9718150431894e-015 1.40257239547648e-032 1.0
outer loop
vertex 10.7936616459573 21.5 11.0
vertex 14.2381365615171 27.9083759191174 10.999436028202
vertex 13.5937714801275 29.4640108377278 10.999436028202
endloop
endfacet
facet normal 2.9718150431894e-015 1.40257239547648e-032 1.0
outer loop
vertex 10.7936616459573 21.5 11.0
vertex 13.5937714801275 29.4640108377278 10.999436028202
vertex 10.7936616459573 61.4 11.0
endloop
endfacet
facet normal 2.9718150431894e-015 1.40257239547648e-032 1.0
outer loop
vertex 14.2381365615171 27.9083759191174 10.999436028202
vertex 20.7961890266695 21.5 10.9999999999999
vertex 15.7937714801275 27.2640108377278 10.999436028202
endloop
endfacet
facet normal 2.9718150431894e-015 1.40257239547648e-032 1.0
outer loop
vertex 15.7937714801275 27.2640108377278 10.999436028202
vertex 20.7961890266695 21.5 10.9999999999999
vertex 17.3494063987379 27.9083759191174 10.999436028202
endloop
endfacet
facet normal 2.9718150431894e-015 1.40257239547648e-032 1.0
outer loop
vertex 17.3494063987379 27.9083759191174 10.999436028202
vertex 20.7961890266695 21.5 10.9999999999999
vertex 17.9937714801275 29.4640108377278 10.999436028202
endloop
endfacet
facet normal 2.9718150431894e-015 1.40257239547648e-032 1.0
outer loop
vertex 17.9937714801275 29.4640108377278 10.999436028202
vertex 20.7961890266695 21.5 10.9999999999999
vertex 17.9937714801275 53.4359891622722 10.999436028202
endloop
endfacet
facet normal 2.9718150431894e-015 1.40257239547648e-032 1.0
outer loop
vertex 10.7936616459573 61.4 11.0
vertex 5.06618022405558 82.9 11.0
vertex 5.06618022405558 66.5208295657651 11.0
endloop
endfacet
facet normal 2.9718150431894e-015 1.40257239547648e-032 1.0
outer loop
vertex 5.06618022405558 82.9 11.0
vertex 10.7936616459573 61.4 11.0
vertex 7.89366164595731 72.9358983848623 11.0
endloop
endfacet
facet normal 2.9718150431894e-015 1.40257239547648e-032 1.0
outer loop
vertex 7.89366164595731 72.9358983848623 11.0
vertex 10.7936616459573 61.4 11.0
vertex 20.7961890266695 61.4 10.9999999999999
endloop
endfacet
facet normal 2.9718150431894e-015 1.40257239547648e-032 1.0
outer loop
vertex 20.7961890266695 61.4 10.9999999999999
vertex 10.7936616459573 61.4 11.0
vertex 14.2381365615171 54.9916240808826 10.999436028202
endloop
endfacet
facet normal 2.9718150431894e-015 1.40257239547648e-032 1.0
outer loop
vertex 14.2381365615171 54.9916240808826 10.999436028202
vertex 10.7936616459573 61.4 11.0
vertex 13.5937714801275 53.4359891622722 10.999436028202
endloop
endfacet
facet normal 2.9718150431894e-015 1.40257239547648e-032 1.0
outer loop
vertex 13.5937714801275 53.4359891622722 10.999436028202
vertex 10.7936616459573 61.4 11.0
vertex 13.5937714801275 29.4640108377278 10.999436028202
endloop
endfacet
facet normal 2.9718150431894e-015 1.40257239547648e-032 1.0
outer loop
vertex 20.7961890266695 61.4 10.9999999999999
vertex 14.2381365615171 54.9916240808826 10.999436028202
vertex 15.7937714801275 55.6359891622722 10.999436028202
endloop
endfacet
facet normal 2.9718150431894e-015 1.40257239547648e-032 1.0
outer loop
vertex 20.7961890266695 61.4 10.9999999999999
vertex 15.7937714801275 55.6359891622722 10.999436028202
vertex 17.3494063987379 54.9916240808826 10.999436028202
endloop
endfacet
facet normal 2.9718150431894e-015 1.40257239547648e-032 1.0
outer loop
vertex 20.7961890266695 61.4 10.9999999999999
vertex 17.3494063987379 54.9916240808826 10.999436028202
vertex 17.9937714801275 53.4359891622722 10.999436028202
endloop
endfacet
facet normal 2.9718150431894e-015 1.40257239547648e-032 1.0
outer loop
vertex 20.7961890266695 61.4 10.9999999999999
vertex 17.9937714801275 53.4359891622722 10.999436028202
vertex 20.7961890266695 21.5 10.9999999999999
endloop
endfacet
facet normal 2.9718150431894e-015 1.40257239547648e-032 1.0
outer loop
vertex 14.2381365615171 31.0196457563382 10.999436028202
vertex 13.5937714801275 53.4359891622722 10.999436028202
vertex 13.5937714801275 29.4640108377278 10.999436028202
endloop
endfacet
facet normal 2.9718150431894e-015 1.40257239547648e-032 1.0
outer loop
vertex 13.5937714801275 53.4359891622722 10.999436028202
vertex 14.2381365615171 31.0196457563382 10.999436028202
vertex 14.2381365615171 51.8803542436618 10.999436028202
endloop
endfacet
facet normal 2.9718150431894e-015 1.40257239547648e-032 1.0
outer loop
vertex 14.2381365615171 51.8803542436618 10.999436028202
vertex 14.2381365615171 31.0196457563382 10.999436028202
vertex 15.7937714801275 31.6640108377278 10.999436028202
endloop
endfacet
facet normal 2.9718150431894e-015 1.40257239547648e-032 1.0
outer loop
vertex 14.2381365615171 51.8803542436618 10.999436028202
vertex 15.7937714801275 31.6640108377278 10.999436028202
vertex 15.7937714801275 51.2359891622722 10.999436028202
endloop
endfacet
facet normal 2.9718150431894e-015 1.40257239547648e-032 1.0
outer loop
vertex 15.7937714801275 51.2359891622722 10.999436028202
vertex 15.7937714801275 31.6640108377278 10.999436028202
vertex 17.3494063987379 31.0196457563382 10.999436028202
endloop
endfacet
facet normal 2.9718150431894e-015 1.40257239547648e-032 1.0
outer loop
vertex 15.7937714801275 51.2359891622722 10.999436028202
vertex 17.3494063987379 31.0196457563382 10.999436028202
vertex 17.3494063987379 51.8803542436618 10.999436028202
endloop
endfacet
facet normal 2.9718150431894e-015 1.40257239547648e-032 1.0
outer loop
vertex 17.3494063987379 51.8803542436618 10.999436028202
vertex 17.3494063987379 31.0196457563382 10.999436028202
vertex 17.9937714801275 29.4640108377278 10.999436028202
endloop
endfacet
facet normal 2.9718150431894e-015 1.40257239547648e-032 1.0
outer loop
vertex 17.3494063987379 51.8803542436618 10.999436028202
vertex 17.9937714801275 29.4640108377278 10.999436028202
vertex 17.9937714801275 53.4359891622722 10.999436028202
endloop
endfacet
facet normal 2.9718150431894e-015 1.40257239547648e-032 1.0
outer loop
vertex 7.89366164595731 82.9 11.0
vertex 5.06618022405558 82.9 11.0
vertex 7.89366164595731 72.9358983848623 11.0
endloop
endfacet
facet normal 0.961873294015836 -6.92002751413354e-006 0.273495459215027
outer loop
vertex 9.99120195108762 76.4526739589573 3.62759938677778
vertex 7.89366164595731 72.9358983848623 11.0
vertex 9.98884487534252 71.06263587445 3.62896380446143
endloop
endfacet
facet normal 0.961873294015836 -6.92002751413354e-006 0.273495459215027
outer loop
vertex 7.89366164595731 72.9358983848623 11.0
vertex 9.99120195108762 76.4526739589573 3.62759938677778
vertex 7.89366164595731 82.9 11.0
endloop
endfacet
facet normal 0.961873294015836 -6.92002751413354e-006 0.273495459215027
outer loop
vertex 7.89366164595731 82.9 11.0
vertex 9.99120195108762 76.4526739589573 3.62759938677778
vertex 9.98884487534252 80.7797455393063 3.62896380446143
endloop
endfacet
facet normal -2.44939480910634e-006 -9.12113943752561e-023 -0.999999999997
outer loop
vertex 7.89366164595728 82.9 -1.55098156540134e-014
vertex 0.0 71.0504026129395 -1.40998324127395e-015
vertex 0.0 82.9 0.0
endloop
endfacet
facet normal -2.44939480910634e-006 -9.12113943752561e-023 -0.999999999997
outer loop
vertex 0.0 71.0504026129395 -1.40998324127395e-015
vertex 7.89366164595728 82.9 -1.55098156540134e-014
vertex 7.4774677089727 76.3473260410427 0.000150087048197783
endloop
endfacet
facet normal -2.44939480910634e-006 -9.12113943752561e-023 -0.999999999997
outer loop
vertex 7.4774677089727 76.3473260410427 0.000150087048197783
vertex 7.89366164595728 82.9 -1.55098156540134e-014
vertex 7.89278786468937 76.8865559522713 0.000505797327902076
endloop
endfacet
facet normal -2.44939480910634e-006 -9.12113943752561e-023 -0.999999999997
outer loop
vertex 0.0 71.0504026129395 -1.40998324127395e-015
vertex 7.89366164595727 72.9358983848623 -1.83297821365613e-014
vertex 10.7936616459573 61.4 -1.48358051104552e-014
endloop
endfacet
facet normal -2.44939480910634e-006 -9.12113943752561e-023 -0.999999999997
outer loop
vertex 7.89366164595727 72.9358983848623 -1.83297821365613e-014
vertex 0.0 71.0504026129395 -1.40998324127395e-015
vertex 7.4774677089727 76.3473260410427 0.000150087048197783
endloop
endfacet
facet normal -2.44939480910634e-006 -9.12113943752561e-023 -0.999999999997
outer loop
vertex 7.89366164595727 72.9358983848623 -1.83297821365613e-014
vertex 7.4774677089727 76.3473260410427 0.000150087048197783
vertex 7.89278786468937 75.8764791318447 0.00050579732790168
endloop
endfacet
facet normal -2.44939480910634e-006 -9.12113943752561e-023 -0.999999999997
outer loop
vertex 10.7936616459573 61.4 -1.48358051104552e-014
vertex 7.89366164595727 72.9358983848623 -1.83297821365613e-014
vertex 20.7961890266695 61.4 -3.399243777083e-014
endloop
endfacet
facet normal -2.44939480910634e-006 -9.12113943752561e-023 -0.999999999997
outer loop
vertex 10.7936616459573 61.4 -1.48358051104552e-014
vertex 20.7961890266695 61.4 -3.399243777083e-014
vertex 14.2381365615171 54.9916240808826 -0.000563971797957896
endloop
endfacet
facet normal -2.44939480910634e-006 -9.12113943752561e-023 -0.999999999997
outer loop
vertex 10.7936616459573 61.4 -1.48358051104552e-014
vertex 14.2381365615171 54.9916240808826 -0.000563971797957896
vertex 13.5937714801275 53.4359891622722 -0.000563971797957896
endloop
endfacet
facet normal -2.44939480910634e-006 -9.12113943752561e-023 -0.999999999997
outer loop
vertex 10.7936616459573 61.4 -1.48358051104552e-014
vertex 13.5937714801275 53.4359891622722 -0.000563971797957896
vertex 10.7936616459573 21.5 -1.48358051104552e-014
endloop
endfacet
facet normal -2.44939480910634e-006 -9.12113943752561e-023 -0.999999999997
outer loop
vertex 14.2381365615171 54.9916240808826 -0.000563971797957896
vertex 20.7961890266695 61.4 -3.399243777083e-014
vertex 15.7937714801275 55.6359891622722 -0.000563971797957896
endloop
endfacet
facet normal -2.44939480910634e-006 -9.12113943752561e-023 -0.999999999997
outer loop
vertex 15.7937714801275 55.6359891622722 -0.000563971797957896
vertex 20.7961890266695 61.4 -3.399243777083e-014
vertex 17.3494063987379 54.9916240808826 -0.000563971797957896
endloop
endfacet
facet normal -2.44939480910634e-006 -9.12113943752561e-023 -0.999999999997
outer loop
vertex 17.3494063987379 54.9916240808826 -0.000563971797957896
vertex 20.7961890266695 61.4 -3.399243777083e-014
vertex 17.9937714801275 53.4359891622722 -0.000563971797957896
endloop
endfacet
facet normal -2.44939480910634e-006 -9.12113943752561e-023 -0.999999999997
outer loop
vertex 17.9937714801275 53.4359891622722 -0.000563971797957896
vertex 20.7961890266695 61.4 -3.399243777083e-014
vertex 17.9937714801275 29.4640108377278 -0.000563971797957896
endloop
endfacet
facet normal -2.44939480910634e-006 -9.12113943752561e-023 -0.999999999997
outer loop
vertex 17.9937714801275 29.4640108377278 -0.000563971797957896
vertex 20.7961890266695 61.4 -3.399243777083e-014
vertex 20.7961890266695 21.5 -3.399243777083e-014
endloop
endfacet
facet normal -2.44939480910634e-006 -9.12113943752561e-023 -0.999999999997
outer loop
vertex 10.7936616459573 21.5 -1.48358051104552e-014
vertex 0.0 0.0 0.0
vertex 0.0 11.8495973870605 -1.40998324127395e-015
endloop
endfacet
facet normal -2.44939480910634e-006 -9.12113943752561e-023 -0.999999999997
outer loop
vertex 0.0 0.0 0.0
vertex 10.7936616459573 21.5 -1.48358051104552e-014
vertex 7.89366164595727 9.96410161513776 -1.83297821365613e-014
endloop
endfacet
facet normal -2.44939480910634e-006 -9.12113943752561e-023 -0.999999999997
outer loop
vertex 0.0 0.0 0.0
vertex 7.89366164595727 9.96410161513776 -1.83297821365613e-014
vertex 7.4774677089727 6.55267395895727 0.000150087048197783
endloop
endfacet
facet normal -2.44939480910634e-006 -9.12113943752561e-023 -0.999999999997
outer loop
vertex 7.4774677089727 6.55267395895727 0.000150087048197783
vertex 7.89366164595727 9.96410161513776 -1.83297821365613e-014
vertex 7.89278786468937 7.02352086815532 0.00050579732790168
endloop
endfacet
facet normal -2.44939480910634e-006 -9.12113943752561e-023 -0.999999999997
outer loop
vertex 7.89366164595727 9.96410161513776 -1.83297821365613e-014
vertex 10.7936616459573 21.5 -1.48358051104552e-014
vertex 20.7961890266695 21.5 -3.399243777083e-014
endloop
endfacet
facet normal -2.44939480910634e-006 -9.12113943752561e-023 -0.999999999997
outer loop
vertex 20.7961890266695 21.5 -3.399243777083e-014
vertex 10.7936616459573 21.5 -1.48358051104552e-014
vertex 14.2381365615171 27.9083759191174 -0.000563971797957896
endloop
endfacet
facet normal -2.44939480910634e-006 -9.12113943752561e-023 -0.999999999997
outer loop
vertex 14.2381365615171 27.9083759191174 -0.000563971797957896
vertex 10.7936616459573 21.5 -1.48358051104552e-014
vertex 13.5937714801275 29.4640108377278 -0.000563971797957896
endloop
endfacet
facet normal -2.44939480910634e-006 -9.12113943752561e-023 -0.999999999997
outer loop
vertex 13.5937714801275 29.4640108377278 -0.000563971797957896
vertex 10.7936616459573 21.5 -1.48358051104552e-014
vertex 13.5937714801275 53.4359891622722 -0.000563971797957896
endloop
endfacet
facet normal -2.44939480910634e-006 -9.12113943752561e-023 -0.999999999997
outer loop
vertex 20.7961890266695 21.5 -3.399243777083e-014
vertex 14.2381365615171 27.9083759191174 -0.000563971797957896
vertex 15.7937714801275 27.2640108377278 -0.000563971797957896
endloop
endfacet
facet normal -2.44939480910634e-006 -9.12113943752561e-023 -0.999999999997
outer loop
vertex 20.7961890266695 21.5 -3.399243777083e-014
vertex 15.7937714801275 27.2640108377278 -0.000563971797957896
vertex 17.3494063987379 27.9083759191174 -0.000563971797957896
endloop
endfacet
facet normal -2.44939480910634e-006 -9.12113943752561e-023 -0.999999999997
outer loop
vertex 20.7961890266695 21.5 -3.399243777083e-014
vertex 17.3494063987379 27.9083759191174 -0.000563971797957896
vertex 17.9937714801275 29.4640108377278 -0.000563971797957896
endloop
endfacet
facet normal -2.44939480910634e-006 -9.12113943752561e-023 -0.999999999997
outer loop
vertex 14.2381365615171 51.8803542436618 -0.000563971797957896
vertex 13.5937714801275 29.4640108377278 -0.000563971797957896
vertex 13.5937714801275 53.4359891622722 -0.000563971797957896
endloop
endfacet
facet normal -2.44939480910634e-006 -9.12113943752561e-023 -0.999999999997
outer loop
vertex 13.5937714801275 29.4640108377278 -0.000563971797957896
vertex 14.2381365615171 51.8803542436618 -0.000563971797957896
vertex 14.2381365615171 31.0196457563382 -0.000563971797957896
endloop
endfacet
facet normal -2.44939480910634e-006 -9.12113943752561e-023 -0.999999999997
outer loop
vertex 14.2381365615171 31.0196457563382 -0.000563971797957896
vertex 14.2381365615171 51.8803542436618 -0.000563971797957896
vertex 15.7937714801275 51.2359891622722 -0.000563971797957896
endloop
endfacet
facet normal -2.44939480910634e-006 -9.12113943752561e-023 -0.999999999997
outer loop
vertex 14.2381365615171 31.0196457563382 -0.000563971797957896
vertex 15.7937714801275 51.2359891622722 -0.000563971797957896
vertex 15.7937714801275 31.6640108377278 -0.000563971797957896
endloop
endfacet
facet normal -2.44939480910634e-006 -9.12113943752561e-023 -0.999999999997
outer loop
vertex 15.7937714801275 31.6640108377278 -0.000563971797957896
vertex 15.7937714801275 51.2359891622722 -0.000563971797957896
vertex 17.3494063987379 51.8803542436618 -0.000563971797957896
endloop
endfacet
facet normal -2.44939480910634e-006 -9.12113943752561e-023 -0.999999999997
outer loop
vertex 15.7937714801275 31.6640108377278 -0.000563971797957896
vertex 17.3494063987379 51.8803542436618 -0.000563971797957896
vertex 17.3494063987379 31.0196457563382 -0.000563971797957896
endloop
endfacet
facet normal -2.44939480910634e-006 -9.12113943752561e-023 -0.999999999997
outer loop
vertex 17.3494063987379 31.0196457563382 -0.000563971797957896
vertex 17.3494063987379 51.8803542436618 -0.000563971797957896
vertex 17.9937714801275 29.4640108377278 -0.000563971797957896
endloop
endfacet
facet normal -2.44939480910634e-006 -9.12113943752561e-023 -0.999999999997
outer loop
vertex 17.9937714801275 29.4640108377278 -0.000563971797957896
vertex 17.3494063987379 51.8803542436618 -0.000563971797957896
vertex 17.9937714801275 53.4359891622722 -0.000563971797957896
endloop
endfacet
facet normal -2.44939480910634e-006 -9.12113943752561e-023 -0.999999999997
outer loop
vertex 7.4774677089727 6.55267395895727 0.000150087048197783
vertex 7.89366164595728 0.0 -1.55098156540134e-014
vertex 0.0 0.0 0.0
endloop
endfacet
facet normal -2.44939480910634e-006 -9.12113943752561e-023 -0.999999999997
outer loop
vertex 7.89366164595728 0.0 -1.55098156540134e-014
vertex 7.4774677089727 6.55267395895727 0.000150087048197783
vertex 7.89278786468937 6.01344404772879 0.000505797327902076
endloop
endfacet
facet normal 1.0 -7.06758516929297e-017 -1.02544235729015e-015
outer loop
vertex 20.7961890266695 61.4 -3.399243777083e-014
vertex 20.7961890266695 21.5 10.9999999999999
vertex 20.7961890266695 21.5 -3.399243777083e-014
endloop
endfacet
facet normal 1.0 -7.06758516929297e-017 -1.02544235729015e-015
outer loop
vertex 20.7961890266695 21.5 10.9999999999999
vertex 20.7961890266695 61.4 -3.399243777083e-014
vertex 20.7961890266695 61.4 10.9999999999999
endloop
endfacet
facet normal -1.0 1.76689629232325e-017 2.0081579496932e-015
outer loop
vertex 10.7936616459573 21.5 11.0
vertex 10.7936616459573 61.4 -1.48358051104552e-014
vertex 10.7936616459573 21.5 -1.48358051104552e-014
endloop
endfacet
facet normal -1.0 1.76689629232325e-017 2.0081579496932e-015
outer loop
vertex 10.7936616459573 61.4 -1.48358051104552e-014
vertex 10.7936616459573 21.5 11.0
vertex 10.7936616459573 61.4 11.0
endloop
endfacet
facet normal 0.865733868505606 5.64300310276721e-005 -0.500504611105603
outer loop
vertex 7.89366164595728 82.9 -1.55098156540134e-014
vertex 8.09158429778779 77.9179428546978 0.345948357747935
vertex 7.89278786468937 76.8865559522713 0.000505797327902076
endloop
endfacet
facet normal 0.865733868505606 5.64300310276721e-005 -0.500504611105603
outer loop
vertex 8.09158429778779 77.9179428546978 0.345948357747935
vertex 7.89366164595728 82.9 -1.55098156540134e-014
vertex 8.86297361338748 78.5993693309783 1.67854838750814
endloop
endfacet
facet normal 0.865733868505606 5.64300310276721e-005 -0.500504611105603
outer loop
vertex 8.86297361338748 78.5993693309783 1.67854838750814
vertex 7.89366164595728 82.9 -1.55098156540134e-014
vertex 9.98884487534252 80.7797455393063 3.62896380446143
endloop
endfacet
facet normal 0.865733868505606 5.64300310276721e-005 -0.500504611105603
outer loop
vertex 9.64982100870762 77.9924350818391 3.03785275070792
vertex 9.98884487534252 80.7797455393063 3.62896380446143
vertex 9.99120195108762 76.4526739589573 3.62759938677778
endloop
endfacet
facet normal 0.865733868505606 5.64300310276721e-005 -0.500504611105603
outer loop
vertex 9.98884487534252 80.7797455393063 3.62896380446143
vertex 9.64982100870762 77.9924350818391 3.03785275070792
vertex 8.86297361338748 78.5993693309783 1.67854838750814
endloop
endfacet
facet normal -0.467302575333974 0.360453550927417 -0.807280335887139
outer loop
vertex 3.10575919492165 76.4526739589573 7.61330916965653
vertex 9.68714011441698 74.8820571453022 3.1023227146719
vertex 2.80169735825101 74.8820571453022 7.08803249755065
endloop
endfacet
facet normal -0.467302575333974 0.360453550927417 -0.807280335887139
outer loop
vertex 9.68714011441698 74.8820571453022 3.1023227146719
vertex 3.10575919492165 76.4526739589573 7.61330916965653
vertex 9.99120195108762 76.4526739589573 3.62759938677778
endloop
endfacet
facet normal -0.180579970375526 -0.932777163969944 -0.311957748221392
outer loop
vertex 9.64982100870762 77.9924350818391 3.03785275070792
vertex 1.97753085722151 78.5993693309783 5.66425817038688
vertex 8.86297361338748 78.5993693309783 1.67854838750814
endloop
endfacet
facet normal -0.180579970375526 -0.932777163969944 -0.311957748221392
outer loop
vertex 1.97753085722151 78.5993693309783 5.66425817038688
vertex 9.64982100870762 77.9924350818391 3.03785275070792
vertex 2.76437825254166 77.9924350818391 7.02356253358667
endloop
endfacet
facet normal 0.202743498285594 -0.914452208142651 0.350245960613323
outer loop
vertex 8.86297361338748 78.5993693309783 1.67854838750814
vertex 1.20614154162182 77.9179428546978 4.33165814062668
vertex 8.09158429778779 77.9179428546978 0.345948357747935
endloop
endfacet
facet normal 0.202743498285594 -0.914452208142651 0.350245960613323
outer loop
vertex 1.20614154162182 77.9179428546978 4.33165814062668
vertex 8.86297361338748 78.5993693309783 1.67854838750814
vertex 1.97753085722151 78.5993693309783 5.66425817038688
endloop
endfacet
facet normal 0.458122141483589 0.404693907815559 0.791420839035379
outer loop
vertex 1.24346064733117 74.8075649181609 4.39612810459067
vertex 7.4774677089727 76.3473260410427 0.000150087048197783
vertex 0.902079704951176 76.3473260410427 3.80638146852081
endloop
endfacet
facet normal 0.458122141483589 0.404693907815559 0.791420839035379
outer loop
vertex 7.4774677089727 76.3473260410427 0.000150087048197783
vertex 1.24346064733117 74.8075649181609 4.39612810459067
vertex 8.12890340349714 74.8075649181609 0.410418321711917
endloop
endfacet
facet normal 0.458122141483589 0.404693907815559 0.791420839035379
outer loop
vertex 7.4774677089727 76.3473260410427 0.000150087048197783
vertex 8.12890340349714 74.8075649181609 0.410418321711917
vertex 7.89278786468937 75.8764791318447 0.00050579732790168
endloop
endfacet
facet normal 0.180579970375526 0.932777163969944 0.311957748221393
outer loop
vertex 1.24346064733117 74.8075649181609 4.39612810459067
vertex 8.91575079881729 74.2006306690217 1.7697226849117
vertex 8.12890340349714 74.8075649181609 0.410418321711917
endloop
endfacet
facet normal 0.180579970375526 0.932777163969944 0.311957748221393
outer loop
vertex 8.91575079881729 74.2006306690217 1.7697226849117
vertex 1.24346064733117 74.8075649181609 4.39612810459067
vertex 2.03030804265132 74.2006306690217 5.75543246779045
endloop
endfacet
facet normal 0.467302575333974 -0.360453550927417 0.807280335887139
outer loop
vertex 7.4774677089727 76.3473260410427 0.000150087048197783
vertex 1.20614154162182 77.9179428546978 4.33165814062668
vertex 0.902079704951176 76.3473260410427 3.80638146852081
endloop
endfacet
facet normal 0.467302575333974 -0.360453550927417 0.807280335887139
outer loop
vertex 1.20614154162182 77.9179428546978 4.33165814062668
vertex 7.4774677089727 76.3473260410427 0.000150087048197783
vertex 8.09158429778779 77.9179428546978 0.345948357747935
endloop
endfacet
facet normal 0.467302575333974 -0.360453550927417 0.807280335887139
outer loop
vertex 8.09158429778779 77.9179428546978 0.345948357747935
vertex 7.4774677089727 76.3473260410427 0.000150087048197783
vertex 7.89278786468937 76.8865559522713 0.000505797327902076
endloop
endfacet
facet normal -0.458122141483588 -0.404693907815559 -0.791420839035379
outer loop
vertex 9.64982100870762 77.9924350818391 3.03785275070792
vertex 3.10575919492165 76.4526739589573 7.61330916965653
vertex 2.76437825254166 77.9924350818391 7.02356253358667
endloop
endfacet
facet normal -0.458122141483588 -0.404693907815559 -0.791420839035379
outer loop
vertex 3.10575919492165 76.4526739589573 7.61330916965653
vertex 9.64982100870762 77.9924350818391 3.03785275070792
vertex 9.99120195108762 76.4526739589573 3.62759938677778
endloop
endfacet
facet normal -0.202743498285593 0.914452208142651 -0.350245960613323
outer loop
vertex 2.03030804265132 74.2006306690217 5.75543246779045
vertex 9.68714011441698 74.8820571453022 3.1023227146719
vertex 8.91575079881729 74.2006306690217 1.7697226849117
endloop
endfacet
facet normal -0.202743498285593 0.914452208142651 -0.350245960613323
outer loop
vertex 9.68714011441698 74.8820571453022 3.1023227146719
vertex 2.03030804265132 74.2006306690217 5.75543246779045
vertex 2.80169735825101 74.8820571453022 7.08803249755065
endloop
endfacet
facet normal -0.382683432365095 -0.923879532511285 6.86375262135134e-016
outer loop
vertex 17.3494063987379 54.9916240808826 10.999436028202
vertex 15.7937714801275 55.6359891622722 -0.000563971797957896
vertex 17.3494063987379 54.9916240808826 -0.000563971797957896
endloop
endfacet
facet normal -0.382683432365095 -0.923879532511285 6.86375262135134e-016
outer loop
vertex 15.7937714801275 55.6359891622722 -0.000563971797957896
vertex 17.3494063987379 54.9916240808826 10.999436028202
vertex 15.7937714801275 55.6359891622722 10.999436028202
endloop
endfacet
facet normal 0.382683432365095 -0.923879532511285 -6.88511588859568e-016
outer loop
vertex 15.7937714801275 55.6359891622722 10.999436028202
vertex 14.2381365615171 54.9916240808826 -0.000563971797957896
vertex 15.7937714801275 55.6359891622722 -0.000563971797957896
endloop
endfacet
facet normal 0.382683432365095 -0.923879532511285 -6.88511588859568e-016
outer loop
vertex 14.2381365615171 54.9916240808826 -0.000563971797957896
vertex 15.7937714801275 55.6359891622722 10.999436028202
vertex 14.2381365615171 54.9916240808826 10.999436028202
endloop
endfacet
facet normal 0.923879532511285 -0.382683432365094 -1.657056466724e-015
outer loop
vertex 14.2381365615171 54.9916240808826 -0.000563971797957896
vertex 13.5937714801275 53.4359891622722 10.999436028202
vertex 13.5937714801275 53.4359891622722 -0.000563971797957896
endloop
endfacet
facet normal 0.923879532511285 -0.382683432365094 -1.657056466724e-015
outer loop
vertex 13.5937714801275 53.4359891622722 10.999436028202
vertex 14.2381365615171 54.9916240808826 -0.000563971797957896
vertex 14.2381365615171 54.9916240808826 10.999436028202
endloop
endfacet
facet normal 0.923879532511288 0.382683432365088 -1.89418873313624e-015
outer loop
vertex 13.5937714801275 53.4359891622722 -0.000563971797957896
vertex 14.2381365615171 51.8803542436618 10.999436028202
vertex 14.2381365615171 51.8803542436618 -0.000563971797957896
endloop
endfacet
facet normal 0.923879532511288 0.382683432365088 -1.89418873313624e-015
outer loop
vertex 14.2381365615171 51.8803542436618 10.999436028202
vertex 13.5937714801275 53.4359891622722 -0.000563971797957896
vertex 13.5937714801275 53.4359891622722 10.999436028202
endloop
endfacet
facet normal 0.382683432365094 0.923879532511285 -7.85850094180864e-016
outer loop
vertex 14.2381365615171 51.8803542436618 10.999436028202
vertex 15.7937714801275 51.2359891622722 -0.000563971797957896
vertex 14.2381365615171 51.8803542436618 -0.000563971797957896
endloop
endfacet
facet normal 0.382683432365094 0.923879532511285 -7.85850094180864e-016
outer loop
vertex 15.7937714801275 51.2359891622722 -0.000563971797957896
vertex 14.2381365615171 51.8803542436618 10.999436028202
vertex 15.7937714801275 51.2359891622722 10.999436028202
endloop
endfacet
facet normal -0.382683432365095 0.923879532511285 6.84605471129292e-016
outer loop
vertex 15.7937714801275 51.2359891622722 10.999436028202
vertex 17.3494063987379 51.8803542436618 -0.000563971797957896
vertex 15.7937714801275 51.2359891622722 -0.000563971797957896
endloop
endfacet
facet normal -0.382683432365095 0.923879532511285 6.84605471129292e-016
outer loop
vertex 17.3494063987379 51.8803542436618 -0.000563971797957896
vertex 15.7937714801275 51.2359891622722 10.999436028202
vertex 17.3494063987379 51.8803542436618 10.999436028202
endloop
endfacet
facet normal -0.923879532511287 0.382683432365089 1.65705646672401e-015
outer loop
vertex 17.9937714801275 53.4359891622722 10.999436028202
vertex 17.3494063987379 51.8803542436618 -0.000563971797957896
vertex 17.3494063987379 51.8803542436618 10.999436028202
endloop
endfacet
facet normal -0.923879532511287 0.382683432365089 1.65705646672401e-015
outer loop
vertex 17.3494063987379 51.8803542436618 -0.000563971797957896
vertex 17.9937714801275 53.4359891622722 10.999436028202
vertex 17.9937714801275 53.4359891622722 -0.000563971797957896
endloop
endfacet
facet normal -0.923879532511285 -0.382683432365094 1.657056466724e-015
outer loop
vertex 17.3494063987379 54.9916240808826 10.999436028202
vertex 17.9937714801275 53.4359891622722 -0.000563971797957896
vertex 17.9937714801275 53.4359891622722 10.999436028202
endloop
endfacet
facet normal -0.923879532511285 -0.382683432365094 1.657056466724e-015
outer loop
vertex 17.9937714801275 53.4359891622722 -0.000563971797957896
vertex 17.3494063987379 54.9916240808826 10.999436028202
vertex 17.3494063987379 54.9916240808826 -0.000563971797957896
endloop
endfacet
endsolid Arm 210
