solid OpenSCAD_Model
  facet normal 1 0 0
    outer loop
      vertex 48 4 6
      vertex 48 3.99875 5.99625
      vertex 48 4 0
    endloop
  endfacet
  facet normal 1 -0 0
    outer loop
      vertex 48 1 6
      vertex 48 3.99875 5.99625
      vertex 48 4 6
    endloop
  endfacet
  facet normal 1 0 0
    outer loop
      vertex 48 3.99875 5.99625
      vertex 48 1 6
      vertex 48 1 5.99625
    endloop
  endfacet
  facet normal 1 0 0
    outer loop
      vertex 48 4 0
      vertex 48 3.99875 5.99625
      vertex 48 3.99875 0
    endloop
  endfacet
  facet normal 0 0 1
    outer loop
      vertex 10.4712 26.7926 6
      vertex 10.4712 26.2074 6
      vertex 10.5 26.5 6
    endloop
  endfacet
  facet normal 0 0 1
    outer loop
      vertex 10.3858 27.074 6
      vertex 10.4712 26.2074 6
      vertex 10.4712 26.7926 6
    endloop
  endfacet
  facet normal 0 0 1
    outer loop
      vertex 10.3858 27.074 6
      vertex 10.3858 25.926 6
      vertex 10.4712 26.2074 6
    endloop
  endfacet
  facet normal 0 0 1
    outer loop
      vertex 10.2472 27.3334 6
      vertex 10.3858 25.926 6
      vertex 10.3858 27.074 6
    endloop
  endfacet
  facet normal 0 0 1
    outer loop
      vertex 10.2472 27.3334 6
      vertex 10.2472 25.6666 6
      vertex 10.3858 25.926 6
    endloop
  endfacet
  facet normal 0 0 1
    outer loop
      vertex 10.0607 27.5607 6
      vertex 10.2472 25.6666 6
      vertex 10.2472 27.3334 6
    endloop
  endfacet
  facet normal 0 0 1
    outer loop
      vertex 10.0607 27.5607 6
      vertex 10.0607 25.4393 6
      vertex 10.2472 25.6666 6
    endloop
  endfacet
  facet normal 0 0 1
    outer loop
      vertex 9.83335 27.7472 6
      vertex 10.0607 25.4393 6
      vertex 10.0607 27.5607 6
    endloop
  endfacet
  facet normal 0 0 1
    outer loop
      vertex 9.83335 27.7472 6
      vertex 9.83335 25.2528 6
      vertex 10.0607 25.4393 6
    endloop
  endfacet
  facet normal 0 0 1
    outer loop
      vertex 9.57402 27.8858 6
      vertex 9.83335 25.2528 6
      vertex 9.83335 27.7472 6
    endloop
  endfacet
  facet normal 0 0 1
    outer loop
      vertex 9.57402 27.8858 6
      vertex 9.57402 25.1142 6
      vertex 9.83335 25.2528 6
    endloop
  endfacet
  facet normal 0 0 1
    outer loop
      vertex 9.29263 27.9712 6
      vertex 9.57402 25.1142 6
      vertex 9.57402 27.8858 6
    endloop
  endfacet
  facet normal 0 0 1
    outer loop
      vertex 9.29263 27.9712 6
      vertex 9.29263 25.0288 6
      vertex 9.57402 25.1142 6
    endloop
  endfacet
  facet normal 0 0 1
    outer loop
      vertex 9 28 6
      vertex 9.29263 25.0288 6
      vertex 9.29263 27.9712 6
    endloop
  endfacet
  facet normal 0 0 1
    outer loop
      vertex 9 28 6
      vertex 9 25 6
      vertex 9.29263 25.0288 6
    endloop
  endfacet
  facet normal -0 0 1
    outer loop
      vertex 7 28 6
      vertex 9 25 6
      vertex 9 28 6
    endloop
  endfacet
  facet normal 0 0 1
    outer loop
      vertex 7 28 6
      vertex 7 25 6
      vertex 9 25 6
    endloop
  endfacet
  facet normal 0 0 1
    outer loop
      vertex 7 28 6
      vertex 6.21964 24.9231 6
      vertex 7 25 6
    endloop
  endfacet
  facet normal -0 0 1
    outer loop
      vertex 5.63437 27.8655 6
      vertex 6.21964 24.9231 6
      vertex 7 28 6
    endloop
  endfacet
  facet normal 0 0 1
    outer loop
      vertex 5.63437 27.8655 6
      vertex 5.46927 24.6955 6
      vertex 6.21964 24.9231 6
    endloop
  endfacet
  facet normal -0 0 1
    outer loop
      vertex 4.32122 27.4672 6
      vertex 5.46927 24.6955 6
      vertex 5.63437 27.8655 6
    endloop
  endfacet
  facet normal 0 0 1
    outer loop
      vertex 5.46927 24.6955 6
      vertex 4.32122 27.4672 6
      vertex 4.77772 24.3259 6
    endloop
  endfacet
  facet normal -0 0 1
    outer loop
      vertex 3.11101 26.8203 6
      vertex 4.77772 24.3259 6
      vertex 4.32122 27.4672 6
    endloop
  endfacet
  facet normal 0 0 1
    outer loop
      vertex 4.77772 24.3259 6
      vertex 3.11101 26.8203 6
      vertex 4.17157 23.8284 6
    endloop
  endfacet
  facet normal -0 0 1
    outer loop
      vertex 2.05025 25.9497 6
      vertex 4.17157 23.8284 6
      vertex 3.11101 26.8203 6
    endloop
  endfacet
  facet normal 0 0 1
    outer loop
      vertex 4.17157 23.8284 6
      vertex 2.05025 25.9497 6
      vertex 3.67412 23.2223 6
    endloop
  endfacet
  facet normal -0 0 1
    outer loop
      vertex 1.17971 24.889 6
      vertex 3.67412 23.2223 6
      vertex 2.05025 25.9497 6
    endloop
  endfacet
  facet normal 0 0 1
    outer loop
      vertex 3.67412 23.2223 6
      vertex 1.17971 24.889 6
      vertex 3.30448 22.5307 6
    endloop
  endfacet
  facet normal 0 0 1
    outer loop
      vertex 3.30448 22.5307 6
      vertex 0.532843 23.6788 6
      vertex 3.07686 21.7804 6
    endloop
  endfacet
  facet normal -0 0 1
    outer loop
      vertex 0.532843 23.6788 6
      vertex 3.30448 22.5307 6
      vertex 1.17971 24.889 6
    endloop
  endfacet
  facet normal -0 0 1
    outer loop
      vertex 37.7804 4.07686 6
      vertex 38 0.098491 6
      vertex 38.5307 4.30448 6
    endloop
  endfacet
  facet normal -0 0 1
    outer loop
      vertex 37 4 6
      vertex 38 0.098491 6
      vertex 37.7804 4.07686 6
    endloop
  endfacet
  facet normal 0 0 1
    outer loop
      vertex 37 4 6
      vertex 37 0 6
      vertex 38 0.098491 6
    endloop
  endfacet
  facet normal -0 0 1
    outer loop
      vertex 7 4 6
      vertex 37 0 6
      vertex 37 4 6
    endloop
  endfacet
  facet normal 0 0 1
    outer loop
      vertex 7 4 6
      vertex 7 0 6
      vertex 37 0 6
    endloop
  endfacet
  facet normal 0 0 1
    outer loop
      vertex 5.63437 0.134502 6
      vertex 7 4 6
      vertex 6.21964 4.07686 6
    endloop
  endfacet
  facet normal 0 0 1
    outer loop
      vertex 7 4 6
      vertex 5.63437 0.134502 6
      vertex 7 0 6
    endloop
  endfacet
  facet normal 0 0 1
    outer loop
      vertex 4.32122 0.532843 6
      vertex 6.21964 4.07686 6
      vertex 5.46927 4.30448 6
    endloop
  endfacet
  facet normal 0 0 1
    outer loop
      vertex 3.11101 1.17971 6
      vertex 5.46927 4.30448 6
      vertex 4.77772 4.67412 6
    endloop
  endfacet
  facet normal 0 0 1
    outer loop
      vertex 6.21964 4.07686 6
      vertex 4.32122 0.532843 6
      vertex 5.63437 0.134502 6
    endloop
  endfacet
  facet normal 0 0 1
    outer loop
      vertex 2.05025 2.05025 6
      vertex 4.77772 4.67412 6
      vertex 4.17157 5.17157 6
    endloop
  endfacet
  facet normal 0 0 1
    outer loop
      vertex 1.17971 3.11101 6
      vertex 4.17157 5.17157 6
      vertex 3.67412 5.77772 6
    endloop
  endfacet
  facet normal 0 0 1
    outer loop
      vertex 0.532843 4.32122 6
      vertex 3.67412 5.77772 6
      vertex 3.30448 6.46927 6
    endloop
  endfacet
  facet normal 0 0 1
    outer loop
      vertex 5.46927 4.30448 6
      vertex 3.11101 1.17971 6
      vertex 4.32122 0.532843 6
    endloop
  endfacet
  facet normal 0 0 1
    outer loop
      vertex 0.134502 5.63437 6
      vertex 3.30448 6.46927 6
      vertex 3.07686 7.21964 6
    endloop
  endfacet
  facet normal 0 0 1
    outer loop
      vertex 0 7 6
      vertex 3.07686 7.21964 6
      vertex 3 8 6
    endloop
  endfacet
  facet normal 0 0 1
    outer loop
      vertex 3 21 6
      vertex 0 21 6
      vertex 3 8 6
    endloop
  endfacet
  facet normal 0 0 1
    outer loop
      vertex 0 7 6
      vertex 3 8 6
      vertex 0 21 6
    endloop
  endfacet
  facet normal -0 0 1
    outer loop
      vertex 0.134502 22.3656 6
      vertex 3.07686 21.7804 6
      vertex 0.532843 23.6788 6
    endloop
  endfacet
  facet normal 0 0 1
    outer loop
      vertex 3.07686 7.21964 6
      vertex 0 7 6
      vertex 0.134502 5.63437 6
    endloop
  endfacet
  facet normal 0 0 1
    outer loop
      vertex 3.07686 21.7804 6
      vertex 0.134502 22.3656 6
      vertex 3 21 6
    endloop
  endfacet
  facet normal 0 0 1
    outer loop
      vertex 4.77772 4.67412 6
      vertex 2.05025 2.05025 6
      vertex 3.11101 1.17971 6
    endloop
  endfacet
  facet normal 0 0 1
    outer loop
      vertex 3 21 6
      vertex 0.134502 22.3656 6
      vertex 0 21 6
    endloop
  endfacet
  facet normal 0 0 1
    outer loop
      vertex 4.17157 5.17157 6
      vertex 1.17971 3.11101 6
      vertex 2.05025 2.05025 6
    endloop
  endfacet
  facet normal 0 0 1
    outer loop
      vertex 3.67412 5.77772 6
      vertex 0.532843 4.32122 6
      vertex 1.17971 3.11101 6
    endloop
  endfacet
  facet normal 0 0 1
    outer loop
      vertex 3.30448 6.46927 6
      vertex 0.134502 5.63437 6
      vertex 0.532843 4.32122 6
    endloop
  endfacet
  facet normal 0 0 1
    outer loop
      vertex 38.9178 21.6168 6
      vertex 40.9784 7.78067 6
      vertex 43.9017 8.53399 6
    endloop
  endfacet
  facet normal 0 0 1
    outer loop
      vertex 36.1143 20.5488 6
      vertex 38.9178 21.6168 6
      vertex 38.7867 21.88 6
    endloop
  endfacet
  facet normal 0 0 1
    outer loop
      vertex 36.1143 20.5488 6
      vertex 38.7867 21.88 6
      vertex 38.6067 22.1126 6
    endloop
  endfacet
  facet normal 0 0 1
    outer loop
      vertex 36.1143 20.5488 6
      vertex 38.6067 22.1126 6
      vertex 38.3849 22.3056 6
    endloop
  endfacet
  facet normal 0 0 1
    outer loop
      vertex 36.1143 20.5488 6
      vertex 38.3849 22.3056 6
      vertex 38.1297 22.4516 6
    endloop
  endfacet
  facet normal 0 0 1
    outer loop
      vertex 36.1143 20.5488 6
      vertex 38.1297 22.4516 6
      vertex 37.8508 22.545 6
    endloop
  endfacet
  facet normal 0 0 1
    outer loop
      vertex 36.1143 20.5488 6
      vertex 37.8508 22.545 6
      vertex 37.5591 22.5822 6
    endloop
  endfacet
  facet normal 0 0 1
    outer loop
      vertex 36.1143 20.5488 6
      vertex 37.5591 22.5822 6
      vertex 37.2658 22.5618 6
    endloop
  endfacet
  facet normal 0 0 1
    outer loop
      vertex 36.1143 20.5488 6
      vertex 37.2658 22.5618 6
      vertex 36.9821 22.4846 6
    endloop
  endfacet
  facet normal 0 0 1
    outer loop
      vertex 36.1143 20.5488 6
      vertex 36.9821 22.4846 6
      vertex 36.7189 22.3534 6
    endloop
  endfacet
  facet normal 0 0 1
    outer loop
      vertex 36.1143 20.5488 6
      vertex 36.7189 22.3534 6
      vertex 36.4863 22.1735 6
    endloop
  endfacet
  facet normal 0 0 1
    outer loop
      vertex 36.1143 20.5488 6
      vertex 36.4863 22.1735 6
      vertex 36.2933 21.9517 6
    endloop
  endfacet
  facet normal 0 0 1
    outer loop
      vertex 36.1143 20.5488 6
      vertex 36.2933 21.9517 6
      vertex 36.1473 21.6964 6
    endloop
  endfacet
  facet normal 0 0 1
    outer loop
      vertex 38.9178 21.6168 6
      vertex 36.1143 20.5488 6
      vertex 40.9784 7.78067 6
    endloop
  endfacet
  facet normal -0 0 1
    outer loop
      vertex 36.0539 21.4176 6
      vertex 36.1143 20.5488 6
      vertex 36.1473 21.6964 6
    endloop
  endfacet
  facet normal 0 0 1
    outer loop
      vertex 36.0539 21.4176 6
      vertex 36.0371 20.8326 6
      vertex 36.1143 20.5488 6
    endloop
  endfacet
  facet normal 0 -0 1
    outer loop
      vertex 36.0371 20.8326 6
      vertex 36.0539 21.4176 6
      vertex 36.0167 21.1259 6
    endloop
  endfacet
  facet normal 0 0 1
    outer loop
      vertex 47.2196 4.07686 6
      vertex 48 1 6
      vertex 48 4 6
    endloop
  endfacet
  facet normal 0 0 1
    outer loop
      vertex 46.4693 4.30448 6
      vertex 48 1 6
      vertex 47.2196 4.07686 6
    endloop
  endfacet
  facet normal 0 0 1
    outer loop
      vertex 45.7777 4.67412 6
      vertex 48 1 6
      vertex 46.4693 4.30448 6
    endloop
  endfacet
  facet normal 0 0 1
    outer loop
      vertex 48 1 6
      vertex 45.7777 4.67412 6
      vertex 48 0 6
    endloop
  endfacet
  facet normal 0 0 1
    outer loop
      vertex 38 0.098491 6
      vertex 45.7777 4.67412 6
      vertex 45.1716 5.17157 6
    endloop
  endfacet
  facet normal 0 0 1
    outer loop
      vertex 39.8284 5.17157 6
      vertex 45.1716 5.17157 6
      vertex 44.6741 5.77772 6
    endloop
  endfacet
  facet normal -0 0 1
    outer loop
      vertex 43.9964 8 6
      vertex 44.0769 7.21964 6
      vertex 44 8 6
    endloop
  endfacet
  facet normal 0 0 1
    outer loop
      vertex 43.9017 8.53399 6
      vertex 43.9964 8 6
      vertex 43.979 8.25027 6
    endloop
  endfacet
  facet normal 0 0 1
    outer loop
      vertex 40.9784 7.78067 6
      vertex 43.9964 8 6
      vertex 43.9017 8.53399 6
    endloop
  endfacet
  facet normal 0 0 1
    outer loop
      vertex 43.9964 8 6
      vertex 40.9784 7.78067 6
      vertex 44.0769 7.21964 6
    endloop
  endfacet
  facet normal 0 0 1
    outer loop
      vertex 40.9231 7.21964 6
      vertex 44.0769 7.21964 6
      vertex 40.9784 7.78067 6
    endloop
  endfacet
  facet normal 0 0 1
    outer loop
      vertex 44.0769 7.21964 6
      vertex 40.9231 7.21964 6
      vertex 44.3045 6.46927 6
    endloop
  endfacet
  facet normal 0 0 1
    outer loop
      vertex 40.6955 6.46927 6
      vertex 44.3045 6.46927 6
      vertex 40.9231 7.21964 6
    endloop
  endfacet
  facet normal 0 0 1
    outer loop
      vertex 44.3045 6.46927 6
      vertex 40.6955 6.46927 6
      vertex 44.6741 5.77772 6
    endloop
  endfacet
  facet normal 0 0 1
    outer loop
      vertex 40.3259 5.77772 6
      vertex 44.6741 5.77772 6
      vertex 40.6955 6.46927 6
    endloop
  endfacet
  facet normal 0 0 1
    outer loop
      vertex 39.8284 5.17157 6
      vertex 44.6741 5.77772 6
      vertex 40.3259 5.77772 6
    endloop
  endfacet
  facet normal 0 0 1
    outer loop
      vertex 45.1716 5.17157 6
      vertex 39.8284 5.17157 6
      vertex 38 0.098491 6
    endloop
  endfacet
  facet normal 0 0 1
    outer loop
      vertex 38 0.098491 6
      vertex 39.8284 5.17157 6
      vertex 39.2223 4.67412 6
    endloop
  endfacet
  facet normal 0 0 1
    outer loop
      vertex 38 0.098491 6
      vertex 39.2223 4.67412 6
      vertex 38.5307 4.30448 6
    endloop
  endfacet
  facet normal 0 0 1
    outer loop
      vertex 45.7777 4.67412 6
      vertex 38 0.098491 6
      vertex 48 0 6
    endloop
  endfacet
  facet normal 0 0 1
    outer loop
      vertex 48 0 6
      vertex 38 0.098491 6
      vertex 38 0 6
    endloop
  endfacet
  facet normal 0 0 -1
    outer loop
      vertex 40.9784 7.78067 0
      vertex 38.9178 21.6168 0
      vertex 43.9017 8.53399 0
    endloop
  endfacet
  facet normal 0 0 -1
    outer loop
      vertex 36.1143 20.5488 0
      vertex 38.9178 21.6168 0
      vertex 40.9784 7.78067 0
    endloop
  endfacet
  facet normal -0 0 -1
    outer loop
      vertex 38.9178 21.6168 0
      vertex 36.1143 20.5488 0
      vertex 38.7867 21.88 0
    endloop
  endfacet
  facet normal -0 0 -1
    outer loop
      vertex 38.7867 21.88 0
      vertex 36.1143 20.5488 0
      vertex 38.6067 22.1126 0
    endloop
  endfacet
  facet normal -0 0 -1
    outer loop
      vertex 38.6067 22.1126 0
      vertex 36.1143 20.5488 0
      vertex 38.3849 22.3056 0
    endloop
  endfacet
  facet normal -0 0 -1
    outer loop
      vertex 38.3849 22.3056 0
      vertex 36.1143 20.5488 0
      vertex 38.1297 22.4516 0
    endloop
  endfacet
  facet normal -0 0 -1
    outer loop
      vertex 38.1297 22.4516 0
      vertex 36.1143 20.5488 0
      vertex 37.8508 22.545 0
    endloop
  endfacet
  facet normal -0 0 -1
    outer loop
      vertex 37.8508 22.545 0
      vertex 36.1143 20.5488 0
      vertex 37.5591 22.5822 0
    endloop
  endfacet
  facet normal 0 0 -1
    outer loop
      vertex 37.5591 22.5822 0
      vertex 36.1143 20.5488 0
      vertex 37.2658 22.5618 0
    endloop
  endfacet
  facet normal 0 0 -1
    outer loop
      vertex 37.2658 22.5618 0
      vertex 36.1143 20.5488 0
      vertex 36.9821 22.4846 0
    endloop
  endfacet
  facet normal 0 0 -1
    outer loop
      vertex 36.9821 22.4846 0
      vertex 36.1143 20.5488 0
      vertex 36.7189 22.3534 0
    endloop
  endfacet
  facet normal 0 0 -1
    outer loop
      vertex 36.7189 22.3534 0
      vertex 36.1143 20.5488 0
      vertex 36.4863 22.1735 0
    endloop
  endfacet
  facet normal 0 0 -1
    outer loop
      vertex 36.4863 22.1735 0
      vertex 36.1143 20.5488 0
      vertex 36.2933 21.9517 0
    endloop
  endfacet
  facet normal 0 0 -1
    outer loop
      vertex 36.2933 21.9517 0
      vertex 36.1143 20.5488 0
      vertex 36.1473 21.6964 0
    endloop
  endfacet
  facet normal 0 0 -1
    outer loop
      vertex 36.1143 20.5488 0
      vertex 36.0539 21.4176 0
      vertex 36.1473 21.6964 0
    endloop
  endfacet
  facet normal 0 0 -1
    outer loop
      vertex 36.0371 20.8326 0
      vertex 36.0539 21.4176 0
      vertex 36.1143 20.5488 0
    endloop
  endfacet
  facet normal 0 0 -1
    outer loop
      vertex 36.0539 21.4176 0
      vertex 36.0371 20.8326 0
      vertex 36.0167 21.1259 0
    endloop
  endfacet
  facet normal 0 0 -1
    outer loop
      vertex 53.3687 5.5 0
      vertex 54.6113 5.5 0
      vertex 54.4293 5.06066 0
    endloop
  endfacet
  facet normal 0 0 -1
    outer loop
      vertex 63.4612 1.20737 0
      vertex 63.4612 1.79263 0
      vertex 63.49 1.5 0
    endloop
  endfacet
  facet normal 0 0 -1
    outer loop
      vertex 63.3758 0.925976 0
      vertex 63.4612 1.79263 0
      vertex 63.4612 1.20737 0
    endloop
  endfacet
  facet normal 0 0 -1
    outer loop
      vertex 63.3758 0.925976 0
      vertex 63.3758 2.07402 0
      vertex 63.4612 1.79263 0
    endloop
  endfacet
  facet normal 0 0 -1
    outer loop
      vertex 63.2372 0.666645 0
      vertex 63.3758 2.07402 0
      vertex 63.3758 0.925976 0
    endloop
  endfacet
  facet normal 0 0 -1
    outer loop
      vertex 63.2372 0.666645 0
      vertex 63.2372 2.33335 0
      vertex 63.3758 2.07402 0
    endloop
  endfacet
  facet normal 0 0 -1
    outer loop
      vertex 63.0507 0.439341 0
      vertex 63.2372 2.33335 0
      vertex 63.2372 0.666645 0
    endloop
  endfacet
  facet normal 0 0 -1
    outer loop
      vertex 63.0507 0.439341 0
      vertex 63.0507 2.56066 0
      vertex 63.2372 2.33335 0
    endloop
  endfacet
  facet normal 0 0 -1
    outer loop
      vertex 62.8234 0.252796 0
      vertex 63.0507 2.56066 0
      vertex 63.0507 0.439341 0
    endloop
  endfacet
  facet normal 0 0 -1
    outer loop
      vertex 62.6113 2.86054 0
      vertex 63.0507 2.56066 0
      vertex 62.8234 0.252796 0
    endloop
  endfacet
  facet normal 0 0 -1
    outer loop
      vertex 63.0507 2.56066 0
      vertex 62.6113 2.86054 0
      vertex 62.8234 2.7472 0
    endloop
  endfacet
  facet normal 0 0 -1
    outer loop
      vertex 62.564 0.114182 0
      vertex 62.6113 2.86054 0
      vertex 62.8234 0.252796 0
    endloop
  endfacet
  facet normal 0 0 -1
    outer loop
      vertex 62.2826 0.0288229 0
      vertex 62.6113 2.86054 0
      vertex 62.564 0.114182 0
    endloop
  endfacet
  facet normal 0 0 -1
    outer loop
      vertex 61.3687 8.87868 0
      vertex 62.6113 2.86054 0
      vertex 61.3687 3 0
    endloop
  endfacet
  facet normal 0 0 -1
    outer loop
      vertex 61.99 0 0
      vertex 62.6113 2.86054 0
      vertex 62.2826 0.0288229 0
    endloop
  endfacet
  facet normal -0 0 -1
    outer loop
      vertex 62.6113 2.86054 0
      vertex 61.99 0 0
      vertex 61.3687 3 0
    endloop
  endfacet
  facet normal 0 0 -1
    outer loop
      vertex 62.6113 2.86054 0
      vertex 61.3687 8.87868 0
      vertex 62.6113 9.5 0
    endloop
  endfacet
  facet normal 0 -0 -1
    outer loop
      vertex 61.99 10.1213 0
      vertex 62.6113 9.5 0
      vertex 61.3687 8.87868 0
    endloop
  endfacet
  facet normal 0 0 -1
    outer loop
      vertex 61.99 0 0
      vertex 56 3 0
      vertex 61.3687 3 0
    endloop
  endfacet
  facet normal 0 0 -1
    outer loop
      vertex 38 0 0
      vertex 56 3 0
      vertex 61.99 0 0
    endloop
  endfacet
  facet normal 0 0 -1
    outer loop
      vertex 48 3.99875 0
      vertex 47.2196 4.07686 0
      vertex 48 4 0
    endloop
  endfacet
  facet normal -0 0 -1
    outer loop
      vertex 56 3 0
      vertex 38 0 0
      vertex 48 3.99875 0
    endloop
  endfacet
  facet normal 0 0 -1
    outer loop
      vertex 44.0769 7.21964 0
      vertex 43.9964 8 0
      vertex 44 8 0
    endloop
  endfacet
  facet normal 0 0 -1
    outer loop
      vertex 43.9964 8 0
      vertex 43.9017 8.53399 0
      vertex 43.979 8.25027 0
    endloop
  endfacet
  facet normal 0 0 -1
    outer loop
      vertex 40.9784 7.78067 0
      vertex 43.9964 8 0
      vertex 44.0769 7.21964 0
    endloop
  endfacet
  facet normal -0 0 -1
    outer loop
      vertex 43.9964 8 0
      vertex 40.9784 7.78067 0
      vertex 43.9017 8.53399 0
    endloop
  endfacet
  facet normal 0 0 -1
    outer loop
      vertex 40.9231 7.21964 0
      vertex 44.0769 7.21964 0
      vertex 44.3045 6.46927 0
    endloop
  endfacet
  facet normal 0 0 -1
    outer loop
      vertex 40.6955 6.46927 0
      vertex 44.3045 6.46927 0
      vertex 44.6741 5.77772 0
    endloop
  endfacet
  facet normal 0 0 -1
    outer loop
      vertex 40.3259 5.77772 0
      vertex 44.6741 5.77772 0
      vertex 45.1716 5.17157 0
    endloop
  endfacet
  facet normal 0 0 -1
    outer loop
      vertex 39.8284 5.17157 0
      vertex 45.1716 5.17157 0
      vertex 45.7777 4.67412 0
    endloop
  endfacet
  facet normal 0 0 -1
    outer loop
      vertex 44.0769 7.21964 0
      vertex 40.9231 7.21964 0
      vertex 40.9784 7.78067 0
    endloop
  endfacet
  facet normal 0 0 -1
    outer loop
      vertex 38 0 0
      vertex 45.7777 4.67412 0
      vertex 46.4693 4.30448 0
    endloop
  endfacet
  facet normal 0 0 -1
    outer loop
      vertex 44.3045 6.46927 0
      vertex 40.6955 6.46927 0
      vertex 40.9231 7.21964 0
    endloop
  endfacet
  facet normal 0 0 -1
    outer loop
      vertex 44.6741 5.77772 0
      vertex 40.3259 5.77772 0
      vertex 40.6955 6.46927 0
    endloop
  endfacet
  facet normal 0 0 -1
    outer loop
      vertex 38 0 0
      vertex 46.4693 4.30448 0
      vertex 47.2196 4.07686 0
    endloop
  endfacet
  facet normal -0 0 -1
    outer loop
      vertex 48 3.99875 0
      vertex 38 0 0
      vertex 47.2196 4.07686 0
    endloop
  endfacet
  facet normal 0 0 -1
    outer loop
      vertex 45.7777 4.67412 0
      vertex 38 0 0
      vertex 38 0.098491 0
    endloop
  endfacet
  facet normal 0 0 -1
    outer loop
      vertex 45.1716 5.17157 0
      vertex 39.8284 5.17157 0
      vertex 40.3259 5.77772 0
    endloop
  endfacet
  facet normal -0 0 -1
    outer loop
      vertex 45.7777 4.67412 0
      vertex 38 0.098491 0
      vertex 39.8284 5.17157 0
    endloop
  endfacet
  facet normal 0 0 -1
    outer loop
      vertex 39.8284 5.17157 0
      vertex 38 0.098491 0
      vertex 39.2223 4.67412 0
    endloop
  endfacet
  facet normal 0 0 -1
    outer loop
      vertex 39.2223 4.67412 0
      vertex 38 0.098491 0
      vertex 38.5307 4.30448 0
    endloop
  endfacet
  facet normal 0 0 -1
    outer loop
      vertex 38 0.098491 0
      vertex 37.7804 4.07686 0
      vertex 38.5307 4.30448 0
    endloop
  endfacet
  facet normal 0 0 -1
    outer loop
      vertex 37 4 0
      vertex 38 0.098491 0
      vertex 37 0 0
    endloop
  endfacet
  facet normal 0 0 -1
    outer loop
      vertex 38 0.098491 0
      vertex 37 4 0
      vertex 37.7804 4.07686 0
    endloop
  endfacet
  facet normal 0 0 -1
    outer loop
      vertex 7 0 0
      vertex 37 4 0
      vertex 37 0 0
    endloop
  endfacet
  facet normal 0 0 -1
    outer loop
      vertex 7 0 0
      vertex 7 4 0
      vertex 37 4 0
    endloop
  endfacet
  facet normal 0 0 -1
    outer loop
      vertex 5.63437 0.134502 0
      vertex 7 4 0
      vertex 7 0 0
    endloop
  endfacet
  facet normal -0 0 -1
    outer loop
      vertex 7 4 0
      vertex 5.63437 0.134502 0
      vertex 6.21964 4.07686 0
    endloop
  endfacet
  facet normal 0 0 -1
    outer loop
      vertex 4.32122 0.532843 0
      vertex 6.21964 4.07686 0
      vertex 5.63437 0.134502 0
    endloop
  endfacet
  facet normal -0 0 -1
    outer loop
      vertex 6.21964 4.07686 0
      vertex 4.32122 0.532843 0
      vertex 5.46927 4.30448 0
    endloop
  endfacet
  facet normal 0 0 -1
    outer loop
      vertex 3.11101 1.17971 0
      vertex 5.46927 4.30448 0
      vertex 4.32122 0.532843 0
    endloop
  endfacet
  facet normal -0 0 -1
    outer loop
      vertex 5.46927 4.30448 0
      vertex 3.11101 1.17971 0
      vertex 4.77772 4.67412 0
    endloop
  endfacet
  facet normal 0 0 -1
    outer loop
      vertex 2.05025 2.05025 0
      vertex 4.77772 4.67412 0
      vertex 3.11101 1.17971 0
    endloop
  endfacet
  facet normal -0 0 -1
    outer loop
      vertex 4.77772 4.67412 0
      vertex 2.05025 2.05025 0
      vertex 4.17157 5.17157 0
    endloop
  endfacet
  facet normal 0 0 -1
    outer loop
      vertex 1.17971 3.11101 0
      vertex 4.17157 5.17157 0
      vertex 2.05025 2.05025 0
    endloop
  endfacet
  facet normal -0 0 -1
    outer loop
      vertex 4.17157 5.17157 0
      vertex 1.17971 3.11101 0
      vertex 3.67412 5.77772 0
    endloop
  endfacet
  facet normal 0 0 -1
    outer loop
      vertex 0.532843 4.32122 0
      vertex 3.67412 5.77772 0
      vertex 1.17971 3.11101 0
    endloop
  endfacet
  facet normal 0 0 -1
    outer loop
      vertex 0.134502 5.63437 0
      vertex 3.30448 6.46927 0
      vertex 0.532843 4.32122 0
    endloop
  endfacet
  facet normal -0 0 -1
    outer loop
      vertex 3.67412 5.77772 0
      vertex 0.532843 4.32122 0
      vertex 3.30448 6.46927 0
    endloop
  endfacet
  facet normal 0 0 -1
    outer loop
      vertex 62.6113 9.5 0
      vertex 61.99 10.1213 0
      vertex 62.4293 9.93934 0
    endloop
  endfacet
  facet normal 0 0 -1
    outer loop
      vertex 54.6113 8.87868 0
      vertex 61.99 10.1213 0
      vertex 61.3687 8.87868 0
    endloop
  endfacet
  facet normal 0 0 -1
    outer loop
      vertex 53.3687 5.5 0
      vertex 54.4293 5.06066 0
      vertex 53.99 4.87868 0
    endloop
  endfacet
  facet normal 0 0 -1
    outer loop
      vertex 54.6113 8.87868 0
      vertex 53.99 10.1213 0
      vertex 61.99 10.1213 0
    endloop
  endfacet
  facet normal 0 0 -1
    outer loop
      vertex 54.6113 5.5 0
      vertex 53.3687 5.5 0
      vertex 54.6113 8.87868 0
    endloop
  endfacet
  facet normal 0 0 -1
    outer loop
      vertex 53.3687 5.5 0
      vertex 53.99 4.87868 0
      vertex 53.5507 5.06066 0
    endloop
  endfacet
  facet normal 0 0 -1
    outer loop
      vertex 53.3687 9.5 0
      vertex 54.6113 8.87868 0
      vertex 53.3687 5.5 0
    endloop
  endfacet
  facet normal 0 0 -1
    outer loop
      vertex 54.6113 8.87868 0
      vertex 53.3687 9.5 0
      vertex 53.99 10.1213 0
    endloop
  endfacet
  facet normal 0 0 -1
    outer loop
      vertex 53.99 10.1213 0
      vertex 53.3687 9.5 0
      vertex 53.5507 9.93934 0
    endloop
  endfacet
  facet normal 0 0 -1
    outer loop
      vertex 10.4712 26.2074 0
      vertex 10.4712 26.7926 0
      vertex 10.5 26.5 0
    endloop
  endfacet
  facet normal 0 0 -1
    outer loop
      vertex 10.3858 25.926 0
      vertex 10.4712 26.7926 0
      vertex 10.4712 26.2074 0
    endloop
  endfacet
  facet normal 0 0 -1
    outer loop
      vertex 10.3858 25.926 0
      vertex 10.3858 27.074 0
      vertex 10.4712 26.7926 0
    endloop
  endfacet
  facet normal 0 0 -1
    outer loop
      vertex 10.2472 25.6666 0
      vertex 10.3858 27.074 0
      vertex 10.3858 25.926 0
    endloop
  endfacet
  facet normal 0 0 -1
    outer loop
      vertex 10.2472 25.6666 0
      vertex 10.2472 27.3334 0
      vertex 10.3858 27.074 0
    endloop
  endfacet
  facet normal 0 0 -1
    outer loop
      vertex 10.0607 25.4393 0
      vertex 10.2472 27.3334 0
      vertex 10.2472 25.6666 0
    endloop
  endfacet
  facet normal 0 0 -1
    outer loop
      vertex 10.0607 25.4393 0
      vertex 10.0607 27.5607 0
      vertex 10.2472 27.3334 0
    endloop
  endfacet
  facet normal 0 0 -1
    outer loop
      vertex 9.83335 25.2528 0
      vertex 10.0607 27.5607 0
      vertex 10.0607 25.4393 0
    endloop
  endfacet
  facet normal 0 0 -1
    outer loop
      vertex 9.83335 25.2528 0
      vertex 9.83335 27.7472 0
      vertex 10.0607 27.5607 0
    endloop
  endfacet
  facet normal 0 0 -1
    outer loop
      vertex 9.57402 25.1142 0
      vertex 9.83335 27.7472 0
      vertex 9.83335 25.2528 0
    endloop
  endfacet
  facet normal 0 0 -1
    outer loop
      vertex 9.57402 25.1142 0
      vertex 9.57402 27.8858 0
      vertex 9.83335 27.7472 0
    endloop
  endfacet
  facet normal 0 0 -1
    outer loop
      vertex 9.29263 25.0288 0
      vertex 9.57402 27.8858 0
      vertex 9.57402 25.1142 0
    endloop
  endfacet
  facet normal 0 0 -1
    outer loop
      vertex 9.29263 25.0288 0
      vertex 9.29263 27.9712 0
      vertex 9.57402 27.8858 0
    endloop
  endfacet
  facet normal 0 0 -1
    outer loop
      vertex 9 25 0
      vertex 9.29263 27.9712 0
      vertex 9.29263 25.0288 0
    endloop
  endfacet
  facet normal 0 0 -1
    outer loop
      vertex 9 25 0
      vertex 9 28 0
      vertex 9.29263 27.9712 0
    endloop
  endfacet
  facet normal 0 0 -1
    outer loop
      vertex 7 25 0
      vertex 9 28 0
      vertex 9 25 0
    endloop
  endfacet
  facet normal 0 0 -1
    outer loop
      vertex 7 25 0
      vertex 7 28 0
      vertex 9 28 0
    endloop
  endfacet
  facet normal 0 0 -1
    outer loop
      vertex 6.21964 24.9231 0
      vertex 7 28 0
      vertex 7 25 0
    endloop
  endfacet
  facet normal 0 0 -1
    outer loop
      vertex 6.21964 24.9231 0
      vertex 5.63437 27.8655 0
      vertex 7 28 0
    endloop
  endfacet
  facet normal 0 0 -1
    outer loop
      vertex 5.46927 24.6955 0
      vertex 5.63437 27.8655 0
      vertex 6.21964 24.9231 0
    endloop
  endfacet
  facet normal 0 0 -1
    outer loop
      vertex 4.32122 27.4672 0
      vertex 5.46927 24.6955 0
      vertex 4.77772 24.3259 0
    endloop
  endfacet
  facet normal 0 0 -1
    outer loop
      vertex 5.46927 24.6955 0
      vertex 4.32122 27.4672 0
      vertex 5.63437 27.8655 0
    endloop
  endfacet
  facet normal 0 0 -1
    outer loop
      vertex 3.11101 26.8203 0
      vertex 4.77772 24.3259 0
      vertex 4.17157 23.8284 0
    endloop
  endfacet
  facet normal 0 0 -1
    outer loop
      vertex 2.05025 25.9497 0
      vertex 4.17157 23.8284 0
      vertex 3.67412 23.2223 0
    endloop
  endfacet
  facet normal 0 0 -1
    outer loop
      vertex 1.17971 24.889 0
      vertex 3.67412 23.2223 0
      vertex 3.30448 22.5307 0
    endloop
  endfacet
  facet normal 0 0 -1
    outer loop
      vertex 4.77772 24.3259 0
      vertex 3.11101 26.8203 0
      vertex 4.32122 27.4672 0
    endloop
  endfacet
  facet normal 0 0 -1
    outer loop
      vertex 0.532843 23.6788 0
      vertex 3.30448 22.5307 0
      vertex 3.07686 21.7804 0
    endloop
  endfacet
  facet normal 0 0 -1
    outer loop
      vertex 0.134502 22.3656 0
      vertex 3.07686 21.7804 0
      vertex 3 21 0
    endloop
  endfacet
  facet normal 0 0 -1
    outer loop
      vertex 0 21 0
      vertex 3 8 0
      vertex 0 7 0
    endloop
  endfacet
  facet normal 0 0 -1
    outer loop
      vertex 3 8 0
      vertex 0 21 0
      vertex 3 21 0
    endloop
  endfacet
  facet normal -0 0 -1
    outer loop
      vertex 3.30448 6.46927 0
      vertex 0.134502 5.63437 0
      vertex 3.07686 7.21964 0
    endloop
  endfacet
  facet normal 0 -0 -1
    outer loop
      vertex 0.134502 22.3656 0
      vertex 3 21 0
      vertex 0 21 0
    endloop
  endfacet
  facet normal 0 0 -1
    outer loop
      vertex 0 7 0
      vertex 3.07686 7.21964 0
      vertex 0.134502 5.63437 0
    endloop
  endfacet
  facet normal 0 0 -1
    outer loop
      vertex 4.17157 23.8284 0
      vertex 2.05025 25.9497 0
      vertex 3.11101 26.8203 0
    endloop
  endfacet
  facet normal -0 0 -1
    outer loop
      vertex 3.07686 7.21964 0
      vertex 0 7 0
      vertex 3 8 0
    endloop
  endfacet
  facet normal 0 0 -1
    outer loop
      vertex 3.67412 23.2223 0
      vertex 1.17971 24.889 0
      vertex 2.05025 25.9497 0
    endloop
  endfacet
  facet normal 0 0 -1
    outer loop
      vertex 3.30448 22.5307 0
      vertex 0.532843 23.6788 0
      vertex 1.17971 24.889 0
    endloop
  endfacet
  facet normal 0 0 -1
    outer loop
      vertex 3.07686 21.7804 0
      vertex 0.134502 22.3656 0
      vertex 0.532843 23.6788 0
    endloop
  endfacet
  facet normal 0 1 -0
    outer loop
      vertex 44 8 0
      vertex 43.9964 8 6
      vertex 44 8 6
    endloop
  endfacet
  facet normal 0 1 0
    outer loop
      vertex 43.9964 8 6
      vertex 44 8 0
      vertex 43.9964 8 0
    endloop
  endfacet
  facet normal 0.881943 0.471356 0
    outer loop
      vertex 44.6741 5.77772 6
      vertex 44.3045 6.46927 0
      vertex 44.3045 6.46927 6
    endloop
  endfacet
  facet normal 0.881943 0.471356 0
    outer loop
      vertex 44.3045 6.46927 0
      vertex 44.6741 5.77772 6
      vertex 44.6741 5.77772 0
    endloop
  endfacet
  facet normal 0.471369 0.881936 -0
    outer loop
      vertex 46.4693 4.30448 0
      vertex 45.7777 4.67412 6
      vertex 46.4693 4.30448 6
    endloop
  endfacet
  facet normal 0.471369 0.881936 0
    outer loop
      vertex 45.7777 4.67412 6
      vertex 46.4693 4.30448 0
      vertex 45.7777 4.67412 0
    endloop
  endfacet
  facet normal 0.290307 0.956934 -0
    outer loop
      vertex 47.2196 4.07686 0
      vertex 46.4693 4.30448 6
      vertex 47.2196 4.07686 6
    endloop
  endfacet
  facet normal 0.290307 0.956934 0
    outer loop
      vertex 46.4693 4.30448 6
      vertex 47.2196 4.07686 0
      vertex 46.4693 4.30448 0
    endloop
  endfacet
  facet normal 0.956948 0.290259 0
    outer loop
      vertex 44.3045 6.46927 6
      vertex 44.0769 7.21964 0
      vertex 44.0769 7.21964 6
    endloop
  endfacet
  facet normal 0.956948 0.290259 0
    outer loop
      vertex 44.0769 7.21964 0
      vertex 44.3045 6.46927 6
      vertex 44.3045 6.46927 0
    endloop
  endfacet
  facet normal 0.772982 0.634428 0
    outer loop
      vertex 45.1716 5.17157 6
      vertex 44.6741 5.77772 0
      vertex 44.6741 5.77772 6
    endloop
  endfacet
  facet normal 0.772982 0.634428 0
    outer loop
      vertex 44.6741 5.77772 0
      vertex 45.1716 5.17157 6
      vertex 45.1716 5.17157 0
    endloop
  endfacet
  facet normal 0.0980137 0.995185 -0
    outer loop
      vertex 48 4 0
      vertex 47.2196 4.07686 6
      vertex 48 4 6
    endloop
  endfacet
  facet normal 0.0980137 0.995185 0
    outer loop
      vertex 47.2196 4.07686 6
      vertex 48 4 0
      vertex 47.2196 4.07686 0
    endloop
  endfacet
  facet normal 0.634421 0.772988 -0
    outer loop
      vertex 45.7777 4.67412 0
      vertex 45.1716 5.17157 6
      vertex 45.7777 4.67412 6
    endloop
  endfacet
  facet normal 0.634421 0.772988 0
    outer loop
      vertex 45.1716 5.17157 6
      vertex 45.7777 4.67412 0
      vertex 45.1716 5.17157 0
    endloop
  endfacet
  facet normal 0.99518 0.0980692 0
    outer loop
      vertex 44.0769 7.21964 6
      vertex 44 8 0
      vertex 44 8 6
    endloop
  endfacet
  facet normal 0.99518 0.0980692 0
    outer loop
      vertex 44 8 0
      vertex 44.0769 7.21964 6
      vertex 44.0769 7.21964 0
    endloop
  endfacet
  facet normal 0 1 -0
    outer loop
      vertex 9 28 0
      vertex 7 28 6
      vertex 9 28 6
    endloop
  endfacet
  facet normal 0 1 0
    outer loop
      vertex 7 28 6
      vertex 9 28 0
      vertex 7 28 0
    endloop
  endfacet
  facet normal 0 -1 0
    outer loop
      vertex 7 0 0
      vertex 37 0 6
      vertex 7 0 6
    endloop
  endfacet
  facet normal 0 -1 -0
    outer loop
      vertex 37 0 6
      vertex 7 0 0
      vertex 37 0 0
    endloop
  endfacet
  facet normal -1 0 0
    outer loop
      vertex 0 7 0
      vertex 0 21 6
      vertex 0 21 0
    endloop
  endfacet
  facet normal -1 -0 0
    outer loop
      vertex 0 21 6
      vertex 0 7 0
      vertex 0 7 6
    endloop
  endfacet
  facet normal -0.95694 -0.290286 0
    outer loop
      vertex 0.532843 4.32122 0
      vertex 0.134502 5.63437 6
      vertex 0.134502 5.63437 0
    endloop
  endfacet
  facet normal -0.95694 -0.290286 0
    outer loop
      vertex 0.134502 5.63437 6
      vertex 0.532843 4.32122 0
      vertex 0.532843 4.32122 6
    endloop
  endfacet
  facet normal -0.881922 -0.471395 0
    outer loop
      vertex 1.17971 3.11101 0
      vertex 0.532843 4.32122 6
      vertex 0.532843 4.32122 0
    endloop
  endfacet
  facet normal -0.881922 -0.471395 0
    outer loop
      vertex 0.532843 4.32122 6
      vertex 1.17971 3.11101 0
      vertex 1.17971 3.11101 6
    endloop
  endfacet
  facet normal -0.995185 -0.0980166 0
    outer loop
      vertex 0.134502 5.63437 0
      vertex 0 7 6
      vertex 0 7 0
    endloop
  endfacet
  facet normal -0.995185 -0.0980166 0
    outer loop
      vertex 0 7 6
      vertex 0.134502 5.63437 0
      vertex 0.134502 5.63437 6
    endloop
  endfacet
  facet normal -0.0980166 -0.995185 0
    outer loop
      vertex 5.63437 0.134502 0
      vertex 7 0 6
      vertex 5.63437 0.134502 6
    endloop
  endfacet
  facet normal -0.0980166 -0.995185 -0
    outer loop
      vertex 7 0 6
      vertex 5.63437 0.134502 0
      vertex 7 0 0
    endloop
  endfacet
  facet normal -0.471395 -0.881922 0
    outer loop
      vertex 3.11101 1.17971 0
      vertex 4.32122 0.532843 6
      vertex 3.11101 1.17971 6
    endloop
  endfacet
  facet normal -0.471395 -0.881922 -0
    outer loop
      vertex 4.32122 0.532843 6
      vertex 3.11101 1.17971 0
      vertex 4.32122 0.532843 0
    endloop
  endfacet
  facet normal -0.290286 -0.95694 0
    outer loop
      vertex 4.32122 0.532843 0
      vertex 5.63437 0.134502 6
      vertex 4.32122 0.532843 6
    endloop
  endfacet
  facet normal -0.290286 -0.95694 -0
    outer loop
      vertex 5.63437 0.134502 6
      vertex 4.32122 0.532843 0
      vertex 5.63437 0.134502 0
    endloop
  endfacet
  facet normal -0.773012 -0.634392 0
    outer loop
      vertex 2.05025 2.05025 0
      vertex 1.17971 3.11101 6
      vertex 1.17971 3.11101 0
    endloop
  endfacet
  facet normal -0.773012 -0.634392 0
    outer loop
      vertex 1.17971 3.11101 6
      vertex 2.05025 2.05025 0
      vertex 2.05025 2.05025 6
    endloop
  endfacet
  facet normal -0.634392 -0.773012 0
    outer loop
      vertex 2.05025 2.05025 0
      vertex 3.11101 1.17971 6
      vertex 2.05025 2.05025 6
    endloop
  endfacet
  facet normal -0.634392 -0.773012 -0
    outer loop
      vertex 3.11101 1.17971 6
      vertex 2.05025 2.05025 0
      vertex 3.11101 1.17971 0
    endloop
  endfacet
  facet normal 0.0980167 -0.995185 0
    outer loop
      vertex 37 0 0
      vertex 38 0.098491 6
      vertex 37 0 6
    endloop
  endfacet
  facet normal 0.0980167 -0.995185 0
    outer loop
      vertex 38 0.098491 6
      vertex 37 0 0
      vertex 38 0.098491 0
    endloop
  endfacet
  facet normal -0.0980151 0.995185 0
    outer loop
      vertex 7 28 0
      vertex 5.63437 27.8655 6
      vertex 7 28 6
    endloop
  endfacet
  facet normal -0.0980151 0.995185 0
    outer loop
      vertex 5.63437 27.8655 6
      vertex 7 28 0
      vertex 5.63437 27.8655 0
    endloop
  endfacet
  facet normal -0.471413 0.881912 0
    outer loop
      vertex 4.32122 27.4672 0
      vertex 3.11101 26.8203 6
      vertex 4.32122 27.4672 6
    endloop
  endfacet
  facet normal -0.471413 0.881912 0
    outer loop
      vertex 3.11101 26.8203 6
      vertex 4.32122 27.4672 0
      vertex 3.11101 26.8203 0
    endloop
  endfacet
  facet normal -0.772994 0.634413 0
    outer loop
      vertex 1.17971 24.889 0
      vertex 2.05025 25.9497 6
      vertex 2.05025 25.9497 0
    endloop
  endfacet
  facet normal -0.772994 0.634413 0
    outer loop
      vertex 2.05025 25.9497 6
      vertex 1.17971 24.889 0
      vertex 1.17971 24.889 6
    endloop
  endfacet
  facet normal -0.290258 0.956948 0
    outer loop
      vertex 5.63437 27.8655 0
      vertex 4.32122 27.4672 6
      vertex 5.63437 27.8655 6
    endloop
  endfacet
  facet normal -0.290258 0.956948 0
    outer loop
      vertex 4.32122 27.4672 6
      vertex 5.63437 27.8655 0
      vertex 4.32122 27.4672 0
    endloop
  endfacet
  facet normal -0.995185 0.0980187 0
    outer loop
      vertex 0 21 0
      vertex 0.134502 22.3656 6
      vertex 0.134502 22.3656 0
    endloop
  endfacet
  facet normal -0.995185 0.0980187 0
    outer loop
      vertex 0.134502 22.3656 6
      vertex 0 21 0
      vertex 0 21 6
    endloop
  endfacet
  facet normal -0.634418 0.77299 0
    outer loop
      vertex 3.11101 26.8203 0
      vertex 2.05025 25.9497 6
      vertex 3.11101 26.8203 6
    endloop
  endfacet
  facet normal -0.634418 0.77299 0
    outer loop
      vertex 2.05025 25.9497 6
      vertex 3.11101 26.8203 0
      vertex 2.05025 25.9497 0
    endloop
  endfacet
  facet normal -0.956943 0.290275 0
    outer loop
      vertex 0.134502 22.3656 0
      vertex 0.532843 23.6788 6
      vertex 0.532843 23.6788 0
    endloop
  endfacet
  facet normal -0.956943 0.290275 0
    outer loop
      vertex 0.532843 23.6788 6
      vertex 0.134502 22.3656 0
      vertex 0.134502 22.3656 6
    endloop
  endfacet
  facet normal -0.881921 0.471398 0
    outer loop
      vertex 0.532843 23.6788 0
      vertex 1.17971 24.889 6
      vertex 1.17971 24.889 0
    endloop
  endfacet
  facet normal -0.881921 0.471398 0
    outer loop
      vertex 1.17971 24.889 6
      vertex 0.532843 23.6788 0
      vertex 0.532843 23.6788 6
    endloop
  endfacet
  facet normal 0 -1 0
    outer loop
      vertex 7 25 0
      vertex 9 25 6
      vertex 7 25 6
    endloop
  endfacet
  facet normal 0 -1 -0
    outer loop
      vertex 9 25 6
      vertex 7 25 0
      vertex 9 25 0
    endloop
  endfacet
  facet normal 0 1 -0
    outer loop
      vertex 37 4 0
      vertex 7 4 6
      vertex 37 4 6
    endloop
  endfacet
  facet normal 0 1 0
    outer loop
      vertex 7 4 6
      vertex 37 4 0
      vertex 7 4 0
    endloop
  endfacet
  facet normal 1 -0 0
    outer loop
      vertex 3 8 6
      vertex 3 21 0
      vertex 3 21 6
    endloop
  endfacet
  facet normal 1 0 0
    outer loop
      vertex 3 21 0
      vertex 3 8 6
      vertex 3 8 0
    endloop
  endfacet
  facet normal 0.956941 0.290282 0
    outer loop
      vertex 3.30448 6.46927 6
      vertex 3.07686 7.21964 0
      vertex 3.07686 7.21964 6
    endloop
  endfacet
  facet normal 0.956941 0.290282 0
    outer loop
      vertex 3.07686 7.21964 0
      vertex 3.30448 6.46927 6
      vertex 3.30448 6.46927 0
    endloop
  endfacet
  facet normal 0.881922 0.471396 0
    outer loop
      vertex 3.67412 5.77772 6
      vertex 3.30448 6.46927 0
      vertex 3.30448 6.46927 6
    endloop
  endfacet
  facet normal 0.881922 0.471396 0
    outer loop
      vertex 3.30448 6.46927 0
      vertex 3.67412 5.77772 6
      vertex 3.67412 5.77772 0
    endloop
  endfacet
  facet normal 0.995185 0.0980187 0
    outer loop
      vertex 3.07686 7.21964 6
      vertex 3 8 0
      vertex 3 8 6
    endloop
  endfacet
  facet normal 0.995185 0.0980187 0
    outer loop
      vertex 3 8 0
      vertex 3.07686 7.21964 6
      vertex 3.07686 7.21964 0
    endloop
  endfacet
  facet normal 0.0980187 0.995185 -0
    outer loop
      vertex 7 4 0
      vertex 6.21964 4.07686 6
      vertex 7 4 6
    endloop
  endfacet
  facet normal 0.0980187 0.995185 0
    outer loop
      vertex 6.21964 4.07686 6
      vertex 7 4 0
      vertex 6.21964 4.07686 0
    endloop
  endfacet
  facet normal 0.471396 0.881922 -0
    outer loop
      vertex 5.46927 4.30448 0
      vertex 4.77772 4.67412 6
      vertex 5.46927 4.30448 6
    endloop
  endfacet
  facet normal 0.471396 0.881922 0
    outer loop
      vertex 4.77772 4.67412 6
      vertex 5.46927 4.30448 0
      vertex 4.77772 4.67412 0
    endloop
  endfacet
  facet normal 0.290282 0.956941 -0
    outer loop
      vertex 6.21964 4.07686 0
      vertex 5.46927 4.30448 6
      vertex 6.21964 4.07686 6
    endloop
  endfacet
  facet normal 0.290282 0.956941 0
    outer loop
      vertex 5.46927 4.30448 6
      vertex 6.21964 4.07686 0
      vertex 5.46927 4.30448 0
    endloop
  endfacet
  facet normal 0.773013 0.63439 0
    outer loop
      vertex 4.17157 5.17157 6
      vertex 3.67412 5.77772 0
      vertex 3.67412 5.77772 6
    endloop
  endfacet
  facet normal 0.773013 0.63439 0
    outer loop
      vertex 3.67412 5.77772 0
      vertex 4.17157 5.17157 6
      vertex 4.17157 5.17157 0
    endloop
  endfacet
  facet normal 0.63439 0.773013 -0
    outer loop
      vertex 4.77772 4.67412 0
      vertex 4.17157 5.17157 6
      vertex 4.77772 4.67412 6
    endloop
  endfacet
  facet normal 0.63439 0.773013 0
    outer loop
      vertex 4.17157 5.17157 6
      vertex 4.77772 4.67412 0
      vertex 4.17157 5.17157 0
    endloop
  endfacet
  facet normal -0.634421 0.772988 0
    outer loop
      vertex 39.8284 5.17157 0
      vertex 39.2223 4.67412 6
      vertex 39.8284 5.17157 6
    endloop
  endfacet
  facet normal -0.634421 0.772988 0
    outer loop
      vertex 39.2223 4.67412 6
      vertex 39.8284 5.17157 0
      vertex 39.2223 4.67412 0
    endloop
  endfacet
  facet normal -0.471369 0.881936 0
    outer loop
      vertex 39.2223 4.67412 0
      vertex 38.5307 4.30448 6
      vertex 39.2223 4.67412 6
    endloop
  endfacet
  facet normal -0.471369 0.881936 0
    outer loop
      vertex 38.5307 4.30448 6
      vertex 39.2223 4.67412 0
      vertex 38.5307 4.30448 0
    endloop
  endfacet
  facet normal -0.995177 0.0980933 0
    outer loop
      vertex 40.9231 7.21964 0
      vertex 40.9784 7.78067 6
      vertex 40.9784 7.78067 0
    endloop
  endfacet
  facet normal -0.995177 0.0980933 0
    outer loop
      vertex 40.9784 7.78067 6
      vertex 40.9231 7.21964 0
      vertex 40.9231 7.21964 6
    endloop
  endfacet
  facet normal -0.881943 0.471356 0
    outer loop
      vertex 40.3259 5.77772 0
      vertex 40.6955 6.46927 6
      vertex 40.6955 6.46927 0
    endloop
  endfacet
  facet normal -0.881943 0.471356 0
    outer loop
      vertex 40.6955 6.46927 6
      vertex 40.3259 5.77772 0
      vertex 40.3259 5.77772 6
    endloop
  endfacet
  facet normal -0.290307 0.956934 0
    outer loop
      vertex 38.5307 4.30448 0
      vertex 37.7804 4.07686 6
      vertex 38.5307 4.30448 6
    endloop
  endfacet
  facet normal -0.290307 0.956934 0
    outer loop
      vertex 37.7804 4.07686 6
      vertex 38.5307 4.30448 0
      vertex 37.7804 4.07686 0
    endloop
  endfacet
  facet normal -0.956948 0.290259 0
    outer loop
      vertex 40.6955 6.46927 0
      vertex 40.9231 7.21964 6
      vertex 40.9231 7.21964 0
    endloop
  endfacet
  facet normal -0.956948 0.290259 0
    outer loop
      vertex 40.9231 7.21964 6
      vertex 40.6955 6.46927 0
      vertex 40.6955 6.46927 6
    endloop
  endfacet
  facet normal -0.772982 0.634428 0
    outer loop
      vertex 39.8284 5.17157 0
      vertex 40.3259 5.77772 6
      vertex 40.3259 5.77772 0
    endloop
  endfacet
  facet normal -0.772982 0.634428 0
    outer loop
      vertex 40.3259 5.77772 6
      vertex 39.8284 5.17157 0
      vertex 39.8284 5.17157 6
    endloop
  endfacet
  facet normal -0.0980137 0.995185 0
    outer loop
      vertex 37.7804 4.07686 0
      vertex 37 4 6
      vertex 37.7804 4.07686 6
    endloop
  endfacet
  facet normal -0.0980137 0.995185 0
    outer loop
      vertex 37 4 6
      vertex 37.7804 4.07686 0
      vertex 37 4 0
    endloop
  endfacet
  facet normal 0.0980692 -0.99518 0
    outer loop
      vertex 6.21964 24.9231 0
      vertex 7 25 6
      vertex 6.21964 24.9231 6
    endloop
  endfacet
  facet normal 0.0980692 -0.99518 0
    outer loop
      vertex 7 25 6
      vertex 6.21964 24.9231 0
      vertex 7 25 0
    endloop
  endfacet
  facet normal 0.471356 -0.881943 0
    outer loop
      vertex 4.77772 24.3259 0
      vertex 5.46927 24.6955 6
      vertex 4.77772 24.3259 6
    endloop
  endfacet
  facet normal 0.471356 -0.881943 0
    outer loop
      vertex 5.46927 24.6955 6
      vertex 4.77772 24.3259 0
      vertex 5.46927 24.6955 0
    endloop
  endfacet
  facet normal 0.772988 -0.634421 0
    outer loop
      vertex 3.67412 23.2223 6
      vertex 4.17157 23.8284 0
      vertex 4.17157 23.8284 6
    endloop
  endfacet
  facet normal 0.772988 -0.634421 0
    outer loop
      vertex 4.17157 23.8284 0
      vertex 3.67412 23.2223 6
      vertex 3.67412 23.2223 0
    endloop
  endfacet
  facet normal 0.290259 -0.956948 0
    outer loop
      vertex 5.46927 24.6955 0
      vertex 6.21964 24.9231 6
      vertex 5.46927 24.6955 6
    endloop
  endfacet
  facet normal 0.290259 -0.956948 0
    outer loop
      vertex 6.21964 24.9231 6
      vertex 5.46927 24.6955 0
      vertex 6.21964 24.9231 0
    endloop
  endfacet
  facet normal 0.995185 -0.0980137 0
    outer loop
      vertex 3 21 6
      vertex 3.07686 21.7804 0
      vertex 3.07686 21.7804 6
    endloop
  endfacet
  facet normal 0.995185 -0.0980137 0
    outer loop
      vertex 3.07686 21.7804 0
      vertex 3 21 6
      vertex 3 21 0
    endloop
  endfacet
  facet normal 0.634428 -0.772982 0
    outer loop
      vertex 4.17157 23.8284 0
      vertex 4.77772 24.3259 6
      vertex 4.17157 23.8284 6
    endloop
  endfacet
  facet normal 0.634428 -0.772982 0
    outer loop
      vertex 4.77772 24.3259 6
      vertex 4.17157 23.8284 0
      vertex 4.77772 24.3259 0
    endloop
  endfacet
  facet normal 0.956934 -0.290307 0
    outer loop
      vertex 3.07686 21.7804 6
      vertex 3.30448 22.5307 0
      vertex 3.30448 22.5307 6
    endloop
  endfacet
  facet normal 0.956934 -0.290307 0
    outer loop
      vertex 3.30448 22.5307 0
      vertex 3.07686 21.7804 6
      vertex 3.07686 21.7804 0
    endloop
  endfacet
  facet normal 0.881936 -0.471369 0
    outer loop
      vertex 3.30448 22.5307 6
      vertex 3.67412 23.2223 0
      vertex 3.67412 23.2223 6
    endloop
  endfacet
  facet normal 0.881936 -0.471369 0
    outer loop
      vertex 3.67412 23.2223 0
      vertex 3.30448 22.5307 6
      vertex 3.30448 22.5307 0
    endloop
  endfacet
  facet normal -0.934487 -0.355999 0
    outer loop
      vertex 40.9784 7.78067 0
      vertex 36.1143 20.5488 6
      vertex 36.1143 20.5488 0
    endloop
  endfacet
  facet normal -0.934487 -0.355999 0
    outer loop
      vertex 36.1143 20.5488 6
      vertex 40.9784 7.78067 0
      vertex 40.9784 7.78067 6
    endloop
  endfacet
  facet normal 0.934488 0.355994 0
    outer loop
      vertex 43.9017 8.53399 6
      vertex 38.9178 21.6168 0
      vertex 38.9178 21.6168 6
    endloop
  endfacet
  facet normal 0.934488 0.355994 0
    outer loop
      vertex 38.9178 21.6168 0
      vertex 43.9017 8.53399 6
      vertex 43.9017 8.53399 0
    endloop
  endfacet
  facet normal 0.997592 0.0693575 0
    outer loop
      vertex 43.9964 8 6
      vertex 43.979 8.25027 0
      vertex 43.979 8.25027 6
    endloop
  endfacet
  facet normal 0.997592 0.0693575 0
    outer loop
      vertex 43.979 8.25027 0
      vertex 43.9964 8 6
      vertex 43.9964 8 0
    endloop
  endfacet
  facet normal 0.964831 0.26287 0
    outer loop
      vertex 43.979 8.25027 6
      vertex 43.9017 8.53399 0
      vertex 43.9017 8.53399 6
    endloop
  endfacet
  facet normal 0.964831 0.26287 0
    outer loop
      vertex 43.9017 8.53399 0
      vertex 43.979 8.25027 6
      vertex 43.979 8.25027 0
    endloop
  endfacet
  facet normal 0.317553 0.94824 -0
    outer loop
      vertex 38.1297 22.4516 0
      vertex 37.8508 22.545 6
      vertex 38.1297 22.4516 6
    endloop
  endfacet
  facet normal 0.317553 0.94824 0
    outer loop
      vertex 37.8508 22.545 6
      vertex 38.1297 22.4516 0
      vertex 37.8508 22.545 0
    endloop
  endfacet
  facet normal -0.611796 0.791016 0
    outer loop
      vertex 36.7189 22.3534 0
      vertex 36.4863 22.1735 6
      vertex 36.7189 22.3534 6
    endloop
  endfacet
  facet normal -0.611796 0.791016 0
    outer loop
      vertex 36.4863 22.1735 6
      vertex 36.7189 22.3534 0
      vertex 36.4863 22.1735 0
    endloop
  endfacet
  facet normal -0.446125 0.894971 0
    outer loop
      vertex 36.9821 22.4846 0
      vertex 36.7189 22.3534 6
      vertex 36.9821 22.4846 6
    endloop
  endfacet
  facet normal -0.446125 0.894971 0
    outer loop
      vertex 36.7189 22.3534 6
      vertex 36.9821 22.4846 0
      vertex 36.7189 22.3534 0
    endloop
  endfacet
  facet normal -0.754386 0.656431 0
    outer loop
      vertex 36.2933 21.9517 0
      vertex 36.4863 22.1735 6
      vertex 36.4863 22.1735 0
    endloop
  endfacet
  facet normal -0.754386 0.656431 0
    outer loop
      vertex 36.4863 22.1735 6
      vertex 36.2933 21.9517 0
      vertex 36.2933 21.9517 6
    endloop
  endfacet
  facet normal -0.262571 0.964913 0
    outer loop
      vertex 37.2658 22.5618 0
      vertex 36.9821 22.4846 6
      vertex 37.2658 22.5618 6
    endloop
  endfacet
  facet normal -0.262571 0.964913 0
    outer loop
      vertex 36.9821 22.4846 6
      vertex 37.2658 22.5618 0
      vertex 36.9821 22.4846 0
    endloop
  endfacet
  facet normal 0.790851 0.612009 0
    outer loop
      vertex 38.7867 21.88 6
      vertex 38.6067 22.1126 0
      vertex 38.6067 22.1126 6
    endloop
  endfacet
  facet normal 0.790851 0.612009 0
    outer loop
      vertex 38.6067 22.1126 0
      vertex 38.7867 21.88 6
      vertex 38.7867 21.88 0
    endloop
  endfacet
  facet normal -0.964936 -0.262484 0
    outer loop
      vertex 36.1143 20.5488 0
      vertex 36.0371 20.8326 6
      vertex 36.0371 20.8326 0
    endloop
  endfacet
  facet normal -0.964936 -0.262484 0
    outer loop
      vertex 36.0371 20.8326 6
      vertex 36.1143 20.5488 0
      vertex 36.1143 20.5488 6
    endloop
  endfacet
  facet normal -0.0693857 0.99759 0
    outer loop
      vertex 37.5591 22.5822 0
      vertex 37.2658 22.5618 6
      vertex 37.5591 22.5822 6
    endloop
  endfacet
  facet normal -0.0693857 0.99759 0
    outer loop
      vertex 37.2658 22.5618 6
      vertex 37.5591 22.5822 0
      vertex 37.2658 22.5618 0
    endloop
  endfacet
  facet normal -0.99759 -0.0693857 0
    outer loop
      vertex 36.0371 20.8326 0
      vertex 36.0167 21.1259 6
      vertex 36.0167 21.1259 0
    endloop
  endfacet
  facet normal -0.99759 -0.0693857 0
    outer loop
      vertex 36.0167 21.1259 6
      vertex 36.0371 20.8326 0
      vertex 36.0371 20.8326 6
    endloop
  endfacet
  facet normal -0.868076 0.496432 0
    outer loop
      vertex 36.1473 21.6964 0
      vertex 36.2933 21.9517 6
      vertex 36.2933 21.9517 0
    endloop
  endfacet
  facet normal -0.868076 0.496432 0
    outer loop
      vertex 36.2933 21.9517 6
      vertex 36.1473 21.6964 0
      vertex 36.1473 21.6964 6
    endloop
  endfacet
  facet normal 0.656431 0.754386 -0
    outer loop
      vertex 38.6067 22.1126 0
      vertex 38.3849 22.3056 6
      vertex 38.6067 22.1126 6
    endloop
  endfacet
  facet normal 0.656431 0.754386 0
    outer loop
      vertex 38.3849 22.3056 6
      vertex 38.6067 22.1126 0
      vertex 38.3849 22.3056 0
    endloop
  endfacet
  facet normal 0.126504 0.991966 -0
    outer loop
      vertex 37.8508 22.545 0
      vertex 37.5591 22.5822 6
      vertex 37.8508 22.545 6
    endloop
  endfacet
  facet normal 0.126504 0.991966 0
    outer loop
      vertex 37.5591 22.5822 6
      vertex 37.8508 22.545 0
      vertex 37.5591 22.5822 0
    endloop
  endfacet
  facet normal -0.948206 0.317656 0
    outer loop
      vertex 36.0539 21.4176 0
      vertex 36.1473 21.6964 6
      vertex 36.1473 21.6964 0
    endloop
  endfacet
  facet normal -0.948206 0.317656 0
    outer loop
      vertex 36.1473 21.6964 6
      vertex 36.0539 21.4176 0
      vertex 36.0539 21.4176 6
    endloop
  endfacet
  facet normal 0.496578 0.867992 -0
    outer loop
      vertex 38.3849 22.3056 0
      vertex 38.1297 22.4516 6
      vertex 38.3849 22.3056 6
    endloop
  endfacet
  facet normal 0.496578 0.867992 0
    outer loop
      vertex 38.1297 22.4516 6
      vertex 38.3849 22.3056 0
      vertex 38.1297 22.4516 0
    endloop
  endfacet
  facet normal -0.991966 0.126504 0
    outer loop
      vertex 36.0167 21.1259 0
      vertex 36.0539 21.4176 6
      vertex 36.0539 21.4176 0
    endloop
  endfacet
  facet normal -0.991966 0.126504 0
    outer loop
      vertex 36.0539 21.4176 6
      vertex 36.0167 21.1259 0
      vertex 36.0167 21.1259 6
    endloop
  endfacet
  facet normal 0.895106 0.445853 0
    outer loop
      vertex 38.9178 21.6168 6
      vertex 38.7867 21.88 0
      vertex 38.7867 21.88 6
    endloop
  endfacet
  facet normal 0.895106 0.445853 0
    outer loop
      vertex 38.7867 21.88 0
      vertex 38.9178 21.6168 6
      vertex 38.9178 21.6168 0
    endloop
  endfacet
  facet normal 0.773078 -0.634311 0
    outer loop
      vertex 10.0607 25.4393 6
      vertex 10.2472 25.6666 0
      vertex 10.2472 25.6666 6
    endloop
  endfacet
  facet normal 0.773078 -0.634311 0
    outer loop
      vertex 10.2472 25.6666 0
      vertex 10.0607 25.4393 6
      vertex 10.0607 25.4393 0
    endloop
  endfacet
  facet normal 0.956904 0.290404 0
    outer loop
      vertex 10.4712 26.7926 6
      vertex 10.3858 27.074 0
      vertex 10.3858 27.074 6
    endloop
  endfacet
  facet normal 0.956904 0.290404 0
    outer loop
      vertex 10.3858 27.074 0
      vertex 10.4712 26.7926 6
      vertex 10.4712 26.7926 0
    endloop
  endfacet
  facet normal 0.471358 -0.881942 0
    outer loop
      vertex 9.57402 25.1142 0
      vertex 9.83335 25.2528 6
      vertex 9.57402 25.1142 6
    endloop
  endfacet
  facet normal 0.471358 -0.881942 0
    outer loop
      vertex 9.83335 25.2528 6
      vertex 9.57402 25.1142 0
      vertex 9.83335 25.2528 0
    endloop
  endfacet
  facet normal 0.995191 -0.0979545 0
    outer loop
      vertex 10.4712 26.2074 6
      vertex 10.5 26.5 0
      vertex 10.5 26.5 6
    endloop
  endfacet
  facet normal 0.995191 -0.0979545 0
    outer loop
      vertex 10.5 26.5 0
      vertex 10.4712 26.2074 6
      vertex 10.4712 26.2074 0
    endloop
  endfacet
  facet normal 0.881995 -0.471259 0
    outer loop
      vertex 10.2472 25.6666 6
      vertex 10.3858 25.926 0
      vertex 10.3858 25.926 6
    endloop
  endfacet
  facet normal 0.881995 -0.471259 0
    outer loop
      vertex 10.3858 25.926 0
      vertex 10.2472 25.6666 6
      vertex 10.2472 25.6666 0
    endloop
  endfacet
  facet normal 0.290413 -0.956901 0
    outer loop
      vertex 9.29263 25.0288 0
      vertex 9.57402 25.1142 6
      vertex 9.29263 25.0288 6
    endloop
  endfacet
  facet normal 0.290413 -0.956901 0
    outer loop
      vertex 9.57402 25.1142 6
      vertex 9.29263 25.0288 0
      vertex 9.57402 25.1142 0
    endloop
  endfacet
  facet normal 0.995191 0.0979545 0
    outer loop
      vertex 10.5 26.5 6
      vertex 10.4712 26.7926 0
      vertex 10.4712 26.7926 6
    endloop
  endfacet
  facet normal 0.995191 0.0979545 0
    outer loop
      vertex 10.4712 26.7926 0
      vertex 10.5 26.5 6
      vertex 10.5 26.5 0
    endloop
  endfacet
  facet normal 0.881995 0.471259 0
    outer loop
      vertex 10.3858 27.074 6
      vertex 10.2472 27.3334 0
      vertex 10.2472 27.3334 6
    endloop
  endfacet
  facet normal 0.881995 0.471259 0
    outer loop
      vertex 10.2472 27.3334 0
      vertex 10.3858 27.074 6
      vertex 10.3858 27.074 0
    endloop
  endfacet
  facet normal 0.290413 0.956901 -0
    outer loop
      vertex 9.57402 27.8858 0
      vertex 9.29263 27.9712 6
      vertex 9.57402 27.8858 6
    endloop
  endfacet
  facet normal 0.290413 0.956901 0
    outer loop
      vertex 9.29263 27.9712 6
      vertex 9.57402 27.8858 0
      vertex 9.29263 27.9712 0
    endloop
  endfacet
  facet normal 0.0979446 0.995192 -0
    outer loop
      vertex 9.29263 27.9712 0
      vertex 9 28 6
      vertex 9.29263 27.9712 6
    endloop
  endfacet
  facet normal 0.0979446 0.995192 0
    outer loop
      vertex 9 28 6
      vertex 9.29263 27.9712 0
      vertex 9 28 0
    endloop
  endfacet
  facet normal 0.634228 0.773146 -0
    outer loop
      vertex 10.0607 27.5607 0
      vertex 9.83335 27.7472 6
      vertex 10.0607 27.5607 6
    endloop
  endfacet
  facet normal 0.634228 0.773146 0
    outer loop
      vertex 9.83335 27.7472 6
      vertex 10.0607 27.5607 0
      vertex 9.83335 27.7472 0
    endloop
  endfacet
  facet normal 0.773078 0.634311 0
    outer loop
      vertex 10.2472 27.3334 6
      vertex 10.0607 27.5607 0
      vertex 10.0607 27.5607 6
    endloop
  endfacet
  facet normal 0.773078 0.634311 0
    outer loop
      vertex 10.0607 27.5607 0
      vertex 10.2472 27.3334 6
      vertex 10.2472 27.3334 0
    endloop
  endfacet
  facet normal 0.956904 -0.290404 0
    outer loop
      vertex 10.3858 25.926 6
      vertex 10.4712 26.2074 0
      vertex 10.4712 26.2074 6
    endloop
  endfacet
  facet normal 0.956904 -0.290404 0
    outer loop
      vertex 10.4712 26.2074 0
      vertex 10.3858 25.926 6
      vertex 10.3858 25.926 0
    endloop
  endfacet
  facet normal 0.471358 0.881942 -0
    outer loop
      vertex 9.83335 27.7472 0
      vertex 9.57402 27.8858 6
      vertex 9.83335 27.7472 6
    endloop
  endfacet
  facet normal 0.471358 0.881942 0
    outer loop
      vertex 9.57402 27.8858 6
      vertex 9.83335 27.7472 0
      vertex 9.57402 27.8858 0
    endloop
  endfacet
  facet normal 0.634228 -0.773146 0
    outer loop
      vertex 9.83335 25.2528 0
      vertex 10.0607 25.4393 6
      vertex 9.83335 25.2528 6
    endloop
  endfacet
  facet normal 0.634228 -0.773146 0
    outer loop
      vertex 10.0607 25.4393 6
      vertex 9.83335 25.2528 0
      vertex 10.0607 25.4393 0
    endloop
  endfacet
  facet normal 0.0979446 -0.995192 0
    outer loop
      vertex 9 25 0
      vertex 9.29263 25.0288 6
      vertex 9 25 6
    endloop
  endfacet
  facet normal 0.0979446 -0.995192 0
    outer loop
      vertex 9.29263 25.0288 6
      vertex 9 25 0
      vertex 9.29263 25.0288 0
    endloop
  endfacet
  facet normal -1 0 0
    outer loop
      vertex 38 0 0
      vertex 38 0.098491 6
      vertex 38 0.098491 0
    endloop
  endfacet
  facet normal -1 -0 0
    outer loop
      vertex 38 0.098491 6
      vertex 38 0 0
      vertex 38 0 6
    endloop
  endfacet
  facet normal 0 -1 0
    outer loop
      vertex 38 0 6
      vertex 48 0 5.99625
      vertex 48 0 6
    endloop
  endfacet
  facet normal 0 -1 0
    outer loop
      vertex 38 0 0
      vertex 48 0 5.99625
      vertex 38 0 6
    endloop
  endfacet
  facet normal 0 -1 -0
    outer loop
      vertex 48 0 5.99625
      vertex 38 0 0
      vertex 56 0 3
    endloop
  endfacet
  facet normal 0 -1 0
    outer loop
      vertex 61.99 0 0
      vertex 56 0 3
      vertex 38 0 0
    endloop
  endfacet
  facet normal 0 -1 0
    outer loop
      vertex 56 0 3
      vertex 61.99 0 0
      vertex 61.99 0 3
    endloop
  endfacet
  facet normal -0 0 1
    outer loop
      vertex 61.3687 8.87868 3
      vertex 62.6113 2.86054 3
      vertex 62.6113 9.5 3
    endloop
  endfacet
  facet normal 0 0 1
    outer loop
      vertex 61.99 10.1213 3
      vertex 62.6113 9.5 3
      vertex 62.4293 9.93934 3
    endloop
  endfacet
  facet normal 0 -0 1
    outer loop
      vertex 61.99 0 3
      vertex 62.6113 2.86054 3
      vertex 61.3687 3 3
    endloop
  endfacet
  facet normal 0 0 1
    outer loop
      vertex 62.6113 9.5 3
      vertex 61.99 10.1213 3
      vertex 61.3687 8.87868 3
    endloop
  endfacet
  facet normal 0 0 1
    outer loop
      vertex 62.6113 2.86054 3
      vertex 62.2826 0.0288229 3
      vertex 62.564 0.114182 3
    endloop
  endfacet
  facet normal 0 0 1
    outer loop
      vertex 62.6113 2.86054 3
      vertex 61.3687 8.87868 3
      vertex 61.3687 3 3
    endloop
  endfacet
  facet normal 0 0 1
    outer loop
      vertex 61.99 10.1213 3
      vertex 54.6113 8.87868 3
      vertex 61.3687 8.87868 3
    endloop
  endfacet
  facet normal 0 0 1
    outer loop
      vertex 53.3687 5.5 3
      vertex 54.6113 5.5 3
      vertex 54.6113 8.87868 3
    endloop
  endfacet
  facet normal -0 0 1
    outer loop
      vertex 53.99 10.1213 3
      vertex 54.6113 8.87868 3
      vertex 61.99 10.1213 3
    endloop
  endfacet
  facet normal -0 0 1
    outer loop
      vertex 53.3687 9.5 3
      vertex 54.6113 8.87868 3
      vertex 53.99 10.1213 3
    endloop
  endfacet
  facet normal 0 0 1
    outer loop
      vertex 53.3687 5.5 3
      vertex 54.6113 8.87868 3
      vertex 53.3687 9.5 3
    endloop
  endfacet
  facet normal 0 0 1
    outer loop
      vertex 53.3687 9.5 3
      vertex 53.99 10.1213 3
      vertex 53.5507 9.93934 3
    endloop
  endfacet
  facet normal 0 0 1
    outer loop
      vertex 54.6113 5.5 3
      vertex 53.3687 5.5 3
      vertex 54.4293 5.06066 3
    endloop
  endfacet
  facet normal 0 0 1
    outer loop
      vertex 54.4293 5.06066 3
      vertex 53.3687 5.5 3
      vertex 53.99 4.87868 3
    endloop
  endfacet
  facet normal 0 0 1
    outer loop
      vertex 53.99 4.87868 3
      vertex 53.3687 5.5 3
      vertex 53.5507 5.06066 3
    endloop
  endfacet
  facet normal 0 0 1
    outer loop
      vertex 63.4612 1.79263 3
      vertex 63.4612 1.20737 3
      vertex 63.49 1.5 3
    endloop
  endfacet
  facet normal 0 0 1
    outer loop
      vertex 63.3758 2.07402 3
      vertex 63.4612 1.20737 3
      vertex 63.4612 1.79263 3
    endloop
  endfacet
  facet normal 0 0 1
    outer loop
      vertex 63.3758 2.07402 3
      vertex 63.3758 0.925976 3
      vertex 63.4612 1.20737 3
    endloop
  endfacet
  facet normal 0 0 1
    outer loop
      vertex 63.2372 2.33335 3
      vertex 63.3758 0.925976 3
      vertex 63.3758 2.07402 3
    endloop
  endfacet
  facet normal 0 0 1
    outer loop
      vertex 63.2372 2.33335 3
      vertex 63.2372 0.666645 3
      vertex 63.3758 0.925976 3
    endloop
  endfacet
  facet normal 0 0 1
    outer loop
      vertex 63.0507 2.56066 3
      vertex 63.2372 0.666645 3
      vertex 63.2372 2.33335 3
    endloop
  endfacet
  facet normal 0 0 1
    outer loop
      vertex 63.0507 2.56066 3
      vertex 63.0507 0.439341 3
      vertex 63.2372 0.666645 3
    endloop
  endfacet
  facet normal 0 0 1
    outer loop
      vertex 62.6113 2.86054 3
      vertex 63.0507 2.56066 3
      vertex 62.8234 2.7472 3
    endloop
  endfacet
  facet normal 0 0 1
    outer loop
      vertex 63.0507 2.56066 3
      vertex 62.6113 2.86054 3
      vertex 63.0507 0.439341 3
    endloop
  endfacet
  facet normal 0 0 1
    outer loop
      vertex 63.0507 0.439341 3
      vertex 62.6113 2.86054 3
      vertex 62.8234 0.252796 3
    endloop
  endfacet
  facet normal 0 0 1
    outer loop
      vertex 62.8234 0.252796 3
      vertex 62.6113 2.86054 3
      vertex 62.564 0.114182 3
    endloop
  endfacet
  facet normal 0 0 1
    outer loop
      vertex 62.6113 2.86054 3
      vertex 61.99 0 3
      vertex 62.2826 0.0288229 3
    endloop
  endfacet
  facet normal 0 0 1
    outer loop
      vertex 56 0 3
      vertex 61.3687 3 3
      vertex 56 3 3
    endloop
  endfacet
  facet normal 0 0 1
    outer loop
      vertex 61.3687 3 3
      vertex 56 0 3
      vertex 61.99 0 3
    endloop
  endfacet
  facet normal 0 1 -0
    outer loop
      vertex 60.49 3 2.12132
      vertex 56 3 3
      vertex 61.3687 3 3
    endloop
  endfacet
  facet normal 0 1 -0
    outer loop
      vertex 60.49 3 0.878679
      vertex 56 3 3
      vertex 60.49 3 2.12132
    endloop
  endfacet
  facet normal 0 1 0
    outer loop
      vertex 56 3 0
      vertex 60.49 3 0.878679
      vertex 61.3687 3 0
    endloop
  endfacet
  facet normal 0 1 0
    outer loop
      vertex 60.49 3 0.878679
      vertex 56 3 0
      vertex 56 3 3
    endloop
  endfacet
  facet normal 0.773083 -0.634305 0
    outer loop
      vertex 63.0507 0.439341 3
      vertex 63.2372 0.666645 0
      vertex 63.2372 0.666645 3
    endloop
  endfacet
  facet normal 0.773083 -0.634305 0
    outer loop
      vertex 63.2372 0.666645 0
      vertex 63.0507 0.439341 3
      vertex 63.0507 0.439341 0
    endloop
  endfacet
  facet normal 0.956901 0.290413 0
    outer loop
      vertex 63.4612 1.79263 3
      vertex 63.3758 2.07402 2.2355
      vertex 63.3758 2.07402 3
    endloop
  endfacet
  facet normal 0.956901 0.290413 0
    outer loop
      vertex 63.3758 2.07402 2.2355
      vertex 63.4612 1.79263 3
      vertex 63.4612 1.79263 2.15014
    endloop
  endfacet
  facet normal 0.956901 0.290413 -0
    outer loop
      vertex 63.4612 1.79263 0
      vertex 63.3758 2.07402 0.764498
      vertex 63.4612 1.79263 0.849856
    endloop
  endfacet
  facet normal 0.956901 0.290413 0
    outer loop
      vertex 63.3758 2.07402 0.764498
      vertex 63.4612 1.79263 0
      vertex 63.3758 2.07402 0
    endloop
  endfacet
  facet normal 0.995192 0.0979446 0
    outer loop
      vertex 63.49 1.5 3
      vertex 63.4612 1.79263 2.15014
      vertex 63.4612 1.79263 3
    endloop
  endfacet
  facet normal 0.995192 0.0979446 0
    outer loop
      vertex 63.4612 1.79263 2.15014
      vertex 63.49 1.5 3
      vertex 63.49 1.5 2.12132
    endloop
  endfacet
  facet normal 0.995192 0.0979446 -0
    outer loop
      vertex 63.49 1.5 0
      vertex 63.4612 1.79263 0.849856
      vertex 63.49 1.5 0.878679
    endloop
  endfacet
  facet normal 0.995192 0.0979446 0
    outer loop
      vertex 63.4612 1.79263 0.849856
      vertex 63.49 1.5 0
      vertex 63.4612 1.79263 0
    endloop
  endfacet
  facet normal 0.881942 0.471358 0
    outer loop
      vertex 63.3758 2.07402 3
      vertex 63.2372 2.33335 2.37412
      vertex 63.2372 2.33335 3
    endloop
  endfacet
  facet normal 0.881942 0.471358 0
    outer loop
      vertex 63.2372 2.33335 2.37412
      vertex 63.3758 2.07402 3
      vertex 63.3758 2.07402 2.2355
    endloop
  endfacet
  facet normal 0.881942 0.471358 -0
    outer loop
      vertex 63.3758 2.07402 0
      vertex 63.2372 2.33335 0.625883
      vertex 63.3758 2.07402 0.764498
    endloop
  endfacet
  facet normal 0.881942 0.471358 0
    outer loop
      vertex 63.2372 2.33335 0.625883
      vertex 63.3758 2.07402 0
      vertex 63.2372 2.33335 0
    endloop
  endfacet
  facet normal 0.995192 -0.0979446 0
    outer loop
      vertex 63.4612 1.20737 3
      vertex 63.49 1.5 2.12132
      vertex 63.49 1.5 3
    endloop
  endfacet
  facet normal 0.995192 -0.0979446 0
    outer loop
      vertex 63.49 1.5 2.12132
      vertex 63.4612 1.20737 3
      vertex 63.49 1.5 0.878679
    endloop
  endfacet
  facet normal 0.995192 -0.0979446 0
    outer loop
      vertex 63.4612 1.20737 0
      vertex 63.49 1.5 0.878679
      vertex 63.4612 1.20737 3
    endloop
  endfacet
  facet normal 0.995192 -0.0979446 0
    outer loop
      vertex 63.49 1.5 0.878679
      vertex 63.4612 1.20737 0
      vertex 63.49 1.5 0
    endloop
  endfacet
  facet normal 0.290276 -0.956943 0
    outer loop
      vertex 62.2826 0.0288229 0
      vertex 62.564 0.114182 3
      vertex 62.2826 0.0288229 3
    endloop
  endfacet
  facet normal 0.290276 -0.956943 0
    outer loop
      vertex 62.564 0.114182 3
      vertex 62.2826 0.0288229 0
      vertex 62.564 0.114182 0
    endloop
  endfacet
  facet normal 0.956902 -0.290409 0
    outer loop
      vertex 63.3758 0.925976 3
      vertex 63.4612 1.20737 0
      vertex 63.4612 1.20737 3
    endloop
  endfacet
  facet normal 0.956902 -0.290409 0
    outer loop
      vertex 63.4612 1.20737 0
      vertex 63.3758 0.925976 3
      vertex 63.3758 0.925976 0
    endloop
  endfacet
  facet normal 0.4713 0.881973 -0
    outer loop
      vertex 62.8234 2.7472 0
      vertex 62.6113 2.86054 0
      vertex 62.8234 2.7472 0.212035
    endloop
  endfacet
  facet normal 0.4713 0.881973 -0
    outer loop
      vertex 62.8234 2.7472 2.78796
      vertex 62.6113 2.86054 3
      vertex 62.8234 2.7472 3
    endloop
  endfacet
  facet normal 0.773091 0.634295 0
    outer loop
      vertex 63.2372 2.33335 3
      vertex 63.0507 2.56066 2.56066
      vertex 63.0507 2.56066 3
    endloop
  endfacet
  facet normal 0.773091 0.634295 0
    outer loop
      vertex 63.0507 2.56066 2.56066
      vertex 63.2372 2.33335 3
      vertex 63.2372 2.33335 2.37412
    endloop
  endfacet
  facet normal 0.773091 0.634295 -0
    outer loop
      vertex 63.2372 2.33335 0
      vertex 63.0507 2.56066 0.439339
      vertex 63.2372 2.33335 0.625883
    endloop
  endfacet
  facet normal 0.773091 0.634295 0
    outer loop
      vertex 63.0507 2.56066 0.439339
      vertex 63.2372 2.33335 0
      vertex 63.0507 2.56066 0
    endloop
  endfacet
  facet normal 0.471296 -0.881975 0
    outer loop
      vertex 62.564 0.114182 0
      vertex 62.8234 0.252796 3
      vertex 62.564 0.114182 3
    endloop
  endfacet
  facet normal 0.471296 -0.881975 0
    outer loop
      vertex 62.8234 0.252796 3
      vertex 62.564 0.114182 0
      vertex 62.8234 0.252796 0
    endloop
  endfacet
  facet normal 0.881943 -0.471356 0
    outer loop
      vertex 63.2372 0.666645 3
      vertex 63.3758 0.925976 0
      vertex 63.3758 0.925976 3
    endloop
  endfacet
  facet normal 0.881943 -0.471356 0
    outer loop
      vertex 63.3758 0.925976 0
      vertex 63.2372 0.666645 3
      vertex 63.2372 0.666645 0
    endloop
  endfacet
  facet normal 0.634393 0.773011 0
    outer loop
      vertex 63.0507 2.56066 3
      vertex 62.8234 2.7472 2.78796
      vertex 62.8234 2.7472 3
    endloop
  endfacet
  facet normal 0.634393 0.773011 0
    outer loop
      vertex 62.8234 2.7472 2.78796
      vertex 63.0507 2.56066 3
      vertex 63.0507 2.56066 2.56066
    endloop
  endfacet
  facet normal 0.634393 0.773011 -0
    outer loop
      vertex 63.0507 2.56066 0
      vertex 62.8234 2.7472 0.212035
      vertex 63.0507 2.56066 0.439339
    endloop
  endfacet
  facet normal 0.634393 0.773011 0
    outer loop
      vertex 62.8234 2.7472 0.212035
      vertex 63.0507 2.56066 0
      vertex 62.8234 2.7472 0
    endloop
  endfacet
  facet normal 0.634403 -0.773003 0
    outer loop
      vertex 62.8234 0.252796 0
      vertex 63.0507 0.439341 3
      vertex 62.8234 0.252796 3
    endloop
  endfacet
  facet normal 0.634403 -0.773003 0
    outer loop
      vertex 63.0507 0.439341 3
      vertex 62.8234 0.252796 0
      vertex 63.0507 0.439341 0
    endloop
  endfacet
  facet normal 0.0980317 -0.995183 0
    outer loop
      vertex 61.99 0 0
      vertex 62.2826 0.0288229 3
      vertex 61.99 0 3
    endloop
  endfacet
  facet normal 0.0980317 -0.995183 0
    outer loop
      vertex 62.2826 0.0288229 3
      vertex 61.99 0 0
      vertex 62.2826 0.0288229 0
    endloop
  endfacet
  facet normal -1 0 0
    outer loop
      vertex 60.49 3 0.878679
      vertex 60.49 8 2.12132
      vertex 60.49 8 0.878679
    endloop
  endfacet
  facet normal -1 -0 0
    outer loop
      vertex 60.49 8 2.12132
      vertex 60.49 3 0.878679
      vertex 60.49 3 2.12132
    endloop
  endfacet
  facet normal 1 -0 0
    outer loop
      vertex 63.49 1.5 2.12132
      vertex 63.49 9.5 0.878679
      vertex 63.49 9.5 2.12132
    endloop
  endfacet
  facet normal 1 0 0
    outer loop
      vertex 63.49 9.5 0.878679
      vertex 63.49 1.5 2.12132
      vertex 63.49 1.5 0.878679
    endloop
  endfacet
  facet normal 0.281046 0.678591 -0.678622
    outer loop
      vertex 62.4293 9.93934 0
      vertex 61.99 11 0.878679
      vertex 63.0507 10.5607 0.878679
    endloop
  endfacet
  facet normal 0.678583 0.281042 0.678631
    outer loop
      vertex 63.0507 10.5607 2.12132
      vertex 62.4293 9.93934 3
      vertex 63.49 9.5 2.12132
    endloop
  endfacet
  facet normal 0.923897 0.382642 0
    outer loop
      vertex 63.49 9.5 2.12132
      vertex 63.0507 10.5607 0.878679
      vertex 63.0507 10.5607 2.12132
    endloop
  endfacet
  facet normal 0.923897 0.382642 0
    outer loop
      vertex 63.0507 10.5607 0.878679
      vertex 63.49 9.5 2.12132
      vertex 63.49 9.5 0.878679
    endloop
  endfacet
  facet normal 0.382642 0.923897 -0
    outer loop
      vertex 63.0507 10.5607 0.878679
      vertex 61.99 11 2.12132
      vertex 63.0507 10.5607 2.12132
    endloop
  endfacet
  facet normal 0.382642 0.923897 0
    outer loop
      vertex 61.99 11 2.12132
      vertex 63.0507 10.5607 0.878679
      vertex 61.99 11 0.878679
    endloop
  endfacet
  facet normal 0.678583 0.281042 -0.678632
    outer loop
      vertex 63.49 9.5 0.878679
      vertex 62.4293 9.93934 0
      vertex 63.0507 10.5607 0.878679
    endloop
  endfacet
  facet normal 0.281076 0.678592 0.678608
    outer loop
      vertex 61.99 11 2.12132
      vertex 61.99 10.1213 3
      vertex 62.4293 9.93934 3
    endloop
  endfacet
  facet normal 0.281046 0.678591 0.678622
    outer loop
      vertex 63.0507 10.5607 2.12132
      vertex 61.99 11 2.12132
      vertex 62.4293 9.93934 3
    endloop
  endfacet
  facet normal 0.678586 0.281109 0.678601
    outer loop
      vertex 63.49 9.5 2.12132
      vertex 62.4293 9.93934 3
      vertex 62.6113 9.5 3
    endloop
  endfacet
  facet normal 0.281076 0.678592 -0.678608
    outer loop
      vertex 62.4293 9.93934 0
      vertex 61.99 10.1213 0
      vertex 61.99 11 0.878679
    endloop
  endfacet
  facet normal 0.678585 0.281109 -0.678601
    outer loop
      vertex 62.6113 9.5 0
      vertex 62.4293 9.93934 0
      vertex 63.49 9.5 0.878679
    endloop
  endfacet
  facet normal 0.707352 0 0.706861
    outer loop
      vertex 63.49 9.5 2.12132
      vertex 63.4612 1.79263 2.15014
      vertex 63.49 1.5 2.12132
    endloop
  endfacet
  facet normal 0.706946 3.03579e-06 0.707267
    outer loop
      vertex 63.49 9.5 2.12132
      vertex 63.3758 2.07402 2.2355
      vertex 63.4612 1.79263 2.15014
    endloop
  endfacet
  facet normal 0.707155 -3.37618e-06 0.707059
    outer loop
      vertex 63.49 9.5 2.12132
      vertex 63.2372 2.33335 2.37412
      vertex 63.3758 2.07402 2.2355
    endloop
  endfacet
  facet normal 0.707179 -5.12862e-06 0.707034
    outer loop
      vertex 63.49 9.5 2.12132
      vertex 63.0507 2.56066 2.56066
      vertex 63.2372 2.33335 2.37412
    endloop
  endfacet
  facet normal 0.707108 3.87462e-06 0.707105
    outer loop
      vertex 63.49 9.5 2.12132
      vertex 62.8234 2.7472 2.78796
      vertex 63.0507 2.56066 2.56066
    endloop
  endfacet
  facet normal 0.707099 -0 0.707115
    outer loop
      vertex 62.6113 2.86054 3
      vertex 63.49 9.5 2.12132
      vertex 62.6113 9.5 3
    endloop
  endfacet
  facet normal 0.707013 2.27382e-05 0.707201
    outer loop
      vertex 63.49 9.5 2.12132
      vertex 62.6113 2.86054 3
      vertex 62.8234 2.7472 2.78796
    endloop
  endfacet
  facet normal -0.707099 0 0.707115
    outer loop
      vertex 61.3687 3 3
      vertex 60.49 8 2.12132
      vertex 60.49 3 2.12132
    endloop
  endfacet
  facet normal -0.707099 0 0.707115
    outer loop
      vertex 60.49 8 2.12132
      vertex 61.3687 3 3
      vertex 61.3687 8.87868 3
    endloop
  endfacet
  facet normal -0.707098 0 -0.707115
    outer loop
      vertex 61.3687 3 0
      vertex 60.49 8 0.878679
      vertex 61.3687 8.87868 0
    endloop
  endfacet
  facet normal -0.707098 -0 -0.707115
    outer loop
      vertex 60.49 8 0.878679
      vertex 61.3687 3 0
      vertex 60.49 3 0.878679
    endloop
  endfacet
  facet normal 0.707389 0 -0.706824
    outer loop
      vertex 63.4612 1.79263 0.849856
      vertex 63.49 9.5 0.878679
      vertex 63.49 1.5 0.878679
    endloop
  endfacet
  facet normal 0.706938 3.36891e-06 -0.707275
    outer loop
      vertex 63.3758 2.07402 0.764498
      vertex 63.49 9.5 0.878679
      vertex 63.4612 1.79263 0.849856
    endloop
  endfacet
  facet normal 0.707142 -2.90239e-06 -0.707071
    outer loop
      vertex 63.2372 2.33335 0.625883
      vertex 63.49 9.5 0.878679
      vertex 63.3758 2.07402 0.764498
    endloop
  endfacet
  facet normal 0.707187 -6.01978e-06 -0.707027
    outer loop
      vertex 63.0507 2.56066 0.439339
      vertex 63.49 9.5 0.878679
      vertex 63.2372 2.33335 0.625883
    endloop
  endfacet
  facet normal 0.707114 3.12575e-06 -0.707099
    outer loop
      vertex 62.8234 2.7472 0.212035
      vertex 63.49 9.5 0.878679
      vertex 63.0507 2.56066 0.439339
    endloop
  endfacet
  facet normal 0.707005 2.46996e-05 -0.707209
    outer loop
      vertex 62.6113 2.86054 0
      vertex 63.49 9.5 0.878679
      vertex 62.8234 2.7472 0.212035
    endloop
  endfacet
  facet normal 0.707098 0 -0.707115
    outer loop
      vertex 63.49 9.5 0.878679
      vertex 62.6113 2.86054 0
      vertex 62.6113 9.5 0
    endloop
  endfacet
  facet normal 0 -1 0
    outer loop
      vertex 55.49 8 0.878679
      vertex 60.49 8 2.12132
      vertex 55.49 8 2.12132
    endloop
  endfacet
  facet normal 0 -1 -0
    outer loop
      vertex 60.49 8 2.12132
      vertex 55.49 8 0.878679
      vertex 60.49 8 0.878679
    endloop
  endfacet
  facet normal 0 1 -0
    outer loop
      vertex 61.99 11 0.878679
      vertex 53.99 11 2.12132
      vertex 61.99 11 2.12132
    endloop
  endfacet
  facet normal 0 1 0
    outer loop
      vertex 53.99 11 2.12132
      vertex 61.99 11 0.878679
      vertex 53.99 11 0.878679
    endloop
  endfacet
  facet normal -0.678583 0.281042 -0.678632
    outer loop
      vertex 53.5507 9.93934 0
      vertex 52.49 9.5 0.878679
      vertex 52.9293 10.5607 0.878679
    endloop
  endfacet
  facet normal -0.281046 0.678591 0.678622
    outer loop
      vertex 53.99 11 2.12132
      vertex 52.9293 10.5607 2.12132
      vertex 53.5507 9.93934 3
    endloop
  endfacet
  facet normal -0.382642 0.923897 0
    outer loop
      vertex 53.99 11 0.878679
      vertex 52.9293 10.5607 2.12132
      vertex 53.99 11 2.12132
    endloop
  endfacet
  facet normal -0.382642 0.923897 0
    outer loop
      vertex 52.9293 10.5607 2.12132
      vertex 53.99 11 0.878679
      vertex 52.9293 10.5607 0.878679
    endloop
  endfacet
  facet normal -0.923897 0.382642 0
    outer loop
      vertex 52.49 9.5 0.878679
      vertex 52.9293 10.5607 2.12132
      vertex 52.9293 10.5607 0.878679
    endloop
  endfacet
  facet normal -0.923897 0.382642 0
    outer loop
      vertex 52.9293 10.5607 2.12132
      vertex 52.49 9.5 0.878679
      vertex 52.49 9.5 2.12132
    endloop
  endfacet
  facet normal -0.281046 0.678591 -0.678622
    outer loop
      vertex 53.5507 9.93934 0
      vertex 52.9293 10.5607 0.878679
      vertex 53.99 11 0.878679
    endloop
  endfacet
  facet normal -0.678586 0.281109 0.678601
    outer loop
      vertex 53.5507 9.93934 3
      vertex 52.49 9.5 2.12132
      vertex 53.3687 9.5 3
    endloop
  endfacet
  facet normal -0.678583 0.281042 0.678631
    outer loop
      vertex 52.9293 10.5607 2.12132
      vertex 52.49 9.5 2.12132
      vertex 53.5507 9.93934 3
    endloop
  endfacet
  facet normal -0.281076 0.678592 0.678608
    outer loop
      vertex 53.99 11 2.12132
      vertex 53.5507 9.93934 3
      vertex 53.99 10.1213 3
    endloop
  endfacet
  facet normal -0.678585 0.281109 -0.678601
    outer loop
      vertex 53.3687 9.5 0
      vertex 52.49 9.5 0.878679
      vertex 53.5507 9.93934 0
    endloop
  endfacet
  facet normal -0.281076 0.678592 -0.678608
    outer loop
      vertex 53.99 10.1213 0
      vertex 53.5507 9.93934 0
      vertex 53.99 11 0.878679
    endloop
  endfacet
  facet normal 0 0.707099 0.707115
    outer loop
      vertex 61.99 11 2.12132
      vertex 53.99 10.1213 3
      vertex 61.99 10.1213 3
    endloop
  endfacet
  facet normal 0 0.707099 0.707115
    outer loop
      vertex 53.99 10.1213 3
      vertex 61.99 11 2.12132
      vertex 53.99 11 2.12132
    endloop
  endfacet
  facet normal 0 -0.707107 0.707107
    outer loop
      vertex 55.49 8 2.12132
      vertex 61.3687 8.87868 3
      vertex 54.6113 8.87868 3
    endloop
  endfacet
  facet normal 0 -0.707107 0.707107
    outer loop
      vertex 61.3687 8.87868 3
      vertex 55.49 8 2.12132
      vertex 60.49 8 2.12132
    endloop
  endfacet
  facet normal 0 -0.707106 -0.707107
    outer loop
      vertex 55.49 8 0.878679
      vertex 61.3687 8.87868 0
      vertex 60.49 8 0.878679
    endloop
  endfacet
  facet normal -0 -0.707106 -0.707107
    outer loop
      vertex 61.3687 8.87868 0
      vertex 55.49 8 0.878679
      vertex 54.6113 8.87868 0
    endloop
  endfacet
  facet normal 0 0.707098 -0.707115
    outer loop
      vertex 53.99 10.1213 0
      vertex 61.99 11 0.878679
      vertex 61.99 10.1213 0
    endloop
  endfacet
  facet normal 0 0.707098 -0.707115
    outer loop
      vertex 61.99 11 0.878679
      vertex 53.99 10.1213 0
      vertex 53.99 11 0.878679
    endloop
  endfacet
  facet normal 1 -0 0
    outer loop
      vertex 55.49 5.5 2.12132
      vertex 55.49 8 0.878679
      vertex 55.49 8 2.12132
    endloop
  endfacet
  facet normal 1 0 0
    outer loop
      vertex 55.49 8 0.878679
      vertex 55.49 5.5 2.12132
      vertex 55.49 5.5 0.878679
    endloop
  endfacet
  facet normal -1 0 0
    outer loop
      vertex 52.49 5.5 0.878679
      vertex 52.49 9.5 2.12132
      vertex 52.49 9.5 0.878679
    endloop
  endfacet
  facet normal -1 -0 0
    outer loop
      vertex 52.49 9.5 2.12132
      vertex 52.49 5.5 0.878679
      vertex 52.49 5.5 2.12132
    endloop
  endfacet
  facet normal 0.281072 -0.678592 0.67861
    outer loop
      vertex 54.4293 5.06066 3
      vertex 53.99 4 2.12132
      vertex 55.0507 4.43934 2.12132
    endloop
  endfacet
  facet normal 0.281107 -0.678594 0.678594
    outer loop
      vertex 53.99 4.87868 3
      vertex 53.99 4 2.12132
      vertex 54.4293 5.06066 3
    endloop
  endfacet
  facet normal -0.281107 -0.678593 -0.678594
    outer loop
      vertex 53.99 4 0.878679
      vertex 53.5507 5.06066 0
      vertex 53.99 4.87868 0
    endloop
  endfacet
  facet normal 0.923892 -0.382654 0
    outer loop
      vertex 55.0507 4.43934 2.12132
      vertex 55.49 5.5 0.878679
      vertex 55.49 5.5 2.12132
    endloop
  endfacet
  facet normal 0.923892 -0.382654 0
    outer loop
      vertex 55.49 5.5 0.878679
      vertex 55.0507 4.43934 2.12132
      vertex 55.0507 4.43934 0.878679
    endloop
  endfacet
  facet normal 0.382671 -0.923885 0
    outer loop
      vertex 53.99 4 0.878679
      vertex 55.0507 4.43934 2.12132
      vertex 53.99 4 2.12132
    endloop
  endfacet
  facet normal 0.382671 -0.923885 0
    outer loop
      vertex 55.0507 4.43934 2.12132
      vertex 53.99 4 0.878679
      vertex 55.0507 4.43934 0.878679
    endloop
  endfacet
  facet normal 0.678583 -0.281053 0.678626
    outer loop
      vertex 55.49 5.5 2.12132
      vertex 54.4293 5.06066 3
      vertex 55.0507 4.43934 2.12132
    endloop
  endfacet
  facet normal -0.281072 -0.678592 0.67861
    outer loop
      vertex 53.5507 5.06066 3
      vertex 52.9293 4.43934 2.12132
      vertex 53.99 4 2.12132
    endloop
  endfacet
  facet normal -0.678583 -0.281053 0.678626
    outer loop
      vertex 53.5507 5.06066 3
      vertex 52.49 5.5 2.12132
      vertex 52.9293 4.43934 2.12132
    endloop
  endfacet
  facet normal -0.678583 -0.281053 -0.678627
    outer loop
      vertex 52.9293 4.43934 0.878679
      vertex 52.49 5.5 0.878679
      vertex 53.5507 5.06066 0
    endloop
  endfacet
  facet normal 0.281107 -0.678593 -0.678594
    outer loop
      vertex 54.4293 5.06066 0
      vertex 53.99 4 0.878679
      vertex 53.99 4.87868 0
    endloop
  endfacet
  facet normal 0.281072 -0.678592 -0.67861
    outer loop
      vertex 55.0507 4.43934 0.878679
      vertex 53.99 4 0.878679
      vertex 54.4293 5.06066 0
    endloop
  endfacet
  facet normal 0.678586 -0.281109 0.678601
    outer loop
      vertex 54.6113 5.5 3
      vertex 54.4293 5.06066 3
      vertex 55.49 5.5 2.12132
    endloop
  endfacet
  facet normal -0.281072 -0.678592 -0.67861
    outer loop
      vertex 53.99 4 0.878679
      vertex 52.9293 4.43934 0.878679
      vertex 53.5507 5.06066 0
    endloop
  endfacet
  facet normal -0.923892 -0.382654 0
    outer loop
      vertex 52.9293 4.43934 0.878679
      vertex 52.49 5.5 2.12132
      vertex 52.49 5.5 0.878679
    endloop
  endfacet
  facet normal -0.923892 -0.382654 0
    outer loop
      vertex 52.49 5.5 2.12132
      vertex 52.9293 4.43934 0.878679
      vertex 52.9293 4.43934 2.12132
    endloop
  endfacet
  facet normal -0.281107 -0.678594 0.678594
    outer loop
      vertex 53.99 4.87868 3
      vertex 53.5507 5.06066 3
      vertex 53.99 4 2.12132
    endloop
  endfacet
  facet normal 0.678583 -0.281053 -0.678627
    outer loop
      vertex 55.0507 4.43934 0.878679
      vertex 54.4293 5.06066 0
      vertex 55.49 5.5 0.878679
    endloop
  endfacet
  facet normal -0.382671 -0.923885 0
    outer loop
      vertex 52.9293 4.43934 0.878679
      vertex 53.99 4 2.12132
      vertex 52.9293 4.43934 2.12132
    endloop
  endfacet
  facet normal -0.382671 -0.923885 -0
    outer loop
      vertex 53.99 4 2.12132
      vertex 52.9293 4.43934 0.878679
      vertex 53.99 4 0.878679
    endloop
  endfacet
  facet normal -0.678586 -0.281109 0.678601
    outer loop
      vertex 53.3687 5.5 3
      vertex 52.49 5.5 2.12132
      vertex 53.5507 5.06066 3
    endloop
  endfacet
  facet normal 0.678585 -0.281109 -0.678601
    outer loop
      vertex 55.49 5.5 0.878679
      vertex 54.4293 5.06066 0
      vertex 54.6113 5.5 0
    endloop
  endfacet
  facet normal -0.678585 -0.281109 -0.678601
    outer loop
      vertex 53.5507 5.06066 0
      vertex 52.49 5.5 0.878679
      vertex 53.3687 5.5 0
    endloop
  endfacet
  facet normal -0.707099 0 0.707115
    outer loop
      vertex 52.49 5.5 2.12132
      vertex 53.3687 9.5 3
      vertex 52.49 9.5 2.12132
    endloop
  endfacet
  facet normal -0.707099 0 0.707115
    outer loop
      vertex 53.3687 9.5 3
      vertex 52.49 5.5 2.12132
      vertex 53.3687 5.5 3
    endloop
  endfacet
  facet normal 0.707099 -0 0.707115
    outer loop
      vertex 54.6113 5.5 3
      vertex 55.49 8 2.12132
      vertex 54.6113 8.87868 3
    endloop
  endfacet
  facet normal 0.707099 0 0.707115
    outer loop
      vertex 55.49 8 2.12132
      vertex 54.6113 5.5 3
      vertex 55.49 5.5 2.12132
    endloop
  endfacet
  facet normal 0.707098 0 -0.707115
    outer loop
      vertex 54.6113 5.5 0
      vertex 55.49 8 0.878679
      vertex 55.49 5.5 0.878679
    endloop
  endfacet
  facet normal 0.707098 0 -0.707115
    outer loop
      vertex 55.49 8 0.878679
      vertex 54.6113 5.5 0
      vertex 54.6113 8.87868 0
    endloop
  endfacet
  facet normal -0.707098 0 -0.707115
    outer loop
      vertex 53.3687 5.5 0
      vertex 52.49 9.5 0.878679
      vertex 53.3687 9.5 0
    endloop
  endfacet
  facet normal -0.707098 -0 -0.707115
    outer loop
      vertex 52.49 9.5 0.878679
      vertex 53.3687 5.5 0
      vertex 52.49 5.5 0.878679
    endloop
  endfacet
  facet normal 1 -0 0
    outer loop
      vertex 48 0 6
      vertex 48 1 5.99625
      vertex 48 1 6
    endloop
  endfacet
  facet normal 1 0 0
    outer loop
      vertex 48 1 5.99625
      vertex 48 0 6
      vertex 48 0 5.99625
    endloop
  endfacet
  facet normal 0.350739 -0 0.936473
    outer loop
      vertex 48 1 5.99625
      vertex 56 3 3
      vertex 48 3.99875 5.99625
    endloop
  endfacet
  facet normal 0.350739 0 0.936473
    outer loop
      vertex 56 3 3
      vertex 48 1 5.99625
      vertex 56 0 3
    endloop
  endfacet
  facet normal 0.350739 0 0.936473
    outer loop
      vertex 56 0 3
      vertex 48 1 5.99625
      vertex 48 0 5.99625
    endloop
  endfacet
  facet normal 0.123882 0.992297 0
    outer loop
      vertex 48 3.99875 0
      vertex 56 3 3
      vertex 56 3 0
    endloop
  endfacet
  facet normal 0.123882 0.992297 0
    outer loop
      vertex 56 3 3
      vertex 48 3.99875 0
      vertex 48 3.99875 5.99625
    endloop
  endfacet
endsolid OpenSCAD_Model
