solid 8mm Belt and Flag Harness
facet normal 1.09273701198731e-012 1.12798659203647e-015 1.0
outer loop
vertex 5.00000000005438 29.9999999999955 24.9999999999945
vertex 6.33706392916267e-011 40.0 25.0
vertex 5.43749462122989e-011 30.0 25.0
endloop
endfacet
facet normal 1.09273701198731e-012 1.12798659203647e-015 1.0
outer loop
vertex 6.33706392916267e-011 40.0 25.0
vertex 5.00000000005438 29.9999999999955 24.9999999999945
vertex 5.00000000006337 39.9999999999955 24.9999999999945
endloop
endfacet
facet normal -9.0013330122929e-013 -1.0 -1.69197988854243e-015
outer loop
vertex 5.00000000005438 29.9999999999955 24.9999999999945
vertex 4.34181010586793e-011 30.0 15.0
vertex 5.00000000004342 29.9999999999955 14.9999999999945
endloop
endfacet
facet normal -9.0013330122929e-013 -1.0 -1.69197988854243e-015
outer loop
vertex 4.34181010586793e-011 30.0 15.0
vertex 5.00000000005438 29.9999999999955 24.9999999999945
vertex 5.43749462122989e-011 30.0 25.0
endloop
endfacet
facet normal 0.980785280403406 0.195090322015247 -1.07459838296319e-012
outer loop
vertex 21.391036260111 23.0614674589051 -2.35044206320367e-011
vertex 22.0000000000344 19.9999999999838 14.9999999999758
vertex 22.000000000018 19.9999999999838 -2.41685227386768e-011
endloop
endfacet
facet normal 0.980785280403406 0.195090322015247 -1.07459838296319e-012
outer loop
vertex 22.0000000000344 19.9999999999838 14.9999999999758
vertex 21.391036260111 23.0614674589051 -2.35044206320367e-011
vertex 21.3910362601275 23.0614674589051 14.9999999999765
endloop
endfacet
facet normal -4.11268214462992e-013 -0.923879532511289 0.382683432365085
outer loop
vertex 5.00000000005243 52.1999999999955 4.99999999999453
vertex 5.01220426272215e-011 51.5556349186104 3.4443650813896
vertex 5.00000000005015 51.5556349186059 3.44436508138412
endloop
endfacet
facet normal -4.11268214462992e-013 -0.923879532511289 0.382683432365085
outer loop
vertex 5.01220426272215e-011 51.5556349186104 3.4443650813896
vertex 5.00000000005243 52.1999999999955 4.99999999999453
vertex 5.24062154780853e-011 52.2 5.00000000000001
endloop
endfacet
facet normal -1.24989741163079e-012 -0.923879532511287 -0.38268343236509
outer loop
vertex 5.00000000005356 51.5556349186059 6.55563491860494
vertex 5.24062154780853e-011 52.2 5.00000000000001
vertex 5.00000000005243 52.1999999999955 4.99999999999453
endloop
endfacet
facet normal -1.24989741163079e-012 -0.923879532511287 -0.38268343236509
outer loop
vertex 5.24062154780853e-011 52.2 5.00000000000001
vertex 5.00000000005356 51.5556349186059 6.55563491860494
vertex 5.35310296088115e-011 51.5556349186104 6.55563491861042
endloop
endfacet
facet normal -1.35689036199989e-012 -0.382683432365084 -0.923879532511289
outer loop
vertex 5.35310296088115e-011 51.5556349186104 6.55563491861042
vertex 5.00000000005287 49.9999999999955 7.19999999999453
vertex 5.28376703499151e-011 50.0 7.20000000000001
endloop
endfacet
facet normal -1.35689036199989e-012 -0.382683432365084 -0.923879532511289
outer loop
vertex 5.00000000005287 49.9999999999955 7.19999999999453
vertex 5.35310296088115e-011 51.5556349186104 6.55563491861042
vertex 5.00000000005356 51.5556349186059 6.55563491860494
endloop
endfacet
facet normal -6.68390215187042e-013 0.382683432365085 -0.923879532511289
outer loop
vertex 5.28376703499151e-011 50.0 7.20000000000001
vertex 5.00000000005076 48.4443650813851 6.55563491860494
vertex 5.07322128748828e-011 48.4443650813896 6.55563491861042
endloop
endfacet
facet normal -6.68390215187042e-013 0.382683432365085 -0.923879532511289
outer loop
vertex 5.00000000005076 48.4443650813851 6.55563491860494
vertex 5.28376703499151e-011 50.0 7.20000000000001
vertex 5.00000000005287 49.9999999999955 7.19999999999453
endloop
endfacet
facet normal 4.10203365052284e-013 0.923879532511288 -0.382683432365087
outer loop
vertex 4.84481281479715e-011 47.8 5.00000000000001
vertex 5.00000000005076 48.4443650813851 6.55563491860494
vertex 5.00000000004848 47.7999999999955 4.99999999999453
endloop
endfacet
facet normal 4.10203365052284e-013 0.923879532511288 -0.382683432365087
outer loop
vertex 5.00000000005076 48.4443650813851 6.55563491860494
vertex 4.84481281479715e-011 47.8 5.00000000000001
vertex 5.07322128748828e-011 48.4443650813896 6.55563491861042
endloop
endfacet
facet normal 1.24987171426538e-012 0.923879532511287 0.38268343236509
outer loop
vertex 4.73233140172452e-011 48.4443650813896 3.4443650813896
vertex 5.00000000004848 47.7999999999955 4.99999999999453
vertex 5.00000000004735 48.4443650813851 3.44436508138412
endloop
endfacet
facet normal 1.24987171426538e-012 0.923879532511287 0.38268343236509
outer loop
vertex 5.00000000004848 47.7999999999955 4.99999999999453
vertex 4.73233140172452e-011 48.4443650813896 3.4443650813896
vertex 4.84481281479715e-011 47.8 5.00000000000001
endloop
endfacet
facet normal 1.35675254844459e-012 0.382683432365087 0.923879532511288
outer loop
vertex 5.00000000004735 48.4443650813851 3.44436508138412
vertex 4.80166732761417e-011 50.0 2.80000000000001
vertex 4.73233140172452e-011 48.4443650813896 3.4443650813896
endloop
endfacet
facet normal 1.35675254844459e-012 0.382683432365087 0.923879532511288
outer loop
vertex 4.80166732761417e-011 50.0 2.80000000000001
vertex 5.00000000004735 48.4443650813851 3.44436508138412
vertex 5.00000000004805 49.9999999999955 2.79999999999453
endloop
endfacet
facet normal 6.6782839510257e-013 -0.382683432365082 0.92387953251129
outer loop
vertex 5.00000000004805 49.9999999999955 2.79999999999453
vertex 5.01220426272215e-011 51.5556349186104 3.4443650813896
vertex 4.80166732761417e-011 50.0 2.80000000000001
endloop
endfacet
facet normal 6.6782839510257e-013 -0.382683432365082 0.92387953251129
outer loop
vertex 5.01220426272215e-011 51.5556349186104 3.4443650813896
vertex 5.00000000004805 49.9999999999955 2.79999999999453
vertex 5.00000000005015 51.5556349186059 3.44436508138412
endloop
endfacet
facet normal 0.980785280403055 -0.195090322017011 -1.07469074623727e-012
outer loop
vertex 22.000000000018 19.9999999999838 -2.41685227386768e-011
vertex 21.391036260122 16.9385325410636 14.9999999999765
vertex 21.3910362601055 16.9385325410636 -2.34987806990716e-011
endloop
endfacet
facet normal 0.980785280403055 -0.195090322017011 -1.07469074623727e-012
outer loop
vertex 21.391036260122 16.9385325410636 14.9999999999765
vertex 22.000000000018 19.9999999999838 -2.41685227386768e-011
vertex 22.0000000000344 19.9999999999838 14.9999999999758
endloop
endfacet
facet normal 0.19509032201701 0.980785280403055 -2.13760521530984e-013
outer loop
vertex 12.3927295840811 16.119705963445 -1.36352429347397e-011
vertex 14.0000000000306 15.799999999991 14.9999999999846
vertex 14.0000000000142 15.799999999991 -1.53963120030909e-011
endloop
endfacet
facet normal 0.19509032201701 0.980785280403055 -2.13760521530984e-013
outer loop
vertex 14.0000000000306 15.799999999991 14.9999999999846
vertex 12.3927295840811 16.119705963445 -1.36352429347397e-011
vertex 12.3927295840976 16.119705963445 14.9999999999863
endloop
endfacet
facet normal -0.195090322015248 0.980785280403406 2.13751400812831e-013
outer loop
vertex 14.0000000000142 15.799999999991 -1.53963120030909e-011
vertex 15.6072704159643 16.1197059634421 14.9999999999828
vertex 15.6072704159479 16.1197059634421 -1.71602010379246e-011
endloop
endfacet
facet normal -0.195090322015248 0.980785280403406 2.13751400812831e-013
outer loop
vertex 15.6072704159643 16.1197059634421 14.9999999999828
vertex 14.0000000000142 15.799999999991 -1.53963120030909e-011
vertex 14.0000000000306 15.799999999991 14.9999999999846
endloop
endfacet
facet normal -0.555570233018854 0.831469612303045 6.08708323196705e-013
outer loop
vertex 15.6072704159479 16.1197059634421 -1.71602010379246e-011
vertex 16.9698484810153 17.0301515190048 14.9999999999813
vertex 16.9698484809988 17.0301515190048 -1.86533732904337e-011
endloop
endfacet
facet normal -0.555570233018854 0.831469612303045 6.08708323196705e-013
outer loop
vertex 16.9698484810153 17.0301515190048 14.9999999999813
vertex 15.6072704159479 16.1197059634421 -1.71602010379246e-011
vertex 15.6072704159643 16.1197059634421 14.9999999999828
endloop
endfacet
facet normal -0.831469612302045 0.555570233020351 9.11079649141841e-013
outer loop
vertex 17.8802940365804 18.3927295840541 14.9999999999803
vertex 16.9698484809988 17.0301515190048 -1.86533732904337e-011
vertex 16.9698484810153 17.0301515190048 14.9999999999813
endloop
endfacet
facet normal -0.831469612302045 0.555570233020351 9.11079649141841e-013
outer loop
vertex 16.9698484809988 17.0301515190048 -1.86533732904337e-011
vertex 17.8802940365804 18.3927295840541 14.9999999999803
vertex 17.8802940365639 18.3927295840541 -1.96537564001176e-011
endloop
endfacet
facet normal -0.980785280403055 0.19509032201701 1.07469314745462e-012
outer loop
vertex 18.2000000000344 19.9999999999872 14.99999999998
vertex 17.8802940365639 18.3927295840541 -1.96537564001176e-011
vertex 17.8802940365804 18.3927295840541 14.9999999999803
endloop
endfacet
facet normal -0.980785280403055 0.19509032201701 1.07469314745462e-012
outer loop
vertex 17.8802940365639 18.3927295840541 -1.96537564001176e-011
vertex 18.2000000000344 19.9999999999872 14.99999999998
vertex 18.200000000018 19.9999999999872 -2.00034322439535e-011
endloop
endfacet
facet normal -0.980785280403406 -0.195090322015247 1.07459790474026e-012
outer loop
vertex 17.8802940365833 21.6072704159209 14.9999999999803
vertex 18.200000000018 19.9999999999872 -2.00034322439535e-011
vertex 18.2000000000344 19.9999999999872 14.99999999998
endloop
endfacet
facet normal -0.980785280403406 -0.195090322015247 1.07459790474026e-012
outer loop
vertex 18.200000000018 19.9999999999872 -2.00034322439535e-011
vertex 17.8802940365833 21.6072704159209 14.9999999999803
vertex 17.8802940365668 21.6072704159209 -1.96537564001176e-011
endloop
endfacet
facet normal -0.831469612303046 -0.555570233018853 9.11079611623485e-013
outer loop
vertex 16.9698484810206 22.9698484809718 14.9999999999813
vertex 17.8802940365668 21.6072704159209 -1.96537564001176e-011
vertex 17.8802940365833 21.6072704159209 14.9999999999803
endloop
endfacet
facet normal -0.831469612303046 -0.555570233018853 9.11079611623485e-013
outer loop
vertex 17.8802940365668 21.6072704159209 -1.96537564001176e-011
vertex 16.9698484810206 22.9698484809718 14.9999999999813
vertex 16.9698484810042 22.9698484809718 -1.86590132233988e-011
endloop
endfacet
facet normal -0.555570233020354 -0.831469612302043 6.08760829054004e-013
outer loop
vertex 16.9698484810206 22.9698484809718 14.9999999999813
vertex 15.6072704159549 23.880294036537 -1.71630210044071e-011
vertex 16.9698484810042 22.9698484809718 -1.86590132233988e-011
endloop
endfacet
facet normal -0.555570233020354 -0.831469612302043 6.08760829054004e-013
outer loop
vertex 15.6072704159549 23.880294036537 -1.71630210044071e-011
vertex 16.9698484810206 22.9698484809718 14.9999999999813
vertex 15.6072704159713 23.880294036537 14.9999999999828
endloop
endfacet
facet normal -0.19509032201701 -0.980785280403055 2.13751400814738e-013
outer loop
vertex 15.6072704159713 23.880294036537 14.9999999999828
vertex 14.0000000000218 24.199999999991 -1.5401951936056e-011
vertex 15.6072704159549 23.880294036537 -1.71630210044071e-011
endloop
endfacet
facet normal -0.19509032201701 -0.980785280403055 2.13751400814738e-013
outer loop
vertex 14.0000000000218 24.199999999991 -1.5401951936056e-011
vertex 15.6072704159713 23.880294036537 14.9999999999828
vertex 14.0000000000382 24.199999999991 14.9999999999846
endloop
endfacet
facet normal 0.195090322015248 -0.980785280403406 -2.13760882112886e-013
outer loop
vertex 14.0000000000382 24.199999999991 14.9999999999846
vertex 12.3927295840881 23.8802940365398 -1.36408828677048e-011
vertex 14.0000000000218 24.199999999991 -1.5401951936056e-011
endloop
endfacet
facet normal 0.195090322015248 -0.980785280403406 -2.13760882112886e-013
outer loop
vertex 12.3927295840881 23.8802940365398 -1.36408828677048e-011
vertex 14.0000000000382 24.199999999991 14.9999999999846
vertex 12.3927295841045 23.8802940365398 14.9999999999863
endloop
endfacet
facet normal 0.555570233018854 -0.831469612303045 -6.08763592518468e-013
outer loop
vertex 12.3927295841045 23.8802940365398 14.9999999999863
vertex 11.0301515190372 22.9698484809772 -1.21448906487132e-011
vertex 12.3927295840881 23.8802940365398 -1.36408828677048e-011
endloop
endfacet
facet normal 0.555570233018854 -0.831469612303045 -6.08763592518468e-013
outer loop
vertex 11.0301515190372 22.9698484809772 -1.21448906487132e-011
vertex 12.3927295841045 23.8802940365398 14.9999999999863
vertex 11.0301515190536 22.9698484809772 14.9999999999878
endloop
endfacet
facet normal 0.831469612302046 -0.555570233020349 -9.11116175958843e-013
outer loop
vertex 11.0301515190372 22.9698484809772 -1.21448906487132e-011
vertex 10.1197059634885 21.6072704159279 14.9999999999888
vertex 10.119705963472 21.6072704159279 -1.11473275055118e-011
endloop
endfacet
facet normal 0.831469612302046 -0.555570233020349 -9.11116175958843e-013
outer loop
vertex 10.1197059634885 21.6072704159279 14.9999999999888
vertex 11.0301515190372 22.9698484809772 -1.21448906487132e-011
vertex 11.0301515190536 22.9698484809772 14.9999999999878
endloop
endfacet
facet normal 0.980785280403055 -0.19509032201701 -1.07478256776789e-012
outer loop
vertex 10.119705963472 21.6072704159279 -1.11473275055118e-011
vertex 9.80000000003442 19.9999999999948 14.9999999999892
vertex 9.80000000001799 19.9999999999948 -1.07941267035727e-011
endloop
endfacet
facet normal 0.980785280403055 -0.19509032201701 -1.07478256776789e-012
outer loop
vertex 9.80000000003442 19.9999999999948 14.9999999999892
vertex 10.119705963472 21.6072704159279 -1.11473275055118e-011
vertex 10.1197059634885 21.6072704159279 14.9999999999888
endloop
endfacet
facet normal 0.980785280403406 0.195090322015245 -1.07478220718446e-012
outer loop
vertex 9.80000000001799 19.9999999999948 -1.07941267035727e-011
vertex 10.1197059634856 18.3927295840611 14.9999999999888
vertex 10.1197059634691 18.3927295840611 -1.11445075390293e-011
endloop
endfacet
facet normal 0.980785280403406 0.195090322015245 -1.07478220718446e-012
outer loop
vertex 10.1197059634856 18.3927295840611 14.9999999999888
vertex 9.80000000001799 19.9999999999948 -1.07941267035727e-011
vertex 9.80000000003442 19.9999999999948 14.9999999999892
endloop
endfacet
facet normal 0.831469612303044 0.555570233018856 -9.11116157200203e-013
outer loop
vertex 10.1197059634691 18.3927295840611 -1.11445075390293e-011
vertex 11.0301515190483 17.0301515190102 14.9999999999878
vertex 11.0301515190318 17.0301515190102 -1.21420706822306e-011
endloop
endfacet
facet normal 0.831469612303044 0.555570233018856 -9.11116157200203e-013
outer loop
vertex 11.0301515190483 17.0301515190102 14.9999999999878
vertex 10.1197059634691 18.3927295840611 -1.11445075390293e-011
vertex 10.1197059634856 18.3927295840611 14.9999999999888
endloop
endfacet
facet normal 0.555570233020352 0.831469612302044 -6.0876359252009e-013
outer loop
vertex 11.0301515190318 17.0301515190102 -1.21420706822306e-011
vertex 12.3927295840976 16.119705963445 14.9999999999863
vertex 12.3927295840811 16.119705963445 -1.36352429347397e-011
endloop
endfacet
facet normal 0.555570233020352 0.831469612302044 -6.0876359252009e-013
outer loop
vertex 12.3927295840976 16.119705963445 14.9999999999863
vertex 11.0301515190318 17.0301515190102 -1.21420706822306e-011
vertex 11.0301515190483 17.0301515190102 14.9999999999878
endloop
endfacet
facet normal 8.99851304581098e-013 1.0 -2.25597318702401e-015
outer loop
vertex 2.54323548329888e-011 10.0 15.0
vertex 5.00000000003602 9.99999999999553 24.9999999999946
vertex 5.00000000002507 9.99999999999551 14.9999999999945
endloop
endfacet
facet normal 8.99851304581098e-013 1.0 -2.25597318702401e-015
outer loop
vertex 5.00000000003602 9.99999999999553 24.9999999999946
vertex 2.54323548329888e-011 10.0 15.0
vertex 3.63891999866084e-011 10.0 25.0
endloop
endfacet
facet normal 1.09273701198731e-012 1.12798659203646e-015 1.0
outer loop
vertex 5.00000000002703 -4.50888589585817e-012 24.9999999999946
vertex 3.63891999866084e-011 10.0 25.0
vertex 2.73935069072806e-011 -1.13213528428592e-014 25.0
endloop
endfacet
facet normal 1.09273701198731e-012 1.12798659203646e-015 1.0
outer loop
vertex 3.63891999866084e-011 10.0 25.0
vertex 5.00000000002703 -4.50888589585817e-012 24.9999999999946
vertex 5.00000000003602 9.99999999999553 24.9999999999946
endloop
endfacet
facet normal 8.99005314636213e-013 1.0 -5.13233899834807e-014
outer loop
vertex 4.94706303697529e-011 55.0 1.76247905159244e-014
vertex 5.00000000006181 54.999999999996 9.99999999999454
vertex 5.00000000004947 54.9999999999955 -5.460865093454e-012
endloop
endfacet
facet normal 8.99005314636213e-013 1.0 -5.13233899834807e-014
outer loop
vertex 5.00000000006181 54.999999999996 9.99999999999454
vertex 4.94706303697529e-011 55.0 1.76247905159244e-014
vertex 6.18042825248916e-011 55.0000000000005 10.0
endloop
endfacet
facet normal 6.24152581470503e-013 1.0 1.59690673382474e-013
outer loop
vertex 4.83134747484299e-011 40.0000000000005 10.0
vertex 5.00000000005242 39.9999999999955 14.9999999999945
vertex 5.00000000004832 40.0000000000005 9.99999999999726
endloop
endfacet
facet normal 6.24152581470503e-013 1.0 1.59690673382474e-013
outer loop
vertex 5.00000000005242 39.9999999999955 14.9999999999945
vertex 4.83134747484299e-011 40.0000000000005 10.0
vertex 6.33706392916267e-011 40.0 25.0
endloop
endfacet
facet normal 6.24152581470503e-013 1.0 1.59690673382474e-013
outer loop
vertex 5.00000000005242 39.9999999999955 14.9999999999945
vertex 6.33706392916267e-011 40.0 25.0
vertex 5.00000000006337 39.9999999999955 24.9999999999945
endloop
endfacet
facet normal 0.831469612303046 0.555570233018853 -9.11002417731592e-013
outer loop
vertex 19.6568542495155 25.6568542494783 -2.16044682144201e-011
vertex 21.3910362601275 23.0614674589051 14.9999999999765
vertex 21.391036260111 23.0614674589051 -2.35044206320367e-011
endloop
endfacet
facet normal 0.831469612303046 0.555570233018853 -9.11002417731592e-013
outer loop
vertex 21.3910362601275 23.0614674589051 14.9999999999765
vertex 19.6568542495155 25.6568542494783 -2.16044682144201e-011
vertex 19.6568542495319 25.6568542494783 14.9999999999784
endloop
endfacet
facet normal 0.699416707880688 0.714714116788902 -6.87930939857457e-013
outer loop
vertex 5.00000000003582 39.9999999999999 -2.71985767241745e-012
vertex 19.6568542495319 25.6568542494783 14.9999999999784
vertex 19.6568542495155 25.6568542494783 -2.16044682144201e-011
endloop
endfacet
facet normal 0.699416707880688 0.714714116788902 -6.87930939857457e-013
outer loop
vertex 19.6568542495319 25.6568542494783 14.9999999999784
vertex 5.00000000003582 39.9999999999999 -2.71985767241745e-012
vertex 5.00000000004832 40.0000000000005 9.99999999999726
endloop
endfacet
facet normal 0.699416707880688 0.714714116788902 -6.87930939857457e-013
outer loop
vertex 19.6568542495319 25.6568542494783 14.9999999999784
vertex 5.00000000004832 40.0000000000005 9.99999999999726
vertex 5.00000000005242 39.9999999999955 14.9999999999945
endloop
endfacet
facet normal 1.0 -9.04739246484612e-013 -1.24149024394166e-012
outer loop
vertex 5.00000000003582 39.9999999999999 -2.71985767241745e-012
vertex 5.00000000004735 48.4443650813851 3.44436508138412
vertex 5.00000000004832 40.0000000000005 9.99999999999726
endloop
endfacet
facet normal 1.0 -9.04739246484612e-013 -1.24149024394166e-012
outer loop
vertex 5.00000000004735 48.4443650813851 3.44436508138412
vertex 5.00000000003582 39.9999999999999 -2.71985767241745e-012
vertex 5.00000000004947 54.9999999999955 -5.460865093454e-012
endloop
endfacet
facet normal 1.0 -9.04739246484612e-013 -1.24149024394166e-012
outer loop
vertex 5.00000000004832 40.0000000000005 9.99999999999726
vertex 5.00000000004735 48.4443650813851 3.44436508138412
vertex 5.00000000004848 47.7999999999955 4.99999999999453
endloop
endfacet
facet normal 1.0 -9.04739246484612e-013 -1.24149024394166e-012
outer loop
vertex 5.00000000004735 48.4443650813851 3.44436508138412
vertex 5.00000000004947 54.9999999999955 -5.460865093454e-012
vertex 5.00000000004805 49.9999999999955 2.79999999999453
endloop
endfacet
facet normal 1.0 -9.04739246484612e-013 -1.24149024394166e-012
outer loop
vertex 5.00000000004805 49.9999999999955 2.79999999999453
vertex 5.00000000004947 54.9999999999955 -5.460865093454e-012
vertex 5.00000000005015 51.5556349186059 3.44436508138412
endloop
endfacet
facet normal 1.0 -9.04739246484612e-013 -1.24149024394166e-012
outer loop
vertex 5.00000000005015 51.5556349186059 3.44436508138412
vertex 5.00000000004947 54.9999999999955 -5.460865093454e-012
vertex 5.00000000005243 52.1999999999955 4.99999999999453
endloop
endfacet
facet normal 1.0 -9.04739246484612e-013 -1.24149024394166e-012
outer loop
vertex 5.00000000004832 40.0000000000005 9.99999999999726
vertex 5.00000000005076 48.4443650813851 6.55563491860494
vertex 5.00000000006181 54.999999999996 9.99999999999454
endloop
endfacet
facet normal 1.0 -9.04739246484612e-013 -1.24149024394166e-012
outer loop
vertex 5.00000000005076 48.4443650813851 6.55563491860494
vertex 5.00000000004832 40.0000000000005 9.99999999999726
vertex 5.00000000004848 47.7999999999955 4.99999999999453
endloop
endfacet
facet normal 1.0 -9.04739246484612e-013 -1.24149024394166e-012
outer loop
vertex 5.00000000006181 54.999999999996 9.99999999999454
vertex 5.00000000005076 48.4443650813851 6.55563491860494
vertex 5.00000000005287 49.9999999999955 7.19999999999453
endloop
endfacet
facet normal 1.0 -9.04739246484612e-013 -1.24149024394166e-012
outer loop
vertex 5.00000000006181 54.999999999996 9.99999999999454
vertex 5.00000000005287 49.9999999999955 7.19999999999453
vertex 5.00000000005356 51.5556349186059 6.55563491860494
endloop
endfacet
facet normal 1.0 -9.04739246484612e-013 -1.24149024394166e-012
outer loop
vertex 5.00000000006181 54.999999999996 9.99999999999454
vertex 5.00000000005356 51.5556349186059 6.55563491860494
vertex 5.00000000005243 52.1999999999955 4.99999999999453
endloop
endfacet
facet normal 1.0 -9.04739246484612e-013 -1.24149024394166e-012
outer loop
vertex 5.00000000006181 54.999999999996 9.99999999999454
vertex 5.00000000005243 52.1999999999955 4.99999999999453
vertex 5.00000000004947 54.9999999999955 -5.460865093454e-012
endloop
endfacet
facet normal 8.19764256476714e-013 9.05209240890503e-014 1.0
outer loop
vertex 5.00000000004832 40.0000000000005 9.99999999999726
vertex 6.18042825248916e-011 55.0000000000005 10.0
vertex 4.83134747484299e-011 40.0000000000005 10.0
endloop
endfacet
facet normal 8.19764256476714e-013 9.05209240890503e-014 1.0
outer loop
vertex 6.18042825248916e-011 55.0000000000005 10.0
vertex 5.00000000004832 40.0000000000005 9.99999999999726
vertex 5.00000000006181 54.999999999996 9.99999999999454
endloop
endfacet
facet normal -1.02880975472538e-012 -1.0 1.74931229865203e-014
outer loop
vertex 5.00000000001607 -5.47077646305559e-012 14.9999999999944
vertex -4.16335848744608e-017 -4.14869126675433e-017 0.0
vertex 4.99999999999964 -5.47077646305559e-012 -5.57084378627337e-012
endloop
endfacet
facet normal -1.02880975472538e-012 -1.0 1.74931229865203e-014
outer loop
vertex -4.16335848744608e-017 -4.14869126675433e-017 0.0
vertex 5.00000000001607 -5.47077646305559e-012 14.9999999999944
vertex 2.73935069072806e-011 -1.13213528428592e-014 25.0
endloop
endfacet
facet normal -1.02880975472538e-012 -1.0 1.74931229865203e-014
outer loop
vertex 2.73935069072806e-011 -1.13213528428592e-014 25.0
vertex 5.00000000001607 -5.47077646305559e-012 14.9999999999944
vertex 5.00000000002703 -4.50888589585817e-012 24.9999999999946
endloop
endfacet
facet normal 0.699416707879506 -0.714714116790059 -7.66441231731862e-013
outer loop
vertex 19.6568542495217 14.3431457504935 14.9999999999784
vertex 4.99999999999964 -5.47077646305559e-012 -5.57084378627337e-012
vertex 19.6568542495053 14.3431457504935 -2.15960083149724e-011
endloop
endfacet
facet normal 0.699416707879506 -0.714714116790059 -7.66441231731862e-013
outer loop
vertex 4.99999999999964 -5.47077646305559e-012 -5.57084378627337e-012
vertex 19.6568542495217 14.3431457504935 14.9999999999784
vertex 5.00000000001607 -5.47077646305559e-012 14.9999999999944
endloop
endfacet
facet normal 0.831469612302046 -0.555570233020349 -9.11151325984074e-013
outer loop
vertex 21.3910362601055 16.9385325410636 -2.34987806990716e-011
vertex 19.6568542495217 14.3431457504935 14.9999999999784
vertex 19.6568542495053 14.3431457504935 -2.15960083149724e-011
endloop
endfacet
facet normal 0.831469612302046 -0.555570233020349 -9.11151325984074e-013
outer loop
vertex 19.6568542495217 14.3431457504935 14.9999999999784
vertex 21.3910362601055 16.9385325410636 -2.34987806990716e-011
vertex 21.391036260122 16.9385325410636 14.9999999999765
endloop
endfacet
facet normal -1.01180521349075e-012 2.86039604357512e-014 -1.0
outer loop
vertex 4.71773342614399e-011 25.0 8.45989944764369e-015
vertex 3.81872811150771e-011 15.0 8.45989944764369e-015
vertex -4.99999999993665 19.9999999999978 -2.7438273875191e-012
endloop
endfacet
facet normal -1.01180521349075e-012 2.86039604357512e-014 -1.0
outer loop
vertex 3.81872811150771e-011 15.0 8.45989944764369e-015
vertex 4.99999999999964 -5.47077646305559e-012 -5.57084378627337e-012
vertex -4.16335848744608e-017 -4.14869126675433e-017 0.0
endloop
endfacet
facet normal -1.01180521349075e-012 2.86039604357512e-014 -1.0
outer loop
vertex 4.99999999999964 -5.47077646305559e-012 -5.57084378627337e-012
vertex 3.81872811150771e-011 15.0 8.45989944764369e-015
vertex 4.71773342614399e-011 25.0 8.45989944764369e-015
endloop
endfacet
facet normal -1.01180521349075e-012 2.86039604357512e-014 -1.0
outer loop
vertex 4.99999999999964 -5.47077646305559e-012 -5.57084378627337e-012
vertex 4.71773342614399e-011 25.0 8.45989944764369e-015
vertex 4.94706303697529e-011 55.0 1.76247905159244e-014
endloop
endfacet
facet normal -1.01180521349075e-012 2.86039604357512e-014 -1.0
outer loop
vertex 4.99999999999964 -5.47077646305559e-012 -5.57084378627337e-012
vertex 4.94706303697529e-011 55.0 1.76247905159244e-014
vertex 5.00000000003582 39.9999999999999 -2.71985767241745e-012
endloop
endfacet
facet normal -1.01180521349075e-012 2.86039604357512e-014 -1.0
outer loop
vertex 5.00000000003582 39.9999999999999 -2.71985767241745e-012
vertex 4.94706303697529e-011 55.0 1.76247905159244e-014
vertex 5.00000000004947 54.9999999999955 -5.460865093454e-012
endloop
endfacet
facet normal -1.01180521349075e-012 2.86039604357512e-014 -1.0
outer loop
vertex 5.00000000003582 39.9999999999999 -2.71985767241745e-012
vertex 10.119705963472 21.6072704159279 -1.11473275055118e-011
vertex 9.80000000001799 19.9999999999948 -1.07941267035727e-011
endloop
endfacet
facet normal -1.01180521349075e-012 2.86039604357512e-014 -1.0
outer loop
vertex 10.119705963472 21.6072704159279 -1.11473275055118e-011
vertex 5.00000000003582 39.9999999999999 -2.71985767241745e-012
vertex 11.0301515190372 22.9698484809772 -1.21448906487132e-011
endloop
endfacet
facet normal -1.01180521349075e-012 2.86039604357512e-014 -1.0
outer loop
vertex 11.0301515190372 22.9698484809772 -1.21448906487132e-011
vertex 5.00000000003582 39.9999999999999 -2.71985767241745e-012
vertex 12.3927295840881 23.8802940365398 -1.36408828677048e-011
endloop
endfacet
facet normal -1.01180521349075e-012 2.86039604357512e-014 -1.0
outer loop
vertex 12.3927295840881 23.8802940365398 -1.36408828677048e-011
vertex 5.00000000003582 39.9999999999999 -2.71985767241745e-012
vertex 19.6568542495155 25.6568542494783 -2.16044682144201e-011
endloop
endfacet
facet normal -1.01180521349075e-012 2.86039604357512e-014 -1.0
outer loop
vertex 12.3927295840881 23.8802940365398 -1.36408828677048e-011
vertex 19.6568542495155 25.6568542494783 -2.16044682144201e-011
vertex 14.0000000000218 24.199999999991 -1.5401951936056e-011
endloop
endfacet
facet normal -1.01180521349075e-012 2.86039604357512e-014 -1.0
outer loop
vertex 14.0000000000218 24.199999999991 -1.5401951936056e-011
vertex 19.6568542495155 25.6568542494783 -2.16044682144201e-011
vertex 15.6072704159549 23.880294036537 -1.71630210044071e-011
endloop
endfacet
facet normal -1.01180521349075e-012 2.86039604357512e-014 -1.0
outer loop
vertex 15.6072704159549 23.880294036537 -1.71630210044071e-011
vertex 19.6568542495155 25.6568542494783 -2.16044682144201e-011
vertex 16.9698484810042 22.9698484809718 -1.86590132233988e-011
endloop
endfacet
facet normal -1.01180521349075e-012 2.86039604357512e-014 -1.0
outer loop
vertex 16.9698484810042 22.9698484809718 -1.86590132233988e-011
vertex 19.6568542495155 25.6568542494783 -2.16044682144201e-011
vertex 17.8802940365668 21.6072704159209 -1.96537564001176e-011
endloop
endfacet
facet normal -1.01180521349075e-012 2.86039604357512e-014 -1.0
outer loop
vertex 17.8802940365668 21.6072704159209 -1.96537564001176e-011
vertex 19.6568542495155 25.6568542494783 -2.16044682144201e-011
vertex 18.200000000018 19.9999999999872 -2.00034322439535e-011
endloop
endfacet
facet normal -1.01180521349075e-012 2.86039604357512e-014 -1.0
outer loop
vertex 18.200000000018 19.9999999999872 -2.00034322439535e-011
vertex 19.6568542495155 25.6568542494783 -2.16044682144201e-011
vertex 19.6568542495053 14.3431457504935 -2.15960083149724e-011
endloop
endfacet
facet normal -1.01180521349075e-012 2.86039604357512e-014 -1.0
outer loop
vertex 19.6568542495053 14.3431457504935 -2.15960083149724e-011
vertex 19.6568542495155 25.6568542494783 -2.16044682144201e-011
vertex 21.3910362601055 16.9385325410636 -2.34987806990716e-011
endloop
endfacet
facet normal -1.01180521349075e-012 2.86039604357512e-014 -1.0
outer loop
vertex 21.3910362601055 16.9385325410636 -2.34987806990716e-011
vertex 19.6568542495155 25.6568542494783 -2.16044682144201e-011
vertex 21.391036260111 23.0614674589051 -2.35044206320367e-011
endloop
endfacet
facet normal -1.01180521349075e-012 2.86039604357512e-014 -1.0
outer loop
vertex 21.3910362601055 16.9385325410636 -2.34987806990716e-011
vertex 21.391036260111 23.0614674589051 -2.35044206320367e-011
vertex 22.000000000018 19.9999999999838 -2.41685227386768e-011
endloop
endfacet
facet normal -1.01180521349075e-012 2.86039604357512e-014 -1.0
outer loop
vertex 4.99999999999964 -5.47077646305559e-012 -5.57084378627337e-012
vertex 12.3927295840811 16.119705963445 -1.36352429347397e-011
vertex 19.6568542495053 14.3431457504935 -2.15960083149724e-011
endloop
endfacet
facet normal -1.01180521349075e-012 2.86039604357512e-014 -1.0
outer loop
vertex 12.3927295840811 16.119705963445 -1.36352429347397e-011
vertex 4.99999999999964 -5.47077646305559e-012 -5.57084378627337e-012
vertex 11.0301515190318 17.0301515190102 -1.21420706822306e-011
endloop
endfacet
facet normal -1.01180521349075e-012 2.86039604357512e-014 -1.0
outer loop
vertex 11.0301515190318 17.0301515190102 -1.21420706822306e-011
vertex 4.99999999999964 -5.47077646305559e-012 -5.57084378627337e-012
vertex 10.1197059634691 18.3927295840611 -1.11445075390293e-011
endloop
endfacet
facet normal -1.01180521349075e-012 2.86039604357512e-014 -1.0
outer loop
vertex 10.1197059634691 18.3927295840611 -1.11445075390293e-011
vertex 4.99999999999964 -5.47077646305559e-012 -5.57084378627337e-012
vertex 5.00000000003582 39.9999999999999 -2.71985767241745e-012
endloop
endfacet
facet normal -1.01180521349075e-012 2.86039604357512e-014 -1.0
outer loop
vertex 10.1197059634691 18.3927295840611 -1.11445075390293e-011
vertex 5.00000000003582 39.9999999999999 -2.71985767241745e-012
vertex 9.80000000001799 19.9999999999948 -1.07941267035727e-011
endloop
endfacet
facet normal -1.01180521349075e-012 2.86039604357512e-014 -1.0
outer loop
vertex 19.6568542495053 14.3431457504935 -2.15960083149724e-011
vertex 12.3927295840811 16.119705963445 -1.36352429347397e-011
vertex 14.0000000000142 15.799999999991 -1.53963120030909e-011
endloop
endfacet
facet normal -1.01180521349075e-012 2.86039604357512e-014 -1.0
outer loop
vertex 19.6568542495053 14.3431457504935 -2.15960083149724e-011
vertex 14.0000000000142 15.799999999991 -1.53963120030909e-011
vertex 15.6072704159479 16.1197059634421 -1.71602010379246e-011
endloop
endfacet
facet normal -1.01180521349075e-012 2.86039604357512e-014 -1.0
outer loop
vertex 19.6568542495053 14.3431457504935 -2.15960083149724e-011
vertex 15.6072704159479 16.1197059634421 -1.71602010379246e-011
vertex 16.9698484809988 17.0301515190048 -1.86533732904337e-011
endloop
endfacet
facet normal -1.01180521349075e-012 2.86039604357512e-014 -1.0
outer loop
vertex 19.6568542495053 14.3431457504935 -2.15960083149724e-011
vertex 16.9698484809988 17.0301515190048 -1.86533732904337e-011
vertex 17.8802940365639 18.3927295840541 -1.96537564001176e-011
endloop
endfacet
facet normal -1.01180521349075e-012 2.86039604357512e-014 -1.0
outer loop
vertex 19.6568542495053 14.3431457504935 -2.15960083149724e-011
vertex 17.8802940365639 18.3927295840541 -1.96537564001176e-011
vertex 18.200000000018 19.9999999999872 -2.00034322439535e-011
endloop
endfacet
facet normal 1.11023066905163e-012 -1.57119592814497e-015 1.0
outer loop
vertex 19.6568542495217 14.3431457504935 14.9999999999784
vertex 5.00000000002507 9.99999999999551 14.9999999999945
vertex 5.00000000001607 -5.47077646305559e-012 14.9999999999944
endloop
endfacet
facet normal 1.11023066905163e-012 -1.57119592814497e-015 1.0
outer loop
vertex 5.00000000002507 9.99999999999551 14.9999999999945
vertex 19.6568542495217 14.3431457504935 14.9999999999784
vertex 12.3927295840976 16.119705963445 14.9999999999863
endloop
endfacet
facet normal 1.11023066905163e-012 -1.57119592814497e-015 1.0
outer loop
vertex 5.00000000002507 9.99999999999551 14.9999999999945
vertex 12.3927295840976 16.119705963445 14.9999999999863
vertex 5.00000000003442 19.9999999999978 14.9999999999973
endloop
endfacet
facet normal 1.11023066905163e-012 -1.57119592814497e-015 1.0
outer loop
vertex 5.00000000003442 19.9999999999978 14.9999999999973
vertex 12.3927295840976 16.119705963445 14.9999999999863
vertex 11.0301515190483 17.0301515190102 14.9999999999878
endloop
endfacet
facet normal 1.11023066905163e-012 -1.57119592814497e-015 1.0
outer loop
vertex 5.00000000003442 19.9999999999978 14.9999999999973
vertex 11.0301515190483 17.0301515190102 14.9999999999878
vertex 10.1197059634856 18.3927295840611 14.9999999999888
endloop
endfacet
facet normal 1.11023066905163e-012 -1.57119592814497e-015 1.0
outer loop
vertex 5.00000000003442 19.9999999999978 14.9999999999973
vertex 10.1197059634856 18.3927295840611 14.9999999999888
vertex 5.00000000004342 29.9999999999955 14.9999999999945
endloop
endfacet
facet normal 1.11023066905163e-012 -1.57119592814497e-015 1.0
outer loop
vertex 5.00000000004342 29.9999999999955 14.9999999999945
vertex 10.1197059634856 18.3927295840611 14.9999999999888
vertex 5.00000000005242 39.9999999999955 14.9999999999945
endloop
endfacet
facet normal 1.11023066905163e-012 -1.57119592814497e-015 1.0
outer loop
vertex 5.00000000005242 39.9999999999955 14.9999999999945
vertex 10.1197059634856 18.3927295840611 14.9999999999888
vertex 9.80000000003442 19.9999999999948 14.9999999999892
endloop
endfacet
facet normal 1.11023066905163e-012 -1.57119592814497e-015 1.0
outer loop
vertex 12.3927295840976 16.119705963445 14.9999999999863
vertex 19.6568542495217 14.3431457504935 14.9999999999784
vertex 14.0000000000306 15.799999999991 14.9999999999846
endloop
endfacet
facet normal 1.11023066905163e-012 -1.57119592814497e-015 1.0
outer loop
vertex 14.0000000000306 15.799999999991 14.9999999999846
vertex 19.6568542495217 14.3431457504935 14.9999999999784
vertex 15.6072704159643 16.1197059634421 14.9999999999828
endloop
endfacet
facet normal 1.11023066905163e-012 -1.57119592814497e-015 1.0
outer loop
vertex 15.6072704159643 16.1197059634421 14.9999999999828
vertex 19.6568542495217 14.3431457504935 14.9999999999784
vertex 16.9698484810153 17.0301515190048 14.9999999999813
endloop
endfacet
facet normal 1.11023066905163e-012 -1.57119592814497e-015 1.0
outer loop
vertex 16.9698484810153 17.0301515190048 14.9999999999813
vertex 19.6568542495217 14.3431457504935 14.9999999999784
vertex 17.8802940365804 18.3927295840541 14.9999999999803
endloop
endfacet
facet normal 1.11023066905163e-012 -1.57119592814497e-015 1.0
outer loop
vertex 17.8802940365804 18.3927295840541 14.9999999999803
vertex 19.6568542495217 14.3431457504935 14.9999999999784
vertex 18.2000000000344 19.9999999999872 14.99999999998
endloop
endfacet
facet normal 1.11023066905163e-012 -1.57119592814497e-015 1.0
outer loop
vertex 5.00000000005242 39.9999999999955 14.9999999999945
vertex 12.3927295841045 23.8802940365398 14.9999999999863
vertex 19.6568542495319 25.6568542494783 14.9999999999784
endloop
endfacet
facet normal 1.11023066905163e-012 -1.57119592814497e-015 1.0
outer loop
vertex 12.3927295841045 23.8802940365398 14.9999999999863
vertex 5.00000000005242 39.9999999999955 14.9999999999945
vertex 11.0301515190536 22.9698484809772 14.9999999999878
endloop
endfacet
facet normal 1.11023066905163e-012 -1.57119592814497e-015 1.0
outer loop
vertex 11.0301515190536 22.9698484809772 14.9999999999878
vertex 5.00000000005242 39.9999999999955 14.9999999999945
vertex 10.1197059634885 21.6072704159279 14.9999999999888
endloop
endfacet
facet normal 1.11023066905163e-012 -1.57119592814497e-015 1.0
outer loop
vertex 10.1197059634885 21.6072704159279 14.9999999999888
vertex 5.00000000005242 39.9999999999955 14.9999999999945
vertex 9.80000000003442 19.9999999999948 14.9999999999892
endloop
endfacet
facet normal 1.11023066905163e-012 -1.57119592814497e-015 1.0
outer loop
vertex 19.6568542495319 25.6568542494783 14.9999999999784
vertex 12.3927295841045 23.8802940365398 14.9999999999863
vertex 14.0000000000382 24.199999999991 14.9999999999846
endloop
endfacet
facet normal 1.11023066905163e-012 -1.57119592814497e-015 1.0
outer loop
vertex 19.6568542495319 25.6568542494783 14.9999999999784
vertex 14.0000000000382 24.199999999991 14.9999999999846
vertex 15.6072704159713 23.880294036537 14.9999999999828
endloop
endfacet
facet normal 1.11023066905163e-012 -1.57119592814497e-015 1.0
outer loop
vertex 19.6568542495319 25.6568542494783 14.9999999999784
vertex 15.6072704159713 23.880294036537 14.9999999999828
vertex 16.9698484810206 22.9698484809718 14.9999999999813
endloop
endfacet
facet normal 1.11023066905163e-012 -1.57119592814497e-015 1.0
outer loop
vertex 19.6568542495319 25.6568542494783 14.9999999999784
vertex 16.9698484810206 22.9698484809718 14.9999999999813
vertex 17.8802940365833 21.6072704159209 14.9999999999803
endloop
endfacet
facet normal 1.11023066905163e-012 -1.57119592814497e-015 1.0
outer loop
vertex 19.6568542495319 25.6568542494783 14.9999999999784
vertex 17.8802940365833 21.6072704159209 14.9999999999803
vertex 18.2000000000344 19.9999999999872 14.99999999998
endloop
endfacet
facet normal 1.11023066905163e-012 -1.57119592814497e-015 1.0
outer loop
vertex 19.6568542495319 25.6568542494783 14.9999999999784
vertex 18.2000000000344 19.9999999999872 14.99999999998
vertex 19.6568542495217 14.3431457504935 14.9999999999784
endloop
endfacet
facet normal 1.11023066905163e-012 -1.57119592814497e-015 1.0
outer loop
vertex 19.6568542495319 25.6568542494783 14.9999999999784
vertex 19.6568542495217 14.3431457504935 14.9999999999784
vertex 21.391036260122 16.9385325410636 14.9999999999765
endloop
endfacet
facet normal 1.11023066905163e-012 -1.57119592814497e-015 1.0
outer loop
vertex 19.6568542495319 25.6568542494783 14.9999999999784
vertex 21.391036260122 16.9385325410636 14.9999999999765
vertex 21.3910362601275 23.0614674589051 14.9999999999765
endloop
endfacet
facet normal 1.11023066905163e-012 -1.57119592814497e-015 1.0
outer loop
vertex 21.3910362601275 23.0614674589051 14.9999999999765
vertex 21.391036260122 16.9385325410636 14.9999999999765
vertex 22.0000000000344 19.9999999999838 14.9999999999758
endloop
endfacet
facet normal 1.11023066905163e-012 -1.57119592814497e-015 1.0
outer loop
vertex 5.00000000003442 19.9999999999978 14.9999999999973
vertex 4.34181010586793e-011 30.0 15.0
vertex 3.89204724005054e-011 25.0 15.0
endloop
endfacet
facet normal 1.11023066905163e-012 -1.57119592814497e-015 1.0
outer loop
vertex 4.34181010586793e-011 30.0 15.0
vertex 5.00000000003442 19.9999999999978 14.9999999999973
vertex 5.00000000004342 29.9999999999955 14.9999999999945
endloop
endfacet
facet normal 1.11023066905163e-012 -1.57119592814497e-015 1.0
outer loop
vertex 5.00000000002507 9.99999999999551 14.9999999999945
vertex 2.99304192541427e-011 15.0 15.0
vertex 2.54323548329888e-011 10.0 15.0
endloop
endfacet
facet normal 1.11023066905163e-012 -1.57119592814497e-015 1.0
outer loop
vertex 2.99304192541427e-011 15.0 15.0
vertex 5.00000000002507 9.99999999999551 14.9999999999945
vertex 5.00000000003442 19.9999999999978 14.9999999999973
endloop
endfacet
facet normal 1.0 -8.99287311284522e-013 -1.09541598014573e-012
outer loop
vertex 5.00000000004342 29.9999999999955 14.9999999999945
vertex 5.00000000006337 39.9999999999955 24.9999999999945
vertex 5.00000000005438 29.9999999999955 24.9999999999945
endloop
endfacet
facet normal 1.0 -8.99287311284522e-013 -1.09541598014573e-012
outer loop
vertex 5.00000000006337 39.9999999999955 24.9999999999945
vertex 5.00000000004342 29.9999999999955 14.9999999999945
vertex 5.00000000005242 39.9999999999955 14.9999999999945
endloop
endfacet
facet normal 1.0 -8.99252061703439e-013 -1.09538073056464e-012
outer loop
vertex 5.00000000002507 9.99999999999551 14.9999999999945
vertex 5.00000000002703 -4.50888589585817e-012 24.9999999999946
vertex 5.00000000001607 -5.47077646305559e-012 14.9999999999944
endloop
endfacet
facet normal 1.0 -8.99252061703439e-013 -1.09538073056464e-012
outer loop
vertex 5.00000000002703 -4.50888589585817e-012 24.9999999999946
vertex 5.00000000002507 9.99999999999551 14.9999999999945
vertex 5.00000000003602 9.99999999999553 24.9999999999946
endloop
endfacet
facet normal 0.707106781187026 0.70710678118607 -4.12749891611168e-013
outer loop
vertex 3.89204724005054e-011 25.0 15.0
vertex 5.00000000004026 19.9999999999978 24.9999999999973
vertex 5.00000000003442 19.9999999999978 14.9999999999973
endloop
endfacet
facet normal 0.707106781187026 0.70710678118607 -4.12749891611168e-013
outer loop
vertex 5.00000000004026 19.9999999999978 24.9999999999973
vertex 3.89204724005054e-011 25.0 15.0
vertex 4.47578175863215e-011 25.0 25.0
endloop
endfacet
facet normal 0.707106781186072 -0.707106781187023 -4.12749891610873e-013
outer loop
vertex 5.00000000004026 19.9999999999978 24.9999999999973
vertex 2.99304192541427e-011 15.0 15.0
vertex 5.00000000003442 19.9999999999978 14.9999999999973
endloop
endfacet
facet normal 0.707106781186072 -0.707106781187023 -4.12749891610873e-013
outer loop
vertex 2.99304192541427e-011 15.0 15.0
vertex 5.00000000004026 19.9999999999978 24.9999999999973
vertex 3.57677644399588e-011 15.0 25.0
endloop
endfacet
facet normal -1.0 1.36499225883789e-012 6.17903561870674e-013
outer loop
vertex 3.63891999866084e-011 10.0 25.0
vertex -4.16335848744608e-017 -4.14869126675433e-017 0.0
vertex 2.73935069072806e-011 -1.13213528428592e-014 25.0
endloop
endfacet
facet normal -1.0 1.36499225883789e-012 6.17903561870674e-013
outer loop
vertex -4.16335848744608e-017 -4.14869126675433e-017 0.0
vertex 3.63891999866084e-011 10.0 25.0
vertex 2.54323548329888e-011 10.0 15.0
endloop
endfacet
facet normal -1.0 1.36499225883789e-012 6.17903561870674e-013
outer loop
vertex 2.54323548329888e-011 10.0 15.0
vertex 3.81872811150771e-011 15.0 8.45989944764369e-015
vertex -4.16335848744608e-017 -4.14869126675433e-017 0.0
endloop
endfacet
facet normal -1.0 1.36499225883789e-012 6.17903561870674e-013
outer loop
vertex 3.81872811150771e-011 15.0 8.45989944764369e-015
vertex 2.54323548329888e-011 10.0 15.0
vertex 2.99304192541427e-011 15.0 15.0
endloop
endfacet
facet normal -0.707106781187902 -0.707106781185193 -2.45085053578009e-013
outer loop
vertex -4.99999999995074 19.9999999999978 24.9999999999973
vertex 2.99304192541427e-011 15.0 15.0
vertex 3.57677644399588e-011 15.0 25.0
endloop
endfacet
facet normal -0.707106781187902 -0.707106781185193 -2.45085053578009e-013
outer loop
vertex 2.99304192541427e-011 15.0 15.0
vertex -4.99999999995074 19.9999999999978 24.9999999999973
vertex 3.81872811150771e-011 15.0 8.45989944764369e-015
endloop
endfacet
facet normal -0.707106781187902 -0.707106781185193 -2.45085053578009e-013
outer loop
vertex 3.81872811150771e-011 15.0 8.45989944764369e-015
vertex -4.99999999995074 19.9999999999978 24.9999999999973
vertex -4.99999999993665 19.9999999999978 -2.7438273875191e-012
endloop
endfacet
facet normal 2.47677035332473e-025 -1.23693142552097e-025 1.0
outer loop
vertex 3.57677644399588e-011 15.0 25.0
vertex 4.47578175863215e-011 25.0 25.0
vertex -4.99999999995074 19.9999999999978 24.9999999999973
endloop
endfacet
facet normal 2.47677035332473e-025 -1.23693142552097e-025 1.0
outer loop
vertex 4.47578175863215e-011 25.0 25.0
vertex 3.57677644399588e-011 15.0 25.0
vertex 5.00000000004026 19.9999999999978 24.9999999999973
endloop
endfacet
facet normal -0.707106781187584 0.707106781185511 -2.45085053577458e-013
outer loop
vertex 4.47578175863215e-011 25.0 25.0
vertex -4.99999999993665 19.9999999999978 -2.7438273875191e-012
vertex -4.99999999995074 19.9999999999978 24.9999999999973
endloop
endfacet
facet normal -0.707106781187584 0.707106781185511 -2.45085053577458e-013
outer loop
vertex -4.99999999993665 19.9999999999978 -2.7438273875191e-012
vertex 4.47578175863215e-011 25.0 25.0
vertex 4.71773342614399e-011 25.0 8.45989944764369e-015
endloop
endfacet
facet normal -0.707106781187584 0.707106781185511 -2.45085053577458e-013
outer loop
vertex 4.71773342614399e-011 25.0 8.45989944764369e-015
vertex 4.47578175863215e-011 25.0 25.0
vertex 3.89204724005054e-011 25.0 15.0
endloop
endfacet
facet normal -1.0 4.83174035931195e-013 4.49678141984379e-013
outer loop
vertex 6.33706392916267e-011 40.0 25.0
vertex 4.34181010586793e-011 30.0 15.0
vertex 5.43749462122989e-011 30.0 25.0
endloop
endfacet
facet normal -1.0 4.83174035931195e-013 4.49678141984379e-013
outer loop
vertex 4.83134747484299e-011 40.0000000000005 10.0
vertex 5.07322128748828e-011 48.4443650813896 6.55563491861042
vertex 4.84481281479715e-011 47.8 5.00000000000001
endloop
endfacet
facet normal -1.0 4.83174035931195e-013 4.49678141984379e-013
outer loop
vertex 5.07322128748828e-011 48.4443650813896 6.55563491861042
vertex 4.83134747484299e-011 40.0000000000005 10.0
vertex 6.18042825248916e-011 55.0000000000005 10.0
endloop
endfacet
facet normal -1.0 4.83174035931195e-013 4.49678141984379e-013
outer loop
vertex 5.07322128748828e-011 48.4443650813896 6.55563491861042
vertex 6.18042825248916e-011 55.0000000000005 10.0
vertex 5.28376703499151e-011 50.0 7.20000000000001
endloop
endfacet
facet normal -1.0 4.83174035931195e-013 4.49678141984379e-013
outer loop
vertex 5.28376703499151e-011 50.0 7.20000000000001
vertex 6.18042825248916e-011 55.0000000000005 10.0
vertex 5.35310296088115e-011 51.5556349186104 6.55563491861042
endloop
endfacet
facet normal -1.0 4.83174035931195e-013 4.49678141984379e-013
outer loop
vertex 5.35310296088115e-011 51.5556349186104 6.55563491861042
vertex 6.18042825248916e-011 55.0000000000005 10.0
vertex 5.24062154780853e-011 52.2 5.00000000000001
endloop
endfacet
facet normal -1.0 4.83174035931195e-013 4.49678141984379e-013
outer loop
vertex 5.24062154780853e-011 52.2 5.00000000000001
vertex 6.18042825248916e-011 55.0000000000005 10.0
vertex 4.94706303697529e-011 55.0 1.76247905159244e-014
endloop
endfacet
facet normal -1.0 4.83174035931195e-013 4.49678141984379e-013
outer loop
vertex 4.34181010586793e-011 30.0 15.0
vertex 4.71773342614399e-011 25.0 8.45989944764369e-015
vertex 3.89204724005054e-011 25.0 15.0
endloop
endfacet
facet normal -1.0 4.83174035931195e-013 4.49678141984379e-013
outer loop
vertex 4.71773342614399e-011 25.0 8.45989944764369e-015
vertex 4.34181010586793e-011 30.0 15.0
vertex 4.73233140172452e-011 48.4443650813896 3.4443650813896
endloop
endfacet
facet normal -1.0 4.83174035931195e-013 4.49678141984379e-013
outer loop
vertex 4.71773342614399e-011 25.0 8.45989944764369e-015
vertex 4.73233140172452e-011 48.4443650813896 3.4443650813896
vertex 4.94706303697529e-011 55.0 1.76247905159244e-014
endloop
endfacet
facet normal -1.0 4.83174035931195e-013 4.49678141984379e-013
outer loop
vertex 4.73233140172452e-011 48.4443650813896 3.4443650813896
vertex 4.34181010586793e-011 30.0 15.0
vertex 4.83134747484299e-011 40.0000000000005 10.0
endloop
endfacet
facet normal -1.0 4.83174035931195e-013 4.49678141984379e-013
outer loop
vertex 4.83134747484299e-011 40.0000000000005 10.0
vertex 4.34181010586793e-011 30.0 15.0
vertex 6.33706392916267e-011 40.0 25.0
endloop
endfacet
facet normal -1.0 4.83174035931195e-013 4.49678141984379e-013
outer loop
vertex 4.73233140172452e-011 48.4443650813896 3.4443650813896
vertex 4.83134747484299e-011 40.0000000000005 10.0
vertex 4.84481281479715e-011 47.8 5.00000000000001
endloop
endfacet
facet normal -1.0 4.83174035931195e-013 4.49678141984379e-013
outer loop
vertex 4.94706303697529e-011 55.0 1.76247905159244e-014
vertex 4.73233140172452e-011 48.4443650813896 3.4443650813896
vertex 4.80166732761417e-011 50.0 2.80000000000001
endloop
endfacet
facet normal -1.0 4.83174035931195e-013 4.49678141984379e-013
outer loop
vertex 4.94706303697529e-011 55.0 1.76247905159244e-014
vertex 4.80166732761417e-011 50.0 2.80000000000001
vertex 5.01220426272215e-011 51.5556349186104 3.4443650813896
endloop
endfacet
facet normal -1.0 4.83174035931195e-013 4.49678141984379e-013
outer loop
vertex 4.94706303697529e-011 55.0 1.76247905159244e-014
vertex 5.01220426272215e-011 51.5556349186104 3.4443650813896
vertex 5.24062154780853e-011 52.2 5.00000000000001
endloop
endfacet
endsolid 8mm Belt and Flag Harness
