solid 8mm Crossbar Mount
facet normal 0.272809249509278 0.962068143835032 -1.1748502340031e-014
outer loop
vertex 30.7111338687174 3.18044144393096 0.000563971796339637
vertex 32.0192336219341 2.80950959856739 6.33533203434413
vertex 32.0192336219337 2.80950959856742 0.000563971796226278
endloop
endfacet
facet normal 0.272809249509278 0.962068143835032 -1.1748502340031e-014
outer loop
vertex 32.0192336219341 2.80950959856739 6.33533203434413
vertex 30.7111338687174 3.18044144393096 0.000563971796339637
vertex 30.7111338687178 3.18044144393093 6.33533203434423
endloop
endfacet
facet normal -0.344782147570928 0.93868273165984 1.81802643247247e-014
outer loop
vertex 32.0789120812454 1.23344573509472 6.33533203434411
vertex 34.2702048043356 2.03831684387449 11.3353320343441
vertex 34.2702048043353 2.0383168438745 6.33533203434409
endloop
endfacet
facet normal -0.344782147570928 0.93868273165984 1.81802643247247e-014
outer loop
vertex 34.2702048043356 2.03831684387449 11.3353320343441
vertex 32.0789120812454 1.23344573509472 6.33533203434411
vertex 32.0789120812457 1.23344573509472 11.3353320343442
endloop
endfacet
facet normal 0.999283871635333 0.0378383917403885 -5.39770193983092e-014
outer loop
vertex 28.3904030570108 3.70562524840896 6.3353320343443
vertex 28.3020718353132 6.03838732270812 11.3353320343443
vertex 28.390403057011 3.70562524840895 11.3353320343443
endloop
endfacet
facet normal 0.999283871635333 0.0378383917403885 -5.39770193983092e-014
outer loop
vertex 28.3020718353132 6.03838732270812 11.3353320343443
vertex 28.3904030570108 3.70562524840896 6.3353320343443
vertex 28.302071835313 6.03838732270814 6.33533203434433
endloop
endfacet
facet normal -0.999283871635365 0.0378383917395525 5.2020945480382e-014
outer loop
vertex 11.597928164683 6.03287081027907 11.3353320343452
vertex 11.5095969429869 3.70010873597984 6.33533203434521
vertex 11.5095969429871 3.7001087359798 11.3353320343452
endloop
endfacet
facet normal -0.999283871635365 0.0378383917395525 5.2020945480382e-014
outer loop
vertex 11.5095969429869 3.70010873597984 6.33533203434521
vertex 11.597928164683 6.03287081027907 11.3353320343452
vertex 11.5979281646827 6.03287081027908 6.33533203434522
endloop
endfacet
facet normal -0.830678482992767 -0.556752420643895 4.1209678206061e-014
outer loop
vertex 10.2982264797885 7.9720347616503 11.3353320343453
vertex 11.5979281646827 6.03287081027908 6.33533203434522
vertex 11.597928164683 6.03287081027907 11.3353320343452
endloop
endfacet
facet normal -0.830678482992767 -0.556752420643895 4.1209678206061e-014
outer loop
vertex 11.5979281646827 6.03287081027908 6.33533203434522
vertex 10.2982264797885 7.9720347616503 11.3353320343453
vertex 10.2982264797882 7.97203476165033 6.33533203434527
endloop
endfacet
facet normal -0.786196785722309 -0.617976224558769 4.37429594779224e-014
outer loop
vertex 33.1608444558234 6.83542667402406 6.33533203434403
vertex 34.0010911182024 5.76645476390219 0.000563971796190571
vertex 34.0010911182028 5.76645476390217 6.3353320343441
endloop
endfacet
facet normal -0.786196785722309 -0.617976224558769 4.37429594779224e-014
outer loop
vertex 34.0010911182024 5.76645476390219 0.000563971796190571
vertex 33.1608444558234 6.83542667402406 6.33533203434403
vertex 33.1608444558231 6.83542667402412 0.000563971796189284
endloop
endfacet
facet normal -0.78619678572232 -0.617976224558755 4.47246576956415e-014
outer loop
vertex 34.038950663663 8.14556724205647 11.3353320343441
vertex 35.4815752675304 6.31024286954601 6.33533203434398
vertex 35.4815752675307 6.310242869546 11.335332034344
endloop
endfacet
facet normal -0.78619678572232 -0.617976224558755 4.47246576956415e-014
outer loop
vertex 35.4815752675304 6.31024286954601 6.33533203434398
vertex 34.038950663663 8.14556724205647 11.3353320343441
vertex 34.0389506636627 8.14556724205648 6.33533203434403
endloop
endfacet
facet normal 0.786196785722301 0.617976224558779 -3.93896281185778e-014
outer loop
vertex 29.8330276608785 1.8703008758985 6.3353320343442
vertex 28.390403057011 3.70562524840895 11.3353320343443
vertex 29.8330276608787 1.87030087589849 11.3353320343443
endloop
endfacet
facet normal 0.786196785722301 0.617976224558779 -3.93896281185778e-014
outer loop
vertex 28.390403057011 3.70562524840895 11.3353320343443
vertex 29.8330276608785 1.8703008758985 6.3353320343442
vertex 28.3904030570108 3.70562524840896 6.3353320343443
endloop
endfacet
facet normal -0.830678482993246 0.556752420643179 4.88311578105854e-014
outer loop
vertex 34.0525390236499 4.40775372566956 6.33533203434409
vertex 33.2955368209336 3.27830117538138 0.000563971796227377
vertex 33.2955368209339 3.27830117538136 6.33533203434407
endloop
endfacet
facet normal -0.830678482993246 0.556752420643179 4.88311578105854e-014
outer loop
vertex 33.2955368209336 3.27830117538138 0.000563971796227377
vertex 34.0525390236499 4.40775372566956 6.33533203434409
vertex 34.0525390236495 4.40775372566961 0.000563971796187887
endloop
endfacet
facet normal 4.45513986813163e-014 -7.77923640521568e-019 1.0
outer loop
vertex 28.3904030570108 3.70562524840896 6.3353320343443
vertex 29.6017735202058 7.97755127408049 6.33533203434424
vertex 28.302071835313 6.03838732270814 6.33533203434433
endloop
endfacet
facet normal 4.45513986813163e-014 -7.77923640521568e-019 1.0
outer loop
vertex 29.6017735202058 7.97755127408049 6.33533203434424
vertex 28.3904030570108 3.70562524840896 6.3353320343443
vertex 29.8330276608785 1.8703008758985 6.3353320343442
endloop
endfacet
facet normal 4.45513986813163e-014 -7.77923640521568e-019 1.0
outer loop
vertex 29.6017735202058 7.97755127408049 6.33533203434424
vertex 29.8330276608785 1.8703008758985 6.3353320343442
vertex 29.8194393008913 5.60811439228544 6.33533203434425
endloop
endfacet
facet normal 4.45513986813163e-014 -7.77923640521568e-019 1.0
outer loop
vertex 29.8194393008913 5.60811439228544 6.33533203434425
vertex 29.8330276608785 1.8703008758985 6.3353320343442
vertex 29.8708872063385 4.24941335405286 6.33533203434425
endloop
endfacet
facet normal 4.45513986813163e-014 -7.77923640521568e-019 1.0
outer loop
vertex 29.8708872063385 4.24941335405286 6.33533203434425
vertex 29.8330276608785 1.8703008758985 6.3353320343442
vertex 32.0789120812454 1.23344573509472 6.33533203434411
endloop
endfacet
facet normal 4.45513986813163e-014 -7.77923640521568e-019 1.0
outer loop
vertex 29.8708872063385 4.24941335405286 6.33533203434425
vertex 32.0789120812454 1.23344573509472 6.33533203434411
vertex 30.7111338687178 3.18044144393093 6.33533203434423
endloop
endfacet
facet normal 4.45513986813163e-014 -7.77923640521568e-019 1.0
outer loop
vertex 30.7111338687178 3.18044144393093 6.33533203434423
vertex 32.0789120812454 1.23344573509472 6.33533203434411
vertex 32.0192336219341 2.80950959856739 6.33533203434413
endloop
endfacet
facet normal 4.45513986813163e-014 -7.77923640521568e-019 1.0
outer loop
vertex 32.0192336219341 2.80950959856739 6.33533203434413
vertex 32.0789120812454 1.23344573509472 6.33533203434411
vertex 33.2955368209339 3.27830117538136 6.33533203434407
endloop
endfacet
facet normal 4.45513986813163e-014 -7.77923640521568e-019 1.0
outer loop
vertex 33.2955368209339 3.27830117538136 6.33533203434407
vertex 32.0789120812454 1.23344573509472 6.33533203434411
vertex 34.2702048043353 2.0383168438745 6.33533203434409
endloop
endfacet
facet normal 4.45513986813163e-014 -7.77923640521568e-019 1.0
outer loop
vertex 33.2955368209339 3.27830117538136 6.33533203434407
vertex 34.2702048043353 2.0383168438745 6.33533203434409
vertex 34.0525390236499 4.40775372566956 6.33533203434409
endloop
endfacet
facet normal 4.45513986813163e-014 -7.77923640521568e-019 1.0
outer loop
vertex 29.8194393008913 5.60811439228544 6.33533203434425
vertex 31.7930662432958 8.78242238286028 6.33533203434415
vertex 29.6017735202058 7.97755127408049 6.33533203434424
endloop
endfacet
facet normal 4.45513986813163e-014 -7.77923640521568e-019 1.0
outer loop
vertex 31.7930662432958 8.78242238286028 6.33533203434415
vertex 29.8194393008913 5.60811439228544 6.33533203434425
vertex 30.5764415036073 6.73756694257364 6.33533203434425
endloop
endfacet
facet normal 4.45513986813163e-014 -7.77923640521568e-019 1.0
outer loop
vertex 31.7930662432958 8.78242238286028 6.33533203434415
vertex 30.5764415036073 6.73756694257364 6.33533203434425
vertex 31.8527447026072 7.20635851938762 6.33533203434415
endloop
endfacet
facet normal 4.45513986813163e-014 -7.77923640521568e-019 1.0
outer loop
vertex 31.7930662432958 8.78242238286028 6.33533203434415
vertex 31.8527447026072 7.20635851938762 6.33533203434415
vertex 34.0389506636627 8.14556724205648 6.33533203434403
endloop
endfacet
facet normal 4.45513986813163e-014 -7.77923640521568e-019 1.0
outer loop
vertex 34.0389506636627 8.14556724205648 6.33533203434403
vertex 31.8527447026072 7.20635851938762 6.33533203434415
vertex 33.1608444558234 6.83542667402406 6.33533203434403
endloop
endfacet
facet normal 4.45513986813163e-014 -7.77923640521568e-019 1.0
outer loop
vertex 34.0389506636627 8.14556724205648 6.33533203434403
vertex 33.1608444558234 6.83542667402406 6.33533203434403
vertex 34.0010911182028 5.76645476390217 6.3353320343441
endloop
endfacet
facet normal 4.45513986813163e-014 -7.77923640521568e-019 1.0
outer loop
vertex 34.0389506636627 8.14556724205648 6.33533203434403
vertex 34.0010911182028 5.76645476390217 6.3353320343441
vertex 34.0525390236499 4.40775372566956 6.33533203434409
endloop
endfacet
facet normal 4.45513986813163e-014 -7.77923640521568e-019 1.0
outer loop
vertex 34.0389506636627 8.14556724205648 6.33533203434403
vertex 34.0525390236499 4.40775372566956 6.33533203434409
vertex 35.4815752675304 6.31024286954601 6.33533203434398
endloop
endfacet
facet normal 4.45513986813163e-014 -7.77923640521568e-019 1.0
outer loop
vertex 35.4815752675304 6.31024286954601 6.33533203434398
vertex 34.0525390236499 4.40775372566956 6.33533203434409
vertex 34.2702048043353 2.0383168438745 6.33533203434409
endloop
endfacet
facet normal 4.45513986813163e-014 -7.77923640521568e-019 1.0
outer loop
vertex 35.4815752675304 6.31024286954601 6.33533203434398
vertex 34.2702048043353 2.0383168438745 6.33533203434409
vertex 35.5699064892282 3.97748079524684 6.33533203434397
endloop
endfacet
facet normal -0.272809249509287 -0.96206814383503 1.2598693233964e-014
outer loop
vertex 34.038950663663 8.14556724205647 11.3353320343441
vertex 31.7930662432958 8.78242238286028 6.33533203434415
vertex 34.0389506636627 8.14556724205648 6.33533203434403
endloop
endfacet
facet normal -0.272809249509287 -0.96206814383503 1.2598693233964e-014
outer loop
vertex 31.7930662432958 8.78242238286028 6.33533203434415
vertex 34.038950663663 8.14556724205647 11.3353320343441
vertex 31.7930662432961 8.78242238286027 11.3353320343442
endloop
endfacet
facet normal 0.344782147570926 -0.938682731659841 -2.07925658319172e-014
outer loop
vertex 31.7930662432961 8.78242238286027 11.3353320343442
vertex 29.6017735202058 7.97755127408049 6.33533203434424
vertex 31.7930662432958 8.78242238286028 6.33533203434415
endloop
endfacet
facet normal 0.344782147570926 -0.938682731659841 -2.07925658319172e-014
outer loop
vertex 29.6017735202058 7.97755127408049 6.33533203434424
vertex 31.7930662432961 8.78242238286027 11.3353320343442
vertex 29.6017735202061 7.97755127408048 11.3353320343442
endloop
endfacet
facet normal 0.27280924950928 0.962068143835032 -1.24534079729424e-014
outer loop
vertex 29.8330276608785 1.8703008758985 6.3353320343442
vertex 32.0789120812457 1.23344573509472 11.3353320343442
vertex 32.0789120812454 1.23344573509472 6.33533203434411
endloop
endfacet
facet normal 0.27280924950928 0.962068143835032 -1.24534079729424e-014
outer loop
vertex 32.0789120812457 1.23344573509472 11.3353320343442
vertex 29.8330276608785 1.8703008758985 6.3353320343442
vertex 29.8330276608787 1.87030087589849 11.3353320343443
endloop
endfacet
facet normal 0.344782147570146 0.938682731660127 -1.68361041634897e-014
outer loop
vertex 5.62979519566379 2.03280033144038 6.3353320343456
vertex 7.8210879187546 1.22792922266244 11.3353320343455
vertex 7.82108791875434 1.22792922266244 6.3353320343454
endloop
endfacet
facet normal 0.344782147570146 0.938682731660127 -1.68361041634897e-014
outer loop
vertex 7.8210879187546 1.22792922266244 11.3353320343455
vertex 5.62979519566379 2.03280033144038 6.3353320343456
vertex 5.62979519566405 2.03280033144037 11.3353320343456
endloop
endfacet
facet normal -0.272809249510097 0.9620681438348 1.52402730332971e-014
outer loop
vertex 7.82108791875434 1.22792922266244 6.3353320343454
vertex 10.066972339121 1.86478436346812 11.3353320343453
vertex 10.0669723391207 1.86478436346813 6.33533203434526
endloop
endfacet
facet normal -0.272809249510097 0.9620681438348 1.52402730332971e-014
outer loop
vertex 10.066972339121 1.86478436346812 11.3353320343453
vertex 7.82108791875434 1.22792922266244 6.3353320343454
vertex 7.8210879187546 1.22792922266244 11.3353320343455
endloop
endfacet
facet normal 0.999283871635333 0.0378383917403863 -4.96877129675752e-014
outer loop
vertex 29.8708872063381 4.24941335405288 0.000563971796428589
vertex 29.8194393008913 5.60811439228544 6.33533203434425
vertex 29.8708872063385 4.24941335405286 6.33533203434425
endloop
endfacet
facet normal 0.999283871635333 0.0378383917403863 -4.96877129675752e-014
outer loop
vertex 29.8194393008913 5.60811439228544 6.33533203434425
vertex 29.8708872063381 4.24941335405288 0.000563971796428589
vertex 29.819439300891 5.60811439228546 0.000563971796408714
endloop
endfacet
facet normal -0.786196785722835 0.6179762245581 4.35768367089862e-014
outer loop
vertex 11.5095969429871 3.7001087359798 11.3353320343452
vertex 10.0669723391207 1.86478436346813 6.33533203434526
vertex 10.066972339121 1.86478436346812 11.3353320343453
endloop
endfacet
facet normal -0.786196785722835 0.6179762245581 4.35768367089862e-014
outer loop
vertex 10.0669723391207 1.86478436346813 6.33533203434526
vertex 11.5095969429871 3.7001087359798 11.3353320343452
vertex 11.5095969429869 3.70010873597984 6.33533203434521
endloop
endfacet
facet normal -0.344782147570138 -0.93868273166013 1.01138667405698e-014
outer loop
vertex 9.32355849638756 6.73205043014268 0.000563971797501127
vertex 8.04725529738749 7.20084200695553 6.33533203434539
vertex 8.04725529738722 7.20084200695558 0.000563971797500029
endloop
endfacet
facet normal -0.344782147570138 -0.93868273166013 1.01138667405698e-014
outer loop
vertex 8.04725529738749 7.20084200695553 6.33533203434539
vertex 9.32355849638756 6.73205043014268 0.000563971797501127
vertex 9.32355849638787 6.73205043014265 6.33533203434534
endloop
endfacet
facet normal 0.272809249510113 -0.962068143834796 -1.74138621448661e-014
outer loop
vertex 8.04725529738749 7.20084200695553 6.33533203434539
vertex 6.7391555441713 6.82991016159091 0.000563971797590828
vertex 8.04725529738722 7.20084200695558 0.000563971797500029
endloop
endfacet
facet normal 0.272809249510113 -0.962068143834796 -1.74138621448661e-014
outer loop
vertex 6.7391555441713 6.82991016159091 0.000563971797590828
vertex 8.04725529738749 7.20084200695553 6.33533203434539
vertex 6.73915554417156 6.82991016159087 6.33533203434541
endloop
endfacet
facet normal -0.786196785722834 0.6179762245581 3.98467031081262e-014
outer loop
vertex 10.0291127936588 4.24389684162245 6.33533203434528
vertex 9.18886613128008 3.17492493149987 0.000563971797485594
vertex 9.18886613128036 3.17492493149983 6.33533203434535
endloop
endfacet
facet normal -0.786196785722834 0.6179762245581 3.98467031081262e-014
outer loop
vertex 9.18886613128008 3.17492493149987 0.000563971797485594
vertex 10.0291127936588 4.24389684162245 6.33533203434528
vertex 10.0291127936585 4.24389684162247 0.000563971797486881
endloop
endfacet
facet normal 0.999283871635366 -0.0378383917395287 -4.29180185258936e-014
outer loop
vertex 4.3300935107693 3.9719642828116 6.33533203434563
vertex 4.41842473246531 6.30472635711083 11.3353320343456
vertex 4.33009351076952 3.97196428281159 11.3353320343456
endloop
endfacet
facet normal 0.999283871635366 -0.0378383917395287 -4.29180185258936e-014
outer loop
vertex 4.41842473246531 6.30472635711083 11.3353320343456
vertex 4.3300935107693 3.9719642828116 6.33533203434563
vertex 4.41842473246509 6.30472635711084 6.33533203434562
endloop
endfacet
facet normal -0.999283871635365 0.0378383917395601 5.44382725958027e-014
outer loop
vertex 10.0805606991048 5.6025978798551 6.33533203434528
vertex 10.0291127936585 4.24389684162247 0.000563971797486881
vertex 10.0291127936588 4.24389684162245 6.33533203434528
endloop
endfacet
facet normal -0.999283871635365 0.0378383917395601 5.44382725958027e-014
outer loop
vertex 10.0291127936585 4.24389684162247 0.000563971797486881
vertex 10.0805606991048 5.6025978798551 6.33533203434528
vertex 10.0805606991044 5.60259787985513 0.000563971797461637
endloop
endfacet
facet normal -0.830678482992755 -0.556752420643912 4.2137799409798e-014
outer loop
vertex 9.32355849638787 6.73205043014265 6.33533203434534
vertex 10.0805606991044 5.60259787985513 0.000563971797461637
vertex 10.0805606991048 5.6025978798551 6.33533203434528
endloop
endfacet
facet normal -0.830678482992755 -0.556752420643912 4.2137799409798e-014
outer loop
vertex 10.0805606991044 5.60259787985513 0.000563971797461637
vertex 9.32355849638787 6.73205043014265 6.33533203434534
vertex 9.32355849638756 6.73205043014268 0.000563971797501127
endloop
endfacet
facet normal 0.786196785722843 -0.617976224558089 -3.9337592123183e-014
outer loop
vertex 4.41842473246509 6.30472635711084 6.33533203434562
vertex 5.86104933633144 8.14005072962252 11.3353320343456
vertex 4.41842473246531 6.30472635711083 11.3353320343456
endloop
endfacet
facet normal 0.786196785722843 -0.617976224558089 -3.9337592123183e-014
outer loop
vertex 5.86104933633144 8.14005072962252 11.3353320343456
vertex 4.41842473246509 6.30472635711084 6.33533203434562
vertex 5.86104933633118 8.14005072962255 6.33533203434552
endloop
endfacet
facet normal 0.830678482992771 0.556752420643888 -3.6231160286459e-014
outer loop
vertex 6.60446317906379 3.27278466294809 0.000563971797642974
vertex 5.84746097634724 4.40223721323563 6.33533203434557
vertex 6.60446317906409 3.27278466294808 6.33533203434544
endloop
endfacet
facet normal 0.830678482992771 0.556752420643888 -3.6231160286459e-014
outer loop
vertex 5.84746097634724 4.40223721323563 6.33533203434557
vertex 6.60446317906379 3.27278466294809 0.000563971797642974
vertex 5.84746097634697 4.40223721323565 0.000563971797682463
endloop
endfacet
facet normal 0.344782147570141 0.938682731660129 -1.3144035600288e-014
outer loop
vertex 6.60446317906379 3.27278466294809 0.000563971797642974
vertex 7.88076637806443 2.80399308613518 6.33533203434537
vertex 7.88076637806416 2.80399308613521 0.000563971797508714
endloop
endfacet
facet normal 0.344782147570141 0.938682731660129 -1.3144035600288e-014
outer loop
vertex 7.88076637806443 2.80399308613518 6.33533203434537
vertex 6.60446317906379 3.27278466294809 0.000563971797642974
vertex 6.60446317906409 3.27278466294808 6.33533203434544
endloop
endfacet
facet normal -0.272809249510103 0.962068143834798 1.61848323415968e-014
outer loop
vertex 7.88076637806416 2.80399308613521 0.000563971797508714
vertex 9.18886613128036 3.17492493149983 6.33533203434535
vertex 9.18886613128008 3.17492493149987 0.000563971797485594
endloop
endfacet
facet normal -0.272809249510103 0.962068143834798 1.61848323415968e-014
outer loop
vertex 9.18886613128036 3.17492493149983 6.33533203434535
vertex 7.88076637806416 2.80399308613521 0.000563971797508714
vertex 7.88076637806443 2.80399308613518 6.33533203434537
endloop
endfacet
facet normal 0.786196785722838 -0.617976224558096 -3.5648406247814e-014
outer loop
vertex 5.89890888179291 5.76093825146829 0.00056397179767978
vertex 6.73915554417156 6.82991016159087 6.33533203434541
vertex 5.89890888179318 5.76093825146827 6.33533203434557
endloop
endfacet
facet normal 0.786196785722838 -0.617976224558096 -3.5648406247814e-014
outer loop
vertex 6.73915554417156 6.82991016159087 6.33533203434541
vertex 5.89890888179291 5.76093825146829 0.00056397179767978
vertex 6.7391555441713 6.82991016159091 0.000563971797590828
endloop
endfacet
facet normal 1.0 4.24015794041251e-013 -4.57749125668857e-014
outer loop
vertex 39.9000000000002 0.00551651243891427 -2.10466091711721e-012
vertex 39.8999999999965 10.0080438931511 11.3353320343437
vertex 39.9000000000007 0.00551651243886915 11.3353320343437
endloop
endfacet
facet normal 1.0 4.24015794041251e-013 -4.57749125668857e-014
outer loop
vertex 39.8999999999965 10.0080438931511 11.3353320343437
vertex 39.9000000000002 0.00551651243891427 -2.10466091711721e-012
vertex 39.899999999996 10.0080438931511 -2.08210118525683e-012
endloop
endfacet
facet normal 0.999283871635366 -0.0378383917395315 -4.28393025706012e-014
outer loop
vertex 5.84746097634697 4.40223721323565 0.000563971797682463
vertex 5.89890888179318 5.76093825146827 6.33533203434557
vertex 5.84746097634724 4.40223721323563 6.33533203434557
endloop
endfacet
facet normal 0.999283871635366 -0.0378383917395315 -4.28393025706012e-014
outer loop
vertex 5.89890888179318 5.76093825146827 6.33533203434557
vertex 5.84746097634697 4.40223721323565 0.000563971797682463
vertex 5.89890888179291 5.76093825146829 0.00056397179767978
endloop
endfacet
facet normal -0.999283871635333 -0.0378383917403886 6.30358736155565e-014
outer loop
vertex 35.4815752675307 6.310242869546 11.335332034344
vertex 35.5699064892282 3.97748079524684 6.33533203434397
vertex 35.5699064892285 3.97748079524682 11.335332034344
endloop
endfacet
facet normal -0.999283871635333 -0.0378383917403886 6.30358736155565e-014
outer loop
vertex 35.5699064892282 3.97748079524684 6.33533203434397
vertex 35.4815752675307 6.310242869546 11.335332034344
vertex 35.4815752675304 6.31024286954601 6.33533203434398
endloop
endfacet
facet normal 0.2728092495101 -0.962068143834799 -1.741926410625e-014
outer loop
vertex 8.10693375669788 8.77690587042823 11.3353320343454
vertex 5.86104933633118 8.14005072962255 6.33533203434552
vertex 8.10693375669762 8.77690587042824 6.33533203434541
endloop
endfacet
facet normal 0.2728092495101 -0.962068143834799 -1.741926410625e-014
outer loop
vertex 5.86104933633118 8.14005072962255 6.33533203434552
vertex 8.10693375669788 8.77690587042823 11.3353320343454
vertex 5.86104933633144 8.14005072962252 11.3353320343456
endloop
endfacet
facet normal 0.830678482992765 0.556752420643898 -3.80904118714842e-014
outer loop
vertex 5.62979519566379 2.03280033144038 6.3353320343456
vertex 4.33009351076952 3.97196428281159 11.3353320343456
vertex 5.62979519566405 2.03280033144037 11.3353320343456
endloop
endfacet
facet normal 0.830678482992765 0.556752420643898 -3.80904118714842e-014
outer loop
vertex 4.33009351076952 3.97196428281159 11.3353320343456
vertex 5.62979519566379 2.03280033144038 6.3353320343456
vertex 4.3300935107693 3.9719642828116 6.33533203434563
endloop
endfacet
facet normal 5.9739303558415e-014 2.7627359161597e-017 1.0
outer loop
vertex 7.82108791875434 1.22792922266244 6.3353320343454
vertex 5.84746097634724 4.40223721323563 6.33533203434557
vertex 5.62979519566379 2.03280033144038 6.3353320343456
endloop
endfacet
facet normal 5.9739303558415e-014 2.7627359161597e-017 1.0
outer loop
vertex 5.84746097634724 4.40223721323563 6.33533203434557
vertex 7.82108791875434 1.22792922266244 6.3353320343454
vertex 6.60446317906409 3.27278466294808 6.33533203434544
endloop
endfacet
facet normal 5.9739303558415e-014 2.7627359161597e-017 1.0
outer loop
vertex 6.60446317906409 3.27278466294808 6.33533203434544
vertex 7.82108791875434 1.22792922266244 6.3353320343454
vertex 7.88076637806443 2.80399308613518 6.33533203434537
endloop
endfacet
facet normal 5.9739303558415e-014 2.7627359161597e-017 1.0
outer loop
vertex 7.88076637806443 2.80399308613518 6.33533203434537
vertex 7.82108791875434 1.22792922266244 6.3353320343454
vertex 10.0669723391207 1.86478436346813 6.33533203434526
endloop
endfacet
facet normal 5.9739303558415e-014 2.7627359161597e-017 1.0
outer loop
vertex 7.88076637806443 2.80399308613518 6.33533203434537
vertex 10.0669723391207 1.86478436346813 6.33533203434526
vertex 9.18886613128036 3.17492493149983 6.33533203434535
endloop
endfacet
facet normal 5.9739303558415e-014 2.7627359161597e-017 1.0
outer loop
vertex 9.18886613128036 3.17492493149983 6.33533203434535
vertex 10.0669723391207 1.86478436346813 6.33533203434526
vertex 10.0291127936588 4.24389684162245 6.33533203434528
endloop
endfacet
facet normal 5.9739303558415e-014 2.7627359161597e-017 1.0
outer loop
vertex 10.0291127936588 4.24389684162245 6.33533203434528
vertex 10.0669723391207 1.86478436346813 6.33533203434526
vertex 10.0805606991048 5.6025978798551 6.33533203434528
endloop
endfacet
facet normal 5.9739303558415e-014 2.7627359161597e-017 1.0
outer loop
vertex 10.0805606991048 5.6025978798551 6.33533203434528
vertex 10.0669723391207 1.86478436346813 6.33533203434526
vertex 11.5095969429869 3.70010873597984 6.33533203434521
endloop
endfacet
facet normal 5.9739303558415e-014 2.7627359161597e-017 1.0
outer loop
vertex 10.0805606991048 5.6025978798551 6.33533203434528
vertex 11.5095969429869 3.70010873597984 6.33533203434521
vertex 10.2982264797882 7.97203476165033 6.33533203434527
endloop
endfacet
facet normal 5.9739303558415e-014 2.7627359161597e-017 1.0
outer loop
vertex 10.2982264797882 7.97203476165033 6.33533203434527
vertex 11.5095969429869 3.70010873597984 6.33533203434521
vertex 11.5979281646827 6.03287081027908 6.33533203434522
endloop
endfacet
facet normal 5.9739303558415e-014 2.7627359161597e-017 1.0
outer loop
vertex 5.62979519566379 2.03280033144038 6.3353320343456
vertex 4.41842473246509 6.30472635711084 6.33533203434562
vertex 4.3300935107693 3.9719642828116 6.33533203434563
endloop
endfacet
facet normal 5.9739303558415e-014 2.7627359161597e-017 1.0
outer loop
vertex 4.41842473246509 6.30472635711084 6.33533203434562
vertex 5.62979519566379 2.03280033144038 6.3353320343456
vertex 5.86104933633118 8.14005072962255 6.33533203434552
endloop
endfacet
facet normal 5.9739303558415e-014 2.7627359161597e-017 1.0
outer loop
vertex 5.86104933633118 8.14005072962255 6.33533203434552
vertex 5.62979519566379 2.03280033144038 6.3353320343456
vertex 5.84746097634724 4.40223721323563 6.33533203434557
endloop
endfacet
facet normal 5.9739303558415e-014 2.7627359161597e-017 1.0
outer loop
vertex 5.86104933633118 8.14005072962255 6.33533203434552
vertex 5.84746097634724 4.40223721323563 6.33533203434557
vertex 5.89890888179318 5.76093825146827 6.33533203434557
endloop
endfacet
facet normal 5.9739303558415e-014 2.7627359161597e-017 1.0
outer loop
vertex 5.86104933633118 8.14005072962255 6.33533203434552
vertex 5.89890888179318 5.76093825146827 6.33533203434557
vertex 8.10693375669762 8.77690587042824 6.33533203434541
endloop
endfacet
facet normal 5.9739303558415e-014 2.7627359161597e-017 1.0
outer loop
vertex 8.10693375669762 8.77690587042824 6.33533203434541
vertex 5.89890888179318 5.76093825146827 6.33533203434557
vertex 6.73915554417156 6.82991016159087 6.33533203434541
endloop
endfacet
facet normal 5.9739303558415e-014 2.7627359161597e-017 1.0
outer loop
vertex 8.10693375669762 8.77690587042824 6.33533203434541
vertex 6.73915554417156 6.82991016159087 6.33533203434541
vertex 8.04725529738749 7.20084200695553 6.33533203434539
endloop
endfacet
facet normal 5.9739303558415e-014 2.7627359161597e-017 1.0
outer loop
vertex 8.10693375669762 8.77690587042824 6.33533203434541
vertex 8.04725529738749 7.20084200695553 6.33533203434539
vertex 9.32355849638787 6.73205043014265 6.33533203434534
endloop
endfacet
facet normal 5.9739303558415e-014 2.7627359161597e-017 1.0
outer loop
vertex 8.10693375669762 8.77690587042824 6.33533203434541
vertex 9.32355849638787 6.73205043014265 6.33533203434534
vertex 10.2982264797882 7.97203476165033 6.33533203434527
endloop
endfacet
facet normal 5.9739303558415e-014 2.7627359161597e-017 1.0
outer loop
vertex 10.2982264797882 7.97203476165033 6.33533203434527
vertex 9.32355849638787 6.73205043014265 6.33533203434534
vertex 10.0805606991048 5.6025978798551 6.33533203434528
endloop
endfacet
facet normal -1.0 -4.26835047990994e-013 5.92088542984721e-014
outer loop
vertex -3.59827723173112e-012 10.0025273807122 11.3353320343458
vertex 0.0 0.0 0.0
vertex 6.76791955811495e-013 -4.51194637207664e-014 11.3353320343458
endloop
endfacet
facet normal -1.0 -4.26835047990994e-013 5.92088542984721e-014
outer loop
vertex 0.0 0.0 0.0
vertex -3.59827723173112e-012 10.0025273807122 11.3353320343458
vertex -4.26378932161242e-012 10.0025273807122 2.25597318603832e-014
endloop
endfacet
facet normal 0.000138258455794212 -0.9999999904423 -4.25722160024527e-015
outer loop
vertex 39.9000000000007 0.00551651243886915 11.3353320343437
vertex 0.0 0.0 0.0
vertex 39.9000000000002 0.00551651243891427 -2.10466091711721e-012
endloop
endfacet
facet normal 0.000138258455794212 -0.9999999904423 -4.25722160024527e-015
outer loop
vertex 0.0 0.0 0.0
vertex 39.9000000000007 0.00551651243886915 11.3353320343437
vertex 6.76791955811495e-013 -4.51194637207664e-014 11.3353320343458
endloop
endfacet
facet normal 0.000138258455794212 -0.9999999904423 -4.25722160024527e-015
outer loop
vertex 6.76791955811495e-013 -4.51194637207664e-014 11.3353320343458
vertex 39.9000000000007 0.00551651243886915 11.3353320343437
vertex 19.9500000000007 0.00275825621940285 11.3353320343458
endloop
endfacet
facet normal -0.322685745696813 0.946506159263685 1.92476617257835e-014
outer loop
vertex -3.59827723173112e-012 10.0025273807122 11.3353320343458
vertex 16.8202753511742 15.7369465827415 1.89746016208275e-013
vertex -4.26378932161242e-012 10.0025273807122 2.25597318603832e-014
endloop
endfacet
facet normal -0.322685745696813 0.946506159263685 1.92476617257835e-014
outer loop
vertex 16.8202753511742 15.7369465827415 1.89746016208275e-013
vertex -3.59827723173112e-012 10.0025273807122 11.3353320343458
vertex 16.8202753511748 15.7369465827415 11.335332034346
endloop
endfacet
facet normal 5.27500515061042e-014 -1.22271428884598e-014 1.0
outer loop
vertex -3.59827723173112e-012 10.0025273807122 11.3353320343458
vertex 14.1670229091081 13.9640999799453 11.3353320343461
vertex 16.8202753511748 15.7369465827415 11.335332034346
endloop
endfacet
facet normal 5.27500515061042e-014 -1.22271428884598e-014 1.0
outer loop
vertex 14.1670229091081 13.9640999799453 11.3353320343461
vertex -3.59827723173112e-012 10.0025273807122 11.3353320343458
vertex 5.86104933633144 8.14005072962252 11.3353320343456
endloop
endfacet
facet normal 5.27500515061042e-014 -1.22271428884598e-014 1.0
outer loop
vertex 5.86104933633144 8.14005072962252 11.3353320343456
vertex -3.59827723173112e-012 10.0025273807122 11.3353320343458
vertex 4.41842473246531 6.30472635711083 11.3353320343456
endloop
endfacet
facet normal 5.27500515061042e-014 -1.22271428884598e-014 1.0
outer loop
vertex 4.41842473246531 6.30472635711083 11.3353320343456
vertex -3.59827723173112e-012 10.0025273807122 11.3353320343458
vertex 6.76791955811495e-013 -4.51194637207664e-014 11.3353320343458
endloop
endfacet
facet normal 5.27500515061042e-014 -1.22271428884598e-014 1.0
outer loop
vertex 4.41842473246531 6.30472635711083 11.3353320343456
vertex 6.76791955811495e-013 -4.51194637207664e-014 11.3353320343458
vertex 4.33009351076952 3.97196428281159 11.3353320343456
endloop
endfacet
facet normal 5.27500515061042e-014 -1.22271428884598e-014 1.0
outer loop
vertex 14.1670229091081 13.9640999799453 11.3353320343461
vertex 5.86104933633144 8.14005072962252 11.3353320343456
vertex 8.10693375669788 8.77690587042823 11.3353320343454
endloop
endfacet
facet normal 5.27500515061042e-014 -1.22271428884598e-014 1.0
outer loop
vertex 14.1670229091081 13.9640999799453 11.3353320343461
vertex 8.10693375669788 8.77690587042823 11.3353320343454
vertex 12.3941763063119 11.3108475378786 11.3353320343462
endloop
endfacet
facet normal 5.27500515061042e-014 -1.22271428884598e-014 1.0
outer loop
vertex 12.3941763063119 11.3108475378786 11.3353320343462
vertex 8.10693375669788 8.77690587042823 11.3353320343454
vertex 10.2982264797885 7.9720347616503 11.3353320343453
endloop
endfacet
facet normal 5.27500515061042e-014 -1.22271428884598e-014 1.0
outer loop
vertex 12.3941763063119 11.3108475378786 11.3353320343462
vertex 10.2982264797885 7.9720347616503 11.3353320343453
vertex 11.7716353671674 8.18112288905268 11.3353320343462
endloop
endfacet
facet normal 5.27500515061042e-014 -1.22271428884598e-014 1.0
outer loop
vertex 11.7716353671674 8.18112288905268 11.3353320343462
vertex 10.2982264797885 7.9720347616503 11.3353320343453
vertex 11.597928164683 6.03287081027907 11.3353320343452
endloop
endfacet
facet normal 5.27500515061042e-014 -1.22271428884598e-014 1.0
outer loop
vertex 39.9000000000007 0.00551651243886915 11.3353320343437
vertex 23.0797246488266 0.625299195363834 11.3353320343456
vertex 19.9500000000007 0.00275825621940285 11.3353320343458
endloop
endfacet
facet normal 5.27500515061042e-014 -1.22271428884598e-014 1.0
outer loop
vertex 23.0797246488266 0.625299195363834 11.3353320343456
vertex 39.9000000000007 0.00551651243886915 11.3353320343437
vertex 32.0789120812457 1.23344573509472 11.3353320343442
endloop
endfacet
facet normal 5.27500515061042e-014 -1.22271428884598e-014 1.0
outer loop
vertex 23.0797246488266 0.625299195363834 11.3353320343456
vertex 32.0789120812457 1.23344573509472 11.3353320343442
vertex 25.7329770908934 2.39814579816004 11.3353320343455
endloop
endfacet
facet normal 5.27500515061042e-014 -1.22271428884598e-014 1.0
outer loop
vertex 25.7329770908934 2.39814579816004 11.3353320343455
vertex 32.0789120812457 1.23344573509472 11.3353320343442
vertex 29.8330276608787 1.87030087589849 11.3353320343443
endloop
endfacet
facet normal 5.27500515061042e-014 -1.22271428884598e-014 1.0
outer loop
vertex 25.7329770908934 2.39814579816004 11.3353320343455
vertex 29.8330276608787 1.87030087589849 11.3353320343443
vertex 28.390403057011 3.70562524840895 11.3353320343443
endloop
endfacet
facet normal 5.27500515061042e-014 -1.22271428884598e-014 1.0
outer loop
vertex 25.7329770908934 2.39814579816004 11.3353320343455
vertex 28.390403057011 3.70562524840895 11.3353320343443
vertex 27.5058236936896 5.05139824022679 11.3353320343454
endloop
endfacet
facet normal 5.27500515061042e-014 -1.22271428884598e-014 1.0
outer loop
vertex 27.5058236936896 5.05139824022679 11.3353320343454
vertex 28.390403057011 3.70562524840895 11.3353320343443
vertex 28.128364632834 8.18112288905267 11.3353320343454
endloop
endfacet
facet normal 5.27500515061042e-014 -1.22271428884598e-014 1.0
outer loop
vertex 28.128364632834 8.18112288905267 11.3353320343454
vertex 28.390403057011 3.70562524840895 11.3353320343443
vertex 28.3020718353132 6.03838732270812 11.3353320343443
endloop
endfacet
facet normal 5.27500515061042e-014 -1.22271428884598e-014 1.0
outer loop
vertex 32.0789120812457 1.23344573509472 11.3353320343442
vertex 39.9000000000007 0.00551651243886915 11.3353320343437
vertex 34.2702048043356 2.03831684387449 11.3353320343441
endloop
endfacet
facet normal 5.27500515061042e-014 -1.22271428884598e-014 1.0
outer loop
vertex 34.2702048043356 2.03831684387449 11.3353320343441
vertex 39.9000000000007 0.00551651243886915 11.3353320343437
vertex 35.5699064892285 3.97748079524682 11.335332034344
endloop
endfacet
facet normal 5.27500515061042e-014 -1.22271428884598e-014 1.0
outer loop
vertex 35.5699064892285 3.97748079524682 11.335332034344
vertex 39.9000000000007 0.00551651243886915 11.3353320343437
vertex 39.8999999999965 10.0080438931511 11.3353320343437
endloop
endfacet
facet normal 5.27500515061042e-014 -1.22271428884598e-014 1.0
outer loop
vertex 25.7329770908934 13.9640999799453 11.3353320343455
vertex 39.8999999999965 10.0080438931511 11.3353320343437
vertex 23.0797246488266 15.7369465827415 11.3353320343456
endloop
endfacet
facet normal 5.27500515061042e-014 -1.22271428884598e-014 1.0
outer loop
vertex 39.8999999999965 10.0080438931511 11.3353320343437
vertex 25.7329770908934 13.9640999799453 11.3353320343455
vertex 27.5058236936896 11.3108475378786 11.3353320343454
endloop
endfacet
facet normal 5.27500515061042e-014 -1.22271428884598e-014 1.0
outer loop
vertex 39.8999999999965 10.0080438931511 11.3353320343437
vertex 27.5058236936896 11.3108475378786 11.3353320343454
vertex 31.7930662432961 8.78242238286027 11.3353320343442
endloop
endfacet
facet normal 5.27500515061042e-014 -1.22271428884598e-014 1.0
outer loop
vertex 31.7930662432961 8.78242238286027 11.3353320343442
vertex 27.5058236936896 11.3108475378786 11.3353320343454
vertex 28.128364632834 8.18112288905267 11.3353320343454
endloop
endfacet
facet normal 5.27500515061042e-014 -1.22271428884598e-014 1.0
outer loop
vertex 31.7930662432961 8.78242238286027 11.3353320343442
vertex 28.128364632834 8.18112288905267 11.3353320343454
vertex 29.6017735202061 7.97755127408048 11.3353320343442
endloop
endfacet
facet normal 5.27500515061042e-014 -1.22271428884598e-014 1.0
outer loop
vertex 29.6017735202061 7.97755127408048 11.3353320343442
vertex 28.128364632834 8.18112288905267 11.3353320343454
vertex 28.3020718353132 6.03838732270812 11.3353320343443
endloop
endfacet
facet normal 5.27500515061042e-014 -1.22271428884598e-014 1.0
outer loop
vertex 39.8999999999965 10.0080438931511 11.3353320343437
vertex 31.7930662432961 8.78242238286027 11.3353320343442
vertex 34.038950663663 8.14556724205647 11.3353320343441
endloop
endfacet
facet normal 5.27500515061042e-014 -1.22271428884598e-014 1.0
outer loop
vertex 39.8999999999965 10.0080438931511 11.3353320343437
vertex 34.038950663663 8.14556724205647 11.3353320343441
vertex 35.4815752675307 6.310242869546 11.335332034344
endloop
endfacet
facet normal 5.27500515061042e-014 -1.22271428884598e-014 1.0
outer loop
vertex 39.8999999999965 10.0080438931511 11.3353320343437
vertex 35.4815752675307 6.310242869546 11.335332034344
vertex 35.5699064892285 3.97748079524682 11.335332034344
endloop
endfacet
facet normal 5.27500515061042e-014 -1.22271428884598e-014 1.0
outer loop
vertex 6.76791955811495e-013 -4.51194637207664e-014 11.3353320343458
vertex 5.62979519566405 2.03280033144037 11.3353320343456
vertex 4.33009351076952 3.97196428281159 11.3353320343456
endloop
endfacet
facet normal 5.27500515061042e-014 -1.22271428884598e-014 1.0
outer loop
vertex 5.62979519566405 2.03280033144037 11.3353320343456
vertex 6.76791955811495e-013 -4.51194637207664e-014 11.3353320343458
vertex 7.8210879187546 1.22792922266244 11.3353320343455
endloop
endfacet
facet normal 5.27500515061042e-014 -1.22271428884598e-014 1.0
outer loop
vertex 7.8210879187546 1.22792922266244 11.3353320343455
vertex 6.76791955811495e-013 -4.51194637207664e-014 11.3353320343458
vertex 19.9500000000007 0.00275825621940285 11.3353320343458
endloop
endfacet
facet normal 5.27500515061042e-014 -1.22271428884598e-014 1.0
outer loop
vertex 7.8210879187546 1.22792922266244 11.3353320343455
vertex 19.9500000000007 0.00275825621940285 11.3353320343458
vertex 10.066972339121 1.86478436346812 11.3353320343453
endloop
endfacet
facet normal 5.27500515061042e-014 -1.22271428884598e-014 1.0
outer loop
vertex 10.066972339121 1.86478436346812 11.3353320343453
vertex 19.9500000000007 0.00275825621940285 11.3353320343458
vertex 16.8202753511748 0.625299195363831 11.335332034346
endloop
endfacet
facet normal 5.27500515061042e-014 -1.22271428884598e-014 1.0
outer loop
vertex 10.066972339121 1.86478436346812 11.3353320343453
vertex 16.8202753511748 0.625299195363831 11.335332034346
vertex 11.5095969429871 3.7001087359798 11.3353320343452
endloop
endfacet
facet normal 5.27500515061042e-014 -1.22271428884598e-014 1.0
outer loop
vertex 11.5095969429871 3.7001087359798 11.3353320343452
vertex 16.8202753511748 0.625299195363831 11.335332034346
vertex 14.1670229091081 2.39814579816004 11.3353320343461
endloop
endfacet
facet normal 5.27500515061042e-014 -1.22271428884598e-014 1.0
outer loop
vertex 11.5095969429871 3.7001087359798 11.3353320343452
vertex 14.1670229091081 2.39814579816004 11.3353320343461
vertex 11.597928164683 6.03287081027907 11.3353320343452
endloop
endfacet
facet normal 5.27500515061042e-014 -1.22271428884598e-014 1.0
outer loop
vertex 11.597928164683 6.03287081027907 11.3353320343452
vertex 14.1670229091081 2.39814579816004 11.3353320343461
vertex 12.3941763063119 5.05139824022678 11.3353320343462
endloop
endfacet
facet normal 5.27500515061042e-014 -1.22271428884598e-014 1.0
outer loop
vertex 11.597928164683 6.03287081027907 11.3353320343452
vertex 12.3941763063119 5.05139824022678 11.3353320343462
vertex 11.7716353671674 8.18112288905268 11.3353320343462
endloop
endfacet
facet normal -0.344782147570943 0.938682731659834 2.23747678413023e-014
outer loop
vertex 32.0192336219341 2.80950959856739 6.33533203434413
vertex 33.2955368209336 3.27830117538138 0.000563971796227377
vertex 32.0192336219337 2.80950959856742 0.000563971796226278
endloop
endfacet
facet normal -0.344782147570943 0.938682731659834 2.23747678413023e-014
outer loop
vertex 33.2955368209336 3.27830117538138 0.000563971796227377
vertex 32.0192336219341 2.80950959856739 6.33533203434413
vertex 33.2955368209339 3.27830117538136 6.33533203434407
endloop
endfacet
facet normal -0.830678482993238 0.556752420643191 4.8091058756956e-014
outer loop
vertex 35.5699064892285 3.97748079524682 11.335332034344
vertex 34.2702048043353 2.0383168438745 6.33533203434409
vertex 34.2702048043356 2.03831684387449 11.3353320343441
endloop
endfacet
facet normal -0.830678482993238 0.556752420643191 4.8091058756956e-014
outer loop
vertex 34.2702048043353 2.0383168438745 6.33533203434409
vertex 35.5699064892285 3.97748079524682 11.335332034344
vertex 35.5699064892282 3.97748079524684 6.33533203434397
endloop
endfacet
facet normal -0.344782147570132 -0.938682731660132 1.47145970096361e-014
outer loop
vertex 10.2982264797885 7.9720347616503 11.3353320343453
vertex 8.10693375669762 8.77690587042824 6.33533203434541
vertex 10.2982264797882 7.97203476165033 6.33533203434527
endloop
endfacet
facet normal -0.344782147570132 -0.938682731660132 1.47145970096361e-014
outer loop
vertex 8.10693375669762 8.77690587042824 6.33533203434541
vertex 10.2982264797885 7.9720347616503 11.3353320343453
vertex 8.10693375669788 8.77690587042823 11.3353320343454
endloop
endfacet
facet normal 0.34478214757094 -0.938682731659836 -2.57117844125874e-014
outer loop
vertex 31.8527447026072 7.20635851938762 6.33533203434415
vertex 30.5764415036069 6.7375669425737 0.000563971796369223
vertex 31.8527447026068 7.20635851938766 0.000563971796234963
endloop
endfacet
facet normal 0.34478214757094 -0.938682731659836 -2.57117844125874e-014
outer loop
vertex 30.5764415036069 6.7375669425737 0.000563971796369223
vertex 31.8527447026072 7.20635851938762 6.33533203434415
vertex 30.5764415036073 6.73756694257364 6.33533203434425
endloop
endfacet
facet normal -0.272809249509291 -0.962068143835029 9.18001692848605e-015
outer loop
vertex 33.1608444558234 6.83542667402406 6.33533203434403
vertex 31.8527447026068 7.20635851938766 0.000563971796234963
vertex 33.1608444558231 6.83542667402412 0.000563971796189284
endloop
endfacet
facet normal -0.272809249509291 -0.962068143835029 9.18001692848605e-015
outer loop
vertex 31.8527447026068 7.20635851938766 0.000563971796234963
vertex 33.1608444558234 6.83542667402406 6.33533203434403
vertex 31.8527447026072 7.20635851938762 6.33533203434415
endloop
endfacet
facet normal 0.786196785722315 0.617976224558761 -4.06461141884218e-014
outer loop
vertex 30.7111338687174 3.18044144393096 0.000563971796339637
vertex 29.8708872063385 4.24941335405286 6.33533203434425
vertex 30.7111338687178 3.18044144393093 6.33533203434423
endloop
endfacet
facet normal 0.786196785722315 0.617976224558761 -4.06461141884218e-014
outer loop
vertex 29.8708872063385 4.24941335405286 6.33533203434425
vertex 30.7111338687174 3.18044144393096 0.000563971796339637
vertex 29.8708872063381 4.24941335405288 0.000563971796428589
endloop
endfacet
facet normal -0.999283871635334 -0.0378383917403777 6.02963317848313e-014
outer loop
vertex 34.0010911182028 5.76645476390217 6.3353320343441
vertex 34.0525390236495 4.40775372566961 0.000563971796187887
vertex 34.0525390236499 4.40775372566956 6.33533203434409
endloop
endfacet
facet normal -0.999283871635334 -0.0378383917403777 6.02963317848313e-014
outer loop
vertex 34.0525390236495 4.40775372566961 0.000563971796187887
vertex 34.0010911182028 5.76645476390217 6.3353320343441
vertex 34.0010911182024 5.76645476390219 0.000563971796190571
endloop
endfacet
facet normal -5.2766740770344e-014 6.6001569863389e-014 -1.0
outer loop
vertex -4.26378932161242e-012 10.0025273807122 2.25597318603832e-014
vertex 6.7391555441713 6.82991016159091 0.000563971797590828
vertex 0.0 0.0 0.0
endloop
endfacet
facet normal -5.2766740770344e-014 6.6001569863389e-014 -1.0
outer loop
vertex 6.7391555441713 6.82991016159091 0.000563971797590828
vertex -4.26378932161242e-012 10.0025273807122 2.25597318603832e-014
vertex 16.8202753511742 15.7369465827415 1.89746016208275e-013
endloop
endfacet
facet normal -5.2766740770344e-014 6.6001569863389e-014 -1.0
outer loop
vertex 0.0 0.0 0.0
vertex 6.7391555441713 6.82991016159091 0.000563971797590828
vertex 5.89890888179291 5.76093825146829 0.00056397179767978
endloop
endfacet
facet normal -5.2766740770344e-014 6.6001569863389e-014 -1.0
outer loop
vertex 0.0 0.0 0.0
vertex 5.89890888179291 5.76093825146829 0.00056397179767978
vertex 5.84746097634697 4.40223721323565 0.000563971797682463
endloop
endfacet
facet normal -5.2766740770344e-014 6.6001569863389e-014 -1.0
outer loop
vertex 6.7391555441713 6.82991016159091 0.000563971797590828
vertex 16.8202753511742 15.7369465827415 1.89746016208275e-013
vertex 8.04725529738722 7.20084200695558 0.000563971797500029
endloop
endfacet
facet normal -5.2766740770344e-014 6.6001569863389e-014 -1.0
outer loop
vertex 8.04725529738722 7.20084200695558 0.000563971797500029
vertex 16.8202753511742 15.7369465827415 1.89746016208275e-013
vertex 9.32355849638756 6.73205043014268 0.000563971797501127
endloop
endfacet
facet normal -5.2766740770344e-014 6.6001569863389e-014 -1.0
outer loop
vertex 9.32355849638756 6.73205043014268 0.000563971797501127
vertex 16.8202753511742 15.7369465827415 1.89746016208275e-013
vertex 10.0805606991044 5.60259787985513 0.000563971797461637
endloop
endfacet
facet normal -5.2766740770344e-014 6.6001569863389e-014 -1.0
outer loop
vertex 23.079724648826 15.7369465827415 -1.45235502769202e-013
vertex 30.5764415036069 6.7375669425737 0.000563971796369223
vertex 29.819439300891 5.60811439228546 0.000563971796408714
endloop
endfacet
facet normal -5.2766740770344e-014 6.6001569863389e-014 -1.0
outer loop
vertex 30.5764415036069 6.7375669425737 0.000563971796369223
vertex 23.079724648826 15.7369465827415 -1.45235502769202e-013
vertex 31.8527447026068 7.20635851938766 0.000563971796234963
endloop
endfacet
facet normal -5.2766740770344e-014 6.6001569863389e-014 -1.0
outer loop
vertex 31.8527447026068 7.20635851938766 0.000563971796234963
vertex 23.079724648826 15.7369465827415 -1.45235502769202e-013
vertex 39.899999999996 10.0080438931511 -2.08210118525683e-012
endloop
endfacet
facet normal -5.2766740770344e-014 6.6001569863389e-014 -1.0
outer loop
vertex 31.8527447026068 7.20635851938766 0.000563971796234963
vertex 39.899999999996 10.0080438931511 -2.08210118525683e-012
vertex 33.1608444558231 6.83542667402412 0.000563971796189284
endloop
endfacet
facet normal -5.2766740770344e-014 6.6001569863389e-014 -1.0
outer loop
vertex 33.1608444558231 6.83542667402412 0.000563971796189284
vertex 39.899999999996 10.0080438931511 -2.08210118525683e-012
vertex 34.0010911182024 5.76645476390219 0.000563971796190571
endloop
endfacet
facet normal -5.2766740770344e-014 6.6001569863389e-014 -1.0
outer loop
vertex 34.0010911182024 5.76645476390219 0.000563971796190571
vertex 39.899999999996 10.0080438931511 -2.08210118525683e-012
vertex 34.0525390236495 4.40775372566961 0.000563971796187887
endloop
endfacet
facet normal -5.2766740770344e-014 6.6001569863389e-014 -1.0
outer loop
vertex 0.0 0.0 0.0
vertex 7.88076637806416 2.80399308613521 0.000563971797508714
vertex 39.9000000000002 0.00551651243891427 -2.10466091711721e-012
endloop
endfacet
facet normal -5.2766740770344e-014 6.6001569863389e-014 -1.0
outer loop
vertex 7.88076637806416 2.80399308613521 0.000563971797508714
vertex 0.0 0.0 0.0
vertex 6.60446317906379 3.27278466294809 0.000563971797642974
endloop
endfacet
facet normal -5.2766740770344e-014 6.6001569863389e-014 -1.0
outer loop
vertex 6.60446317906379 3.27278466294809 0.000563971797642974
vertex 0.0 0.0 0.0
vertex 5.84746097634697 4.40223721323565 0.000563971797682463
endloop
endfacet
facet normal -5.2766740770344e-014 6.6001569863389e-014 -1.0
outer loop
vertex 39.9000000000002 0.00551651243891427 -2.10466091711721e-012
vertex 7.88076637806416 2.80399308613521 0.000563971797508714
vertex 9.18886613128008 3.17492493149987 0.000563971797485594
endloop
endfacet
facet normal -5.2766740770344e-014 6.6001569863389e-014 -1.0
outer loop
vertex 39.9000000000002 0.00551651243891427 -2.10466091711721e-012
vertex 9.18886613128008 3.17492493149987 0.000563971797485594
vertex 10.0291127936585 4.24389684162247 0.000563971797486881
endloop
endfacet
facet normal -5.2766740770344e-014 6.6001569863389e-014 -1.0
outer loop
vertex 39.9000000000002 0.00551651243891427 -2.10466091711721e-012
vertex 10.0291127936585 4.24389684162247 0.000563971797486881
vertex 10.0805606991044 5.60259787985513 0.000563971797461637
endloop
endfacet
facet normal -5.2766740770344e-014 6.6001569863389e-014 -1.0
outer loop
vertex 39.9000000000002 0.00551651243891427 -2.10466091711721e-012
vertex 10.0805606991044 5.60259787985513 0.000563971797461637
vertex 30.7111338687174 3.18044144393096 0.000563971796339637
endloop
endfacet
facet normal -5.2766740770344e-014 6.6001569863389e-014 -1.0
outer loop
vertex 30.7111338687174 3.18044144393096 0.000563971796339637
vertex 10.0805606991044 5.60259787985513 0.000563971797461637
vertex 16.8202753511742 15.7369465827415 1.89746016208275e-013
endloop
endfacet
facet normal -5.2766740770344e-014 6.6001569863389e-014 -1.0
outer loop
vertex 30.7111338687174 3.18044144393096 0.000563971796339637
vertex 16.8202753511742 15.7369465827415 1.89746016208275e-013
vertex 19.9500000000001 16.359487521886 2.15504372159947e-014
endloop
endfacet
facet normal -5.2766740770344e-014 6.6001569863389e-014 -1.0
outer loop
vertex 30.7111338687174 3.18044144393096 0.000563971796339637
vertex 19.9500000000001 16.359487521886 2.15504372159947e-014
vertex 29.8708872063381 4.24941335405288 0.000563971796428589
endloop
endfacet
facet normal -5.2766740770344e-014 6.6001569863389e-014 -1.0
outer loop
vertex 29.8708872063381 4.24941335405288 0.000563971796428589
vertex 19.9500000000001 16.359487521886 2.15504372159947e-014
vertex 23.079724648826 15.7369465827415 -1.45235502769202e-013
endloop
endfacet
facet normal -5.2766740770344e-014 6.6001569863389e-014 -1.0
outer loop
vertex 29.8708872063381 4.24941335405288 0.000563971796428589
vertex 23.079724648826 15.7369465827415 -1.45235502769202e-013
vertex 29.819439300891 5.60811439228546 0.000563971796408714
endloop
endfacet
facet normal -5.2766740770344e-014 6.6001569863389e-014 -1.0
outer loop
vertex 39.9000000000002 0.00551651243891427 -2.10466091711721e-012
vertex 30.7111338687174 3.18044144393096 0.000563971796339637
vertex 32.0192336219337 2.80950959856742 0.000563971796226278
endloop
endfacet
facet normal -5.2766740770344e-014 6.6001569863389e-014 -1.0
outer loop
vertex 39.9000000000002 0.00551651243891427 -2.10466091711721e-012
vertex 32.0192336219337 2.80950959856742 0.000563971796226278
vertex 33.2955368209336 3.27830117538138 0.000563971796227377
endloop
endfacet
facet normal -5.2766740770344e-014 6.6001569863389e-014 -1.0
outer loop
vertex 39.9000000000002 0.00551651243891427 -2.10466091711721e-012
vertex 33.2955368209336 3.27830117538138 0.000563971796227377
vertex 34.0525390236495 4.40775372566961 0.000563971796187887
endloop
endfacet
facet normal -5.2766740770344e-014 6.6001569863389e-014 -1.0
outer loop
vertex 39.9000000000002 0.00551651243891427 -2.10466091711721e-012
vertex 34.0525390236495 4.40775372566961 0.000563971796187887
vertex 39.899999999996 10.0080438931511 -2.08210118525683e-012
endloop
endfacet
facet normal 0.83067848299324 -0.556752420643189 -4.48857748339829e-014
outer loop
vertex 29.819439300891 5.60811439228546 0.000563971796408714
vertex 30.5764415036073 6.73756694257364 6.33533203434425
vertex 29.8194393008913 5.60811439228544 6.33533203434425
endloop
endfacet
facet normal 0.83067848299324 -0.556752420643189 -4.48857748339829e-014
outer loop
vertex 30.5764415036073 6.73756694257364 6.33533203434425
vertex 29.819439300891 5.60811439228546 0.000563971796408714
vertex 30.5764415036069 6.7375669425737 0.000563971796369223
endloop
endfacet
facet normal 0.830678482993242 -0.556752420643184 -4.68712159136277e-014
outer loop
vertex 28.302071835313 6.03838732270814 6.33533203434433
vertex 29.6017735202061 7.97755127408048 11.3353320343442
vertex 28.3020718353132 6.03838732270812 11.3353320343443
endloop
endfacet
facet normal 0.830678482993242 -0.556752420643184 -4.68712159136277e-014
outer loop
vertex 29.6017735202061 7.97755127408048 11.3353320343442
vertex 28.302071835313 6.03838732270814 6.33533203434433
vertex 29.6017735202058 7.97755127408049 6.33533203434424
endloop
endfacet
facet normal -0.195090322016127 0.980785280403231 1.0646813858237e-014
outer loop
vertex 16.8202753511742 15.7369465827415 1.89746016208275e-013
vertex 19.9500000000012 16.3594875218859 21.3353320343458
vertex 19.9500000000001 16.359487521886 2.15504372159947e-014
endloop
endfacet
facet normal -0.195090322016127 0.980785280403231 1.0646813858237e-014
outer loop
vertex 19.9500000000012 16.3594875218859 21.3353320343458
vertex 16.8202753511742 15.7369465827415 1.89746016208275e-013
vertex 16.8202753511748 15.7369465827415 11.335332034346
endloop
endfacet
facet normal -0.195090322016127 0.980785280403231 1.0646813858237e-014
outer loop
vertex 19.9500000000012 16.3594875218859 21.3353320343458
vertex 16.8202753511748 15.7369465827415 11.335332034346
vertex 16.8202753511753 15.7369465827415 21.335332034346
endloop
endfacet
facet normal 5.27072992149289e-014 -3.38529176492681e-016 1.0
outer loop
vertex 16.1620939167039 6.61212081635581 1.33533203434599
vertex 16.1620939167039 9.75012496174954 1.33533203434599
vertex 15.8500000000002 8.18112288905268 1.33533203434601
endloop
endfacet
facet normal 5.27072992149289e-014 -3.38529176492681e-016 1.0
outer loop
vertex 16.1620939167039 9.75012496174954 1.33533203434599
vertex 16.1620939167039 6.61212081635581 1.33533203434599
vertex 17.0508621971353 5.28198508618783 1.33533203434594
endloop
endfacet
facet normal 5.27072992149289e-014 -3.38529176492681e-016 1.0
outer loop
vertex 16.1620939167039 9.75012496174954 1.33533203434599
vertex 17.0508621971353 5.28198508618783 1.33533203434594
vertex 17.0508621971353 11.0802606919175 1.33533203434595
endloop
endfacet
facet normal 5.27072992149289e-014 -3.38529176492681e-016 1.0
outer loop
vertex 17.0508621971353 11.0802606919175 1.33533203434595
vertex 17.0508621971353 5.28198508618783 1.33533203434594
vertex 18.3809979273033 4.3932168057564 1.33533203434587
endloop
endfacet
facet normal 5.27072992149289e-014 -3.38529176492681e-016 1.0
outer loop
vertex 17.0508621971353 11.0802606919175 1.33533203434595
vertex 18.3809979273033 4.3932168057564 1.33533203434587
vertex 18.3809979273033 11.969028972349 1.33533203434588
endloop
endfacet
facet normal 5.27072992149289e-014 -3.38529176492681e-016 1.0
outer loop
vertex 18.3809979273033 11.969028972349 1.33533203434588
vertex 18.3809979273033 4.3932168057564 1.33533203434587
vertex 19.9500000000002 4.08112288905268 1.33533203434579
endloop
endfacet
facet normal 5.27072992149289e-014 -3.38529176492681e-016 1.0
outer loop
vertex 18.3809979273033 11.969028972349 1.33533203434588
vertex 19.9500000000002 4.08112288905268 1.33533203434579
vertex 19.9500000000002 12.2811228890527 1.33533203434579
endloop
endfacet
facet normal 5.27072992149289e-014 -3.38529176492681e-016 1.0
outer loop
vertex 19.9500000000002 12.2811228890527 1.33533203434579
vertex 19.9500000000002 4.08112288905268 1.33533203434579
vertex 21.519002072697 4.3932168057564 1.33533203434571
endloop
endfacet
facet normal 5.27072992149289e-014 -3.38529176492681e-016 1.0
outer loop
vertex 19.9500000000002 12.2811228890527 1.33533203434579
vertex 21.519002072697 4.3932168057564 1.33533203434571
vertex 21.519002072697 11.969028972349 1.33533203434571
endloop
endfacet
facet normal 5.27072992149289e-014 -3.38529176492681e-016 1.0
outer loop
vertex 21.519002072697 11.969028972349 1.33533203434571
vertex 21.519002072697 4.3932168057564 1.33533203434571
vertex 22.849137802865 5.28198508618784 1.33533203434564
endloop
endfacet
facet normal 5.27072992149289e-014 -3.38529176492681e-016 1.0
outer loop
vertex 21.519002072697 11.969028972349 1.33533203434571
vertex 22.849137802865 5.28198508618784 1.33533203434564
vertex 22.849137802865 11.0802606919175 1.33533203434564
endloop
endfacet
facet normal 5.27072992149289e-014 -3.38529176492681e-016 1.0
outer loop
vertex 22.849137802865 11.0802606919175 1.33533203434564
vertex 22.849137802865 5.28198508618784 1.33533203434564
vertex 23.7379060832965 6.61212081635581 1.33533203434559
endloop
endfacet
facet normal 5.27072992149289e-014 -3.38529176492681e-016 1.0
outer loop
vertex 22.849137802865 11.0802606919175 1.33533203434564
vertex 23.7379060832965 6.61212081635581 1.33533203434559
vertex 23.7379060832965 9.75012496174955 1.33533203434559
endloop
endfacet
facet normal 5.27072992149289e-014 -3.38529176492681e-016 1.0
outer loop
vertex 23.7379060832965 9.75012496174955 1.33533203434559
vertex 23.7379060832965 6.61212081635581 1.33533203434559
vertex 24.0500000000002 8.18112288905268 1.33533203434558
endloop
endfacet
facet normal 0.322407603376459 0.946600938772537 -1.37928683249789e-014
outer loop
vertex 23.079724648826 15.7369465827415 -1.45235502769202e-013
vertex 39.8999999999965 10.0080438931511 11.3353320343437
vertex 39.899999999996 10.0080438931511 -2.08210118525683e-012
endloop
endfacet
facet normal 0.322407603376459 0.946600938772537 -1.37928683249789e-014
outer loop
vertex 39.8999999999965 10.0080438931511 11.3353320343437
vertex 23.079724648826 15.7369465827415 -1.45235502769202e-013
vertex 23.0797246488266 15.7369465827415 11.3353320343456
endloop
endfacet
facet normal 0.195090322016127 0.980785280403231 -9.66156587124649e-015
outer loop
vertex 19.9500000000001 16.359487521886 2.15504372159947e-014
vertex 23.0797246488266 15.7369465827415 11.3353320343456
vertex 23.079724648826 15.7369465827415 -1.45235502769202e-013
endloop
endfacet
facet normal 0.195090322016127 0.980785280403231 -9.66156587124649e-015
outer loop
vertex 23.0797246488266 15.7369465827415 11.3353320343456
vertex 19.9500000000001 16.359487521886 2.15504372159947e-014
vertex 19.9500000000012 16.3594875218859 21.3353320343458
endloop
endfacet
facet normal 0.195090322016127 0.980785280403231 -9.66156587124649e-015
outer loop
vertex 23.0797246488266 15.7369465827415 11.3353320343456
vertex 19.9500000000012 16.3594875218859 21.3353320343458
vertex 23.0797246488272 15.7369465827415 21.3353320343456
endloop
endfacet
facet normal 0.98078528040323 -0.195090322016133 -5.14979018581043e-014
outer loop
vertex 15.8500000000002 8.18112288905268 1.33533203434601
vertex 16.162093916705 9.75012496174954 21.335332034346
vertex 15.8500000000012 8.18112288905267 21.335332034346
endloop
endfacet
facet normal 0.98078528040323 -0.195090322016133 -5.14979018581043e-014
outer loop
vertex 16.162093916705 9.75012496174954 21.335332034346
vertex 15.8500000000002 8.18112288905268 1.33533203434601
vertex 16.1620939167039 9.75012496174954 1.33533203434599
endloop
endfacet
facet normal 0.98078528040323 0.195090322016133 -5.13808095421743e-014
outer loop
vertex 16.1620939167039 6.61212081635581 1.33533203434599
vertex 15.8500000000012 8.18112288905267 21.335332034346
vertex 16.162093916705 6.6121208163558 21.335332034346
endloop
endfacet
facet normal 0.98078528040323 0.195090322016133 -5.13808095421743e-014
outer loop
vertex 15.8500000000012 8.18112288905267 21.335332034346
vertex 16.1620939167039 6.61212081635581 1.33533203434599
vertex 15.8500000000002 8.18112288905268 1.33533203434601
endloop
endfacet
facet normal 0.831469612302546 0.555570233019602 -4.34157750804084e-014
outer loop
vertex 17.0508621971353 5.28198508618783 1.33533203434594
vertex 16.162093916705 6.6121208163558 21.335332034346
vertex 17.0508621971364 5.28198508618783 21.3353320343459
endloop
endfacet
facet normal 0.831469612302546 0.555570233019602 -4.34157750804084e-014
outer loop
vertex 16.162093916705 6.6121208163558 21.335332034346
vertex 17.0508621971353 5.28198508618783 1.33533203434594
vertex 16.1620939167039 6.61212081635581 1.33533203434599
endloop
endfacet
facet normal 0.831469612302546 -0.555570233019601 -4.38486840386132e-014
outer loop
vertex 16.1620939167039 9.75012496174954 1.33533203434599
vertex 17.0508621971364 11.0802606919175 21.3353320343459
vertex 16.162093916705 9.75012496174954 21.335332034346
endloop
endfacet
facet normal 0.831469612302546 -0.555570233019601 -4.38486840386132e-014
outer loop
vertex 17.0508621971364 11.0802606919175 21.3353320343459
vertex 16.1620939167039 9.75012496174954 1.33533203434599
vertex 17.0508621971353 11.0802606919175 1.33533203434595
endloop
endfacet
facet normal -0.980785280403231 -0.195090322016125 5.1941682881396e-014
outer loop
vertex 23.7379060832975 9.75012496174954 21.3353320343456
vertex 24.0500000000002 8.18112288905268 1.33533203434558
vertex 24.0500000000012 8.18112288905267 21.3353320343456
endloop
endfacet
facet normal -0.980785280403231 -0.195090322016125 5.1941682881396e-014
outer loop
vertex 24.0500000000002 8.18112288905268 1.33533203434558
vertex 23.7379060832975 9.75012496174954 21.3353320343456
vertex 23.7379060832965 9.75012496174955 1.33533203434559
endloop
endfacet
facet normal -0.831469612302545 -0.555570233019603 4.38460743547145e-014
outer loop
vertex 22.8491378028661 11.0802606919175 21.3353320343456
vertex 23.7379060832965 9.75012496174955 1.33533203434559
vertex 23.7379060832975 9.75012496174954 21.3353320343456
endloop
endfacet
facet normal -0.831469612302545 -0.555570233019603 4.38460743547145e-014
outer loop
vertex 23.7379060832965 9.75012496174955 1.33533203434559
vertex 22.8491378028661 11.0802606919175 21.3353320343456
vertex 22.849137802865 11.0802606919175 1.33533203434564
endloop
endfacet
facet normal -0.555570233019596 -0.83146961230255 2.89858109022277e-014
outer loop
vertex 22.8491378028661 11.0802606919175 21.3353320343456
vertex 21.519002072697 11.969028972349 1.33533203434571
vertex 22.849137802865 11.0802606919175 1.33533203434564
endloop
endfacet
facet normal -0.555570233019596 -0.83146961230255 2.89858109022277e-014
outer loop
vertex 21.519002072697 11.969028972349 1.33533203434571
vertex 22.8491378028661 11.0802606919175 21.3353320343456
vertex 21.5190020726981 11.9690289723489 21.3353320343457
endloop
endfacet
facet normal -0.195090322016131 -0.98078528040323 9.78961472234493e-015
outer loop
vertex 21.5190020726981 11.9690289723489 21.3353320343457
vertex 19.9500000000002 12.2811228890527 1.33533203434579
vertex 21.519002072697 11.969028972349 1.33533203434571
endloop
endfacet
facet normal -0.195090322016131 -0.98078528040323 9.78961472234493e-015
outer loop
vertex 19.9500000000002 12.2811228890527 1.33533203434579
vertex 21.5190020726981 11.9690289723489 21.3353320343457
vertex 19.9500000000012 12.2811228890527 21.3353320343458
endloop
endfacet
facet normal 0.555570233019602 0.831469612302546 -2.88462919435174e-014
outer loop
vertex 17.0508621971353 5.28198508618783 1.33533203434594
vertex 18.3809979273044 4.3932168057564 21.3353320343459
vertex 18.3809979273033 4.3932168057564 1.33533203434587
endloop
endfacet
facet normal 0.555570233019602 0.831469612302546 -2.88462919435174e-014
outer loop
vertex 18.3809979273044 4.3932168057564 21.3353320343459
vertex 17.0508621971353 5.28198508618783 1.33533203434594
vertex 17.0508621971364 5.28198508618783 21.3353320343459
endloop
endfacet
facet normal 0.195090322016127 0.980785280403231 -9.94263542184428e-015
outer loop
vertex 18.3809979273033 4.3932168057564 1.33533203434587
vertex 19.9500000000012 4.08112288905267 21.3353320343458
vertex 19.9500000000002 4.08112288905268 1.33533203434579
endloop
endfacet
facet normal 0.195090322016127 0.980785280403231 -9.94263542184428e-015
outer loop
vertex 19.9500000000012 4.08112288905267 21.3353320343458
vertex 18.3809979273033 4.3932168057564 1.33533203434587
vertex 18.3809979273044 4.3932168057564 21.3353320343459
endloop
endfacet
facet normal -0.19509032201613 0.98078528040323 1.06894233907283e-014
outer loop
vertex 19.9500000000002 4.08112288905268 1.33533203434579
vertex 21.5190020726981 4.3932168057564 21.3353320343457
vertex 21.519002072697 4.3932168057564 1.33533203434571
endloop
endfacet
facet normal -0.19509032201613 0.98078528040323 1.06894233907283e-014
outer loop
vertex 21.5190020726981 4.3932168057564 21.3353320343457
vertex 19.9500000000002 4.08112288905268 1.33533203434579
vertex 19.9500000000012 4.08112288905267 21.3353320343458
endloop
endfacet
facet normal -0.555570233019597 0.831469612302549 2.97473256606708e-014
outer loop
vertex 21.519002072697 4.3932168057564 1.33533203434571
vertex 22.8491378028661 5.28198508618783 21.3353320343456
vertex 22.849137802865 5.28198508618784 1.33533203434564
endloop
endfacet
facet normal -0.555570233019597 0.831469612302549 2.97473256606708e-014
outer loop
vertex 22.8491378028661 5.28198508618783 21.3353320343456
vertex 21.519002072697 4.3932168057564 1.33533203434571
vertex 21.5190020726981 4.3932168057564 21.3353320343457
endloop
endfacet
facet normal -0.831469612302545 0.555570233019602 4.42778095614067e-014
outer loop
vertex 23.7379060832975 6.6121208163558 21.3353320343456
vertex 22.849137802865 5.28198508618784 1.33533203434564
vertex 22.8491378028661 5.28198508618783 21.3353320343456
endloop
endfacet
facet normal -0.831469612302545 0.555570233019602 4.42778095614067e-014
outer loop
vertex 22.849137802865 5.28198508618784 1.33533203434564
vertex 23.7379060832975 6.6121208163558 21.3353320343456
vertex 23.7379060832965 6.61212081635581 1.33533203434559
endloop
endfacet
facet normal -0.980785280403231 0.195090322016126 5.20583546172743e-014
outer loop
vertex 24.0500000000012 8.18112288905267 21.3353320343456
vertex 23.7379060832965 6.61212081635581 1.33533203434559
vertex 23.7379060832975 6.6121208163558 21.3353320343456
endloop
endfacet
facet normal -0.980785280403231 0.195090322016126 5.20583546172743e-014
outer loop
vertex 23.7379060832965 6.61212081635581 1.33533203434559
vertex 24.0500000000012 8.18112288905267 21.3353320343456
vertex 24.0500000000002 8.18112288905268 1.33533203434558
endloop
endfacet
facet normal 0.195090322016128 -0.980785280403231 -1.08407916165525e-014
outer loop
vertex 19.9500000000012 12.2811228890527 21.3353320343458
vertex 18.3809979273033 11.969028972349 1.33533203434588
vertex 19.9500000000002 12.2811228890527 1.33533203434579
endloop
endfacet
facet normal 0.195090322016128 -0.980785280403231 -1.08407916165525e-014
outer loop
vertex 18.3809979273033 11.969028972349 1.33533203434588
vertex 19.9500000000012 12.2811228890527 21.3353320343458
vertex 18.3809979273044 11.9690289723489 21.3353320343459
endloop
endfacet
facet normal -0.98078528040323 -0.19509032201613 5.13505693929141e-014
outer loop
vertex 11.7716353671679 8.18112288905267 21.3353320343462
vertex 12.3941763063119 5.05139824022678 11.3353320343462
vertex 12.3941763063124 5.05139824022678 21.3353320343462
endloop
endfacet
facet normal -0.98078528040323 -0.19509032201613 5.13505693929141e-014
outer loop
vertex 12.3941763063119 5.05139824022678 11.3353320343462
vertex 11.7716353671679 8.18112288905267 21.3353320343462
vertex 11.7716353671674 8.18112288905268 11.3353320343462
endloop
endfacet
facet normal -0.831469612302547 -0.5555702330196 4.38397023124942e-014
outer loop
vertex 12.3941763063124 5.05139824022678 21.3353320343462
vertex 14.1670229091081 2.39814579816004 11.3353320343461
vertex 14.1670229091086 2.39814579816004 21.3353320343461
endloop
endfacet
facet normal -0.831469612302547 -0.5555702330196 4.38397023124942e-014
outer loop
vertex 14.1670229091081 2.39814579816004 11.3353320343461
vertex 12.3941763063124 5.05139824022678 21.3353320343462
vertex 12.3941763063119 5.05139824022678 11.3353320343462
endloop
endfacet
facet normal -0.555570233019603 -0.831469612302545 2.91031552379005e-014
outer loop
vertex 16.8202753511753 0.625299195363826 21.335332034346
vertex 14.1670229091081 2.39814579816004 11.3353320343461
vertex 16.8202753511748 0.625299195363831 11.335332034346
endloop
endfacet
facet normal -0.555570233019603 -0.831469612302545 2.91031552379005e-014
outer loop
vertex 14.1670229091081 2.39814579816004 11.3353320343461
vertex 16.8202753511753 0.625299195363826 21.335332034346
vertex 14.1670229091086 2.39814579816004 21.3353320343461
endloop
endfacet
facet normal 0.555570233019601 -0.831469612302546 -2.96085786506266e-014
outer loop
vertex 18.3809979273044 11.9690289723489 21.3353320343459
vertex 17.0508621971353 11.0802606919175 1.33533203434595
vertex 18.3809979273033 11.969028972349 1.33533203434588
endloop
endfacet
facet normal 0.555570233019601 -0.831469612302546 -2.96085786506266e-014
outer loop
vertex 17.0508621971353 11.0802606919175 1.33533203434595
vertex 18.3809979273044 11.9690289723489 21.3353320343459
vertex 17.0508621971364 11.0802606919175 21.3353320343459
endloop
endfacet
facet normal 5.27527910484162e-014 -4.80019063470215e-016 1.0
outer loop
vertex 12.3941763063124 5.05139824022678 21.3353320343462
vertex 12.3941763063124 11.3108475378786 21.3353320343462
vertex 11.7716353671679 8.18112288905267 21.3353320343462
endloop
endfacet
facet normal 5.27527910484162e-014 -4.80019063470215e-016 1.0
outer loop
vertex 12.3941763063124 11.3108475378786 21.3353320343462
vertex 12.3941763063124 5.05139824022678 21.3353320343462
vertex 14.1670229091086 13.9640999799453 21.3353320343461
endloop
endfacet
facet normal 5.27527910484162e-014 -4.80019063470215e-016 1.0
outer loop
vertex 14.1670229091086 13.9640999799453 21.3353320343461
vertex 12.3941763063124 5.05139824022678 21.3353320343462
vertex 14.1670229091086 2.39814579816004 21.3353320343461
endloop
endfacet
facet normal 5.27527910484162e-014 -4.80019063470215e-016 1.0
outer loop
vertex 14.1670229091086 13.9640999799453 21.3353320343461
vertex 14.1670229091086 2.39814579816004 21.3353320343461
vertex 16.8202753511753 0.625299195363826 21.335332034346
endloop
endfacet
facet normal 5.27527910484162e-014 -4.80019063470215e-016 1.0
outer loop
vertex 14.1670229091086 13.9640999799453 21.3353320343461
vertex 16.8202753511753 0.625299195363826 21.335332034346
vertex 15.8500000000012 8.18112288905267 21.335332034346
endloop
endfacet
facet normal 5.27527910484162e-014 -4.80019063470215e-016 1.0
outer loop
vertex 15.8500000000012 8.18112288905267 21.335332034346
vertex 16.8202753511753 0.625299195363826 21.335332034346
vertex 16.162093916705 6.6121208163558 21.335332034346
endloop
endfacet
facet normal 5.27527910484162e-014 -4.80019063470215e-016 1.0
outer loop
vertex 16.162093916705 6.6121208163558 21.335332034346
vertex 16.8202753511753 0.625299195363826 21.335332034346
vertex 17.0508621971364 5.28198508618783 21.3353320343459
endloop
endfacet
facet normal 5.27527910484162e-014 -4.80019063470215e-016 1.0
outer loop
vertex 17.0508621971364 5.28198508618783 21.3353320343459
vertex 16.8202753511753 0.625299195363826 21.335332034346
vertex 19.9500000000012 0.00275825621939862 21.3353320343458
endloop
endfacet
facet normal 5.27527910484162e-014 -4.80019063470215e-016 1.0
outer loop
vertex 17.0508621971364 5.28198508618783 21.3353320343459
vertex 19.9500000000012 0.00275825621939862 21.3353320343458
vertex 18.3809979273044 4.3932168057564 21.3353320343459
endloop
endfacet
facet normal 5.27527910484162e-014 -4.80019063470215e-016 1.0
outer loop
vertex 18.3809979273044 4.3932168057564 21.3353320343459
vertex 19.9500000000012 0.00275825621939862 21.3353320343458
vertex 19.9500000000012 4.08112288905267 21.3353320343458
endloop
endfacet
facet normal 5.27527910484162e-014 -4.80019063470215e-016 1.0
outer loop
vertex 19.9500000000012 4.08112288905267 21.3353320343458
vertex 19.9500000000012 0.00275825621939862 21.3353320343458
vertex 23.0797246488272 0.62529919536383 21.3353320343456
endloop
endfacet
facet normal 5.27527910484162e-014 -4.80019063470215e-016 1.0
outer loop
vertex 19.9500000000012 4.08112288905267 21.3353320343458
vertex 23.0797246488272 0.62529919536383 21.3353320343456
vertex 21.5190020726981 4.3932168057564 21.3353320343457
endloop
endfacet
facet normal 5.27527910484162e-014 -4.80019063470215e-016 1.0
outer loop
vertex 21.5190020726981 4.3932168057564 21.3353320343457
vertex 23.0797246488272 0.62529919536383 21.3353320343456
vertex 22.8491378028661 5.28198508618783 21.3353320343456
endloop
endfacet
facet normal 5.27527910484162e-014 -4.80019063470215e-016 1.0
outer loop
vertex 22.8491378028661 5.28198508618783 21.3353320343456
vertex 23.0797246488272 0.62529919536383 21.3353320343456
vertex 23.7379060832975 6.6121208163558 21.3353320343456
endloop
endfacet
facet normal 5.27527910484162e-014 -4.80019063470215e-016 1.0
outer loop
vertex 23.7379060832975 6.6121208163558 21.3353320343456
vertex 23.0797246488272 0.62529919536383 21.3353320343456
vertex 25.7329770908939 2.39814579816003 21.3353320343455
endloop
endfacet
facet normal 5.27527910484162e-014 -4.80019063470215e-016 1.0
outer loop
vertex 23.7379060832975 6.6121208163558 21.3353320343456
vertex 25.7329770908939 2.39814579816003 21.3353320343455
vertex 24.0500000000012 8.18112288905267 21.3353320343456
endloop
endfacet
facet normal 5.27527910484162e-014 -4.80019063470215e-016 1.0
outer loop
vertex 15.8500000000012 8.18112288905267 21.335332034346
vertex 16.8202753511753 15.7369465827415 21.335332034346
vertex 14.1670229091086 13.9640999799453 21.3353320343461
endloop
endfacet
facet normal 5.27527910484162e-014 -4.80019063470215e-016 1.0
outer loop
vertex 16.8202753511753 15.7369465827415 21.335332034346
vertex 15.8500000000012 8.18112288905267 21.335332034346
vertex 16.162093916705 9.75012496174954 21.335332034346
endloop
endfacet
facet normal 5.27527910484162e-014 -4.80019063470215e-016 1.0
outer loop
vertex 16.8202753511753 15.7369465827415 21.335332034346
vertex 16.162093916705 9.75012496174954 21.335332034346
vertex 17.0508621971364 11.0802606919175 21.3353320343459
endloop
endfacet
facet normal 5.27527910484162e-014 -4.80019063470215e-016 1.0
outer loop
vertex 16.8202753511753 15.7369465827415 21.335332034346
vertex 17.0508621971364 11.0802606919175 21.3353320343459
vertex 19.9500000000012 16.3594875218859 21.3353320343458
endloop
endfacet
facet normal 5.27527910484162e-014 -4.80019063470215e-016 1.0
outer loop
vertex 19.9500000000012 16.3594875218859 21.3353320343458
vertex 17.0508621971364 11.0802606919175 21.3353320343459
vertex 18.3809979273044 11.9690289723489 21.3353320343459
endloop
endfacet
facet normal 5.27527910484162e-014 -4.80019063470215e-016 1.0
outer loop
vertex 19.9500000000012 16.3594875218859 21.3353320343458
vertex 18.3809979273044 11.9690289723489 21.3353320343459
vertex 19.9500000000012 12.2811228890527 21.3353320343458
endloop
endfacet
facet normal 5.27527910484162e-014 -4.80019063470215e-016 1.0
outer loop
vertex 19.9500000000012 16.3594875218859 21.3353320343458
vertex 19.9500000000012 12.2811228890527 21.3353320343458
vertex 21.5190020726981 11.9690289723489 21.3353320343457
endloop
endfacet
facet normal 5.27527910484162e-014 -4.80019063470215e-016 1.0
outer loop
vertex 19.9500000000012 16.3594875218859 21.3353320343458
vertex 21.5190020726981 11.9690289723489 21.3353320343457
vertex 23.0797246488272 15.7369465827415 21.3353320343456
endloop
endfacet
facet normal 5.27527910484162e-014 -4.80019063470215e-016 1.0
outer loop
vertex 23.0797246488272 15.7369465827415 21.3353320343456
vertex 21.5190020726981 11.9690289723489 21.3353320343457
vertex 22.8491378028661 11.0802606919175 21.3353320343456
endloop
endfacet
facet normal 5.27527910484162e-014 -4.80019063470215e-016 1.0
outer loop
vertex 23.0797246488272 15.7369465827415 21.3353320343456
vertex 22.8491378028661 11.0802606919175 21.3353320343456
vertex 23.7379060832975 9.75012496174954 21.3353320343456
endloop
endfacet
facet normal 5.27527910484162e-014 -4.80019063470215e-016 1.0
outer loop
vertex 23.0797246488272 15.7369465827415 21.3353320343456
vertex 23.7379060832975 9.75012496174954 21.3353320343456
vertex 25.7329770908939 13.9640999799453 21.3353320343455
endloop
endfacet
facet normal 5.27527910484162e-014 -4.80019063470215e-016 1.0
outer loop
vertex 25.7329770908939 13.9640999799453 21.3353320343455
vertex 23.7379060832975 9.75012496174954 21.3353320343456
vertex 24.0500000000012 8.18112288905267 21.3353320343456
endloop
endfacet
facet normal 5.27527910484162e-014 -4.80019063470215e-016 1.0
outer loop
vertex 25.7329770908939 13.9640999799453 21.3353320343455
vertex 24.0500000000012 8.18112288905267 21.3353320343456
vertex 25.7329770908939 2.39814579816003 21.3353320343455
endloop
endfacet
facet normal 5.27527910484162e-014 -4.80019063470215e-016 1.0
outer loop
vertex 25.7329770908939 13.9640999799453 21.3353320343455
vertex 25.7329770908939 2.39814579816003 21.3353320343455
vertex 27.5058236936901 5.05139824022678 21.3353320343454
endloop
endfacet
facet normal 5.27527910484162e-014 -4.80019063470215e-016 1.0
outer loop
vertex 25.7329770908939 13.9640999799453 21.3353320343455
vertex 27.5058236936901 5.05139824022678 21.3353320343454
vertex 27.5058236936901 11.3108475378786 21.3353320343454
endloop
endfacet
facet normal 5.27527910484162e-014 -4.80019063470215e-016 1.0
outer loop
vertex 27.5058236936901 11.3108475378786 21.3353320343454
vertex 27.5058236936901 5.05139824022678 21.3353320343454
vertex 28.1283646328345 8.18112288905267 21.3353320343454
endloop
endfacet
facet normal -0.195090322016127 -0.980785280403231 1.0037010789496e-014
outer loop
vertex 19.9500000000012 0.00275825621939862 21.3353320343458
vertex 16.8202753511748 0.625299195363831 11.335332034346
vertex 19.9500000000007 0.00275825621940285 11.3353320343458
endloop
endfacet
facet normal -0.195090322016127 -0.980785280403231 1.0037010789496e-014
outer loop
vertex 16.8202753511748 0.625299195363831 11.335332034346
vertex 19.9500000000012 0.00275825621939862 21.3353320343458
vertex 16.8202753511753 0.625299195363826 21.335332034346
endloop
endfacet
facet normal 0.195090322016128 -0.980785280403231 -1.07544575871204e-014
outer loop
vertex 23.0797246488272 0.62529919536383 21.3353320343456
vertex 19.9500000000007 0.00275825621940285 11.3353320343458
vertex 23.0797246488266 0.625299195363834 11.3353320343456
endloop
endfacet
facet normal 0.195090322016128 -0.980785280403231 -1.07544575871204e-014
outer loop
vertex 19.9500000000007 0.00275825621940285 11.3353320343458
vertex 23.0797246488272 0.62529919536383 21.3353320343456
vertex 19.9500000000012 0.00275825621939862 21.3353320343458
endloop
endfacet
facet normal 0.555570233019604 -0.831469612302544 -2.91778142870156e-014
outer loop
vertex 25.7329770908939 2.39814579816003 21.3353320343455
vertex 23.0797246488266 0.625299195363834 11.3353320343456
vertex 25.7329770908934 2.39814579816004 11.3353320343455
endloop
endfacet
facet normal 0.555570233019604 -0.831469612302544 -2.91778142870156e-014
outer loop
vertex 23.0797246488266 0.625299195363834 11.3353320343456
vertex 25.7329770908939 2.39814579816003 21.3353320343455
vertex 23.0797246488272 0.62529919536383 21.3353320343456
endloop
endfacet
facet normal 0.831469612302546 -0.555570233019602 -4.33894362686071e-014
outer loop
vertex 25.7329770908934 2.39814579816004 11.3353320343455
vertex 27.5058236936901 5.05139824022678 21.3353320343454
vertex 25.7329770908939 2.39814579816003 21.3353320343455
endloop
endfacet
facet normal 0.831469612302546 -0.555570233019602 -4.33894362686071e-014
outer loop
vertex 27.5058236936901 5.05139824022678 21.3353320343454
vertex 25.7329770908934 2.39814579816004 11.3353320343455
vertex 27.5058236936896 5.05139824022679 11.3353320343454
endloop
endfacet
facet normal 0.98078528040323 -0.195090322016132 -5.20370778031429e-014
outer loop
vertex 27.5058236936896 5.05139824022679 11.3353320343454
vertex 28.1283646328345 8.18112288905267 21.3353320343454
vertex 27.5058236936901 5.05139824022678 21.3353320343454
endloop
endfacet
facet normal 0.98078528040323 -0.195090322016132 -5.20370778031429e-014
outer loop
vertex 28.1283646328345 8.18112288905267 21.3353320343454
vertex 27.5058236936896 5.05139824022679 11.3353320343454
vertex 28.128364632834 8.18112288905267 11.3353320343454
endloop
endfacet
facet normal 0.98078528040323 0.195090322016131 -5.19387053924338e-014
outer loop
vertex 27.5058236936896 11.3108475378786 11.3353320343454
vertex 28.1283646328345 8.18112288905267 21.3353320343454
vertex 28.128364632834 8.18112288905267 11.3353320343454
endloop
endfacet
facet normal 0.98078528040323 0.195090322016131 -5.19387053924338e-014
outer loop
vertex 28.1283646328345 8.18112288905267 21.3353320343454
vertex 27.5058236936896 11.3108475378786 11.3353320343454
vertex 27.5058236936901 11.3108475378786 21.3353320343454
endloop
endfacet
facet normal 0.831469612302546 0.555570233019602 -4.28252237984388e-014
outer loop
vertex 27.5058236936896 11.3108475378786 11.3353320343454
vertex 25.7329770908939 13.9640999799453 21.3353320343455
vertex 27.5058236936901 11.3108475378786 21.3353320343454
endloop
endfacet
facet normal 0.831469612302546 0.555570233019602 -4.28252237984388e-014
outer loop
vertex 25.7329770908939 13.9640999799453 21.3353320343455
vertex 27.5058236936896 11.3108475378786 11.3353320343454
vertex 25.7329770908934 13.9640999799453 11.3353320343455
endloop
endfacet
facet normal -0.98078528040323 0.195090322016128 5.1001044519409e-014
outer loop
vertex 12.3941763063124 11.3108475378786 21.3353320343462
vertex 11.7716353671674 8.18112288905268 11.3353320343462
vertex 11.7716353671679 8.18112288905267 21.3353320343462
endloop
endfacet
facet normal -0.98078528040323 0.195090322016128 5.1001044519409e-014
outer loop
vertex 11.7716353671674 8.18112288905268 11.3353320343462
vertex 12.3941763063124 11.3108475378786 21.3353320343462
vertex 12.3941763063119 11.3108475378786 11.3353320343462
endloop
endfacet
facet normal 0.555570233019603 0.831469612302545 -2.89868353208616e-014
outer loop
vertex 23.0797246488266 15.7369465827415 11.3353320343456
vertex 25.7329770908939 13.9640999799453 21.3353320343455
vertex 25.7329770908934 13.9640999799453 11.3353320343455
endloop
endfacet
facet normal 0.555570233019603 0.831469612302545 -2.89868353208616e-014
outer loop
vertex 25.7329770908939 13.9640999799453 21.3353320343455
vertex 23.0797246488266 15.7369465827415 11.3353320343456
vertex 23.0797246488272 15.7369465827415 21.3353320343456
endloop
endfacet
facet normal -0.555570233019603 0.831469612302545 2.99330024679725e-014
outer loop
vertex 14.1670229091081 13.9640999799453 11.3353320343461
vertex 16.8202753511753 15.7369465827415 21.335332034346
vertex 16.8202753511748 15.7369465827415 11.335332034346
endloop
endfacet
facet normal -0.555570233019603 0.831469612302545 2.99330024679725e-014
outer loop
vertex 16.8202753511753 15.7369465827415 21.335332034346
vertex 14.1670229091081 13.9640999799453 11.3353320343461
vertex 14.1670229091086 13.9640999799453 21.3353320343461
endloop
endfacet
facet normal -0.831469612302546 0.555570233019602 4.39277645191268e-014
outer loop
vertex 14.1670229091086 13.9640999799453 21.3353320343461
vertex 12.3941763063119 11.3108475378786 11.3353320343462
vertex 12.3941763063124 11.3108475378786 21.3353320343462
endloop
endfacet
facet normal -0.831469612302546 0.555570233019602 4.39277645191268e-014
outer loop
vertex 12.3941763063119 11.3108475378786 11.3353320343462
vertex 14.1670229091086 13.9640999799453 21.3353320343461
vertex 14.1670229091081 13.9640999799453 11.3353320343461
endloop
endfacet
endsolid 8mm Crossbar Mount
