solid Undercarriage Bracket
facet normal 0.0 0.0 -1.0
outer loop
vertex 4.3 31.1818673559185 2.06540513858489e-018
vertex 4.30000000000001 16.1818673559185 2.06540513858489e-018
vertex 4.3 6.1818673559185 2.06540513858489e-018
endloop
endfacet
facet normal 0.0 0.0 -1.0
outer loop
vertex 4.30000000000001 16.1818673559185 2.06540513858489e-018
vertex 4.3 31.1818673559185 2.06540513858489e-018
vertex 4.72016261237513 29.888739800875 2.06540513858489e-018
endloop
endfacet
facet normal 0.0 0.0 -1.0
outer loop
vertex 4.30000000000001 16.1818673559185 2.06540513858489e-018
vertex 4.72016261237513 29.888739800875 2.06540513858489e-018
vertex 4.72016261237513 17.4749949109619 2.06540513858489e-018
endloop
endfacet
facet normal 0.0 0.0 -1.0
outer loop
vertex 4.72016261237513 17.4749949109619 2.06540513858489e-018
vertex 4.72016261237513 29.888739800875 2.06540513858489e-018
vertex 5.82016261237513 29.0895430200691 2.06540513858489e-018
endloop
endfacet
facet normal 0.0 0.0 -1.0
outer loop
vertex 4.72016261237513 17.4749949109619 2.06540513858489e-018
vertex 5.82016261237513 29.0895430200691 2.06540513858489e-018
vertex 5.82016261237513 18.2741916917678 2.06540513858489e-018
endloop
endfacet
facet normal 0.0 0.0 -1.0
outer loop
vertex 5.82016261237513 18.2741916917678 2.06540513858489e-018
vertex 5.82016261237513 29.0895430200691 2.06540513858489e-018
vertex 7.1798373876249 29.0895430200691 2.06540513858489e-018
endloop
endfacet
facet normal 0.0 0.0 -1.0
outer loop
vertex 5.82016261237513 18.2741916917678 2.06540513858489e-018
vertex 7.1798373876249 29.0895430200691 2.06540513858489e-018
vertex 7.17983738762489 18.2741916917678 2.06540513858489e-018
endloop
endfacet
facet normal 0.0 0.0 -1.0
outer loop
vertex 7.17983738762489 18.2741916917678 2.06540513858489e-018
vertex 7.1798373876249 29.0895430200691 2.06540513858489e-018
vertex 8.27983738762489 17.4749949109619 2.06540513858489e-018
endloop
endfacet
facet normal 0.0 0.0 -1.0
outer loop
vertex 8.27983738762489 17.4749949109619 2.06540513858489e-018
vertex 7.1798373876249 29.0895430200691 2.06540513858489e-018
vertex 8.27983738762489 29.8887398008751 2.06540513858489e-018
endloop
endfacet
facet normal 0.0 0.0 -1.0
outer loop
vertex 8.27983738762489 17.4749949109619 2.06540513858489e-018
vertex 8.27983738762489 29.8887398008751 2.06540513858489e-018
vertex 8.70000000000002 31.1818673559185 2.06540513858489e-018
endloop
endfacet
facet normal 0.0 0.0 -1.0
outer loop
vertex 8.27983738762489 17.4749949109619 2.06540513858489e-018
vertex 8.70000000000002 31.1818673559185 2.06540513858489e-018
vertex 8.70000000000001 16.1818673559185 2.06540513858489e-018
endloop
endfacet
facet normal 0.0 0.0 -1.0
outer loop
vertex 1.12798659301916e-014 31.1818673559185 2.06540513858489e-018
vertex 1.24138953656286 2.36126321601742 2.06540513858489e-018
vertex 0.0 6.1818673559185 2.06540513858489e-018
endloop
endfacet
facet normal 0.0 0.0 -1.0
outer loop
vertex 1.24138953656286 2.36126321601742 2.06540513858489e-018
vertex 1.12798659301916e-014 31.1818673559185 2.06540513858489e-018
vertex 1.24138953656286 35.0024714958196 2.06540513858489e-018
endloop
endfacet
facet normal 0.0 0.0 -1.0
outer loop
vertex 1.24138953656286 2.36126321601742 2.06540513858489e-018
vertex 1.24138953656286 35.0024714958196 2.06540513858489e-018
vertex 4.49138953656286 37.363734711837 2.06540513858489e-018
endloop
endfacet
facet normal 0.0 0.0 -1.0
outer loop
vertex 1.24138953656286 2.36126321601742 2.06540513858489e-018
vertex 4.49138953656286 37.363734711837 2.06540513858489e-018
vertex 4.3 31.1818673559185 2.06540513858489e-018
endloop
endfacet
facet normal 0.0 0.0 -1.0
outer loop
vertex 4.3 31.1818673559185 2.06540513858489e-018
vertex 4.49138953656286 37.363734711837 2.06540513858489e-018
vertex 4.72016261237513 32.4749949109619 2.06540513858489e-018
endloop
endfacet
facet normal 0.0 0.0 -1.0
outer loop
vertex 4.72016261237513 32.4749949109619 2.06540513858489e-018
vertex 4.49138953656286 37.363734711837 2.06540513858489e-018
vertex 8.50861046343717 37.363734711837 2.06540513858489e-018
endloop
endfacet
facet normal 0.0 0.0 -1.0
outer loop
vertex 4.72016261237513 32.4749949109619 2.06540513858489e-018
vertex 8.50861046343717 37.363734711837 2.06540513858489e-018
vertex 5.82016261237514 33.2741916917678 2.06540513858489e-018
endloop
endfacet
facet normal 0.0 0.0 -1.0
outer loop
vertex 5.82016261237514 33.2741916917678 2.06540513858489e-018
vertex 8.50861046343717 37.363734711837 2.06540513858489e-018
vertex 7.1798373876249 33.2741916917678 2.06540513858489e-018
endloop
endfacet
facet normal 0.0 0.0 -1.0
outer loop
vertex 7.1798373876249 33.2741916917678 2.06540513858489e-018
vertex 8.50861046343717 37.363734711837 2.06540513858489e-018
vertex 8.27983738762489 32.4749949109619 2.06540513858489e-018
endloop
endfacet
facet normal 0.0 0.0 -1.0
outer loop
vertex 8.27983738762489 32.4749949109619 2.06540513858489e-018
vertex 8.50861046343717 37.363734711837 2.06540513858489e-018
vertex 8.70000000000002 31.1818673559185 2.06540513858489e-018
endloop
endfacet
facet normal 0.0 0.0 -1.0
outer loop
vertex 8.70000000000002 31.1818673559185 2.06540513858489e-018
vertex 8.50861046343717 37.363734711837 2.06540513858489e-018
vertex 11.7586104634372 35.0024714958196 2.06540513858489e-018
endloop
endfacet
facet normal 0.0 0.0 -1.0
outer loop
vertex 8.70000000000002 31.1818673559185 2.06540513858489e-018
vertex 11.7586104634372 35.0024714958196 2.06540513858489e-018
vertex 11.7586104634372 2.3612632160174 2.06540513858489e-018
endloop
endfacet
facet normal 0.0 0.0 -1.0
outer loop
vertex 11.7586104634372 2.3612632160174 2.06540513858489e-018
vertex 11.7586104634372 35.0024714958196 2.06540513858489e-018
vertex 13.0 6.18186735591848 2.06540513858489e-018
endloop
endfacet
facet normal 0.0 0.0 -1.0
outer loop
vertex 13.0 6.18186735591848 2.06540513858489e-018
vertex 11.7586104634372 35.0024714958196 2.06540513858489e-018
vertex 13.0 31.1818673559185 2.06540513858489e-018
endloop
endfacet
facet normal 0.0 0.0 -1.0
outer loop
vertex 1.24138953656286 2.36126321601742 2.06540513858489e-018
vertex 4.3 6.1818673559185 2.06540513858489e-018
vertex 4.49138953656285 0.0 2.06540513858489e-018
endloop
endfacet
facet normal 0.0 0.0 -1.0
outer loop
vertex 4.3 6.1818673559185 2.06540513858489e-018
vertex 1.24138953656286 2.36126321601742 2.06540513858489e-018
vertex 4.3 31.1818673559185 2.06540513858489e-018
endloop
endfacet
facet normal 0.0 0.0 -1.0
outer loop
vertex 4.49138953656285 0.0 2.06540513858489e-018
vertex 4.3 6.1818673559185 2.06540513858489e-018
vertex 4.72016261237511 4.88873980087505 2.06540513858489e-018
endloop
endfacet
facet normal 0.0 0.0 -1.0
outer loop
vertex 4.49138953656285 0.0 2.06540513858489e-018
vertex 4.72016261237511 4.88873980087505 2.06540513858489e-018
vertex 8.50861046343716 -1.12798659301916e-014 2.06540513858489e-018
endloop
endfacet
facet normal 0.0 0.0 -1.0
outer loop
vertex 8.50861046343716 -1.12798659301916e-014 2.06540513858489e-018
vertex 4.72016261237511 4.88873980087505 2.06540513858489e-018
vertex 5.82016261237512 4.08954302006916 2.06540513858489e-018
endloop
endfacet
facet normal 0.0 0.0 -1.0
outer loop
vertex 8.50861046343716 -1.12798659301916e-014 2.06540513858489e-018
vertex 5.82016261237512 4.08954302006916 2.06540513858489e-018
vertex 7.17983738762488 4.08954302006914 2.06540513858489e-018
endloop
endfacet
facet normal 0.0 0.0 -1.0
outer loop
vertex 8.50861046343716 -1.12798659301916e-014 2.06540513858489e-018
vertex 7.17983738762488 4.08954302006914 2.06540513858489e-018
vertex 8.27983738762488 4.88873980087505 2.06540513858489e-018
endloop
endfacet
facet normal 0.0 0.0 -1.0
outer loop
vertex 8.50861046343716 -1.12798659301916e-014 2.06540513858489e-018
vertex 8.27983738762488 4.88873980087505 2.06540513858489e-018
vertex 8.7 6.1818673559185 2.06540513858489e-018
endloop
endfacet
facet normal 0.0 0.0 -1.0
outer loop
vertex 8.50861046343716 -1.12798659301916e-014 2.06540513858489e-018
vertex 8.7 6.1818673559185 2.06540513858489e-018
vertex 11.7586104634372 2.3612632160174 2.06540513858489e-018
endloop
endfacet
facet normal 0.0 0.0 -1.0
outer loop
vertex 11.7586104634372 2.3612632160174 2.06540513858489e-018
vertex 8.7 6.1818673559185 2.06540513858489e-018
vertex 8.70000000000001 16.1818673559185 2.06540513858489e-018
endloop
endfacet
facet normal 0.0 0.0 -1.0
outer loop
vertex 11.7586104634372 2.3612632160174 2.06540513858489e-018
vertex 8.70000000000001 16.1818673559185 2.06540513858489e-018
vertex 8.70000000000002 31.1818673559185 2.06540513858489e-018
endloop
endfacet
facet normal -0.587785252292476 0.809016994374945 0.0
outer loop
vertex 7.17983738762488 4.08954302006914 5.0
vertex 8.27983738762488 4.88873980087505 2.06540513858489e-018
vertex 7.17983738762488 4.08954302006914 2.06540513858489e-018
endloop
endfacet
facet normal -0.587785252292476 0.809016994374945 0.0
outer loop
vertex 8.27983738762488 4.88873980087505 2.06540513858489e-018
vertex 7.17983738762488 4.08954302006914 5.0
vertex 8.27983738762488 4.88873980087505 5.0
endloop
endfacet
facet normal -0.587785252292473 -0.809016994374948 0.0
outer loop
vertex 4.49138953656285 0.0 5.0
vertex 1.24138953656286 2.36126321601742 2.06540513858489e-018
vertex 4.49138953656285 0.0 2.06540513858489e-018
endloop
endfacet
facet normal -0.587785252292473 -0.809016994374948 0.0
outer loop
vertex 1.24138953656286 2.36126321601742 2.06540513858489e-018
vertex 4.49138953656285 0.0 5.0
vertex 1.24138953656286 2.36126321601742 5.0
endloop
endfacet
facet normal -0.951056516295154 -0.309016994374947 0.0
outer loop
vertex 0.0 6.1818673559185 5.0
vertex 1.24138953656286 2.36126321601742 2.06540513858489e-018
vertex 1.24138953656286 2.36126321601742 5.0
endloop
endfacet
facet normal -0.951056516295154 -0.309016994374947 0.0
outer loop
vertex 1.24138953656286 2.36126321601742 2.06540513858489e-018
vertex 0.0 6.1818673559185 5.0
vertex 0.0 6.1818673559185 2.06540513858489e-018
endloop
endfacet
facet normal -3.98397806172501e-016 -1.0 0.0
outer loop
vertex 7.17983738762489 18.2741916917678 5.0
vertex 5.82016261237513 18.2741916917678 2.06540513858489e-018
vertex 7.17983738762489 18.2741916917678 2.06540513858489e-018
endloop
endfacet
facet normal -3.98397806172501e-016 -1.0 0.0
outer loop
vertex 5.82016261237513 18.2741916917678 2.06540513858489e-018
vertex 7.17983738762489 18.2741916917678 5.0
vertex 5.82016261237513 18.2741916917678 5.0
endloop
endfacet
facet normal 0.587785252292473 -0.809016994374947 0.0
outer loop
vertex 5.82016261237513 18.2741916917678 5.0
vertex 4.72016261237513 17.4749949109619 2.06540513858489e-018
vertex 5.82016261237513 18.2741916917678 2.06540513858489e-018
endloop
endfacet
facet normal 0.587785252292473 -0.809016994374947 0.0
outer loop
vertex 4.72016261237513 17.4749949109619 2.06540513858489e-018
vertex 5.82016261237513 18.2741916917678 5.0
vertex 4.72016261237513 17.4749949109619 5.0
endloop
endfacet
facet normal -3.98397806172501e-016 -1.0 0.0
outer loop
vertex 8.50861046343716 -1.12798659301916e-014 5.0
vertex 4.49138953656285 0.0 2.06540513858489e-018
vertex 8.50861046343716 -1.12798659301916e-014 2.06540513858489e-018
endloop
endfacet
facet normal -3.98397806172501e-016 -1.0 0.0
outer loop
vertex 4.49138953656285 0.0 2.06540513858489e-018
vertex 8.50861046343716 -1.12798659301916e-014 5.0
vertex 4.49138953656285 0.0 5.0
endloop
endfacet
facet normal -0.951056516295154 0.309016994374948 0.0
outer loop
vertex 8.70000000000002 31.1818673559185 13.0
vertex 8.27983738762489 29.8887398008751 2.06540513858489e-018
vertex 8.27983738762489 29.8887398008751 13.0
endloop
endfacet
facet normal -0.951056516295154 0.309016994374948 0.0
outer loop
vertex 8.27983738762489 29.8887398008751 2.06540513858489e-018
vertex 8.70000000000002 31.1818673559185 13.0
vertex 8.70000000000002 31.1818673559185 2.06540513858489e-018
endloop
endfacet
facet normal -0.951056516295154 -0.309016994374948 0.0
outer loop
vertex 8.27983738762489 32.4749949109619 13.0
vertex 8.70000000000002 31.1818673559185 2.06540513858489e-018
vertex 8.70000000000002 31.1818673559185 13.0
endloop
endfacet
facet normal -0.951056516295154 -0.309016994374948 0.0
outer loop
vertex 8.70000000000002 31.1818673559185 2.06540513858489e-018
vertex 8.27983738762489 32.4749949109619 13.0
vertex 8.27983738762489 32.4749949109619 2.06540513858489e-018
endloop
endfacet
facet normal 0.951056516295154 -0.309016994374948 0.0
outer loop
vertex 13.0 6.18186735591848 2.06540513858489e-018
vertex 11.7586104634372 2.3612632160174 5.0
vertex 11.7586104634372 2.3612632160174 2.06540513858489e-018
endloop
endfacet
facet normal 0.951056516295154 -0.309016994374948 0.0
outer loop
vertex 11.7586104634372 2.3612632160174 5.0
vertex 13.0 6.18186735591848 2.06540513858489e-018
vertex 13.0 6.18186735591848 5.0
endloop
endfacet
facet normal 0.587785252292472 -0.809016994374948 0.0
outer loop
vertex 11.7586104634372 2.3612632160174 5.0
vertex 8.50861046343716 -1.12798659301916e-014 2.06540513858489e-018
vertex 11.7586104634372 2.3612632160174 2.06540513858489e-018
endloop
endfacet
facet normal 0.587785252292472 -0.809016994374948 0.0
outer loop
vertex 8.50861046343716 -1.12798659301916e-014 2.06540513858489e-018
vertex 11.7586104634372 2.3612632160174 5.0
vertex 8.50861046343716 -1.12798659301916e-014 5.0
endloop
endfacet
facet normal 0.587785252292476 0.809016994374945 0.0
outer loop
vertex 4.72016261237511 4.88873980087505 5.0
vertex 5.82016261237512 4.08954302006916 2.06540513858489e-018
vertex 4.72016261237511 4.88873980087505 2.06540513858489e-018
endloop
endfacet
facet normal 0.587785252292476 0.809016994374945 0.0
outer loop
vertex 5.82016261237512 4.08954302006916 2.06540513858489e-018
vertex 4.72016261237511 4.88873980087505 5.0
vertex 5.82016261237512 4.08954302006916 5.0
endloop
endfacet
facet normal 3.98397806172501e-016 1.0 0.0
outer loop
vertex 5.82016261237512 4.08954302006916 5.0
vertex 7.17983738762488 4.08954302006914 2.06540513858489e-018
vertex 5.82016261237512 4.08954302006916 2.06540513858489e-018
endloop
endfacet
facet normal 3.98397806172501e-016 1.0 0.0
outer loop
vertex 7.17983738762488 4.08954302006914 2.06540513858489e-018
vertex 5.82016261237512 4.08954302006916 5.0
vertex 7.17983738762488 4.08954302006914 5.0
endloop
endfacet
facet normal 0.951056516295153 -0.309016994374948 0.0
outer loop
vertex 4.72016261237513 17.4749949109619 2.06540513858489e-018
vertex 4.30000000000001 16.1818673559185 5.0
vertex 4.30000000000001 16.1818673559185 2.06540513858489e-018
endloop
endfacet
facet normal 0.951056516295153 -0.309016994374948 0.0
outer loop
vertex 4.30000000000001 16.1818673559185 5.0
vertex 4.72016261237513 17.4749949109619 2.06540513858489e-018
vertex 4.72016261237513 17.4749949109619 5.0
endloop
endfacet
facet normal 1.0 -3.98397806172501e-016 0.0
outer loop
vertex 4.30000000000001 16.1818673559185 2.06540513858489e-018
vertex 4.3 6.1818673559185 5.0
vertex 4.3 6.1818673559185 2.06540513858489e-018
endloop
endfacet
facet normal 1.0 -3.98397806172501e-016 0.0
outer loop
vertex 4.3 6.1818673559185 5.0
vertex 4.30000000000001 16.1818673559185 2.06540513858489e-018
vertex 4.30000000000001 16.1818673559185 5.0
endloop
endfacet
facet normal 0.951056516295154 0.309016994374947 0.0
outer loop
vertex 4.3 6.1818673559185 2.06540513858489e-018
vertex 4.72016261237511 4.88873980087505 5.0
vertex 4.72016261237511 4.88873980087505 2.06540513858489e-018
endloop
endfacet
facet normal 0.951056516295154 0.309016994374947 0.0
outer loop
vertex 4.72016261237511 4.88873980087505 5.0
vertex 4.3 6.1818673559185 2.06540513858489e-018
vertex 4.3 6.1818673559185 5.0
endloop
endfacet
facet normal 0.951056516295154 0.309016994374947 0.0
outer loop
vertex 4.3 31.1818673559185 2.06540513858489e-018
vertex 4.72016261237513 29.888739800875 13.0
vertex 4.72016261237513 29.888739800875 2.06540513858489e-018
endloop
endfacet
facet normal 0.951056516295154 0.309016994374947 0.0
outer loop
vertex 4.72016261237513 29.888739800875 13.0
vertex 4.3 31.1818673559185 2.06540513858489e-018
vertex 4.3 31.1818673559185 13.0
endloop
endfacet
facet normal 0.587785252292473 0.809016994374947 0.0
outer loop
vertex 4.72016261237513 29.888739800875 13.0
vertex 5.82016261237513 29.0895430200691 2.06540513858489e-018
vertex 4.72016261237513 29.888739800875 2.06540513858489e-018
endloop
endfacet
facet normal 0.587785252292473 0.809016994374947 0.0
outer loop
vertex 5.82016261237513 29.0895430200691 2.06540513858489e-018
vertex 4.72016261237513 29.888739800875 13.0
vertex 5.82016261237513 29.0895430200691 13.0
endloop
endfacet
facet normal 3.98397806172501e-016 1.0 0.0
outer loop
vertex 5.82016261237513 29.0895430200691 13.0
vertex 7.1798373876249 29.0895430200691 2.06540513858489e-018
vertex 5.82016261237513 29.0895430200691 2.06540513858489e-018
endloop
endfacet
facet normal 3.98397806172501e-016 1.0 0.0
outer loop
vertex 7.1798373876249 29.0895430200691 2.06540513858489e-018
vertex 5.82016261237513 29.0895430200691 13.0
vertex 7.1798373876249 29.0895430200691 13.0
endloop
endfacet
facet normal -0.951056516295153 0.309016994374949 0.0
outer loop
vertex 8.7 6.1818673559185 5.0
vertex 8.27983738762488 4.88873980087505 2.06540513858489e-018
vertex 8.27983738762488 4.88873980087505 5.0
endloop
endfacet
facet normal -0.951056516295153 0.309016994374949 0.0
outer loop
vertex 8.27983738762488 4.88873980087505 2.06540513858489e-018
vertex 8.7 6.1818673559185 5.0
vertex 8.7 6.1818673559185 2.06540513858489e-018
endloop
endfacet
facet normal -1.0 3.98397806172501e-016 0.0
outer loop
vertex 8.70000000000001 16.1818673559185 5.0
vertex 8.7 6.1818673559185 2.06540513858489e-018
vertex 8.7 6.1818673559185 5.0
endloop
endfacet
facet normal -1.0 3.98397806172501e-016 0.0
outer loop
vertex 8.7 6.1818673559185 2.06540513858489e-018
vertex 8.70000000000001 16.1818673559185 5.0
vertex 8.70000000000001 16.1818673559185 2.06540513858489e-018
endloop
endfacet
facet normal -0.951056516295154 -0.309016994374948 0.0
outer loop
vertex 8.27983738762489 17.4749949109619 5.0
vertex 8.70000000000001 16.1818673559185 2.06540513858489e-018
vertex 8.70000000000001 16.1818673559185 5.0
endloop
endfacet
facet normal -0.951056516295154 -0.309016994374948 0.0
outer loop
vertex 8.70000000000001 16.1818673559185 2.06540513858489e-018
vertex 8.27983738762489 17.4749949109619 5.0
vertex 8.27983738762489 17.4749949109619 2.06540513858489e-018
endloop
endfacet
facet normal -0.587785252292474 -0.809016994374947 0.0
outer loop
vertex 8.27983738762489 17.4749949109619 5.0
vertex 7.17983738762489 18.2741916917678 2.06540513858489e-018
vertex 8.27983738762489 17.4749949109619 2.06540513858489e-018
endloop
endfacet
facet normal -0.587785252292474 -0.809016994374947 0.0
outer loop
vertex 7.17983738762489 18.2741916917678 2.06540513858489e-018
vertex 8.27983738762489 17.4749949109619 5.0
vertex 7.17983738762489 18.2741916917678 5.0
endloop
endfacet
facet normal -0.587785252292473 0.809016994374948 0.0
outer loop
vertex 7.1798373876249 29.0895430200691 13.0
vertex 8.27983738762489 29.8887398008751 2.06540513858489e-018
vertex 7.1798373876249 29.0895430200691 2.06540513858489e-018
endloop
endfacet
facet normal -0.587785252292473 0.809016994374948 0.0
outer loop
vertex 8.27983738762489 29.8887398008751 2.06540513858489e-018
vertex 7.1798373876249 29.0895430200691 13.0
vertex 8.27983738762489 29.8887398008751 13.0
endloop
endfacet
facet normal -0.587785252292474 -0.809016994374947 0.0
outer loop
vertex 8.27983738762489 32.4749949109619 13.0
vertex 7.1798373876249 33.2741916917678 2.06540513858489e-018
vertex 8.27983738762489 32.4749949109619 2.06540513858489e-018
endloop
endfacet
facet normal -0.587785252292474 -0.809016994374947 0.0
outer loop
vertex 7.1798373876249 33.2741916917678 2.06540513858489e-018
vertex 8.27983738762489 32.4749949109619 13.0
vertex 7.1798373876249 33.2741916917678 13.0
endloop
endfacet
facet normal -3.98397806172501e-016 -1.0 0.0
outer loop
vertex 7.1798373876249 33.2741916917678 13.0
vertex 5.82016261237514 33.2741916917678 2.06540513858489e-018
vertex 7.1798373876249 33.2741916917678 2.06540513858489e-018
endloop
endfacet
facet normal -3.98397806172501e-016 -1.0 0.0
outer loop
vertex 5.82016261237514 33.2741916917678 2.06540513858489e-018
vertex 7.1798373876249 33.2741916917678 13.0
vertex 5.82016261237514 33.2741916917678 13.0
endloop
endfacet
facet normal 0.587785252292473 -0.809016994374948 0.0
outer loop
vertex 5.82016261237514 33.2741916917678 13.0
vertex 4.72016261237513 32.4749949109619 2.06540513858489e-018
vertex 5.82016261237514 33.2741916917678 2.06540513858489e-018
endloop
endfacet
facet normal 0.587785252292473 -0.809016994374948 0.0
outer loop
vertex 4.72016261237513 32.4749949109619 2.06540513858489e-018
vertex 5.82016261237514 33.2741916917678 13.0
vertex 4.72016261237513 32.4749949109619 13.0
endloop
endfacet
facet normal 0.951056516295154 -0.309016994374948 0.0
outer loop
vertex 4.72016261237513 32.4749949109619 2.06540513858489e-018
vertex 4.3 31.1818673559185 13.0
vertex 4.3 31.1818673559185 2.06540513858489e-018
endloop
endfacet
facet normal 0.951056516295154 -0.309016994374948 0.0
outer loop
vertex 4.3 31.1818673559185 13.0
vertex 4.72016261237513 32.4749949109619 2.06540513858489e-018
vertex 4.72016261237513 32.4749949109619 13.0
endloop
endfacet
facet normal 0.951056516295155 0.309016994374944 -0.0
outer loop
vertex 11.7586104634372 35.0024714958196 2.06540513858489e-018
vertex 13.0 31.1818673559185 5.0
vertex 13.0 31.1818673559185 2.06540513858489e-018
endloop
endfacet
facet normal 0.951056516295155 0.309016994374944 -0.0
outer loop
vertex 13.0 31.1818673559185 5.0
vertex 11.7586104634372 35.0024714958196 2.06540513858489e-018
vertex 13.0 31.1818673559185 13.0
endloop
endfacet
facet normal 0.951056516295155 0.309016994374944 -0.0
outer loop
vertex 13.0 31.1818673559185 13.0
vertex 11.7586104634372 35.0024714958196 2.06540513858489e-018
vertex 11.7586104634372 35.0024714958196 13.0
endloop
endfacet
facet normal -1.0 4.51194637207664e-016 0.0
outer loop
vertex 1.12798659301916e-014 31.1818673559185 5.0
vertex 0.0 6.1818673559185 2.06540513858489e-018
vertex 0.0 6.1818673559185 5.0
endloop
endfacet
facet normal -1.0 4.51194637207664e-016 0.0
outer loop
vertex 0.0 6.1818673559185 2.06540513858489e-018
vertex 1.12798659301916e-014 31.1818673559185 5.0
vertex 1.12798659301916e-014 31.1818673559185 2.06540513858489e-018
endloop
endfacet
facet normal 1.0 -4.51194637207664e-016 -0.0
outer loop
vertex 13.0 31.1818673559185 2.06540513858489e-018
vertex 13.0 6.18186735591848 5.0
vertex 13.0 6.18186735591848 2.06540513858489e-018
endloop
endfacet
facet normal 1.0 -4.51194637207664e-016 -0.0
outer loop
vertex 13.0 6.18186735591848 5.0
vertex 13.0 31.1818673559185 2.06540513858489e-018
vertex 13.0 31.1818673559185 5.0
endloop
endfacet
facet normal 0.587785252292473 0.809016994374947 0.0
outer loop
vertex 8.50861046343717 37.363734711837 13.0
vertex 11.7586104634372 35.0024714958196 2.06540513858489e-018
vertex 8.50861046343717 37.363734711837 2.06540513858489e-018
endloop
endfacet
facet normal 0.587785252292473 0.809016994374947 0.0
outer loop
vertex 11.7586104634372 35.0024714958196 2.06540513858489e-018
vertex 8.50861046343717 37.363734711837 13.0
vertex 11.7586104634372 35.0024714958196 13.0
endloop
endfacet
facet normal -0.951056516295153 0.309016994374948 0.0
outer loop
vertex 1.24138953656286 35.0024714958196 13.0
vertex 1.12798659301916e-014 31.1818673559185 5.0
vertex 1.12798659301916e-014 31.1818673559185 13.0
endloop
endfacet
facet normal -0.951056516295153 0.309016994374948 0.0
outer loop
vertex 1.12798659301916e-014 31.1818673559185 5.0
vertex 1.24138953656286 35.0024714958196 13.0
vertex 1.12798659301916e-014 31.1818673559185 2.06540513858489e-018
endloop
endfacet
facet normal -0.951056516295153 0.309016994374948 0.0
outer loop
vertex 1.12798659301916e-014 31.1818673559185 2.06540513858489e-018
vertex 1.24138953656286 35.0024714958196 13.0
vertex 1.24138953656286 35.0024714958196 2.06540513858489e-018
endloop
endfacet
facet normal -0.587785252292473 0.809016994374948 0.0
outer loop
vertex 1.24138953656286 35.0024714958196 13.0
vertex 4.49138953656286 37.363734711837 2.06540513858489e-018
vertex 1.24138953656286 35.0024714958196 2.06540513858489e-018
endloop
endfacet
facet normal -0.587785252292473 0.809016994374948 0.0
outer loop
vertex 4.49138953656286 37.363734711837 2.06540513858489e-018
vertex 1.24138953656286 35.0024714958196 13.0
vertex 4.49138953656286 37.363734711837 13.0
endloop
endfacet
facet normal 5.73890176014731e-016 1.0 0.0
outer loop
vertex 4.49138953656286 37.363734711837 13.0
vertex 8.50861046343717 37.363734711837 2.06540513858489e-018
vertex 4.49138953656286 37.363734711837 2.06540513858489e-018
endloop
endfacet
facet normal 5.73890176014731e-016 1.0 0.0
outer loop
vertex 8.50861046343717 37.363734711837 2.06540513858489e-018
vertex 4.49138953656286 37.363734711837 13.0
vertex 8.50861046343717 37.363734711837 13.0
endloop
endfacet
facet normal 0.0 0.0 1.0
outer loop
vertex 4.49138953656285 0.0 5.0
vertex 4.3 6.1818673559185 5.0
vertex 1.24138953656286 2.36126321601742 5.0
endloop
endfacet
facet normal 0.0 0.0 1.0
outer loop
vertex 4.3 6.1818673559185 5.0
vertex 4.49138953656285 0.0 5.0
vertex 4.72016261237511 4.88873980087505 5.0
endloop
endfacet
facet normal 0.0 0.0 1.0
outer loop
vertex 4.72016261237511 4.88873980087505 5.0
vertex 4.49138953656285 0.0 5.0
vertex 8.50861046343716 -1.12798659301916e-014 5.0
endloop
endfacet
facet normal 0.0 0.0 1.0
outer loop
vertex 4.72016261237511 4.88873980087505 5.0
vertex 8.50861046343716 -1.12798659301916e-014 5.0
vertex 5.82016261237512 4.08954302006916 5.0
endloop
endfacet
facet normal 0.0 0.0 1.0
outer loop
vertex 5.82016261237512 4.08954302006916 5.0
vertex 8.50861046343716 -1.12798659301916e-014 5.0
vertex 7.17983738762488 4.08954302006914 5.0
endloop
endfacet
facet normal 0.0 0.0 1.0
outer loop
vertex 7.17983738762488 4.08954302006914 5.0
vertex 8.50861046343716 -1.12798659301916e-014 5.0
vertex 8.27983738762488 4.88873980087505 5.0
endloop
endfacet
facet normal 0.0 0.0 1.0
outer loop
vertex 8.27983738762488 4.88873980087505 5.0
vertex 8.50861046343716 -1.12798659301916e-014 5.0
vertex 8.7 6.1818673559185 5.0
endloop
endfacet
facet normal 0.0 0.0 1.0
outer loop
vertex 8.7 6.1818673559185 5.0
vertex 8.50861046343716 -1.12798659301916e-014 5.0
vertex 11.7586104634372 2.3612632160174 5.0
endloop
endfacet
facet normal 0.0 0.0 1.0
outer loop
vertex 8.7 6.1818673559185 5.0
vertex 11.7586104634372 2.3612632160174 5.0
vertex 8.70000000000001 16.1818673559185 5.0
endloop
endfacet
facet normal 0.0 0.0 1.0
outer loop
vertex 8.70000000000001 16.1818673559185 5.0
vertex 11.7586104634372 2.3612632160174 5.0
vertex 11.7586104634372 27.3612632160174 5.0
endloop
endfacet
facet normal 0.0 0.0 1.0
outer loop
vertex 11.7586104634372 27.3612632160174 5.0
vertex 11.7586104634372 2.3612632160174 5.0
vertex 13.0 31.1818673559185 5.0
endloop
endfacet
facet normal 0.0 0.0 1.0
outer loop
vertex 13.0 31.1818673559185 5.0
vertex 11.7586104634372 2.3612632160174 5.0
vertex 13.0 6.18186735591848 5.0
endloop
endfacet
facet normal 0.0 0.0 1.0
outer loop
vertex 1.24138953656286 2.36126321601742 5.0
vertex 1.12798659301916e-014 31.1818673559185 5.0
vertex 0.0 6.1818673559185 5.0
endloop
endfacet
facet normal 0.0 0.0 1.0
outer loop
vertex 1.12798659301916e-014 31.1818673559185 5.0
vertex 1.24138953656286 2.36126321601742 5.0
vertex 1.24138953656283 27.3612632160174 5.0
endloop
endfacet
facet normal 0.0 0.0 1.0
outer loop
vertex 1.24138953656283 27.3612632160174 5.0
vertex 1.24138953656286 2.36126321601742 5.0
vertex 4.49138953656283 25.0 5.0
endloop
endfacet
facet normal 0.0 0.0 1.0
outer loop
vertex 4.49138953656283 25.0 5.0
vertex 1.24138953656286 2.36126321601742 5.0
vertex 4.30000000000001 16.1818673559185 5.0
endloop
endfacet
facet normal 0.0 0.0 1.0
outer loop
vertex 4.30000000000001 16.1818673559185 5.0
vertex 1.24138953656286 2.36126321601742 5.0
vertex 4.3 6.1818673559185 5.0
endloop
endfacet
facet normal 0.0 0.0 1.0
outer loop
vertex 4.49138953656283 25.0 5.0
vertex 4.30000000000001 16.1818673559185 5.0
vertex 4.72016261237513 17.4749949109619 5.0
endloop
endfacet
facet normal 0.0 0.0 1.0
outer loop
vertex 4.49138953656283 25.0 5.0
vertex 4.72016261237513 17.4749949109619 5.0
vertex 8.50861046343715 25.0 5.0
endloop
endfacet
facet normal 0.0 0.0 1.0
outer loop
vertex 8.50861046343715 25.0 5.0
vertex 4.72016261237513 17.4749949109619 5.0
vertex 5.82016261237513 18.2741916917678 5.0
endloop
endfacet
facet normal 0.0 0.0 1.0
outer loop
vertex 8.50861046343715 25.0 5.0
vertex 5.82016261237513 18.2741916917678 5.0
vertex 7.17983738762489 18.2741916917678 5.0
endloop
endfacet
facet normal 0.0 0.0 1.0
outer loop
vertex 8.50861046343715 25.0 5.0
vertex 7.17983738762489 18.2741916917678 5.0
vertex 8.27983738762489 17.4749949109619 5.0
endloop
endfacet
facet normal 0.0 0.0 1.0
outer loop
vertex 8.50861046343715 25.0 5.0
vertex 8.27983738762489 17.4749949109619 5.0
vertex 8.70000000000001 16.1818673559185 5.0
endloop
endfacet
facet normal 0.0 0.0 1.0
outer loop
vertex 8.50861046343715 25.0 5.0
vertex 8.70000000000001 16.1818673559185 5.0
vertex 11.7586104634372 27.3612632160174 5.0
endloop
endfacet
facet normal 0.0 0.0 1.0
outer loop
vertex 1.24138953656283 27.3612632160174 13.0
vertex 1.24138953656286 35.0024714958196 13.0
vertex 1.12798659301916e-014 31.1818673559185 13.0
endloop
endfacet
facet normal 0.0 0.0 1.0
outer loop
vertex 1.24138953656286 35.0024714958196 13.0
vertex 1.24138953656283 27.3612632160174 13.0
vertex 4.49138953656283 25.0 13.0
endloop
endfacet
facet normal 0.0 0.0 1.0
outer loop
vertex 1.24138953656286 35.0024714958196 13.0
vertex 4.49138953656283 25.0 13.0
vertex 4.3 31.1818673559185 13.0
endloop
endfacet
facet normal 0.0 0.0 1.0
outer loop
vertex 4.3 31.1818673559185 13.0
vertex 4.49138953656283 25.0 13.0
vertex 4.72016261237513 29.888739800875 13.0
endloop
endfacet
facet normal 0.0 0.0 1.0
outer loop
vertex 4.72016261237513 29.888739800875 13.0
vertex 4.49138953656283 25.0 13.0
vertex 8.50861046343715 25.0 13.0
endloop
endfacet
facet normal 0.0 0.0 1.0
outer loop
vertex 4.72016261237513 29.888739800875 13.0
vertex 8.50861046343715 25.0 13.0
vertex 5.82016261237513 29.0895430200691 13.0
endloop
endfacet
facet normal 0.0 0.0 1.0
outer loop
vertex 5.82016261237513 29.0895430200691 13.0
vertex 8.50861046343715 25.0 13.0
vertex 7.1798373876249 29.0895430200691 13.0
endloop
endfacet
facet normal 0.0 0.0 1.0
outer loop
vertex 7.1798373876249 29.0895430200691 13.0
vertex 8.50861046343715 25.0 13.0
vertex 8.27983738762489 29.8887398008751 13.0
endloop
endfacet
facet normal 0.0 0.0 1.0
outer loop
vertex 8.27983738762489 29.8887398008751 13.0
vertex 8.50861046343715 25.0 13.0
vertex 8.70000000000002 31.1818673559185 13.0
endloop
endfacet
facet normal 0.0 0.0 1.0
outer loop
vertex 8.70000000000002 31.1818673559185 13.0
vertex 8.50861046343715 25.0 13.0
vertex 11.7586104634372 27.3612632160174 13.0
endloop
endfacet
facet normal 0.0 0.0 1.0
outer loop
vertex 4.3 31.1818673559185 13.0
vertex 4.49138953656286 37.363734711837 13.0
vertex 1.24138953656286 35.0024714958196 13.0
endloop
endfacet
facet normal 0.0 0.0 1.0
outer loop
vertex 4.49138953656286 37.363734711837 13.0
vertex 4.3 31.1818673559185 13.0
vertex 4.72016261237513 32.4749949109619 13.0
endloop
endfacet
facet normal 0.0 0.0 1.0
outer loop
vertex 4.49138953656286 37.363734711837 13.0
vertex 4.72016261237513 32.4749949109619 13.0
vertex 8.50861046343717 37.363734711837 13.0
endloop
endfacet
facet normal 0.0 0.0 1.0
outer loop
vertex 8.50861046343717 37.363734711837 13.0
vertex 4.72016261237513 32.4749949109619 13.0
vertex 5.82016261237514 33.2741916917678 13.0
endloop
endfacet
facet normal 0.0 0.0 1.0
outer loop
vertex 8.50861046343717 37.363734711837 13.0
vertex 5.82016261237514 33.2741916917678 13.0
vertex 7.1798373876249 33.2741916917678 13.0
endloop
endfacet
facet normal 0.0 0.0 1.0
outer loop
vertex 8.50861046343717 37.363734711837 13.0
vertex 7.1798373876249 33.2741916917678 13.0
vertex 8.27983738762489 32.4749949109619 13.0
endloop
endfacet
facet normal 0.0 0.0 1.0
outer loop
vertex 8.50861046343717 37.363734711837 13.0
vertex 8.27983738762489 32.4749949109619 13.0
vertex 8.70000000000002 31.1818673559185 13.0
endloop
endfacet
facet normal 0.0 0.0 1.0
outer loop
vertex 8.50861046343717 37.363734711837 13.0
vertex 8.70000000000002 31.1818673559185 13.0
vertex 11.7586104634372 35.0024714958196 13.0
endloop
endfacet
facet normal 0.0 0.0 1.0
outer loop
vertex 11.7586104634372 35.0024714958196 13.0
vertex 8.70000000000002 31.1818673559185 13.0
vertex 11.7586104634372 27.3612632160174 13.0
endloop
endfacet
facet normal 0.0 0.0 1.0
outer loop
vertex 11.7586104634372 35.0024714958196 13.0
vertex 11.7586104634372 27.3612632160174 13.0
vertex 13.0 31.1818673559185 13.0
endloop
endfacet
facet normal -0.951056516295157 -0.309016994374938 -0.0
outer loop
vertex 1.12798659301916e-014 31.1818673559185 13.0
vertex 1.24138953656283 27.3612632160174 5.0
vertex 1.24138953656283 27.3612632160174 13.0
endloop
endfacet
facet normal -0.951056516295157 -0.309016994374938 -0.0
outer loop
vertex 1.24138953656283 27.3612632160174 5.0
vertex 1.12798659301916e-014 31.1818673559185 13.0
vertex 1.12798659301916e-014 31.1818673559185 5.0
endloop
endfacet
facet normal -0.587785252292465 -0.809016994374954 -0.0
outer loop
vertex 4.49138953656283 25.0 13.0
vertex 1.24138953656283 27.3612632160174 5.0
vertex 4.49138953656283 25.0 5.0
endloop
endfacet
facet normal -0.587785252292465 -0.809016994374954 -0.0
outer loop
vertex 1.24138953656283 27.3612632160174 5.0
vertex 4.49138953656283 25.0 13.0
vertex 1.24138953656283 27.3612632160174 13.0
endloop
endfacet
facet normal 1.40393895873784e-015 -1.0 0.0
outer loop
vertex 8.50861046343715 25.0 13.0
vertex 4.49138953656283 25.0 5.0
vertex 8.50861046343715 25.0 5.0
endloop
endfacet
facet normal 1.40393895873784e-015 -1.0 0.0
outer loop
vertex 4.49138953656283 25.0 5.0
vertex 8.50861046343715 25.0 13.0
vertex 4.49138953656283 25.0 13.0
endloop
endfacet
facet normal 0.587785252292469 -0.80901699437495 0.0
outer loop
vertex 11.7586104634372 27.3612632160174 13.0
vertex 8.50861046343715 25.0 5.0
vertex 11.7586104634372 27.3612632160174 5.0
endloop
endfacet
facet normal 0.587785252292469 -0.80901699437495 0.0
outer loop
vertex 8.50861046343715 25.0 5.0
vertex 11.7586104634372 27.3612632160174 13.0
vertex 8.50861046343715 25.0 13.0
endloop
endfacet
facet normal 0.951056516295153 -0.30901699437495 0.0
outer loop
vertex 13.0 31.1818673559185 5.0
vertex 11.7586104634372 27.3612632160174 13.0
vertex 11.7586104634372 27.3612632160174 5.0
endloop
endfacet
facet normal 0.951056516295153 -0.30901699437495 0.0
outer loop
vertex 11.7586104634372 27.3612632160174 13.0
vertex 13.0 31.1818673559185 5.0
vertex 13.0 31.1818673559185 13.0
endloop
endfacet
endsolid Undercarriage Bracket
